<svg width="600" height="350" version="1.1" xmlns="http://www.w3.org/2000/svg"><g><rect x="0" y="0" width="600" height="350" fill="#ffffff" /><g transform="translate(30 30)"><g transform="translate(82 0)"><text x="0" y="0" fill="#000000" font-family="monospace" font-size="15">Total Cost VS Chosen Center (Pt 1)</text></g><g transform="translate(0 20)"><g transform="translate(82 0)"><g class="axis bottom"><text x="229.0" y="256.0" dy="1em" fill="#000000" transform="" text-anchor="middle" font-family="monospace" font-size="15">Center</text><g class="tick"><line x1="114.50" y1="0" x2="114.50" y2="209.0" stroke="#000000" stroke-width="1" /><text x="114.50" y="212.0" dy="1em" fill="#000000" text-anchor="middle" font-family="monospace" font-size="15">500</text></g><g class="tick"><line x1="229.0" y1="0" x2="229.0" y2="209.0" stroke="#000000" stroke-width="1" /><text x="229.0" y="212.0" dy="1em" fill="#000000" text-anchor="middle" font-family="monospace" font-size="15">1000</text></g><g class="tick"><line x1="343.50" y1="0" x2="343.50" y2="209.0" stroke="#000000" stroke-width="1" /><text x="343.50" y="212.0" dy="1em" fill="#000000" text-anchor="middle" font-family="monospace" font-size="15">1500</text></g><g class="tick"><line x1="458" y1="0" x2="458" y2="209.0" stroke="#000000" stroke-width="1" /><text x="458" y="212.0" dy="1em" fill="#000000" text-anchor="middle" font-family="monospace" font-size="15">2000</text></g><g class="tick"><line x1="0" y1="0" x2="0" y2="209.0" stroke="#000000" stroke-width="1" /><text x="0" y="212.0" dy="1em" fill="#000000" text-anchor="middle" font-family="monospace" font-size="15">0</text></g></g><g class="axis left"><text x="-62" y="103.0" dy="" fill="#000000" transform="rotate(270 -62 103)" text-anchor="middle" font-family="monospace" font-size="15">Total Cost (thousands)</text><g class="tick"><line x1="-3" y1="206" x2="458.0" y2="206" stroke="#000000" stroke-width="1" /><text x="-6" y="206" dy="0.32em" fill="#000000" text-anchor="end" font-family="monospace" font-size="15">250</text></g><g class="tick"><line x1="-3" y1="171.6666666666666666666666667" x2="458.0" y2="171.6666666666666666666666667" stroke="#000000" stroke-width="1" /><text x="-6" y="171.6666666666666666666666667" dy="0.32em" fill="#000000" text-anchor="end" font-family="monospace" font-size="15">500</text></g><g class="tick"><line x1="-3" y1="137.3333333333333333333333333" x2="458.0" y2="137.3333333333333333333333333" stroke="#000000" stroke-width="1" /><text x="-6" y="137.3333333333333333333333333" dy="0.32em" fill="#000000" text-anchor="end" font-family="monospace" font-size="15">750</text></g><g class="tick"><line x1="-3" y1="103.0" x2="458.0" y2="103.0" stroke="#000000" stroke-width="1" /><text x="-6" y="103.0" dy="0.32em" fill="#000000" text-anchor="end" font-family="monospace" font-size="15">1000</text></g><g class="tick"><line x1="-3" y1="68.6666666666666666666666667" x2="458.0" y2="68.6666666666666666666666667" stroke="#000000" stroke-width="1" /><text x="-6" y="68.6666666666666666666666667" dy="0.32em" fill="#000000" text-anchor="end" font-family="monospace" font-size="15">1250</text></g><g class="tick"><line x1="-3" y1="34.3333333333333333333333333" x2="458.0" y2="34.3333333333333333333333333" stroke="#000000" stroke-width="1" /><text x="-6" y="34.3333333333333333333333333" dy="0.32em" fill="#000000" text-anchor="end" font-family="monospace" font-size="15">1500</text></g><g class="tick"><line x1="-3" y1="0" x2="458.0" y2="0" stroke="#000000" stroke-width="1" /><text x="-6" y="0" dy="0.32em" fill="#000000" text-anchor="end" font-family="monospace" font-size="15">1750</text></g></g><g><g class="series lines"><path stroke="#e41a1c" fill="none" stroke-width="7" d="M 0 175.3028413333333299609269792 L 0.2290 175.4385266666666632318083430 L 0.458 175.5717400000000003122598476 L 0.6870 175.7044040000000014363952990 L 0.916 175.8356946666666704762368075 L 1.1450 175.9664360000000035597622627 L 1.374 176.0960786666666647306556115 L 1.6030 176.2246226666666696019092342 L 1.832 176.3512439999999986260566705 L 2.0610 176.4767666666666635440681906 L 2.290 176.6011906666666643559437944 L 2.5190 176.7250653333333370179995351 L 2.748 176.8483906666666659172430324 L 2.9770 176.9711666666666666666666667 L 3.206 177.0933933333333314597742477 L 3.4350 177.2156199999999962528818287 L 3.664 177.3367479999999969398534934 L 3.8930 177.4576013333333296486671316 L 4.122 177.5776306666666662295028800 L 4.3510 177.6973853333333348321806019 L 4.58 177.8163159999999995003842438 L 4.8090 177.9333239999999961279778896 L 5.038 178.0492333333333364559318094 L 5.2670 178.1645933333333330210734857 L 5.496 178.2794040000000014363952990 L 5.7250 178.3936653333333338954010590 L 5.954 178.5076519999999983762487924 L 6.1830 178.6208146666666667291186362 L 6.412 178.7331533333333311475144001 L 6.6410 178.8449426666666674160903009 L 6.870 178.9550840000000036222142323 L 7.0990 179.0646760000000038720221104 L 7.328 179.1737186666666681655139352 L 7.5570 179.2811133333333323965537905 L 7.786 179.3879586666666684777737828 L 8.0150 179.4937053333333326463616686 L 8.244 179.5986280000000006869716647 L 8.4730 179.7032760000000007494236343 L 8.702 179.8076493333333328337175772 L 8.9310 179.9109240000000008118756038 L 9.16 180.0133746666666648555595505 L 9.3890 180.1152760000000007494236343 L 9.618 180.2166280000000006869716647 L 9.8470 180.3179800000000006245196952 L 10.076 180.4190573333333325839096991 L 10.3050 180.5198599999999965651416763 L 10.534 180.6203880000000003747118171 L 10.7630 180.7203666666666682279659047 L 10.992 180.8197960000000001249039390 L 11.2210 180.9189506666666640436839468 L 11.450 181.0181053333333357689601447 L 11.6790 181.1169853333333317095821258 L 11.908 181.2153159999999995003842438 L 12.1370 181.3133719999999993130283353 L 12.366 181.4111533333333311475144001 L 12.5950 181.5081106666666668540225752 L 12.824 181.6045186666666666042146971 L 13.0530 181.7003773333333303980907658 L 13.282 181.7959613333333340203049981 L 13.5110 181.8915453333333298360230401 L 13.74 181.9871293333333334582372724 L 13.9690 182.0827133333333370804515046 L 14.198 182.1782973333333328961695467 L 14.4270 182.2730573333333325839096991 L 14.656 182.3669933333333361436719618 L 14.8850 182.4606546666666639187800077 L 15.114 182.5526679999999994379322743 L 15.3430 182.6435826666666630444524344 L 15.572 182.7333986666666703513328684 L 15.8010 182.8226653333333338954010590 L 16.030 182.9116573333333294613112230 L 16.2590 183.0006493333333328337175772 L 16.488 183.0893666666666682279659047 L 16.7170 183.1778093333333356440562056 L 16.946 183.2659773333333350819884799 L 17.1750 183.3535959999999985636047010 L 17.404 183.4406653333333338954010590 L 17.6330 183.5269106666666652927233372 L 17.862 183.6128813333333365183837789 L 18.0910 183.6983026666666639812319772 L 18.32 183.7831746666666632942603125 L 18.5490 183.8674973333333344574687847 L 18.778 183.9515453333333298360230401 L 19.0070 184.0355933333333330210734857 L 19.236 184.1185426666666642934918248 L 19.4650 184.2009426666666674160903009 L 19.694 184.2827933333333345823727238 L 19.9230 184.3646440000000017486551466 L 20.152 184.4456706666666649804634896 L 20.3810 184.5266973333333360187680228 L 20.610 184.6066253333333351444404495 L 20.8390 184.6854546666666701639769599 L 21.068 184.7642839999999973770172801 L 21.2970 184.8422893333333362685759009 L 21.526 184.9197453333333313973222782 L 21.7550 184.9969266666666663544068191 L 21.984 185.0738333333333333333333333 L 22.2130 185.1504653333333323341018210 L 22.442 185.2259986666666672287343924 L 22.6710 185.3009826666666661670509105 L 22.90 185.3751426666666689773895390 L 23.1290 185.4484786666666678532540876 L 23.358 185.5207160000000026229827199 L 23.5870 185.5924040000000014363952990 L 23.816 185.6635426666666642934918248 L 24.0450 185.7341319999999990007684876 L 24.274 185.8036226666666696019092342 L 24.5030 185.8728386666666644183957639 L 24.732 185.9417799999999990632204572 L 24.9610 186.0107213333333337080451505 L 25.190 186.0791133333333323965537905 L 25.4190 186.1464066666666669789265143 L 25.648 186.2123266666666694770052952 L 25.8770 186.2774226666666680406099961 L 26.106 186.3422439999999986260566705 L 26.3350 186.4056919999999971272094020 L 26.564 186.4680413333333315222262172 L 26.7930 186.5295666666666697892651428 L 27.022 186.5905426666666642934918248 L 27.2510 186.6509693333333306478986439 L 27.48 186.7108466666666688524855999 L 27.7090 186.7701746666666632942603125 L 27.938 186.8292279999999975643731886 L 28.1670 186.8880066666666638563280382 L 28.396 186.9467853333333301482828877 L 28.6250 187.0052893333333362685759009 L 28.854 187.0637933333333345823727238 L 29.0830 187.1220226666666649180115201 L 29.312 187.1799773333333350819884799 L 29.5410 187.2373826666666692896493866 L 29.770 187.2942386666666675409942400 L 29.9990 187.3508199999999978141810667 L 30.228 187.4074013333333358938640837 L 30.4570 187.4626093333333340827569676 L 30.686 187.5161693333333322091978819 L 30.9150 187.5691800000000021858189333 L 31.144 187.6219159999999963777857677 L 31.3730 187.6746519999999983762487924 L 31.602 187.7268386666666644183957639 L 31.8310 187.7787506666666702888808989 L 32.06 187.8301133333333323965537905 L 32.2890 187.8812013333333343325648457 L 32.518 187.9317400000000003122598476 L 32.7470 187.9817293333333303356387963 L 32.976 188.0317186666666681655139352 L 33.2050 188.0817079999999981888928839 L 33.434 188.1316973333333360187680228 L 33.6630 188.1811373333333300858309182 L 33.892 188.2305773333333319593900039 L 34.1210 188.2800173333333338329490895 L 34.350 188.3294573333333357065081752 L 34.5790 188.3788973333333297735710706 L 34.808 188.4283373333333316471301562 L 35.0370 188.4772279999999975643731886 L 35.266 188.5261186666666634816162211 L 35.4950 188.5747346666666692271974170 L 35.724 188.6228013333333312099663696 L 35.9530 188.6705933333333330210734857 L 36.182 188.7181106666666668540225752 L 36.4110 188.7650786666666647306556115 L 36.64 188.8120466666666704137848380 L 36.8690 188.8584653333333323341018210 L 37.098 188.9040599999999981264409144 L 37.3270 188.9491053333333357689601447 L 37.556 188.9938759999999976268251582 L 37.7850 189.0378226666666633567122820 L 38.014 189.0814946666666689149375694 L 38.2430 189.1246173333333307103506134 L 38.472 189.1674653333333323341018210 L 38.7010 189.2097639999999980015369753 L 38.930 189.2520626666666636689721296 L 39.1590 189.2940866666666691647454475 L 39.388 189.3352866666666629195484954 L 39.6170 189.3764866666666644808477334 L 39.846 189.4176866666666660421469714 L 40.0750 189.4583373333333316471301562 L 40.304 189.4987133333333370804515046 L 40.5330 189.5385399999999987509606096 L 40.762 189.5778173333333322716498515 L 40.9910 189.6168199999999978141810667 L 41.22 189.6555480000000031850504456 L 41.4490 189.6940013333333327712656076 L 41.678 189.7324546666666701639769599 L 41.9070 189.7709079999999997501921219 L 42.136 189.8088120000000011865874209 L 42.3650 189.8461666666666666666666667 L 42.594 189.8832466666666641685878858 L 42.8230 189.9203266666666694770052952 L 43.052 189.9574066666666669789265143 L 43.2810 189.9944866666666644808477334 L 43.510 190.0312920000000018111071161 L 43.7390 190.0669986666666672287343924 L 43.968 190.1027053333333326463616686 L 44.1970 190.1384119999999980639889448 L 44.426 190.1738440000000033099543846 L 44.6550 190.2090013333333327712656076 L 44.884 190.2441586666666700390730208 L 45.1130 190.2790413333333315222262172 L 45.342 190.3136493333333328337175772 L 45.5710 190.3482573333333341452089371 L 45.8 190.3828653333333354567002971 L 46.0290 190.4174733333333367681916570 L 46.258 190.4512573333333341452089371 L 46.4870 190.4850413333333315222262172 L 46.716 190.5182760000000007494236343 L 46.9450 190.5512360000000019984630247 L 47.174 190.5839213333333352693443885 L 47.4030 190.6166066666666685402257523 L 47.632 190.6490173333333338329490895 L 47.8610 190.6811533333333311475144001 L 48.090 190.7124653333333323341018210 L 48.3190 190.7435026666666655425312153 L 48.548 190.7745399999999987509606096 L 48.7770 190.8055773333333319593900039 L 49.006 190.8360653333333370179995351 L 49.2350 190.8665533333333342701128762 L 49.464 190.8967666666666635440681906 L 49.6930 190.9269800000000006245196952 L 49.922 190.9569186666666697268131732 L 50.1510 190.9868573333333310226104610 L 50.38 191.0167960000000001249039390 L 50.6090 191.0464600000000012490393904 L 50.838 191.0758493333333343950168152 L 51.0670 191.1049639999999995628362134 L 51.296 191.1340786666666647306556115 L 51.5250 191.1629186666666697268131732 L 51.754 191.1914839999999989383165181 L 51.9830 191.21950 L 52.212 191.2469666666666651053674286 L 52.4410 191.2741586666666700390730208 L 52.670 191.3010759999999991881243962 L 52.8990 191.3274440000000001873559086 L 53.128 191.3538120000000011865874209 L 53.3570 191.3796306666666662295028800 L 53.586 191.4043506666666671662824228 L 53.8150 191.4290706666666681030619657 L 54.044 191.4537906666666690398415085 L 54.2730 191.4785106666666699766210513 L 54.502 191.5032306666666631069044039 L 54.7310 191.5274013333333358938640837 L 54.96 191.5512973333333328961695467 L 55.1890 191.5751933333333298984750096 L 55.418 191.5982653333333307728025830 L 55.6470 191.6213373333333316471301562 L 55.876 191.6438599999999965651416763 L 56.1050 191.6658333333333333333333333 L 56.334 191.6875320000000021233669637 L 56.5630 191.7089560000000029352425675 L 56.792 191.7303800000000037471181713 L 57.0210 191.7515293333333365808357485 L 57.250 191.7726786666666694145533256 L 57.4790 191.7932786666666662919548495 L 57.708 191.8138786666666631693563735 L 57.9370 191.8344786666666678532540876 L 58.166 191.8548039999999967524975849 L 58.3950 191.8745799999999975019212191 L 58.624 191.8943559999999982513448534 L 58.8530 191.9141319999999990007684876 L 59.082 191.9333586666666637938760687 L 59.3110 191.9525853333333363934798399 L 59.54 191.9715373333333332084293943 L 59.7690 191.9899400000000018735590856 L 59.998 192.0077933333333345823727238 L 60.2270 192.0253719999999993130283352 L 60.456 192.0429506666666640436839468 L 60.6850 192.0602546666666686026777218 L 60.914 192.0772839999999973770172801 L 61.1430 192.0940386666666659796950019 L 61.372 192.1105186666666666042146971 L 61.6010 192.1269986666666672287343924 L 61.830 192.1432039999999998750960610 L 62.0590 192.1591346666666645432997029 L 62.288 192.1745160000000010616834819 L 62.5170 192.1896226666666696019092342 L 62.746 192.2044546666666701639769599 L 62.9750 192.2190120000000027478866590 L 63.204 192.2332946666666673536383314 L 63.4330 192.2473026666666639812319772 L 63.662 192.2610360000000004371637866 L 63.8910 192.2744946666666689149375694 L 64.12 192.2879533333333295862151620 L 64.3490 192.3011373333333300858309182 L 64.578 192.3140466666666704137848380 L 64.8070 192.3269560000000029352425675 L 65.036 192.3393159999999995003842438 L 65.2650 192.3511266666666679157060571 L 65.494 192.3623880000000003747118171 L 65.7230 192.3733746666666648555595505 L 65.952 192.3840866666666691647454475 L 66.1810 192.3947986666666656674351543 L 66.410 192.4046866666666660421469714 L 66.6390 192.4145746666666664168587886 L 66.868 192.4239133333333308352545525 L 67.0970 192.4332520000000030601465066 L 67.326 192.4417666666666635440681906 L 67.5550 192.4502813333333318344860648 L 67.784 192.4587960000000001249039390 L 68.0130 192.4673106666666684153218133 L 68.242 192.4755506666666687275816609 L 68.4710 192.4837906666666690398415085 L 68.70 192.4917560000000013739433295 L 68.9290 192.4994466666666657298871238 L 69.158 192.5071373333333300858309182 L 69.3870 192.5145533333333342701128762 L 69.616 192.5216946666666704762368075 L 69.8450 192.5282866666666629195484954 L 70.074 192.5348786666666631693563734 L 70.3030 192.5411960000000032475024151 L 70.532 192.5475133333333355191522666 L 70.7610 192.5535559999999998126440914 L 70.990 192.5590493333333359563160532 L 71.2190 192.5631693333333322091978819 L 71.448 192.5670146666666682904178742 L 71.6770 192.5703106666666684153218133 L 71.906 192.5733320000000005620677257 L 72.1350 192.5763533333333327088136381 L 72.364 192.5793746666666648555595505 L 72.5930 192.5823959999999970023054630 L 72.822 192.5854173333333369555475656 L 73.0510 192.5884386666666691022934780 L 73.28 192.5909106666666652927233372 L 73.5090 192.5933826666666692896493866 L 73.738 192.5955799999999975019212191 L 73.9670 192.5977773333333335206892419 L 74.196 192.5999746666666695394572647 L 74.4250 192.6021719999999977517290972 L 74.654 192.6040946666666657923390934 L 74.8830 192.6057426666666658547910629 L 75.112 192.6071159999999979390850058 L 75.3410 192.6079400000000018735590856 L 75.570 192.6087639999999980015369753 L 75.7990 192.6082146666666698517171123 L 76.028 192.6076653333333338954010590 L 76.2570 192.6062920000000018111071161 L 76.486 192.6049186666666697268131732 L 76.7150 192.6032706666666696643612037 L 76.944 192.6016226666666696019092342 L 77.1730 192.5999746666666695394572647 L 77.402 192.5983266666666694770052952 L 77.6310 192.5964040000000014363952990 L 77.86 192.5939319999999974394692496 L 78.0890 192.5914600000000012490393904 L 78.318 192.5887133333333370804515046 L 78.5470 192.5859666666666651053674286 L 78.776 192.5826706666666649804634896 L 79.0050 192.5793746666666648555595505 L 79.234 192.5758039999999967524975849 L 79.4630 192.5711346666666645432997029 L 79.692 192.5664653333333323341018210 L 79.9210 192.5615213333333321467459124 L 80.150 192.5563026666666639812319772 L 80.3790 192.5505346666666676658981790 L 80.608 192.5442173333333353942483276 L 80.8370 192.5379000000000031225984761 L 81.066 192.5315826666666630444524344 L 81.2950 192.5249906666666627946445563 L 81.524 192.5183986666666703513328684 L 81.7530 192.5115320000000021233669637 L 81.982 192.5046653333333338954010590 L 82.2110 192.4977986666666656674351543 L 82.44 192.4906573333333294613112230 L 82.6690 192.4829666666666651053674286 L 82.898 192.4747266666666647931075810 L 83.1270 192.4656626666666683528698438 L 83.356 192.4565986666666641061359163 L 83.5850 192.4469853333333317095821258 L 83.814 192.4370973333333313348703086 L 84.0430 192.4261106666666668540225752 L 84.272 192.4151240000000023731748418 L 84.5010 192.4035880000000019360110552 L 84.730 192.3920520000000014988472685 L 84.9590 192.3802413333333330835254552 L 85.188 192.3684306666666646682036420 L 85.4170 192.3560706666666681030619657 L 85.646 192.3437106666666637314240992 L 85.8750 192.3310759999999991881243962 L 86.104 192.3184413333333346448246933 L 86.3330 192.3058066666666701015249904 L 86.562 192.2928973333333297735710706 L 86.7910 192.2791640000000011241354514 L 87.02 192.2648813333333365183837789 L 87.2490 192.2500493333333359563160532 L 87.478 192.2352173333333353942483276 L 87.7070 192.2203853333333348321806019 L 87.936 192.2055533333333342701128762 L 88.1650 192.1907213333333337080451505 L 88.394 192.1758893333333331459774248 L 88.6230 192.1607826666666646057516724 L 88.852 192.1456760000000038720221104 L 89.0810 192.1302946666666673536383314 L 89.310 192.1140893333333347072766628 L 89.5390 192.0978840000000020609149942 L 89.768 192.0814040000000014363952990 L 89.9970 192.0646493333333328337175772 L 90.226 192.0476199999999962528818287 L 90.4550 192.0305906666666674785422704 L 90.684 192.0132866666666629195484954 L 90.9130 191.9957079999999981888928839 L 91.142 191.9781293333333334582372724 L 91.3710 191.9602760000000007494236343 L 91.6 191.9424226666666680406099961 L 91.8290 191.9242946666666673536383314 L 92.058 191.9061666666666666666666667 L 92.2870 191.8880386666666659796950019 L 92.516 191.8699106666666652927233372 L 92.7450 191.8515079999999966275936458 L 92.974 191.8331053333333357689601447 L 93.2030 191.8147026666666671038304533 L 93.432 191.7960253333333304605427353 L 93.6610 191.7773480000000016237512076 L 93.890 191.7586706666666649804634896 L 94.1190 191.7399933333333361436719618 L 94.348 191.7204920000000033724063542 L 94.5770 191.7007160000000026229827199 L 94.806 191.6809400000000018735590856 L 95.0350 191.6608893333333331459774248 L 95.264 191.6408386666666644183957639 L 95.4930 191.6205133333333355191522666 L 95.722 191.6001879999999988134125791 L 95.9510 191.5793133333333339578530286 L 96.18 191.5584386666666691022934780 L 96.4090 191.5372893333333362685759009 L 96.638 191.5161400000000034348583237 L 96.8670 191.4949906666666627946445563 L 97.096 191.4735666666666697892651428 L 97.3250 191.4521426666666689773895390 L 97.554 191.4307186666666681655139352 L 97.7830 191.4090199999999993754803048 L 98.012 191.3870466666666704137848380 L 98.2410 191.3650733333333336455931809 L 98.470 191.3430999999999968774015239 L 98.6990 191.3208519999999999375480305 L 98.928 191.2986040000000029976945370 L 99.1570 191.2763559999999982513448534 L 99.386 191.2541080000000013114913600 L 99.6150 191.2313106666666684153218133 L 99.844 191.2085133333333355191522666 L 100.0730 191.1857160000000026229827199 L 100.302 191.1626440000000017486551466 L 100.5310 191.1395720000000008743275733 L 100.76 191.11650 L 100.9890 191.0931533333333311475144001 L 101.218 191.0698066666666701015249904 L 101.4470 191.0464600000000012490393904 L 101.676 191.0228386666666644183957639 L 101.9050 190.9989426666666674160903009 L 102.134 190.9744973333333344574687847 L 102.3630 190.9500520000000014988472685 L 102.592 190.9256066666666685402257523 L 102.8210 190.9011613333333355816042361 L 103.050 190.8767160000000026229827199 L 103.2790 190.8522706666666696643612037 L 103.508 190.8278253333333367057396875 L 103.7370 190.8031053333333357689601447 L 103.966 190.7783853333333348321806019 L 104.1950 190.7536653333333338954010590 L 104.424 190.7286706666666649804634896 L 104.6530 190.7036760000000038720221104 L 104.882 190.6784066666666669789265143 L 105.1110 190.6531373333333300858309182 L 105.34 190.6278680000000009992315124 L 105.5690 190.6025986666666641061359163 L 105.798 190.5773293333333350195365104 L 106.0270 190.5520599999999981264409144 L 106.256 190.5267906666666690398415085 L 106.4850 190.5012466666666641685878858 L 106.714 190.4754279999999991256724267 L 106.9430 190.4487853333333301482828877 L 107.172 190.4215933333333330210734857 L 107.4010 190.3944013333333358938640837 L 107.630 190.3672093333333309601584915 L 107.8590 190.3400173333333338329490895 L 108.088 190.3128253333333367057396875 L 108.3170 190.2856333333333317720340953 L 108.546 190.2581666666666666666666667 L 108.7750 190.2307000000000015612992380 L 109.004 190.2032333333333364559318094 L 109.2330 190.1754920000000033724063542 L 109.462 190.1477506666666702888808989 L 109.6910 190.1200093333333372053554437 L 109.92 190.0922679999999963153337982 L 110.1490 190.0645266666666632318083430 L 110.378 190.0367853333333301482828877 L 110.6070 190.0090439999999970647574325 L 110.836 189.9813026666666639812319772 L 111.0650 189.9535613333333308977065220 L 111.294 189.9255453333333298360230401 L 111.5230 189.8975293333333365808357485 L 111.752 189.8695133333333355191522666 L 111.9810 189.8414973333333344574687847 L 112.210 189.8134813333333333957853029 L 112.4390 189.7854653333333323341018210 L 112.668 189.7574493333333312724183391 L 112.8970 189.7288840000000020609149942 L 113.126 189.7000439999999970647574325 L 113.3550 189.6712039999999998750960610 L 113.584 189.6420893333333347072766628 L 113.8130 189.6129746666666695394572647 L 114.042 189.5838599999999965651416763 L 114.2710 189.5547453333333313973222782 L 114.50 189.5253559999999982513448534 L 114.7290 189.4959666666666651053674286 L 114.958 189.4665773333333319593900039 L 115.1870 189.4371879999999988134125791 L 115.416 189.4075239999999976892771277 L 115.6450 189.3778599999999965651416763 L 115.874 189.3476466666666672911863619 L 116.1030 189.3174333333333302107348572 L 116.332 189.2872200000000009367795428 L 116.5610 189.2564573333333357065081752 L 116.790 189.2256946666666704762368075 L 117.0190 189.1946573333333294613112230 L 117.248 189.1636199999999962528818287 L 117.4770 189.1323080000000028727905980 L 117.706 189.1007213333333337080451505 L 117.9350 189.0688599999999965651416763 L 118.164 189.0367239999999992505763657 L 118.3930 189.0045880000000019360110552 L 118.622 188.9719026666666686651296914 L 118.8510 188.9389426666666674160903009 L 119.08 188.9059826666666661670509105 L 119.3090 188.8727479999999969398534934 L 119.538 188.8386893333333315846781867 L 119.7670 188.8043559999999982513448534 L 119.996 188.7694733333333367681916570 L 120.2250 188.7345906666666674785422704 L 120.454 188.6994333333333302107348572 L 120.6830 188.6642760000000007494236343 L 120.912 188.6285693333333353317963580 L 121.1410 188.5928626666666699141690818 L 121.370 188.5568813333333365183837789 L 121.5990 188.5206253333333351444404495 L 121.828 188.4840946666666657923390934 L 122.0570 188.4472893333333362685759009 L 122.286 188.4102093333333309601584915 L 122.5150 188.3728546666666654800792458 L 122.744 188.3352253333333320218419734 L 122.9730 188.2975959999999985636047010 L 123.202 188.2596919999999971272094020 L 123.4310 188.2215133333333355191522666 L 123.66 188.1830599999999981264409144 L 123.8890 188.1446066666666685402257523 L 124.118 188.1061533333333311475144001 L 124.3470 188.0674253333333335831412114 L 124.576 188.0281480000000000624519695 L 124.8050 187.9888706666666665417627276 L 125.034 187.9493186666666650429154591 L 125.2630 187.9094920000000033724063542 L 125.492 187.8693906666666659172430324 L 125.7210 187.8292893333333362685759009 L 125.950 187.7891879999999988134125791 L 126.1790 187.7490866666666691647454475 L 126.408 187.7089853333333317095821258 L 126.6370 187.6688840000000020609149942 L 126.866 187.6285079999999966275936458 L 127.0950 187.5878573333333310226104610 L 127.324 187.5472066666666654176272762 L 127.5530 187.5062813333333318344860648 L 127.782 187.4648066666666701015249904 L 128.0110 187.4233320000000005620677257 L 128.24 187.3813080000000028727905980 L 128.4690 187.3390093333333372053554437 L 128.698 187.2967106666666637314240991 L 128.9270 187.2541373333333300858309182 L 129.156 187.2115639999999964402377373 L 129.3850 187.1689906666666627946445563 L 129.614 187.1264173333333369555475656 L 129.8430 187.0838440000000033099543846 L 130.072 187.0409960000000016862031771 L 130.3010 186.9981480000000000624519695 L 130.530 186.9552999999999984387007620 L 130.7590 186.9121773333333366432877180 L 130.988 186.8685053333333310850624306 L 131.2170 186.8248333333333333333333333 L 131.446 186.7811613333333355816042361 L 131.6750 186.7372146666666698517171123 L 131.904 186.6929933333333361436719618 L 132.1330 186.6484973333333344574687847 L 132.362 186.6040013333333327712656076 L 132.5910 186.5595053333333310850624306 L 132.82 186.5147346666666692271974170 L 133.0490 186.4699639999999995628362134 L 133.278 186.4251933333333298984750096 L 133.5070 186.3798733333333320842939429 L 133.736 186.3345533333333342701128762 L 133.9650 186.2892333333333364559318094 L 134.194 186.2433640000000026854346894 L 134.4230 186.1972200000000009367795428 L 134.652 186.1510759999999991881243962 L 134.8810 186.1046573333333294613112230 L 135.110 186.0582386666666675409942400 L 135.3390 186.0118199999999978141810667 L 135.568 185.9648519999999999375480305 L 135.7970 185.9178840000000020609149942 L 136.026 185.8706413333333362061239313 L 136.2550 185.8228493333333343950168152 L 136.484 185.7750573333333325839096991 L 136.7130 185.7272653333333307728025830 L 136.942 185.6789240000000008118756038 L 137.1710 185.6303080000000028727905980 L 137.4 185.5814173333333369555475656 L 137.6290 185.5322520000000030601465066 L 137.858 185.4830866666666691647454475 L 138.0870 185.4339213333333352693443885 L 138.316 185.3842066666666654176272762 L 138.5450 185.3336679999999994379322743 L 138.774 185.2828546666666654800792458 L 139.0030 185.2312173333333353942483276 L 139.232 185.1795799999999975019212191 L 139.4610 185.1279426666666674160903009 L 139.690 185.0760306666666693521013561 L 139.9190 185.0238440000000033099543846 L 140.148 184.9716573333333294613112230 L 140.3770 184.9194706666666634191642515 L 140.606 184.8672839999999973770172801 L 140.8350 184.8150973333333313348703086 L 141.064 184.7629106666666652927233372 L 141.2930 184.7107239999999992505763657 L 141.522 184.6585373333333332084293943 L 141.7510 184.6063506666666671662824228 L 141.98 184.5538893333333331459774248 L 142.2090 184.5014279999999991256724267 L 142.438 184.4484173333333369555475656 L 142.6670 184.3951319999999990007684876 L 142.896 184.3415720000000008743275733 L 143.1250 184.2877373333333347697286323 L 143.354 184.2339026666666686651296914 L 143.5830 184.1800680000000025605307504 L 143.812 184.1259586666666684777737828 L 144.0410 184.0718493333333343950168152 L 144.270 184.0177400000000003122598476 L 144.4990 183.9630813333333302731868268 L 144.728 183.9084226666666680406099961 L 144.9570 183.8537639999999980015369753 L 145.186 183.7991053333333357689601447 L 145.4150 183.7438973333333297735710706 L 145.644 183.6884146666666636065201601 L 145.8730 183.6329319999999974394692496 L 146.102 183.5771746666666632942603125 L 146.3310 183.5214173333333369555475656 L 146.56 183.4656600000000028103386285 L 146.7890 183.4096280000000006869716647 L 147.018 183.3535959999999985636047010 L 147.2470 183.2972893333333362685759009 L 147.476 183.2407079999999981888928839 L 147.7050 183.1838519999999999375480305 L 147.934 183.1267213333333337080451505 L 148.1630 183.0695906666666674785422704 L 148.392 183.0119106666666652927233372 L 148.6210 182.9536813333333349570845409 L 148.850 182.8954519999999968149495544 L 149.0790 182.8372226666666664793107581 L 149.308 182.7789933333333361436719618 L 149.5370 182.7204893333333300233789487 L 149.766 182.6619853333333317095821258 L 149.9950 182.6034813333333333957853029 L 150.224 182.5449773333333350819884799 L 150.4530 182.4864733333333367681916570 L 150.682 182.4279693333333306478986439 L 150.9110 182.3694653333333323341018210 L 151.14 182.3109613333333340203049981 L 151.3690 182.2524573333333357065081752 L 151.598 182.1936786666666694145533256 L 151.8270 182.1346253333333351444404495 L 152.056 182.0755720000000008743275733 L 152.2850 182.0165186666666666042146971 L 152.514 181.9574653333333323341018210 L 152.7430 181.8978626666666699141690818 L 152.972 181.8382599999999996877401524 L 153.2010 181.7786573333333294613112230 L 153.430 181.7187799999999990632204572 L 153.6590 181.6589026666666686651296914 L 153.888 181.5987506666666702888808989 L 154.1170 181.5385986666666641061359163 L 154.346 181.4784466666666657298871238 L 154.5750 181.4180199999999993754803048 L 154.804 181.3575933333333330210734857 L 155.0330 181.2971666666666666666666667 L 155.262 181.2367400000000003122598476 L 155.4910 181.1763133333333339578530286 L 155.72 181.1156119999999996252881829 L 155.9490 181.0549106666666652927233372 L 156.178 180.9942093333333309601584915 L 156.4070 180.9335079999999966275936458 L 156.636 180.8728066666666701015249904 L 156.8650 180.8121053333333357689601447 L 157.094 180.7514040000000014363952990 L 157.3230 180.6907026666666671038304533 L 157.552 180.6300013333333327712656076 L 157.7810 180.5687506666666702888808989 L 158.010 180.50750 L 158.2390 180.4462493333333297111191011 L 158.468 180.3847239999999992505763657 L 158.6970 180.3231986666666687900336304 L 158.926 180.2616733333333305229947049 L 159.1550 180.1998733333333320842939429 L 159.384 180.1377986666666656674351543 L 159.6130 180.0754493333333312724183391 L 159.842 180.0125506666666687275816609 L 160.0710 179.9493773333333303980907658 L 160.30 179.8862039999999998750960610 L 160.5290 179.8230306666666693521013561 L 160.758 179.7598573333333310226104610 L 160.9870 179.6964093333333325214577296 L 161.216 179.6329613333333340203049981 L 161.4450 179.5695133333333355191522666 L 161.674 179.5060653333333370179995351 L 161.9030 179.4423426666666705386887770 L 162.132 179.3786199999999962528818287 L 162.3610 179.3148973333333297735710706 L 162.590 179.2509000000000031225984761 L 162.8190 179.1860786666666647306556115 L 163.048 179.1209826666666661670509105 L 163.2770 179.0558866666666676034462095 L 163.506 178.9902413333333330835254552 L 163.7350 178.9243213333333305854466744 L 163.964 178.8584013333333358938640837 L 164.1930 178.7922066666666654176272762 L 164.422 178.7254626666666667915706057 L 164.6510 178.6587186666666681655139352 L 164.88 178.5908759999999976268251582 L 165.1090 178.5230333333333348946325714 L 165.338 178.4549159999999963777857677 L 165.5670 178.3867986666666656674351543 L 165.796 178.3184066666666669789265143 L 166.0250 178.2497400000000003122598476 L 166.254 178.1810733333333336455931809 L 166.4830 178.1124066666666669789265143 L 166.712 178.0437400000000003122598476 L 166.9410 177.9750733333333336455931809 L 167.170 177.9064066666666669789265143 L 167.3990 177.8377400000000003122598476 L 167.628 177.7690733333333336455931809 L 167.8570 177.7004066666666669789265143 L 168.086 177.6317400000000003122598476 L 168.3150 177.5627986666666656674351543 L 168.544 177.4935826666666630444524344 L 168.7730 177.4243666666666682279659047 L 169.002 177.3551506666666656049831848 L 169.2310 177.2859346666666629820004649 L 169.46 177.2167186666666681655139352 L 169.6890 177.1475026666666655425312153 L 169.918 177.0780120000000027478866590 L 170.1470 177.0082466666666641685878858 L 170.376 176.9379319999999974394692496 L 170.6050 176.8673426666666705386887770 L 170.834 176.7967533333333358314121142 L 171.0630 176.7258893333333331459774248 L 171.292 176.6550253333333304605427353 L 171.5210 176.5838866666666676034462095 L 171.750 176.5121986666666687900336304 L 171.9790 176.4405106666666699766210513 L 172.208 176.3688226666666633567122820 L 172.4370 176.2971346666666645432997029 L 172.666 176.2251719999999977517290972 L 172.8950 176.1529346666666629820004649 L 173.124 176.0806973333333360187680228 L 173.3530 176.0081853333333332708813638 L 173.582 175.9356733333333305229947049 L 173.8110 175.8631613333333355816042361 L 174.04 175.7906493333333328337175772 L 174.2690 175.7178626666666699141690818 L 174.498 175.6448013333333312099663696 L 174.7270 175.5717400000000003122598476 L 174.956 175.4986786666666694145533256 L 175.1850 175.4256173333333307103506134 L 175.414 175.3525559999999998126440914 L 175.6430 175.2789453333333329586215162 L 175.872 175.2053346666666661045989410 L 176.1010 175.1317239999999992505763657 L 176.330 175.0581133333333323965537905 L 176.5590 174.9845026666666655425312153 L 176.788 174.9108919999999986885086400 L 177.0170 174.8372813333333318344860648 L 177.246 174.7633959999999970023054630 L 177.4750 174.6895106666666699766210513 L 177.704 174.6156253333333351444404495 L 177.9330 174.5417400000000003122598476 L 178.162 174.4678546666666654800792458 L 178.3910 174.3936946666666704762368075 L 178.62 174.3192599999999996877401524 L 178.8490 174.2448253333333367057396875 L 179.078 174.1703906666666659172430324 L 179.3070 174.0959560000000029352425675 L 179.536 174.0215213333333321467459124 L 179.7650 173.9470866666666691647454475 L 179.994 173.8723773333333303980907658 L 180.2230 173.7973933333333314597742477 L 180.452 173.7221346666666645432997029 L 180.6810 173.6468759999999976268251582 L 180.910 173.5710680000000025605307504 L 181.1390 173.4952599999999996877401524 L 181.368 173.4191773333333366432877180 L 181.5970 173.3430946666666657923390934 L 181.826 173.2670120000000027478866590 L 182.0550 173.1909293333333318969380343 L 182.284 173.1148466666666688524855999 L 182.5130 173.0387639999999980015369753 L 182.742 172.9626813333333349570845409 L 182.9710 172.8865986666666641061359163 L 183.2 172.8102413333333330835254552 L 183.4290 172.7336093333333340827569676 L 183.658 172.6569773333333350819884799 L 183.8870 172.5803453333333360812199923 L 184.116 172.5037133333333370804515046 L 184.3450 172.4270813333333302731868268 L 184.574 172.3499000000000031225984761 L 184.8030 172.2727186666666681655139352 L 185.032 172.1955373333333332084293943 L 185.2610 172.1183559999999982513448534 L 185.490 172.0411746666666632942603125 L 185.7190 171.9639933333333361436719618 L 185.948 171.8868120000000011865874209 L 186.1770 171.8093559999999982513448534 L 186.406 171.7319000000000031225984761 L 186.6350 171.6544440000000001873559086 L 186.864 171.5769879999999972521133410 L 187.0930 171.4992573333333341452089371 L 187.322 171.4215266666666632318083430 L 187.5510 171.3437960000000001249039390 L 187.78 171.2660653333333370179995351 L 188.0090 171.1883346666666661045989410 L 188.238 171.1106040000000029976945370 L 188.4670 171.0328733333333320842939429 L 188.696 170.9551426666666689773895390 L 188.9250 170.8771373333333300858309182 L 189.154 170.7988573333333310226104610 L 189.3830 170.7203026666666639812319772 L 189.612 170.6417479999999969398534934 L 189.8410 170.5629186666666697268131732 L 190.070 170.4835399999999987509606096 L 190.2990 170.4041613333333355816042361 L 190.528 170.3247826666666646057516724 L 190.7570 170.2451293333333334582372724 L 190.986 170.1652013333333343325648457 L 191.2150 170.0852733333333352068924190 L 191.444 170.0053453333333360812199923 L 191.6730 169.9254173333333369555475656 L 191.902 169.8454893333333378298751389 L 192.1310 169.7655613333333387042027122 L 192.36 169.6853586666666637938760687 L 192.5890 169.6043319999999927555715355 L 192.818 169.5233053333333373302593827 L 193.0470 169.4422786666666662919548495 L 193.276 169.3612519999999952536503164 L 193.5050 169.2799506666666640436839468 L 193.734 169.1986493333333328337175772 L 193.9630 169.1170733333333258390969907 L 194.192 169.0354973333333344574687847 L 194.4210 168.9539213333333274628481983 L 194.650 168.8723453333333360812199923 L 194.8790 168.7904946666666689149375694 L 195.108 168.7086440000000017486551466 L 195.3370 168.6267933333333345823727238 L 195.566 168.5446680000000072444284645 L 195.7950 168.4625426666666642934918248 L 196.024 168.3801426666666611708933488 L 196.2530 168.2977426666666736612872531 L 196.482 168.2150679999999947540345602 L 196.7110 168.1323933333333314597742477 L 196.94 168.0497186666666681655139352 L 197.1690 167.9670440000000048712536227 L 197.398 167.8843693333333259640009298 L 197.6270 167.8014200000000024980787809 L 197.856 167.7184706666666634191642515 L 198.0850 167.6355213333333399532421026 L 198.314 167.5525720000000008743275733 L 198.5430 167.4696226666666617954130440 L 198.772 167.3866733333333383294908951 L 199.0010 167.3034493333333390789145294 L 199.230 167.2202253333333398283381636 L 199.4590 167.1367266666666647931075810 L 199.688 167.0532280000000053708693789 L 199.9170 166.9691799999999943793227430 L 200.146 166.8851319999999990007684876 L 200.3750 166.8002600000000074942363426 L 200.604 166.7153880000000003747118171 L 200.8330 166.6302413333333330835254552 L 201.062 166.5450946666666657923390934 L 201.2910 166.4599479999999985011527315 L 201.52 166.3748013333333312099663696 L 201.7490 166.2893800000000037471181713 L 201.978 166.2039586666666606712775926 L 202.2070 166.1179879999999972521133410 L 202.436 166.0320173333333338329490895 L 202.6650 165.9460466666666704137848380 L 202.894 165.8598013333333312099663696 L 203.1230 165.7735560000000076191402816 L 203.352 165.6873106666666684153218133 L 203.5810 165.6010653333333292115033449 L 203.810 165.5148200000000056206772570 L 204.0390 165.4283000000000062451969522 L 204.268 165.3417800000000068697166474 L 204.4970 165.2552600000000074942363426 L 204.726 165.1684653333333323341018210 L 204.9550 165.0816706666666727869596798 L 205.184 164.9948759999999976268251582 L 205.4130 164.9080813333333380796830170 L 205.642 164.8212866666666629195484954 L 205.8710 164.7342173333333275877521373 L 206.10 164.6471479999999922559557793 L 206.3290 164.5598039999999967524975849 L 206.558 164.4724600000000012490393904 L 206.7870 164.3848413333333299609269792 L 207.016 164.2972226666666742858069483 L 207.2450 164.2096040000000029976945370 L 207.474 164.1219853333333317095821258 L 207.7030 164.0343666666666604214697145 L 207.932 163.9467480000000047463496836 L 208.1610 163.8591293333333334582372724 L 208.390 163.7715106666666621701248611 L 208.6190 163.6833426666666705386887770 L 208.848 163.5951746666666632942603125 L 209.0770 163.5070066666666716628242284 L 209.306 163.4188386666666644183957639 L 209.5350 163.3306706666666727869596798 L 209.764 163.2425026666666655425312153 L 209.9930 163.1543346666666739110951312 L 210.222 163.0658920000000064950048303 L 210.4510 162.9769000000000031225984761 L 210.68 162.8879079999999997501921219 L 210.9090 162.7986413333333362061239313 L 211.138 162.7093746666666726620557408 L 211.3670 162.6198333333333333333333333 L 211.596 162.5302919999999940046109259 L 211.8250 162.4407506666666702888808989 L 212.054 162.3512093333333309601584915 L 212.2830 162.2613933333333314597742477 L 212.512 162.1715773333333319593900039 L 212.7410 162.0814866666666722873439236 L 212.970 161.9913959999999970023054630 L 213.1990 161.9013053333333373302593827 L 213.428 161.8112146666666620452209221 L 213.6570 161.7211240000000023731748418 L 213.886 161.6310333333333270881363812 L 214.1150 161.5409426666666674160903009 L 214.344 161.4508520000000077440442207 L 214.5730 161.3604866666666722873439236 L 214.802 161.2701213333333368306436265 L 215.0310 161.1797560000000013739433295 L 215.26 161.0893906666666659172430324 L 215.4890 160.9990253333333304605427353 L 215.718 160.9081106666666590475263850 L 215.9470 160.8171960000000032475024151 L 216.176 160.7260066666666716628242284 L 216.4050 160.6348173333333400781460417 L 216.634 160.5433533333333327088136381 L 216.8630 160.4518893333333409524736150 L 217.092 160.3604253333333335831412114 L 217.3210 160.2686866666666660421469714 L 217.550 160.1769479999999985011527315 L 217.7790 160.0852093333333309601584915 L 218.008 159.9934706666666634191642515 L 218.2370 159.9017319999999958781700116 L 218.466 159.8099933333333283371757716 L 218.6950 159.7182546666666607961815316 L 218.924 159.6265159999999932551872917 L 219.1530 159.5345026666666655425312153 L 219.382 159.4416653333333260889048688 L 219.6110 159.3488280000000022482709028 L 219.84 159.2557160000000026229827199 L 220.0690 159.1626040000000029976945370 L 220.298 159.0694920000000033724063542 L 220.5270 158.9763800000000037471181713 L 220.756 158.8832680000000041218299884 L 220.9850 158.7901560000000044965418056 L 221.214 158.6970440000000048712536227 L 221.4430 158.6039320000000052459654398 L 221.672 158.5105453333333298360230401 L 221.9010 158.4171586666666700390730208 L 222.130 158.3237719999999946291306211 L 222.3590 158.2303853333333348321806019 L 222.588 158.1367239999999992505763657 L 222.8170 158.0427880000000034973102932 L 223.046 157.9488520000000077440442207 L 223.2750 157.8549159999999963777857677 L 223.504 157.7607053333333404528578588 L 223.7330 157.6664946666666689149375694 L 223.962 157.5722839999999973770172801 L 224.1910 157.4780733333333258390969907 L 224.42 157.3838626666666699141690818 L 224.6490 157.2896519999999983762487924 L 224.878 157.1951666666666666666666667 L 225.1070 157.1006813333333349570845409 L 225.336 157.0061960000000032475024151 L 225.5650 156.9117106666666715379202894 L 225.794 156.8172253333333398283381636 L 226.0230 156.7224653333333323341018210 L 226.252 156.6277053333333404528578588 L 226.4810 156.5329453333333329586215162 L 226.710 156.4381853333333410773775540 L 226.9390 156.3434253333333335831412114 L 227.168 156.2483906666666659172430324 L 227.3970 156.1533559999999982513448534 L 227.626 156.0580466666666704137848380 L 227.8550 155.9627373333333269632324421 L 228.084 155.8671533333333389540105903 L 228.3130 155.7715693333333353317963580 L 228.542 155.6759853333333317095821258 L 228.7710 155.5801266666666679157060571 L 229.0 155.4842680000000041218299884 L 229.2290 155.3884093333333403279539198 L 229.458 155.2920013333333405777617978 L 229.6870 155.1955933333333408275696760 L 229.916 155.0991853333333410773775540 L 230.1450 155.0027773333333257141930517 L 230.374 154.9052706666666696643612037 L 230.6030 154.8077639999999980015369753 L 230.832 154.7097080000000059953890741 L 231.0610 154.6113773333333382045869560 L 231.290 154.5130466666666704137848380 L 231.5190 154.4147160000000026229827199 L 231.748 154.3163853333333348321806019 L 231.9770 154.2180546666666670413784838 L 232.206 154.1197239999999992505763657 L 232.4350 154.0213933333333314597742477 L 232.664 153.9230626666666636689721296 L 232.8930 153.8247319999999958781700116 L 233.122 153.7258520000000077440442207 L 233.3510 153.6269720000000039969260494 L 233.58 153.5280920000000002498078781 L 233.8090 153.4292119999999965026897068 L 234.038 153.3303319999999927555715355 L 234.2670 153.2311773333333288367915278 L 234.496 153.1317480000000047463496836 L 234.7250 153.0317693333333290865994059 L 234.954 152.9317906666666690398415085 L 235.1830 152.8318119999999933800912307 L 235.412 152.7318333333333333333333333 L 235.6410 152.6318546666666732865754360 L 235.870 152.5318759999999976268251582 L 236.0990 152.4318973333333375800672608 L 236.328 152.3319186666666619203169830 L 236.5570 152.2319400000000018735590856 L 236.786 152.1316866666666660421469714 L 237.0150 152.0314333333333302107348572 L 237.244 151.9311799999999943793227430 L 237.4730 151.8309266666666741609030093 L 237.702 151.7306733333333383294908951 L 237.9310 151.6301453333333267134245640 L 238.16 151.5296173333333307103506134 L 238.3890 151.4290893333333347072766628 L 238.618 151.3285613333333387042027122 L 238.8470 151.2280333333333270881363812 L 239.076 151.1275053333333310850624306 L 239.3050 151.0269773333333350819884799 L 239.534 150.9264493333333390789145294 L 239.7630 150.8259213333333274628481983 L 239.992 150.7253933333333314597742477 L 240.2210 150.6248653333333354567002971 L 240.450 150.5243373333333394536263465 L 240.6790 150.4235346666666676658981790 L 240.908 150.3224573333333357065081752 L 241.1370 150.2211053333333279624639545 L 241.366 150.1197533333333358314121142 L 241.5950 150.0181266666666679157060571 L 241.824 149.91650 L 242.0530 149.8148733333333320842939429 L 242.282 149.7129720000000039969260494 L 242.5110 149.6107960000000001249039390 L 242.74 149.5086199999999962528818287 L 242.9690 149.4061693333333322091978819 L 243.198 149.3037186666666681655139352 L 243.4270 149.2012680000000041218299884 L 243.656 149.0988173333333400781460417 L 243.8850 148.9960920000000002498078781 L 244.114 148.8933666666666604214697145 L 244.3430 148.7906413333333362061239313 L 244.572 148.6876413333333362061239313 L 244.8010 148.5846413333333362061239313 L 245.030 148.4816413333333362061239313 L 245.2590 148.3786413333333362061239313 L 245.488 148.2756413333333362061239313 L 245.7170 148.1718173333333400781460417 L 245.946 148.0674439999999923808597184 L 246.1750 147.9630706666666602965657755 L 246.404 147.8586973333333282122718326 L 246.6330 147.7543239999999961279778896 L 246.862 147.6496760000000038720221104 L 247.0910 147.5444786666666600467578974 L 247.32 147.4392813333333318344860648 L 247.5490 147.3340840000000036222142323 L 247.778 147.2288866666666597969500193 L 248.0070 147.1236893333333315846781867 L 248.236 147.0184920000000033724063542 L 248.4650 146.9132946666666595471421412 L 248.694 146.8080973333333313348703086 L 248.9230 146.7029000000000031225984761 L 249.152 146.5974279999999991256724267 L 249.3810 146.4919559999999951287463773 L 249.610 146.3864840000000067448127083 L 249.8390 146.2810120000000027478866590 L 250.068 146.1755399999999987509606096 L 250.2970 146.0700679999999947540345602 L 250.526 145.9643213333333305854466744 L 250.7550 145.8583000000000062451969522 L 250.984 145.7522786666666662919548495 L 251.2130 145.6459826666666661670509105 L 251.442 145.5396866666666660421469714 L 251.6710 145.4331160000000057455811960 L 251.90 145.3265453333333298360230401 L 252.1290 145.2196999999999937548030478 L 252.358 145.1125799999999975019212191 L 252.5870 145.0051853333333410773775540 L 252.816 144.8977906666666690398415085 L 253.0450 144.7901213333333368306436265 L 253.274 144.6824520000000046214457446 L 253.5030 144.5745079999999966275936458 L 253.732 144.4665640000000042467339275 L 253.9610 144.3583453333333360812199923 L 254.190 144.2501266666666679157060571 L 254.4190 144.1419079999999997501921219 L 254.648 144.0336893333333315846781867 L 254.8770 143.9254706666666634191642515 L 255.106 143.8172519999999952536503164 L 255.3350 143.7090333333333270881363812 L 255.564 143.6008146666666589226224460 L 255.7930 143.4925960000000063701008912 L 256.022 143.3841026666666624199327392 L 256.2510 143.2756093333333340827569676 L 256.48 143.1671160000000057455811960 L 256.7090 143.0586226666666617954130440 L 256.938 142.9501293333333334582372724 L 257.1670 142.8416360000000051210615008 L 257.396 142.7331426666666611708933488 L 257.6250 142.6240999999999968774015239 L 257.854 142.5147826666666724122478627 L 258.0830 142.4054653333333323341018210 L 258.312 142.2961479999999922559557793 L 258.5410 142.1868306666666677908021181 L 258.770 142.0775133333333277126560764 L 258.9990 141.9681960000000032475024151 L 259.228 141.8586040000000029976945370 L 259.4570 141.7487373333333269632324421 L 259.686 141.6388706666666665417627276 L 259.9150 141.5290040000000061202930131 L 260.144 141.4191373333333300858309182 L 260.3730 141.3089959999999938797069869 L 260.602 141.1988546666666732865754360 L 260.8310 141.0887133333333370804515046 L 261.06 140.9785720000000008743275733 L 261.2890 140.8684306666666646682036420 L 261.518 140.7582893333333284620797106 L 261.7470 140.6481479999999922559557793 L 261.976 140.5380066666666716628242284 L 262.2050 140.4278653333333354567002971 L 262.434 140.3177239999999992505763657 L 262.6630 140.2075826666666630444524344 L 262.892 140.0971666666666666666666667 L 263.1210 139.9864759999999945042266821 L 263.350 139.8757853333333379547790779 L 263.5790 139.7650946666666657923390934 L 263.808 139.6544039999999936298991088 L 264.0370 139.5437133333333370804515046 L 264.266 139.4330226666666649180115201 L 264.4950 139.3223319999999927555715355 L 264.724 139.2116413333333362061239313 L 264.9530 139.1009506666666640436839468 L 265.182 138.9902600000000074942363426 L 265.4110 138.8792946666666595471421412 L 265.64 138.7680546666666670413784838 L 265.8690 138.6565399999999987509606096 L 266.098 138.5450253333333304605427353 L 266.3270 138.4335106666666621701248611 L 266.556 138.3219959999999938797069869 L 266.7850 138.2104813333333255892891126 L 267.014 138.0989666666666729118636188 L 267.2430 137.9874520000000046214457446 L 267.472 137.8759373333333363310278704 L 267.7010 137.7644226666666680406099961 L 267.930 137.6529079999999997501921219 L 268.1590 137.5413933333333314597742477 L 268.388 137.4298786666666631693563735 L 268.6170 137.3180893333333347072766628 L 268.846 137.2063000000000062451969522 L 269.0750 137.0945106666666621701248611 L 269.304 136.9827213333333337080451505 L 269.5330 136.8709320000000052459654398 L 269.762 136.7591426666666611708933488 L 269.9910 136.6473533333333327088136381 L 270.22 136.5355640000000042467339275 L 270.4490 136.4237746666666601716618364 L 270.678 136.3119853333333317095821258 L 270.9070 136.2001960000000032475024151 L 271.136 136.0884066666666591724303240 L 271.3650 135.9766173333333307103506134 L 271.594 135.8648280000000022482709028 L 271.8230 135.7530386666666737861911921 L 272.052 135.6412493333333297111191011 L 272.2810 135.5289106666666652927233372 L 272.510 135.4165720000000008743275733 L 272.7390 135.3042333333333364559318094 L 272.968 135.1918946666666720375360455 L 273.1970 135.0795560000000076191402816 L 273.426 134.9672173333333275877521373 L 273.6550 134.8548786666666631693563735 L 273.884 134.7425399999999987509606096 L 274.1130 134.6302013333333343325648457 L 274.342 134.5178626666666699141690818 L 274.5710 134.4055240000000054957733179 L 274.8 134.2931853333333410773775540 L 275.0290 134.1808466666666610459894097 L 275.258 134.0685079999999966275936458 L 275.4870 133.9561693333333322091978819 L 275.716 133.8438306666666677908021181 L 275.9450 133.7314920000000033724063542 L 276.174 133.6191533333333389540105903 L 276.4030 133.5068146666666589226224460 L 276.632 133.3944759999999945042266821 L 276.8610 133.2818626666666699141690818 L 277.090 133.1692493333333297111191011 L 277.3190 133.0566360000000051210615008 L 277.548 132.9440226666666649180115201 L 277.7770 132.8314093333333403279539198 L 278.006 132.7185213333333399532421026 L 278.2350 132.6056333333333395785302855 L 278.464 132.4927453333333392038184684 L 278.6930 132.3798573333333388291066512 L 278.922 132.2669693333333384543948341 L 279.1510 132.1540813333333380796830170 L 279.38 132.0411933333333377049711999 L 279.6090 131.9283053333333373302593827 L 279.838 131.8154173333333369555475656 L 280.0670 131.7025293333333365808357485 L 280.296 131.5896413333333362061239313 L 280.5250 131.4767533333333358314121142 L 280.754 131.3638653333333354567002971 L 280.9830 131.2509773333333350819884799 L 281.212 131.1380893333333347072766628 L 281.4410 131.0252013333333343325648457 L 281.670 130.9123133333333339578530286 L 281.8990 130.7994253333333335831412114 L 282.128 130.6865373333333332084293943 L 282.3570 130.5736493333333328337175772 L 282.586 130.4607613333333324590057600 L 282.8150 130.3478733333333320842939429 L 283.044 130.2349853333333317095821258 L 283.2730 130.1218226666666711632084722 L 283.502 130.0086599999999950038424383 L 283.7310 129.8954973333333344574687847 L 283.96 129.7820599999999981264409144 L 284.1890 129.6686226666666617954130440 L 284.418 129.5551853333333410773775540 L 284.6470 129.4414733333333289616954668 L 284.876 129.3274866666666722873439236 L 285.1050 129.2132253333333398283381636 L 285.334 129.0989640000000073693324036 L 285.5630 128.9847026666666592973342631 L 285.792 128.8704413333333268383285031 L 286.0210 128.7561799999999943793227430 L 286.250 128.6419186666666619203169830 L 286.4790 128.5276573333333294613112230 L 286.708 128.4133959999999970023054630 L 286.9370 128.2991346666666645432997029 L 287.166 128.1848733333333320842939429 L 287.3950 128.0706119999999996252881829 L 287.624 127.9560760000000069946205864 L 287.8530 127.8415399999999987509606096 L 288.082 127.7270040000000061202930131 L 288.3110 127.6121933333333377049711999 L 288.54 127.4971079999999935049951697 L 288.7690 127.3820226666666649180115201 L 288.998 127.2669373333333363310278704 L 289.2270 127.1518520000000077440442207 L 289.456 127.0367666666666635440681906 L 289.6850 126.9211319999999990007684876 L 289.914 126.8054973333333344574687847 L 290.1430 126.6898626666666699141690818 L 290.372 126.5739533333333295862151620 L 290.6010 126.4580440000000048712536227 L 290.830 126.3421346666666645432997029 L 291.0590 126.2256760000000038720221104 L 291.288 126.1092173333333275877521373 L 291.5170 125.9927586666666669164745448 L 291.746 125.8757506666666702888808989 L 291.9750 125.7584679999999978766330363 L 292.204 125.6411853333333410773775540 L 292.4330 125.5236279999999928804754745 L 292.662 125.4060706666666602965657755 L 292.8910 125.2885133333333277126560764 L 293.12 125.1709559999999951287463773 L 293.3490 125.0533986666666625448366782 L 293.578 124.9355666666666697892651428 L 293.8070 124.8177346666666614207012268 L 294.036 124.6999026666666686651296914 L 294.2650 124.5817960000000001249039390 L 294.494 124.4634146666666714130163503 L 294.7230 124.3450333333333270881363812 L 294.952 124.2266519999999983762487924 L 295.1810 124.1082706666666696643612037 L 295.410 123.9898893333333409524736150 L 295.6390 123.8715079999999966275936458 L 295.868 123.7531266666666679157060571 L 296.0970 123.6347453333333392038184684 L 296.326 123.5163639999999948789384992 L 296.5550 123.3979826666666661670509105 L 296.784 123.2796013333333374551633218 L 297.0130 123.1612199999999931302833526 L 297.242 123.0428386666666644183957639 L 297.4710 122.9241826666666599218539583 L 297.70 122.8055266666666710383045332 L 297.9290 122.6868706666666665417627276 L 298.158 122.5682146666666620452209221 L 298.3870 122.4495586666666731616714969 L 298.616 122.3306279999999928804754745 L 298.8450 122.2116973333333282122718326 L 299.074 122.0927666666666635440681906 L 299.3030 121.9738359999999988758645486 L 299.532 121.8549053333333342076609066 L 299.7610 121.7359746666666695394572647 L 299.990 121.6170440000000048712536227 L 300.2190 121.4981133333333402030499807 L 300.448 121.3789079999999997501921219 L 300.6770 121.2597026666666592973342631 L 300.906 121.1402226666666742858069483 L 301.1350 121.0207426666666736612872531 L 301.364 120.9012626666666730367675579 L 301.5930 120.7817826666666724122478627 L 301.822 120.6623026666666717877281674 L 302.0510 120.5428226666666711632084722 L 302.28 120.4233426666666705386887770 L 302.5090 120.3038626666666699141690818 L 302.738 120.1841079999999935049951697 L 302.9670 120.0643533333333327088136381 L 303.196 119.9445986666666719126321065 L 303.4250 119.8248439999999955034581944 L 303.654 119.7048146666666589226224460 L 303.8830 119.5847853333333379547790779 L 304.112 119.4647560000000013739433295 L 304.3410 119.3447266666666647931075810 L 304.570 119.2246973333333282122718326 L 304.7990 119.1046680000000072444284645 L 305.028 118.9846386666666706635927160 L 305.2570 118.8643346666666739110951312 L 305.486 118.7440306666666615456051659 L 305.7150 118.6237266666666647931075810 L 305.944 118.5034226666666680406099961 L 306.1730 118.3831186666666712881124113 L 306.402 118.2628146666666589226224460 L 306.6310 118.1422360000000019984630247 L 306.86 118.0213826666666692896493866 L 307.0890 117.9005293333333365808357485 L 307.318 117.7796760000000038720221104 L 307.5470 117.6585479999999953785542554 L 307.776 117.5374200000000024980787809 L 308.0050 117.4162919999999940046109259 L 308.234 117.2951640000000011241354514 L 308.4630 117.1737613333333324590057600 L 308.692 117.0523586666666637938760687 L 308.9210 116.9309559999999951287463773 L 309.150 116.8095533333333264636166860 L 309.3790 116.6881506666666734114793750 L 309.608 116.5664733333333289616954668 L 309.8370 116.4447960000000001249039390 L 310.066 116.3231186666666712881124113 L 310.2950 116.2014413333333268383285031 L 310.524 116.0797639999999980015369753 L 310.7530 115.9578119999999933800912307 L 310.982 115.8355853333333285869836497 L 311.2110 115.7133586666666637938760687 L 311.44 115.5911319999999990007684876 L 311.6690 115.4686306666666740359990702 L 311.898 115.3461293333333334582372724 L 312.1270 115.2233533333333327088136381 L 312.356 115.1005773333333319593900039 L 312.5850 114.9778013333333312099663696 L 312.814 114.8550253333333304605427353 L 313.0430 114.7322493333333297111191011 L 313.272 114.6094733333333289616954668 L 313.5010 114.4866973333333282122718326 L 313.730 114.3639213333333274628481983 L 313.9590 114.2411453333333267134245640 L 314.188 114.1183693333333259640009298 L 314.4170 113.9955933333333408275696760 L 314.646 113.8725426666666642934918248 L 314.8750 113.7494920000000033724063542 L 315.104 113.6264413333333268383285031 L 315.3330 113.5033906666666659172430324 L 315.562 113.3803400000000049961575617 L 315.7910 113.2570146666666682904178742 L 316.02 113.1336893333333315846781867 L 316.2490 113.0103639999999948789384992 L 316.478 112.8870386666666737861911921 L 316.7070 112.7637133333333370804515046 L 316.936 112.6403880000000003747118171 L 317.1650 112.5170626666666636689721296 L 317.394 112.3937373333333269632324421 L 317.6230 112.2704120000000058704851350 L 317.852 112.1470866666666691647454475 L 318.0810 112.0232119999999965026897068 L 318.310 111.8993373333333394536263465 L 318.5390 111.7754626666666667915706057 L 318.768 111.6515879999999941295148650 L 318.9970 111.5268893333333409524736150 L 319.226 111.4021906666666721624399846 L 319.4550 111.2774920000000033724063542 L 319.684 111.1525186666666744107108874 L 319.9130 111.0275453333333298360230401 L 320.142 110.9020226666666649180115201 L 320.3710 110.77650 L 320.6 110.6509773333333350819884799 L 320.8290 110.5254546666666701639769599 L 321.058 110.3999320000000052459654398 L 321.2870 110.2744093333333403279539198 L 321.516 110.1488866666666597969500193 L 321.7450 110.0233639999999948789384992 L 321.974 109.8975666666666697892651428 L 322.2030 109.7717693333333290865994059 L 322.432 109.6459720000000039969260494 L 322.6610 109.5201746666666632942603125 L 322.890 109.3941026666666624199327392 L 323.1190 109.2680306666666615456051659 L 323.348 109.1419586666666606712775926 L 323.5770 109.0158866666666597969500193 L 323.806 108.8898146666666589226224460 L 324.0350 108.7634679999999978766330363 L 324.264 108.6368466666666610459894097 L 324.4930 108.5102253333333398283381636 L 324.722 108.3836040000000029976945370 L 324.9510 108.2569826666666661670509105 L 325.18 108.1303613333333293364072840 L 325.4090 108.0037399999999925057636574 L 325.638 107.8771186666666712881124113 L 325.8670 107.7504973333333344574687847 L 326.096 107.6238759999999976268251582 L 326.3250 107.4972546666666607961815316 L 326.554 107.3706333333333395785302855 L 326.7830 107.2440120000000027478866590 L 327.012 107.1173906666666659172430324 L 327.2410 106.9907693333333290865994059 L 327.470 106.8641479999999922559557793 L 327.6990 106.7369773333333350819884799 L 327.928 106.6098066666666622950288001 L 328.1570 106.4826360000000051210615008 L 328.386 106.3551906666666721624399846 L 328.6150 106.2277453333333392038184684 L 328.844 106.1003000000000062451969522 L 329.0730 105.9725799999999975019212191 L 329.302 105.8448600000000043716378665 L 329.5310 105.7171399999999956283621335 L 329.76 105.5894200000000024980787809 L 329.9890 105.4616999999999937548030478 L 330.218 105.3339800000000006245196952 L 330.4470 105.2062600000000074942363426 L 330.676 105.0785399999999987509606096 L 330.9050 104.9508200000000056206772570 L 331.134 104.8230999999999968774015239 L 331.3630 104.6953800000000037471181713 L 331.592 104.5673853333333348321806019 L 331.8210 104.4393906666666659172430324 L 332.050 104.3113959999999970023054629 L 332.2790 104.1834013333333280873678935 L 332.508 104.0554066666666591724303241 L 332.7370 103.9274120000000058704851350 L 332.966 103.7994173333333369555475656 L 333.1950 103.6714226666666680406099961 L 333.424 103.5431533333333389540105903 L 333.6530 103.4148839999999942544188040 L 333.882 103.2866146666666651678193981 L 334.1110 103.1583453333333360812199923 L 334.34 103.0300760000000069946205864 L 334.5690 102.9015320000000021233669637 L 334.798 102.7729879999999972521133410 L 335.0270 102.6444439999999923808597183 L 335.256 102.5159000000000031225984761 L 335.4850 102.3873559999999982513448534 L 335.714 102.2588119999999933800912307 L 335.9430 102.1302680000000041218299884 L 336.172 102.0017239999999992505763657 L 336.4010 101.8731799999999943793227430 L 336.630 101.7443613333333293364072840 L 336.8590 101.6155426666666642934918248 L 337.088 101.4867239999999992505763657 L 337.3170 101.3579053333333342076609066 L 337.546 101.2290866666666691647454475 L 337.7750 101.1002680000000041218299884 L 338.004 100.9714493333333390789145293 L 338.2330 100.8426306666666740359990702 L 338.462 100.7135373333333332084293943 L 338.6910 100.5844439999999923808597183 L 338.92 100.4553506666666671662824228 L 339.1490 100.3262573333333263387127469 L 339.378 100.1971640000000011241354514 L 339.6070 100.0680706666666602965657755 L 339.836 99.9389773333333350819884799 L 340.0650 99.8098839999999942544188040 L 340.294 99.6807906666666534268491281 L 340.5230 99.5516973333333438252642130 L 340.752 99.4226040000000029976945371 L 340.9810 99.2935106666666621701248611 L 341.210 99.1644173333333213425551852 L 341.4390 99.0353240000000117409702701 L 341.668 98.9062306666666709134005941 L 341.8970 98.7771373333333300858309182 L 342.126 98.6480439999999892582612422 L 342.3550 98.5189506666666796566763272 L 342.584 98.3898573333333388291066513 L 342.8130 98.2607639999999980015369753 L 343.042 98.1316706666666571739672994 L 343.2710 98.0025773333333475723823843 L 343.50 97.8734840000000067448127083 L 343.7290 97.7443906666666659172430324 L 343.958 97.6152973333333250896733565 L 344.1870 97.4862040000000154880884414 L 344.416 97.3571106666666746605187655 L 344.6450 97.2280173333333338329490895 L 344.874 97.0989239999999930053794136 L 345.1030 96.9698306666666521778097376 L 345.332 96.8407373333333425762248225 L 345.5610 96.7116440000000017486551466 L 345.790 96.5825506666666609210854707 L 346.0190 96.4534573333333200935157947 L 346.248 96.3243640000000104919308797 L 346.4770 96.1952706666666696643612037 L 346.706 96.0661773333333288367915278 L 346.9350 95.9370839999999880092218518 L 347.164 95.8079906666666784076369368 L 347.3930 95.6788973333333375800672608 L 347.622 95.5498039999999967524975849 L 347.8510 95.4207106666666559249279089 L 348.08 95.2916173333333463233429939 L 348.3090 95.1625240000000054957733179 L 348.538 95.0334306666666646682036420 L 348.7670 94.9043373333333238406339660 L 348.996 94.7752440000000142390490509 L 349.2250 94.6461506666666734114793750 L 349.454 94.5170573333333325839096991 L 349.6830 94.3879639999999917563400231 L 349.912 94.2588706666666821547551081 L 350.1410 94.1297773333333413271854321 L 350.370 94.0006840000000004996157562 L 350.5990 93.8715906666666596720460802 L 350.828 93.7424973333333188444764043 L 351.0570 93.6134040000000092428914892 L 351.286 93.4843106666666684153218133 L 351.5150 93.3552173333333275877521373 L 351.744 93.2261239999999867601824614 L 351.9730 93.0970306666666771585975463 L 352.202 92.9679373333333363310278704 L 352.4310 92.8388439999999955034581944 L 352.66 92.7097506666666546758885185 L 352.8890 92.5806573333333450743036034 L 353.118 92.4515640000000042467339275 L 353.3470 92.3224706666666634191642515 L 353.576 92.1931026666666624199327392 L 353.8050 92.0634600000000012490393904 L 354.034 91.9338173333333400781460417 L 354.2630 91.8041746666666789072526929 L 354.492 91.6745319999999865103745833 L 354.7210 91.5448893333333253394812345 L 354.950 91.4152466666666641685878858 L 355.1790 91.2856040000000029976945371 L 355.408 91.1559613333333418268011883 L 355.6370 91.0263186666666806559078395 L 355.866 90.8966759999999882590297299 L 356.0950 90.7670333333333270881363812 L 356.324 90.6373906666666659172430324 L 356.5530 90.5077480000000047463496836 L 356.782 90.3781053333333435754563349 L 357.0110 90.2484626666666511785782253 L 357.24 90.1188199999999900076848765 L 357.4690 89.9891773333333288367915278 L 357.698 89.8595346666666676658981790 L 357.9270 89.7296173333333463233429939 L 358.156 89.5996999999999937548030478 L 358.3850 89.4697826666666724122478627 L 358.614 89.3398653333333198437079166 L 358.8430 89.2099479999999985011527315 L 359.072 89.0800306666666771585975463 L 359.3010 88.9501133333333245900576003 L 359.530 88.8201960000000032475024151 L 359.7590 88.6902786666666819049472300 L 359.988 88.5603613333333293364072840 L 360.2170 88.4301693333333478221902624 L 360.446 88.2997026666666749103266435 L 360.6750 88.1692360000000019984630247 L 360.904 88.0387693333333290865994059 L 361.1330 87.9083026666666561747357870 L 361.362 87.7778360000000144888569290 L 361.5910 87.6473693333333415769933102 L 361.82 87.5166280000000084934678550 L 362.0490 87.3858866666666754099423997 L 362.278 87.2551453333333423264169445 L 362.5070 87.1241293333333178452448919 L 362.736 86.9931133333333245900576003 L 362.9650 86.8620973333333313348703086 L 363.194 86.7310813333333380796830170 L 363.4230 86.6000653333333448244957253 L 363.652 86.4690493333333203433236728 L 363.8810 86.3380333333333270881363812 L 364.110 86.2070173333333338329490895 L 364.3390 86.0760013333333405777617979 L 364.568 85.9449853333333473225745062 L 364.7970 85.8139693333333228414024537 L 365.026 85.6829533333333295862151620 L 365.2550 85.5519373333333363310278704 L 365.484 85.4209213333333430758405787 L 365.7130 85.2899053333333185946685262 L 365.942 85.1588893333333253394812345 L 366.1710 85.0278733333333320842939429 L 366.4 84.8968573333333388291066513 L 366.6290 84.7658413333333455739193596 L 366.858 84.6345506666666609210854707 L 367.0870 84.5032600000000074942363426 L 367.316 84.3719693333333228414024537 L 367.5450 84.2406786666666694145533256 L 367.774 84.1093879999999847617194367 L 368.0030 83.9780973333333313348703086 L 368.232 83.8468066666666779080211806 L 368.4610 83.7152413333333330835254552 L 368.690 83.5836759999999882590297299 L 368.9190 83.4521106666666746605187655 L 369.148 83.3205453333333298360230401 L 369.3770 83.1887053333333248398654784 L 369.606 83.0565906666666596720460802 L 369.8350 82.9244759999999945042266821 L 370.064 82.7923613333333293364072840 L 370.2930 82.6602466666666641685878858 L 370.522 82.5281319999999990007684876 L 370.7510 82.3960173333333338329490895 L 370.98 82.2639026666666686651296914 L 371.2090 82.1317880000000034973102932 L 371.438 81.9996733333333383294908951 L 371.6670 81.8675586666666731616714969 L 371.896 81.7351693333333478221902624 L 372.1250 81.6027799999999912567242670 L 372.354 81.4703906666666659172430324 L 372.5830 81.3377266666666804060999614 L 372.812 81.2050626666666636689721296 L 373.0410 81.0723986666666781578290587 L 373.270 80.9397346666666614207012268 L 373.4990 80.8070706666666759095581559 L 373.728 80.6744066666666591724303241 L 373.9570 80.5417426666666736612872531 L 374.186 80.4090786666666569241594213 L 374.4150 80.2764146666666714130163503 L 374.644 80.1437506666666546758885185 L 374.8730 80.0110866666666691647454475 L 375.102 79.8784226666666524276176157 L 375.3310 79.7457586666666669164745448 L 375.56 79.6130946666666814053314738 L 375.7890 79.4804306666666646682036420 L 376.018 79.3477666666666791570605710 L 376.2470 79.2151026666666624199327392 L 376.476 79.0824386666666769087896682 L 376.7050 78.9497746666666601716618364 L 376.934 78.8171106666666746605187655 L 377.1630 78.6844466666666579233909336 L 377.392 78.5517826666666724122478627 L 377.6210 78.4191186666666556751200308 L 377.850 78.2861800000000099923151235 L 378.0790 78.1532413333333330835254552 L 378.308 78.0203026666666561747357870 L 378.5370 77.8873640000000104919308797 L 378.766 77.7544253333333335831412114 L 378.9950 77.6214866666666566743515432 L 379.224 77.4885480000000109915466358 L 379.4530 77.3553346666666739110951312 L 379.682 77.2221213333333368306436265 L 379.9110 77.0886333333333395785302855 L 380.14 76.9551453333333423264169445 L 380.3690 76.8216573333333450743036034 L 380.598 76.6881693333333478221902624 L 380.8270 76.5546813333333193440921605 L 381.056 76.4211933333333220919788194 L 381.2850 76.2877053333333248398654784 L 381.514 76.1542173333333275877521373 L 381.7430 76.0207293333333303356387963 L 381.972 75.8872413333333330835254552 L 382.2010 75.7537533333333358314121142 L 382.430 75.6202653333333385792987732 L 382.6590 75.4867773333333413271854321 L 382.888 75.3532893333333440750720911 L 383.1170 75.2198013333333468229587500 L 383.346 75.0863133333333183448606481 L 383.5750 74.9528253333333210927473071 L 383.804 74.8193373333333238406339660 L 384.0330 74.6858493333333265885206250 L 384.262 74.5523613333333293364072840 L 384.4910 74.4188733333333320842939429 L 384.72 74.2853853333333348321806019 L 384.9490 74.1518973333333375800672608 L 385.178 74.0184093333333403279539198 L 385.4070 73.8849213333333430758405787 L 385.636 73.7514333333333458237272377 L 385.8650 73.6179453333333485716138966 L 386.094 73.4844573333333200935157947 L 386.3230 73.3506946666666626697406173 L 386.552 73.2169320000000052459654398 L 386.7810 73.0831693333333478221902624 L 387.010 72.9494066666666591724303241 L 387.2390 72.8153693333333415769933102 L 387.468 72.6813319999999927555715355 L 387.6970 72.5472946666666751601345216 L 387.926 72.4132573333333263387127469 L 388.1550 72.2792200000000087432757330 L 388.384 72.1451826666666599218539583 L 388.6130 72.0108706666666821547551081 L 388.842 71.8765586666666731616714969 L 389.0710 71.7422466666666641685878858 L 389.30 71.6079346666666551755042747 L 389.5290 71.4736226666666774084054244 L 389.758 71.3393106666666684153218133 L 389.9870 71.2049986666666594222382021 L 390.216 71.0706866666666816551393519 L 390.4450 70.9363746666666726620557408 L 390.674 70.8020626666666636689721296 L 390.9030 70.6677506666666546758885185 L 391.132 70.5334386666666769087896682 L 391.3610 70.3991266666666679157060571 L 391.590 70.2648146666666589226224460 L 391.8190 70.1305026666666811555235957 L 392.048 69.9961906666666721624399846 L 392.2770 69.8618786666666631693563735 L 392.506 69.7272919999999940046109259 L 392.7350 69.5927053333333248398654784 L 392.964 69.4581186666666556751200308 L 393.1930 69.3235319999999865103745833 L 393.422 69.1889453333333485716138966 L 393.6510 69.0543586666666794068684491 L 393.88 68.9197720000000102421230016 L 394.1090 68.7851853333333410773775540 L 394.338 68.6505986666666719126321064 L 394.5670 68.5160120000000027478866590 L 394.796 68.3814253333333335831412115 L 395.0250 68.2468386666666644183957639 L 395.254 68.1122519999999952536503164 L 395.4830 67.9776653333333260889048688 L 395.712 67.8430786666666569241594213 L 395.9410 67.7084919999999877594139737 L 396.170 67.5739053333333185946685262 L 396.3990 67.4393186666666806559078396 L 396.628 67.3047320000000114911623920 L 396.8570 67.1701453333333423264169445 L 397.086 67.0355586666666731616714969 L 397.3150 66.9009720000000039969260494 L 397.544 66.7663853333333348321806018 L 397.7730 66.6317986666666656674351543 L 398.002 66.4972119999999965026897067 L 398.2310 66.3626253333333273379442593 L 398.46 66.2280386666666581731988117 L 398.6890 66.0934519999999890084533642 L 398.918 65.9588653333333198437079167 L 399.1470 65.8242786666666819049472299 L 399.376 65.6894173333333213425551852 L 399.6050 65.5545559999999920061479013 L 399.834 65.4196946666666626697406172 L 400.0630 65.2848333333333333333333333 L 400.292 65.1499720000000039969260494 L 400.5210 65.0151106666666746605187654 L 400.750 64.8802493333333453241114815 L 400.9790 64.7453879999999847617194367 L 401.208 64.6102519999999952536503164 L 401.4370 64.4751160000000057455811961 L 401.666 64.3399799999999850115273147 L 401.8950 64.2048439999999955034581944 L 402.124 64.0697080000000059953890741 L 402.3530 63.9345719999999852613351929 L 402.582 63.7994359999999957532660726 L 402.8110 63.6643000000000062451969522 L 403.04 63.5288893333333253394812346 L 403.2690 63.3934786666666756597502779 L 403.498 63.2580679999999947540345602 L 403.7270 63.1226573333333450743036035 L 403.956 62.9872466666666641685878859 L 404.1850 62.8518360000000144888569291 L 404.414 62.7164253333333335831412115 L 404.6430 62.5810146666666526774254937 L 404.872 62.4456040000000029976945371 L 405.1010 62.3101933333333220919788194 L 405.330 62.1745080000000122405860263 L 405.5590 62.0388226666666711632084723 L 405.788 61.9031373333333300858309182 L 406.0170 61.7674519999999890084533642 L 406.246 61.6314919999999877594139737 L 406.4750 61.4955319999999865103745834 L 406.704 61.3595719999999852613351929 L 406.9330 61.2236120000000152382805633 L 407.162 61.0876520000000139892411729 L 407.3910 60.9516920000000127402017825 L 407.62 60.8157320000000114911623920 L 407.8490 60.6797720000000102421230015 L 408.078 60.5438120000000089930836112 L 408.3070 60.4078520000000077440442207 L 408.536 60.2718920000000064950048302 L 408.7650 60.1359320000000052459654398 L 408.994 59.9999720000000039969260494 L 409.2230 59.8640120000000027478866590 L 409.452 59.7277773333333413271854321 L 409.6810 59.5915426666666799064842053 L 409.910 59.4553079999999872597982175 L 410.1390 59.3190733333333258390969908 L 410.368 59.1828386666666644183957639 L 410.5970 59.0466040000000029976945371 L 410.826 58.9103693333333415769933102 L 411.0550 58.7741346666666801562920833 L 411.284 58.6378999999999875096060957 L 411.5130 58.5016653333333260889048688 L 411.742 58.3654306666666646682036420 L 411.9710 58.2291960000000032475024151 L 412.2 58.0929613333333418268011883 L 412.4290 57.9567266666666804060999614 L 412.658 57.8204919999999877594139737 L 412.8870 57.6842573333333263387127469 L 413.116 57.5480226666666649180115200 L 413.3450 57.4117880000000034973102933 L 413.574 57.2752786666666819049472299 L 413.8030 57.1387693333333290865994059 L 414.032 57.0022600000000074942363426 L 414.2610 56.8657506666666546758885185 L 414.490 56.7292413333333330835254552 L 414.7190 56.5927320000000114911623920 L 414.948 56.4562226666666586728145679 L 415.1770 56.3197133333333370804515046 L 415.406 56.1832040000000154880884414 L 415.6350 56.0466946666666626697406172 L 415.864 55.9101853333333410773775540 L 416.0930 55.7736759999999882590297299 L 416.322 55.6371666666666666666666667 L 416.5510 55.5006573333333450743036035 L 416.78 55.3641479999999922559557793 L 417.0090 55.2276386666666706635927161 L 417.238 55.0911293333333178452448919 L 417.4670 54.9546199999999962528818287 L 417.696 54.8181106666666746605187654 L 417.9250 54.6816013333333218421709413 L 418.154 54.5448173333333400781460417 L 418.3830 54.4080333333333270881363811 L 418.612 54.2712493333333453241114815 L 418.8410 54.1344653333333323341018210 L 419.070 53.9976813333333193440921604 L 419.2990 53.8608973333333375800672608 L 419.528 53.7241133333333245900576003 L 419.7570 53.5873293333333428260327007 L 419.986 53.4505453333333298360230401 L 420.2150 53.3137613333333480719981404 L 420.444 53.1769773333333350819884800 L 420.6730 53.0401933333333220919788194 L 420.902 52.9034093333333403279539197 L 421.1310 52.7666253333333273379442593 L 421.36 52.6298413333333455739193596 L 421.5890 52.4930573333333325839096990 L 421.818 52.3562733333333195939000386 L 422.0470 52.2194893333333378298751389 L 422.276 52.0827053333333248398654783 L 422.5050 51.9459213333333430758405787 L 422.734 51.8091373333333300858309182 L 422.9630 51.6723533333333483218060186 L 423.192 51.5355693333333353317963580 L 423.4210 51.3987853333333223417866975 L 423.650 51.2620013333333405777617979 L 423.8790 51.1252173333333275877521373 L 424.108 50.9881586666666544260806404 L 424.3370 50.8511000000000124903939043 L 424.566 50.7140413333333393287224074 L 424.7950 50.5769826666666661670509105 L 425.024 50.4399239999999930053794136 L 425.2530 50.3028653333333198437079167 L 425.482 50.1658066666666779080211806 L 425.7110 50.0287480000000047463496836 L 425.94 49.8916893333333315846781867 L 426.1690 49.7546306666666584230066898 L 426.398 49.6175719999999852613351929 L 426.6270 49.4805133333333433256484568 L 426.856 49.3434546666666701639769599 L 427.0850 49.2063959999999970023054629 L 427.314 49.0693373333333238406339660 L 427.5430 48.9322786666666819049472299 L 427.772 48.7952200000000087432757330 L 428.0010 48.6581613333333355816042361 L 428.230 48.5211026666666624199327392 L 428.4590 48.3840439999999892582612423 L 428.688 48.2469853333333473225745063 L 428.9170 48.1099266666666741609030092 L 429.146 47.9728680000000009992315123 L 429.3750 47.8358093333333278375600154 L 429.604 47.6987506666666546758885185 L 429.8330 47.5616920000000127402017825 L 430.062 47.4246333333333395785302856 L 430.2910 47.2875746666666664168587885 L 430.52 47.1505159999999932551872916 L 430.7490 47.0134573333333200935157947 L 430.978 46.8763986666666781578290587 L 431.2070 46.7393400000000049961575617 L 431.436 46.6022813333333318344860649 L 431.6650 46.4652226666666586728145679 L 431.894 46.3281639999999855111430709 L 432.1230 46.1911053333333435754563348 L 432.352 46.0540466666666704137848380 L 432.5810 45.9169879999999972521133410 L 432.810 45.7799293333333240904418441 L 433.0390 45.6428706666666821547551081 L 433.268 45.5058120000000089930836112 L 433.4970 45.3687533333333358314121141 L 433.726 45.2316946666666626697406172 L 433.9550 45.0946359999999895080691203 L 434.184 44.9575773333333475723823843 L 434.4130 44.8205186666666744107108874 L 434.642 44.6834600000000012490393905 L 434.8710 44.5464013333333280873678936 L 435.10 44.4093426666666549256963965 L 435.3290 44.2722840000000129900096605 L 435.558 44.1352253333333398283381636 L 435.7870 43.9981666666666666666666667 L 436.016 43.8611079999999935049951698 L 436.2450 43.7240493333333203433236729 L 436.474 43.5869906666666784076369368 L 436.7030 43.4499320000000052459654398 L 436.932 43.3128733333333320842939429 L 437.1610 43.1758146666666589226224460 L 437.390 43.0387559999999857609509491 L 437.6190 42.9016973333333438252642130 L 437.848 42.7646386666666706635927161 L 438.0770 42.6275799999999975019212192 L 438.306 42.4905213333333243402497221 L 438.5350 42.3534626666666511785782253 L 438.764 42.2164040000000092428914892 L 438.9930 42.0793453333333360812199923 L 439.222 41.9422866666666629195484954 L 439.4510 41.8052279999999897578769985 L 439.68 41.6681693333333478221902624 L 439.9090 41.5311106666666746605187654 L 440.138 41.3940520000000014988472685 L 440.3670 41.2569933333333283371757716 L 440.596 41.1199346666666551755042747 L 440.8250 40.9828760000000132398175386 L 441.054 40.8458173333333400781460417 L 441.2830 40.7087586666666669164745448 L 441.512 40.5716999999999937548030478 L 441.7410 40.4346413333333205931315509 L 441.970 40.2975826666666786574448148 L 442.1990 40.1605240000000054957733179 L 442.428 40.0234653333333323341018210 L 442.6570 39.8864066666666591724303241 L 442.886 39.7493479999999860107588271 L 443.1150 39.6122893333333440750720910 L 443.344 39.4752306666666709134005941 L 443.5730 39.3381719999999977517290972 L 443.802 39.2011133333333245900576003 L 444.0310 39.0640546666666514283861034 L 444.26 38.9269960000000094926993673 L 444.4890 38.7899373333333363310278704 L 444.718 38.6528786666666631693563734 L 444.9470 38.5158199999999900076848765 L 445.176 38.3787613333333480719981404 L 445.4050 38.2417026666666749103266435 L 445.634 38.1046440000000017486551466 L 445.8630 37.9675853333333285869836497 L 446.092 37.8305266666666554253121527 L 446.3210 37.6934680000000134896254166 L 446.550 37.5564093333333403279539197 L 446.7790 37.4193506666666671662824228 L 447.008 37.2822919999999940046109259 L 447.2370 37.1452333333333208429394290 L 447.466 37.0081746666666789072526930 L 447.6950 36.8711160000000057455811961 L 447.924 36.7340573333333325839096990 L 448.1530 36.5969986666666594222382021 L 448.382 36.4599399999999862605667052 L 448.6110 36.3228813333333443248799692 L 448.84 36.1858226666666711632084723 L 449.0690 36.0487639999999980015369753 L 449.298 35.9117053333333248398654783 L 449.5270 35.7746466666666516781939814 L 449.756 35.6375880000000097425072454 L 449.9850 35.5005293333333365808357484 L 450.214 35.3634706666666634191642516 L 450.4430 35.2264119999999902574927546 L 450.672 35.0893533333333483218060186 L 450.9010 34.9522946666666751601345217 L 451.130 34.8152360000000019984630247 L 451.3590 34.6781773333333288367915277 L 451.588 34.5411186666666556751200308 L 451.8170 34.4040600000000137394332948 L 452.046 34.2670013333333405777617979 L 452.2750 34.1299426666666674160903010 L 452.504 33.9928839999999942544188039 L 452.7330 33.8558253333333210927473070" /></g></g></g></g></g></g></svg>
