<svg width="600" height="350" version="1.1" xmlns="http://www.w3.org/2000/svg"><g><rect x="0" y="0" width="600" height="350" fill="#ffffff" /><g transform="translate(30 30)"><g transform="translate(82 0)"><text x="0" y="0" fill="#000000" font-family="monospace" font-size="15">Total Cost VS Chosen Center (Pt 2)</text></g><g transform="translate(0 20)"><g transform="translate(82 0)"><g class="axis bottom"><text x="229.0" y="256.0" dy="1em" fill="#000000" transform="" text-anchor="middle" font-family="monospace" font-size="15">Center</text><g class="tick"><line x1="114.50" y1="0" x2="114.50" y2="209.0" stroke="#000000" stroke-width="1" /><text x="114.50" y="212.0" dy="1em" fill="#000000" text-anchor="middle" font-family="monospace" font-size="15">500</text></g><g class="tick"><line x1="229.0" y1="0" x2="229.0" y2="209.0" stroke="#000000" stroke-width="1" /><text x="229.0" y="212.0" dy="1em" fill="#000000" text-anchor="middle" font-family="monospace" font-size="15">1000</text></g><g class="tick"><line x1="343.50" y1="0" x2="343.50" y2="209.0" stroke="#000000" stroke-width="1" /><text x="343.50" y="212.0" dy="1em" fill="#000000" text-anchor="middle" font-family="monospace" font-size="15">1500</text></g><g class="tick"><line x1="458" y1="0" x2="458" y2="209.0" stroke="#000000" stroke-width="1" /><text x="458" y="212.0" dy="1em" fill="#000000" text-anchor="middle" font-family="monospace" font-size="15">2000</text></g><g class="tick"><line x1="0" y1="0" x2="0" y2="209.0" stroke="#000000" stroke-width="1" /><text x="0" y="212.0" dy="1em" fill="#000000" text-anchor="middle" font-family="monospace" font-size="15">0</text></g></g><g class="axis left"><text x="-62" y="103.0" dy="" fill="#000000" transform="rotate(270 -62 103)" text-anchor="middle" font-family="monospace" font-size="15">Total Cost (millions)</text><g class="tick"><line x1="-3" y1="137.3333333333333333333333333" x2="458.0" y2="137.3333333333333333333333333" stroke="#000000" stroke-width="1" /><text x="-6" y="137.3333333333333333333333333" dy="0.32em" fill="#000000" text-anchor="end" font-family="monospace" font-size="15">500</text></g><g class="tick"><line x1="-3" y1="68.6666666666666666666666667" x2="458.0" y2="68.6666666666666666666666667" stroke="#000000" stroke-width="1" /><text x="-6" y="68.6666666666666666666666667" dy="0.32em" fill="#000000" text-anchor="end" font-family="monospace" font-size="15">1000</text></g><g class="tick"><line x1="-3" y1="0" x2="458.0" y2="0" stroke="#000000" stroke-width="1" /><text x="-6" y="0" dy="0.32em" fill="#000000" text-anchor="end" font-family="monospace" font-size="15">1500</text></g><g class="tick"><line x1="-3" y1="206" x2="458.0" y2="206" stroke="#000000" stroke-width="1" /><text x="-6" y="206" dy="0.32em" fill="#000000" text-anchor="end" font-family="monospace" font-size="15">0</text></g></g><g><g class="series lines"><path stroke="#e41a1c" fill="none" stroke-width="7" d="M 0 177.1018209306666676638997160 L 0.2290 177.1668505986666658600370283 L 0.458 177.2317416973333331876953404 L 0.6870 177.2964951880000005530746421 L 0.916 177.3611106586666650931268426 L 1.1450 177.4255885213333335741481278 L 1.374 177.4899285013333322164423104 L 1.6030 177.5541305986666649232574855 L 1.832 177.6181944013333327347936574 L 2.0610 177.6821203213333346108508219 L 2.290 177.7459083586666666481808837 L 2.5190 177.8095587879999987232319351 L 2.748 177.8730716093333347392520712 L 2.9770 177.9364468226666668897451018 L 3.206 177.9996844279999990779591220 L 3.4350 178.0627847000000011803422240 L 3.664 178.1257470893333334439982233 L 3.8930 178.1885720079999987319752108 L 4.122 178.2512591813333349743212845 L 4.3510 178.3138088840000003377402512 L 4.58 178.3762208413333327522802089 L 4.8090 178.4384945040000002715411635 L 5.038 178.5006302840000018553231105 L 5.2670 178.5626284559999995735779521 L 5.496 178.6244890200000012328018784 L 5.7250 178.6862119759999990264986991 L 5.954 178.7477974613333337477646031 L 6.1830 178.8092452013333316169034030 L 6.412 178.8705551960000004404112891 L 6.6410 178.9317275826666653983920696 L 6.870 178.9927618119999984476938456 L 7.0990 179.0536584333333315347166111 L 7.328 179.1144174466666685627084614 L 7.5570 179.1750383026666658755251168 L 7.786 179.2355215506666671293108569 L 8.0150 179.2958669159999985443694944 L 8.244 179.3560745360000009137972180 L 8.4730 179.4161446853333324042978347 L 8.702 179.4760773640000008223675347 L 8.9310 179.5358721599999994017101320 L 9.16 179.5955292106666650321737204 L 9.3890 179.6550486533333346036063934 L 9.618 179.7144304880000003095119609 L 9.8470 179.7736749893333320263385152 L 10.076 179.8327820200000006707341526 L 10.3050 179.8917515799999984362026832 L 10.534 179.9505836693333331292402969 L 10.7630 180.0092781506666678599989003 L 10.992 180.0678350239999987252303981 L 11.2210 180.1262544266666665180309792 L 11.450 180.1845364960000003217525470 L 11.6790 180.2426810946666671497951029 L 11.908 180.3006880853333340155586484 L 12.1370 180.3585576053333339056431820 L 12.366 180.4162896546666668200487038 L 12.5950 180.4738839586666667855752166 L 12.824 180.5313406546666667888227190 L 13.0530 180.5886597426666668297912111 L 13.282 180.6458413599999998950806912 L 13.5110 180.7028856439999989712911580 L 13.74 180.7597925946666679616707067 L 13.9690 180.8165622119999990597231469 L 14.198 180.8731944960000000719446689 L 14.4270 180.9296890346666681352871819 L 14.656 180.9860458279999993465025909 L 14.8850 181.0422651506666674852870832 L 15.114 181.0983463159999998121444757 L 15.3430 181.1542895986666662035228607 L 15.572 181.2100949986666666594222382 L 15.8010 181.2657627906666671530426053 L 16.030 181.3212931120000006709839605 L 16.2590 181.3766861000000001998463025 L 16.488 181.4319416173333327530296325 L 16.7170 181.4870596639999983305339507 L 16.946 181.5420402400000008356073522 L 17.1750 181.5968832079999994751536482 L 17.404 181.6515885679999981524209337 L 17.6330 181.7061561826666677840573054 L 17.862 181.7605863266666665367665701 L 18.0910 181.8148788626666653271968244 L 18.32 181.8690337906666680585961634 L 18.5490 181.9230511106666669244683969 L 18.778 181.9769309599999988146616185 L 19.0070 182.0306734760000006190239219 L 19.236 182.0842781093333325846591227 L 19.4650 182.1377451346666684912634082 L 19.694 182.1910745520000005323405882 L 19.9230 182.2442666359999985843387549 L 20.152 182.2973209746666675907060077 L 20.3810 182.3502379799999987047461521 L 20.610 182.4030171026666677865553841 L 20.8390 182.4556583426666670296375135 L 21.068 182.5081622493333322836406296 L 21.2970 182.5605284106666684920128318 L 21.526 182.6127569640000008348579286 L 21.7550 182.6648480466666662020240134 L 21.984 182.7168016586666684967591815 L 22.2130 182.7686177999999999125672427 L 22.442 182.8202960586666653928962963 L 22.6710 182.8718367093333348141944346 L 22.90 182.9232396146666673833654689 L 23.1290 182.9745047746666670036574942 L 23.358 183.0256320520000006884705120 L 23.5870 183.0766217213333344110045194 L 23.816 183.1274737826666681712595164 L 24.0450 183.1781882359999980659874078 L 24.274 183.2287648066666659284843869 L 24.5030 183.2792039066666668153023541 L 24.732 183.3295055360000007264413095 L 24.9610 183.3796698320000006485012515 L 25.190 183.4296965200000006082821831 L 25.4190 183.4795853253333346325841072 L 25.648 183.5293361106666658315589302 L 25.8770 183.5789491506666679849028393 L 26.106 183.6284247199999992593196415 L 26.3350 183.6777622693333316116574376 L 26.564 183.7269619360000019317643212 L 26.7930 183.7760238573333314964960058 L 27.022 183.8249481706666650021967750 L 27.2510 183.8737348759999985456185338 L 27.48 183.9223839733333321267612822 L 27.7090 183.9708954626666657456250202 L 27.938 184.0192694813333323888097463 L 28.1670 184.0675060293333320563154606 L 28.396 184.1156052440000016379902566 L 28.6250 184.1635669880000003407379457 L 28.854 184.2113913986666650544066215 L 29.0830 184.2590783386666666956443805 L 29.312 184.3066278080000013612031277 L 29.5410 184.3540396693333321612347694 L 29.770 184.4013139226666669022354957 L 29.9990 184.4484507053333346675572102 L 30.228 184.4954501546666684437999114 L 30.4570 184.5423115839999993947155114 L 30.686 184.5890348559999984369521068 L 30.9150 184.6356205200000014201577869 L 31.144 184.6820687133333335244363601 L 31.3730 184.7283795733333316396359199 L 31.602 184.7745528253333336958045644 L 31.8310 184.8205886066666648730461020 L 32.06 184.8664867799999999912567243 L 32.2890 184.9122474826666681337883347 L 32.518 184.9578705773333324107928396 L 32.7470 185.0033560640000006287664291 L 32.976 185.0487042173333348576610054 L 33.2050 185.0939150373333350974765684 L 33.434 185.1389885240000013482131180 L 33.6630 185.1839244026666676366706573 L 33.892 185.2287229479999999360491832 L 34.1210 185.2733841599999982463486958 L 34.350 185.3179080386666664708172902 L 34.5790 185.3622945840000007062068714 L 34.808 185.4065437960000009525174391 L 35.0370 185.4506554000000012365489965 L 35.266 185.4946296706666675315015406 L 35.4950 185.5384664706666668507750728 L 35.724 185.5821656626666662077695946 L 35.9530 185.6257273839999985890851046 L 36.182 185.6691516346666678979696978 L 36.4110 185.7124382773333333413271854 L 36.64 185.7555875866666647956056598 L 36.8690 185.7985992880000001908532189 L 37.098 185.8414732439999987339736738 L 37.3270 185.8842095920000012180632136 L 37.556 185.9268084693333328232256463 L 37.7850 185.9692696013333314795090700 L 38.014 186.0115932626666670633615771 L 38.2430 186.0537793159999987816869786 L 38.472 186.0958278986666674275814633 L 38.7010 186.1377388733333322079488426 L 38.930 186.1795125146666669024853036 L 39.1590 186.2211486853333346213427528 L 39.388 186.2626471106666654880730979 L 39.6170 186.3040082026666662689725248 L 39.846 186.3452319613333330607929383 L 40.0750 186.3863181119999998903343415 L 40.304 186.4272667919999997441967328 L 40.5330 186.4680778639999996357801137 L 40.762 186.5087513279999995650844842 L 40.9910 186.5492873213333325187098429 L 41.22 186.5896858439999984966561897 L 41.4490 186.6299468960000014021716197 L 41.678 186.6700706146666664153599413 L 41.9070 186.7100570000000013427173447 L 42.136 186.7499057773333324045476426 L 42.3650 186.7896169466666674073470252 L 42.594 186.8291906453333315312193008 L 42.8230 186.8686270106666655692606582 L 43.052 186.9079260426666656182230023 L 43.2810 186.9470877413333316781063331 L 43.510 186.9861119693333346655587472 L 43.7390 187.0249983146666678142840586 L 43.968 187.0637473266666669739303567 L 44.1970 187.1023590053333321444976415 L 44.426 187.1408332133333342426340096 L 44.6550 187.1791699506666654618432706 L 44.884 187.2173693546666665952216135 L 45.1130 187.2554312880000007529209446 L 45.342 187.2933557506666679349412637 L 45.5710 187.3311428800000011278825696 L 45.8 187.3687926760000003317448621 L 46.0290 187.4063051386666655465281413 L 46.258 187.4436798560000017156805067 L 46.4870 187.4809172399999999925057637 L 46.716 187.5180170159999983070520102 L 46.9450 187.5549793213333335491673400 L 47.174 187.5918041560000018156036579 L 47.4030 187.6284916573333321897128675 L 47.632 187.6650416879999994913911602 L 47.8610 187.7014542479999998173904411 L 48.090 187.7377290626666671945107131 L 48.3190 187.7738664066666675959519732 L 48.548 187.8098664173333340083142199 L 48.7770 187.8457290946666664315974534 L 49.006 187.8814541639999988926016764 L 49.2350 187.9170419000000012677749813 L 49.464 187.9524921653333327640211792 L 49.6930 187.9878050973333341744364588 L 49.922 188.0229805586666686091727267 L 50.1510 188.0580186866666651515818861 L 50.38 188.0929194813333316081601273 L 50.6090 188.1276828053333349923074517 L 50.838 188.1623086586666674975276692 L 51.0670 188.1967970413333330270688748 L 51.296 188.2311480906666684707791622 L 51.5250 188.2653616693333330355623427 L 51.754 188.2994377773333345279146064 L 51.9830 188.3333762773333321547397645 L 52.212 188.3671771693333337225340074 L 52.4410 188.4008405906666683146492384 L 52.670 188.4343665413333339794614100 L 52.8990 188.4677548839999996819945712 L 53.128 188.5010058933333333470727666 L 53.3570 188.5341192946666670498719516 L 53.586 188.5670948133333328655680816 L 53.8150 188.5999329986666666438092458 L 54.044 188.6326338506666664329713967 L 54.2730 188.6651973693333341846785819 L 54.502 188.6976235546666659956827061 L 54.7310 188.7299121319999997960318675 L 54.96 188.7620632386666666207020171 L 55.1890 188.7940770119999994562931534 L 55.418 188.8259530399999993430052806 L 55.6470 188.8576917346666671922624422 L 55.876 188.8892928213333331276165457 L 56.1050 188.9207562999999991006916389 L 56.334 188.9520823080000000497117677 L 56.5630 188.9832708453333340230528847 L 56.792 189.0143220493333340073149884 L 57.0210 189.0452357826666670158980802 L 57.250 189.0760121826666660354021587 L 57.4790 189.1066509746666670442512744 L 57.708 189.1371524333333340640213767 L 57.9370 189.1675165586666670947124658 L 58.166 189.1977432133333331497245429 L 58.3950 189.2278322599999992424576097 L 58.624 189.2577839733333332977357107 L 58.8530 189.2875983533333333639347984 L 59.082 189.3172751253333334678548757 L 59.3110 189.3468145639999995826959397 L 59.54 189.3762165320000006734820393 L 59.7690 189.4054808919999998503650810 L 59.998 189.4346076439999990649691123 L 60.2270 189.4635969253333332555181793 L 60.456 189.4924488733333334569882330 L 60.6850 189.5211633506666666827792748 L 60.914 189.5497403573333329328913048 L 61.1430 189.5781798933333341589483704 L 61.372 189.6064819586666664577023766 L 61.6010 189.6346466906666667190014171 L 61.830 189.6626739520000000046214458 L 62.0590 189.6905637426666663145624625 L 62.288 189.7183159253333326622244689 L 62.5170 189.7459306373333339858315109 L 62.746 189.7734078786666663821354935 L 62.9750 189.8007476493333337543845118 L 63.204 189.8279499493333341509545183 L 63.4330 189.8550147786666675718455129 L 63.662 189.8819421373333340170574957 L 63.8910 189.9087320253333334865904665 L 64.12 189.9353845800000009186684717 L 64.3490 189.9618996639999994234434174 L 64.578 189.9882772773333329041633988 L 64.8070 190.0145175573333323958043669 L 65.036 190.0406202293333338767903721 L 65.2650 190.0665852933333334438733194 L 65.494 190.0924127493333330486772563 L 65.7230 190.1181027346666676294262288 L 65.952 190.1436552493333332828721420 L 66.1810 190.1690704306666668988630894 L 66.410 190.1943478666666675659750278 L 66.6390 190.2194879693333342440079529 L 66.868 190.2444904640000009597618676 L 67.0970 190.2693556253333336864367690 L 67.326 190.2940830413333334642326615 L 67.5550 190.3186731239999992529495406 L 67.784 190.3431258733333330042114540 L 68.0130 190.3674412893333327663943540 L 68.242 190.3916192346666675045222898 L 68.4710 190.4156598466666663019471647 L 68.70 190.4395629880000000753170752 L 68.9290 190.4633286586666668730079740 L 69.158 190.4869569959999996816198594 L 69.3870 190.5104478626666674661767805 L 69.616 190.5338012586666663234306422 L 69.8450 190.5570170466666671700295410 L 70.074 190.5800955013333340275494265 L 70.3030 190.6030364853333339093903002 L 70.532 190.6258401359999998021521606 L 70.7610 190.6485063160000006708590566 L 70.990 190.6710348879999996256628947 L 71.2190 190.6934254399999996583877267 L 71.448 190.7156785213333327154335469 L 71.6770 190.7377939946666658102003566 L 71.906 190.7597719973333338809122021 L 72.1350 190.7816126666666660109209867 L 72.364 190.8033160026666661034748055 L 72.5930 190.8248820053333341585736586 L 72.822 190.8463106746666662729694508 L 73.0510 190.8676020106666663499102772 L 73.28 190.8887557386666664645720933 L 73.5090 190.9097721333333325901548960 L 73.738 190.9306510573333336916827344 L 73.9670 190.9513926480000008041315596 L 74.196 190.9719969053333339275013714 L 74.4250 190.9924638293333330617921698 L 74.654 191.0127932826666671720280040 L 74.8830 191.0329852653333343065848264 L 75.112 191.0530397773333325138385893 L 75.3410 191.0729566813333327104373893 L 75.570 191.0927362520000008695812236 L 75.7990 191.1123778026666662033979568 L 76.028 191.1318820199999994997597241 L 76.2570 191.1512484919999998472424825 L 76.486 191.1704776306666662056462277 L 76.7150 191.1895692986666675399950085 L 76.944 191.2085236333333329336407284 L 77.1730 191.2273406346666662898314826 L 77.402 191.2460203026666676085672710 L 77.6310 191.26456250 L 77.86 191.2829670893333324291537186 L 78.0890 191.3012343453333328208524714 L 78.318 191.3193641306666662368722124 L 78.5470 191.3373565826666676154369876 L 78.776 191.3552114266666670800987049 L 79.0050 191.3729289373333325556814088 L 79.234 191.3905089773333330072091485 L 79.4630 191.4079511346666675232578806 L 79.692 191.4252559586666660986035519 L 79.9210 191.4424233119999996498942589 L 80.150 191.4594531946666662255059540 L 80.3790 191.4763454693333328388386387 L 80.608 191.4931001359999994898923130 L 80.8370 191.5097174693333341034910215 L 81.066 191.5261974693333327763866691 L 81.2950 191.5425399986666664252273525 L 81.524 191.5587451946666660849890225 L 81.7530 191.5748129200000007206957283 L 81.982 191.5907433119999994156993732 L 82.2110 191.6065363706666660732480523 L 82.44 191.6221919586666657551177195 L 82.6690 191.6377099386666674263324239 L 82.898 191.6530903106666671836440704 L 83.1270 191.6683329373333339920767078 L 83.356 191.6834382306666668114303320 L 83.5850 191.6984059159999996685049458 L 83.814 191.7132361306666675015245952 L 84.0430 191.7279284626666674474411896 L 84.272 191.7424834613333334042787707 L 84.5010 191.7569008519999993988373414 L 84.730 191.7711809093333333559409463 L 84.9590 191.7853234960000003373655394 L 85.188 191.7993287493333333297111191 L 85.4170 191.8131963946666663597776884 L 85.646 191.8269267066666673523892920 L 85.8750 191.8405195479999994176978362 L 86.104 191.8539750559999994455514146 L 86.3330 191.8672932306666674359500272 L 86.562 191.8804739346666664990455805 L 86.7910 191.8935168933333326132621248 L 87.02 191.9064222440000007168237062 L 87.2490 191.9191899866666669064822296 L 87.478 191.9318203959999991070617398 L 87.7070 191.9443134719999992701862842 L 87.936 191.9566692146666673958558628 L 88.1650 191.9688876239999995808223806 L 88.394 191.9809686999999997283339326 L 88.6230 191.9929123053333329001664727 L 88.852 192.0047185773333340345440471 L 89.0810 192.0163873786666662416185621 L 89.310 192.0279184346666674514381157 L 89.5390 192.0393121573333327205546084 L 89.768 192.0505684093333329656161368 L 89.9970 192.0616871906666662349986533 L 90.226 192.0726685013333325287021580 L 90.4550 192.0835124786666667849506969 L 90.684 192.0942189853333340655202240 L 90.9130 192.1047880213333324187866916 L 91.142 192.1152197240000006862222411 L 91.3710 192.1255139560000000263547311 L 91.6 192.1356708546666673290322554 L 91.8290 192.1456902826666657044067203 L 92.058 192.1555723773333339939502669 L 92.2870 192.1653171386666663427907527 L 92.516 192.1749245666666666541762728 L 92.7450 192.1843945239999999898827809 L 92.974 192.1937271479999993365102758 L 93.2030 192.2029224386666666456828049 L 93.432 192.2119802586666669791763222 L 93.6610 192.2209007453333333235908261 L 93.890 192.2296838986666676305503643 L 94.1190 192.2383297186666659968068416 L 94.348 192.2468377933333333658083575 L 94.5770 192.2552083973333337591308615 L 94.806 192.2634416680000001633743523 L 95.0350 192.2715374679999995919388312 L 95.264 192.2794959346666669830483443 L 95.4930 192.2873169306666673984788455 L 95.722 192.2950005933333338248303335 L 95.9510 192.3025466480000002889028110 L 96.18 192.3099553693333327638962752 L 96.4090 192.3172266200000002148347752 L 96.638 192.3243605373333336766942618 L 96.8670 192.3313571213333331494747351 L 97.096 192.3382162346666675982002440 L 97.3250 192.3449380146666661062226922 L 97.554 192.3515224613333325767901746 L 97.7830 192.3579694373333340233026926 L 98.012 192.3642789426666665425121513 L 98.2410 192.3704511146666670242666442 L 98.470 192.3764859533333335169421237 L 98.6990 192.3823833213333330339385914 L 98.928 192.3881433560000005134800934 L 99.1570 192.3937660573333340039425821 L 99.386 192.3992514253333335053260574 L 99.6150 192.4045991853333330444305223 L 99.844 192.4098096120000005460800215 L 100.0730 192.4148827053333340586505074 L 100.302 192.4198183280000005955419814 L 100.5310 192.4246166173333331433544420 L 100.76 192.4292775733333336537119370 L 100.9890 192.4338010586666671883904200 L 101.218 192.4381872106666667339898898 L 101.4470 192.4424360293333342421343938 L 101.676 192.4465473773333328229758384 L 101.9050 192.4505212546666663797623187 L 102.134 192.4543575239999999742697886 L 102.3630 192.4580564599999995796982451 L 102.592 192.4616180626666671476717359 L 102.8210 192.4650423320000007265662134 L 103.050 192.4683292680000003163816776 L 103.2790 192.4714788706666659171181285 L 103.508 192.4744911399999994803996136 L 103.7370 192.4773659386666660680020868 L 103.966 192.4801034040000006181495943 L 104.1950 192.4827035359999992275940410 L 104.424 192.4851661973333328129835233 L 104.6530 192.4874915253333324092939923 L 104.882 192.4896793826666669815494970 L 105.1110 192.4917299066666675647259884 L 105.34 192.4936430973333341588234665 L 105.5690 192.4954189546666667638419312 L 105.798 192.4970574786666673314054303 L 106.0270 192.4985586693333339098899160 L 106.256 192.4999225266666664992953884 L 106.4850 192.5011489133333340646458964 L 106.714 192.5022378293333327026933451 L 106.9430 192.5031890000000003434858324 L 107.172 192.5040025626666660703752617 L 107.4010 192.5046787919999997598097252 L 107.630 192.5052176879999994601651754 L 107.8590 192.5056192506666671230656599 L 108.088 192.5058834800000007968871311 L 108.3170 192.5060103760000004816295890 L 108.546 192.5059998013333331906930350 L 108.7750 192.5058518933333338623015152 L 109.004 192.5055666520000005448309821 L 109.2330 192.5051439400000002516814372 L 109.462 192.5045838946666659694528789 L 109.6910 192.5038865159999996497693549 L 109.92 192.5030518039999993410068176 L 110.1490 192.5020797586666669947893145 L 110.378 192.5009703800000006594927982 L 110.6070 192.4997236680000003351172684 L 110.836 192.4983396226666660216627254 L 111.0650 192.4968182439999996707532167 L 111.294 192.4951593946666663441646961 L 111.5230 192.4933632119999990284971621 L 111.752 192.4914296959999996753746624 L 111.9810 192.4893588466666663331731494 L 112.210 192.4871506640000009535166707 L 112.4390 192.4848051479999996331571310 L 112.668 192.4823222986666662753426256 L 112.8970 192.4797018413333329552491098 L 113.126 192.4769439133333326594765822 L 113.3550 192.4740486520000003262490888 L 113.584 192.4710159199999990657185360 L 113.8130 192.4678458546666657677330174 L 114.042 192.4645384560000004322925330 L 114.2710 192.4610937239999991561489878 L 114.50 192.4575115213333328559504783 L 114.7290 192.4537919853333325666729555 L 114.958 192.4499351160000002399404669 L 115.1870 192.4459409133333339241289650 L 115.416 192.4418092400000006326384513 L 115.6450 192.4375402333333333520689242 L 115.874 192.4331336186666661092203867 L 116.1030 192.4285896706666668289168835 L 116.332 192.4239083893333335595343669 L 116.5610 192.4190895000000003278728400 L 116.790 192.4141332773333331071322997 L 117.0190 192.4090395840000008623367952 L 117.248 192.4038085573333326768382297 L 117.4770 192.3984400599999994672847000 L 117.706 192.3929340919999992820521584 L 117.9350 192.3872906533333340727646525 L 118.164 192.3815097439999999361740872 L 118.3930 192.3755915013333337621285561 L 118.622 192.3695356506666676258040146 L 118.8510 192.3633423293333325621764137 L 119.08 192.3570116746666674127178946 L 119.3090 192.3505435493333333359563160 L 119.538 192.3439376786666663103157286 L 119.7670 192.3371943373333342606201768 L 119.996 192.3303133880000002970215670 L 120.2250 192.3232951053333342959679915 L 120.454 192.3161393519999993676113566 L 120.6830 192.3088462653333324017997560 L 120.912 192.3014155706666674253331924 L 121.1410 192.2938475426666665081635680 L 121.370 192.2861420440000005669389793 L 121.5990 192.2782990746666656984113312 L 121.828 192.2703186346666658058287188 L 122.0570 192.2622007240000008891911420 L 122.286 192.2539453426666670452505059 L 122.5150 192.2455524906666662256308579 L 122.744 192.2370221680000003819562456 L 122.9730 192.2283545120000005492026200 L 123.202 192.2195493853333337407699825 L 123.4310 192.2106067879999999566583332 L 123.66 192.2015267199999991968676720 L 123.8890 192.1923093186666663996220450 L 124.118 192.1829545839999996132974047 L 124.3470 192.1734623786666658512937526 L 124.576 192.1638325653333340786351376 L 124.8050 192.1540654186666663652734618 L 125.034 192.1441608013333336278568216 L 125.2630 192.1341187133333339147611696 L 125.492 192.1239391546666672259865057 L 125.7210 192.1136222626666665481328285 L 125.950 192.1031680373333338328241856 L 126.1790 192.0925764786666671284365293 L 126.408 192.0818475866666664349698597 L 126.6370 192.0709813613333337040482244 L 126.866 192.0599776653333339974475772 L 127.0950 192.0488364986666673151679182 L 127.324 192.0375579986666666438092458 L 127.5530 192.0261420280000009483956092 L 127.782 192.0145884493333333390789145 L 128.0110 192.0028975373333336923072542 L 128.24 191.9910690173333340832565833 L 128.4690 191.9791030266666674985269007 L 128.698 191.9669997026666669247182047 L 128.9270 191.9547589079999993752304969 L 129.156 191.9423807799999997882878233 L 129.3850 191.9298653186666662122661364 L 129.614 191.9172125240000005987894838 L 129.8430 191.9044223959999990446097702 L 130.072 191.8914947973333324663750924 L 130.3010 191.8784298653333338506854488 L 130.530 191.8652275999999992942927444 L 130.7590 191.8518878639999997138450756 L 130.988 191.8384105200000001711183965 L 131.2170 191.8247958426666666393127040 L 131.446 191.8110438319999991184279982 L 131.6750 191.7971543506666665734883281 L 131.904 191.7831273986666670528696462 L 132.1330 191.7689629760000005565719524 L 132.362 191.7546612200000000711952452 L 132.5910 191.7402221306666675483635724 L 132.82 191.7256455706666660982288401 L 133.0490 191.7109316773333326106391420 L 133.278 191.6960804506666670855944782 L 133.5070 191.6810916159999996466467564 L 133.736 191.6659654480000001702440689 L 133.9650 191.6507019466666667047623681 L 134.194 191.6353008373333332770016568 L 134.4230 191.6197622573333328735619337 L 134.652 191.6040863440000004326672448 L 134.8810 191.5882729599999990644694966 L 135.110 191.5723222426666676104408301 L 135.3390 191.5562341920000002157091027 L 135.568 191.5400085333333328586983650 L 135.7970 191.5236455413333334642326615 L 136.026 191.5071450786666670940879461 L 136.2550 191.4905070080000007616642203 L 136.484 191.4737316040000004401614812 L 136.7130 191.4568188666666661295797288 L 136.942 191.4397685213333338083430135 L 137.1710 191.4225807053333325598032388 L 137.4 191.4052554186666662872084998 L 137.6290 191.3877926613333330389347490 L 137.858 191.3701925706666658015819848 L 138.0870 191.3524551466666665267742549 L 138.316 191.3345801146666672896875146 L 138.5450 191.3165673373333331520977178 L 138.774 191.2984170893333339904529566 L 139.0030 191.2801290959999999283051390 L 139.232 191.2617037693333338287023556 L 139.4610 191.2431411093333337400205589 L 139.690 191.2244409786666666756597503 L 139.9190 191.2056033773333326356199298 L 140.148 191.1866284426666665581251436 L 140.3770 191.1675161746666664915513441 L 140.606 191.1482665733333324358985313 L 140.8350 191.1288796386666663427907527 L 141.064 191.1093553706666662606039608 L 141.2930 191.0896937693333341409622032 L 141.522 191.0698948346666660806173847 L 141.7510 191.0499585666666659828176004 L 141.98 191.0298848280000008609628518 L 142.2090 191.0096737559999997984050424 L 142.438 190.9893250760000007251922701 L 142.6670 190.9688389253333327246764384 L 142.896 190.9482153039999997001056424 L 143.1250 190.9274542119999996998558345 L 143.354 190.9065557866666657105270133 L 143.5830 190.8855200279999996837432263 L 143.812 190.8643467986666666812804275 L 144.0410 190.8430362359999996897386154 L 144.270 190.8215883400000006607418375 L 144.4990 190.8000028359999997178420017 L 144.728 190.7782799986666667374872001 L 144.9570 190.7564198279999997680533852 L 145.186 190.7344223240000007611646045 L 145.4150 190.7122872119999998403727659 L 145.644 190.6900146293333338955259630 L 145.8730 190.6676047133333339616001467 L 146.102 190.6450573266666670519953186 L 146.3310 190.6223726066666661533114772 L 146.56 190.5995505533333332171726700 L 146.7890 190.5765910293333333053548510 L 147.018 190.5534941719999994044580186 L 147.2470 190.5302598440000004795062220 L 147.476 190.5068880453333326272513659 L 147.7050 190.4833787759999997509415456 L 147.934 190.4597320359999998989527133 L 148.1630 190.4359479626666660578848678 L 148.392 190.4120262813333342061620594 L 148.6210 190.3879669920000004405361930 L 148.850 190.3637703693333326858313133 L 149.0790 190.3394364133333328936714679 L 149.308 190.3149651239999991124326092 L 149.5370 190.2903563640000003071387861 L 149.766 190.2656102706666675127659498 L 149.9950 190.2407268440000007293141001 L 150.224 190.2157060839999999567832371 L 150.4530 190.1905479906666671467974084 L 150.682 190.1652525640000003477325663 L 150.9110 190.1398198039999995595887109 L 151.14 190.1142497106666667339898898 L 151.3690 190.0885422839999999193120554 L 151.598 190.0626973866666661289552091 L 151.8270 190.0367150186666673145433985 L 152.056 190.0105953173333325594285270 L 152.2850 189.9843382826666657668586898 L 152.514 189.9579439146666669368338868 L 152.7430 189.9314119386666661929060259 L 152.972 189.9047426293333334115231992 L 153.2010 189.8779359866666666410613592 L 153.430 189.8509918733333328949205073 L 153.6590 189.8239104266666671113246897 L 153.888 189.7966915093333324004258126 L 154.1170 189.7693352586666676036960174 L 154.346 189.7418416746666668662631612 L 154.5750 189.7142106199999991531512933 L 154.804 189.6864422319999994025844596 L 155.0330 189.6585365106666676145626601 L 155.262 189.6304934559999998858377997 L 155.4910 189.6023130680000001196579736 L 155.72 189.5739952093333333777991356 L 155.9490 189.5455400173333326468612844 L 156.178 189.5169474919999998784684673 L 156.4070 189.4882176333333331209966370 L 156.636 189.4593504413333323744457933 L 156.8650 189.4303459159999995904399839 L 157.094 189.4012040573333328173551612 L 157.3230 189.3719248653333340068153727 L 157.552 189.3425083399999992555725233 L 157.7810 189.3129542066666664936747111 L 158.010 189.2832627399999997426978856 L 158.2390 189.2534339400000009542660943 L 158.468 189.2234676693333332385312436 L 158.6970 189.1933640653333334853414272 L 158.926 189.1631231279999997430725974 L 159.1550 189.1327447199999990251247558 L 159.384 189.1022288413333332831219498 L 159.6130 189.0715754920000005654401320 L 159.842 189.0407845346666659338552563 L 160.0710 189.0098561066666662782154162 L 160.30 188.9787903453333326334965629 L 160.5290 188.9475872506666669513227437 L 160.758 188.9162468226666672800699113 L 160.9870 188.8847689240000006331380670 L 161.216 188.8531536919999999971272094 L 161.4450 188.8214011266666673236613860 L 161.674 188.7895112280000006611165494 L 161.9030 188.7574838586666670228927008 L 162.132 188.7253191559999993955898390 L 162.3610 188.6930171199999997308320114 L 162.590 188.6605776133333330903951719 L 162.8190 188.6280003613333335010793235 L 163.048 188.5952856386666669360844632 L 163.2770 188.5624335826666663820105896 L 163.506 188.5294439186666658656577056 L 163.7350 188.4963167840000003252498573 L 163.964 188.4630523160000007957629956 L 164.1930 188.4296503773333342905971222 L 164.422 188.3961108306666658715281907 L 164.6510 188.3624339506666673666283411 L 164.88 188.3286191879999990230013888 L 165.1090 188.2946670920000005935435183 L 165.338 188.2605775253333351884066360 L 165.5670 188.2263506253333318909426453 L 165.796 188.1919862546666655210477378 L 166.0250 188.1574844133333321754738184 L 166.254 188.1228452386666648408208857 L 166.4830 188.0880687306666674203370349 L 166.712 188.0531548893333321075260756 L 166.9410 188.0181037146666667088841981 L 167.170 187.9829152066666673211633073 L 167.3990 187.9475893653333339443634031 L 167.628 187.9121261906666665784844857 L 167.8570 187.8765256826666652235265550 L 168.086 187.8407878413333337827377060 L 168.3150 187.8049125293333314630217501 L 168.544 187.7688997466666660708748774 L 168.7730 187.7327496306666666896489914 L 169.002 187.6964621813333333193440922 L 169.2310 187.6600373986666659599601796 L 169.46 187.6234752826666685147453488 L 169.6890 187.5867758333333331772034095 L 169.918 187.5499389133333347672305536 L 170.1470 187.5129645226666654783305906 L 170.376 187.4758525240000001303997124 L 170.6050 187.4386030546666678067898223 L 170.834 187.4012162520000014941009188 L 171.0630 187.3636919786666682057330036 L 171.292 187.3260303720000009282860750 L 171.5210 187.2882312946666666751601345 L 171.750 187.2502946093333324597551837 L 171.9790 187.2122205906666681585193146 L 172.208 187.1740092386666659649563371 L 172.4370 187.1356605533333336855624414 L 172.666 187.0971743973333344304895339 L 172.8950 187.0585507706666681997376145 L 173.124 187.0197898106666679799066818 L 173.3530 186.9808913800000007843967372 L 173.582 186.9418556159999995998077793 L 173.8110 186.9026825186666683293879032 L 174.04 186.8633720879999991666409187 L 174.2690 186.8239241866666669314630174 L 174.498 186.7843388146666677206061043 L 174.7270 186.7446161093333345206701779 L 174.956 186.7047560706666673316552381 L 175.1850 186.6647586986666661535612851 L 175.414 186.6246239933333348896364138 L 175.6430 186.5843516799999997601844370 L 175.872 186.5439420333333345449015420 L 176.1010 186.5033950533333314372915386 L 176.330 186.4627107399999982438506170 L 176.5590 186.4218890933333349645787772 L 176.788 186.3809301133333337929798290 L 177.0170 186.3398337999999986323018675 L 177.246 186.2986000160000003991929892 L 177.4750 186.2572288986666681770050976 L 177.704 186.2157204479999980624900976 L 177.9330 186.1740746640000017653922744 L 178.162 186.1322915466666675759673429 L 178.3910 186.0903709586666664108633995 L 178.62 186.0483128999999982700804442 L 178.8490 186.0061175080000000434665708 L 179.078 185.9637847826666678277736840 L 179.3070 185.9213147240000016230017839 L 179.536 185.8787073320000014291508705 L 179.7650 185.8359626066666672462209438 L 179.994 185.7930804106666660876120053 L 180.2230 185.7500607440000018565721500 L 180.452 185.7069036066666667466051876 L 180.6810 185.6636091360000015508073072 L 180.910 185.6201770573333324894823212 L 181.1390 185.5766076453333333423264169 L 181.368 185.5329007626666672194915009 L 181.5970 185.4890565466666671075775715 L 181.826 185.4450749973333330065846288 L 182.0550 185.4009561146666649165126728 L 182.284 185.3566998986666667406097986 L 182.5130 185.3123063493333345756279111 L 182.742 185.2677754666666684215670102 L 182.9710 185.2231072506666682784270961 L 183.2 185.1783015640000011596081701 L 183.4290 185.1333584066666670651102322 L 183.658 185.0882779159999989815332810 L 183.8870 185.0430600920000008121254117 L 184.116 184.9977049346666647503904339 L 184.3450 184.9522124439999986028245379 L 184.574 184.9065823453333324929796314 L 184.8030 184.8608149133333323940557117 L 185.032 184.8149101479999983060527787 L 185.2610 184.7688680493333341322189274 L 185.490 184.7226886173333320660579678 L 185.7190 184.6763718519999999140660899 L 185.948 184.6299177533333337729951988 L 186.1770 184.5833261840000006562452957 L 186.406 184.5365972813333335504163794 L 186.6350 184.4897310453333324555084497 L 186.864 184.4427274760000012747696019 L 187.0930 184.3955864359999992151036471 L 187.322 184.3483080626666670696067740 L 187.5510 184.3008923560000009350308877 L 187.78 184.2533393160000008113759880 L 188.0090 184.2056489426666666986420751 L 188.238 184.1578212359999985968291488 L 188.4670 184.1098561960000004091853043 L 188.696 184.0617538226666682324624465 L 188.9250 184.0135139786666651768124818 L 189.154 183.9651366639999990487316002 L 189.3830 183.9166218786666659449717069 L 189.612 183.8679697599999988521328002 L 189.8410 183.8191801706666647836148816 L 190.070 183.7702529733333346560660478 L 190.2990 183.7211884426666666361901056 L 190.528 183.6719865786666685304832451 L 190.7570 183.6226472439999995458492776 L 190.986 183.5731704386666674887843934 L 191.2150 183.5235563000000014426404960 L 191.444 183.4738048280000014074175851 L 191.6730 183.4239160226666673831156610 L 191.902 183.3738898839999993697347236 L 192.1310 183.3237264120000012705228680 L 192.36 183.2734254693333322923839053 L 192.5890 183.2229867813333342686140289 L 192.818 183.1724107599999983525170440 L 193.0470 183.1216974053333323505891410 L 193.276 183.0708467173333323595822246 L 193.5050 183.0198585586666653928962963 L 193.734 182.9687330666666683403794499 L 193.9630 182.9174701040000004089354964 L 194.192 182.8660698079999984884125297 L 194.4210 182.8145321786666664820586448 L 194.650 182.7628572160000004866257465 L 194.8790 182.7110447826666675155138364 L 195.108 182.6590950160000005553229130 L 195.3370 182.6070079159999996060529763 L 195.566 182.5547833453333316811040277 L 195.7950 182.5024214413333336703241609 L 196.024 182.4499220666666647806171871 L 196.2530 182.3972853586666658050792952 L 196.482 182.3445111799999998538623913 L 196.7110 182.2915996679999999135664742 L 196.94 182.2385508226666659841915437 L 197.1690 182.1853646439999980657376000 L 197.398 182.1320411320000000614527380 L 197.6270 182.0785801493333350814888642 L 197.856 182.0249818333333322091978819 L 198.0850 181.9712461839999992510759815 L 198.314 181.9173732013333323038750677 L 198.5430 181.8633628853333352708432358 L 198.772 181.8092152360000003454842954 L 199.0010 181.7549301159999984444463432 L 199.230 181.7005076626666664575774727 L 199.4590 181.6459477386666674950295904 L 199.688 181.5912504813333345434026948 L 199.9170 181.5364156160000016294967888 L 200.146 181.4814434173333347265118694 L 200.3750 181.4263334733333348746479411 L 200.604 181.3710861960000010337049995 L 200.8330 181.3157014480000002170830461 L 201.062 181.2601793666666654113820793 L 201.2910 181.2045199520000005198501943 L 201.52 181.1487232040000016392392960 L 201.7490 181.0927889853333318797012907 L 201.978 181.0367174333333320343323673 L 202.2070 180.9805082733333322266844334 L 202.436 180.9241617799999984299574862 L 202.6650 180.8676779533333345473996208 L 202.894 180.8110566559999997859146485 L 203.1230 180.7542980253333349385987579 L 203.352 180.6974020613333321989557589 L 203.5810 180.6403687639999993734818418 L 203.810 180.5831981333333325589289113 L 204.0390 180.5258900319999987686969689 L 204.268 180.4684445973333348926341084 L 204.4970 180.4108618293333331242441394 L 204.726 180.3531415906666682834232536 L 204.9550 180.2952840186666655502752595 L 205.184 180.2372891133333327312963472 L 205.4130 180.1791568746666659232384215 L 205.642 180.1208873026666651261014825 L 205.8710 180.0624802600000012565336268 L 206.10 180.0039358839999994946386626 L 206.3290 179.9452540373333346603127817 L 206.558 179.8864348573333319336597924 L 206.7870 179.8274782066666661345758863 L 207.016 179.7683842226666663464129670 L 207.2450 179.7091529053333325691710343 L 207.474 179.6497842546666648028500883 L 207.7030 179.5902782706666669506982240 L 207.932 179.5306349533333351094673465 L 208.1610 179.4708543026666653759093606 L 208.390 179.4109363186666655565204564 L 208.6190 179.3508807266666657748525419 L 208.848 179.2906878013333320041056140 L 209.0770 179.2303575426666681475277680 L 209.306 179.1698899506666663986228135 L 209.5350 179.1092850253333345638869408 L 209.764 179.0485427666666648368239597 L 209.9930 178.9876631746666650239300604 L 210.222 178.9266461119999982353571492 L 210.4510 178.8654914413333314845052276 L 210.68 178.8041994373333346478223878 L 210.9090 178.7427699626666669322124411 L 211.138 178.6812031546666652275234810 L 211.3670 178.6194988760000004504036042 L 211.596 178.5576572640000016842047140 L 211.8250 178.4956783186666650256787155 L 212.054 178.4335620399999982813217988 L 212.2830 178.3713082906666684645339652 L 212.512 178.3089172080000007554190233 L 212.7410 178.2463886546666660706250696 L 212.970 178.1837227680000013000001976 L 213.1990 178.1209195479999986370482172 L 213.428 178.0579789946666658882653186 L 213.6570 177.9949011079999991504034066 L 213.886 177.9316858879999984234624814 L 214.1150 177.8683333346666676106906380 L 214.344 177.8048434479999989055916861 L 214.5730 177.7412160906666671280618175 L 214.802 177.6774514000000013614529356 L 215.0310 177.6135493760000016057650403 L 215.26 177.5495100186666678609981318 L 215.4890 177.4853333280000001271522100 L 215.718 177.4210190293333324310272777 L 215.9470 177.3565673973333346490714272 L 216.176 177.2919782946666659881884698 L 216.4050 177.2272518586666672414745942 L 216.634 177.1623879520000015190817066 L 216.8630 177.0973867120000018076098058 L 217.092 177.0322481386666681070588917 L 217.3210 176.9669720946666674308289657 L 217.550 176.9015587173333327655200264 L 217.7790 176.8360080066666680143801690 L 218.008 176.7703199626666653709132030 L 218.2370 176.7044945853333326416153189 L 218.466 176.6385318746666659232384215 L 218.6950 176.5724318306666652157825107 L 218.924 176.5061944533333344224956818 L 219.1530 176.4398196053333327502817459 L 219.382 176.3733070119999981291888010 L 219.6110 176.3066570853333334222649379 L 219.84 176.2398696880000017396620630 L 220.0690 176.1729449573333321647320796 L 220.298 176.1058828933333325039711781 L 220.5270 176.0386834959999988541312632 L 220.756 175.9713467653333351184604301 L 220.9850 175.9038727013333334904624886 L 221.214 175.8362613040000017766336290 L 221.4430 175.7685125733333321704776608 L 221.672 175.7006263719999994918907760 L 221.9010 175.6326028373333328242248778 L 222.130 175.5644419693333321674799663 L 222.3590 175.4961437680000014249041366 L 222.588 175.4277080959999998034011999 L 222.8170 175.3591349533333351094673465 L 223.046 175.2904244773333325232063847 L 223.2750 175.2215766679999998511145047 L 223.504 175.1525913880000002033436128 L 223.7330 175.0834687746666665664937076 L 223.962 175.0142088279999989405647890 L 224.1910 174.9448115480000012288049523 L 224.42 174.8752769346666656247180072 L 224.6490 174.8056049879999999348001438 L 224.878 174.7357955706666672692032686 L 225.1070 174.6658488200000006145273801 L 225.336 174.5957647359999999707724783 L 225.5650 174.5255433186666653379385631 L 225.794 174.4551845680000006192737298 L 226.0230 174.3846883466666650216817895 L 226.252 174.3140547919999993382589309 L 226.4810 174.2432839039999996657570591 L 226.710 174.1723756826666660041761740 L 226.9390 174.1013301279999983535162755 L 227.168 174.0301471026666676304254603 L 227.3970 173.9588267439999990150075367 L 227.626 173.8873689146666673271586963 L 227.8550 173.8157737520000016502308426 L 228.084 173.7440411186666650943758820 L 228.3130 173.6721711519999984526900031 L 228.542 173.6001638520000017251732061 L 228.7710 173.5280190813333341187293020 L 229.0 173.4557369773333325232063847 L 229.2290 173.3833175400000008418525491 L 229.458 173.3107604946666652949716081 L 229.6870 173.2380661159999996622597488 L 229.916 173.1652344040000000404688762 L 230.1450 173.0922653586666664295989904 L 230.374 173.0191584306666668832500970 L 230.6030 172.9459141693333333478221903 L 230.832 172.8725322999999998501152732 L 231.0610 172.7990129599999993767293442 L 231.290 172.7253562866666649142644019 L 231.5190 172.6515622800000003659685414 L 231.748 172.5776309400000018285936676 L 231.9770 172.5035622666666653988916854 L 232.206 172.4293562599999988833587850 L 232.4350 172.3550129199999983787468712 L 232.664 172.2805322466666677883040393 L 232.8930 172.2059142399999993055340989 L 233.122 172.1311586253333347637332433 L 233.3510 172.0562656773333323296052792 L 233.58 171.9812353959999998096463969 L 233.8090 171.9060677813333333006085013 L 234.038 171.8307628333333328024915924 L 234.2670 171.7553204146666653286956716 L 234.496 171.6797405253333347824688341 L 234.7250 171.6040230280000003707148911 L 234.954 171.5281681973333319698819347 L 235.1830 171.4521760333333334832180602 L 235.412 171.3760465360000010074751723 L 235.6410 171.2997797053333345426532712 L 235.870 171.2233755413333340887523567 L 236.0990 171.1468340439999996457724289 L 236.328 171.0701552133333351169615829 L 236.5570 170.9933390493333326958236285 L 236.786 170.9163854146666672022547573 L 237.0150 170.8392944466666638163587777 L 237.244 170.7620661453333303446318799 L 237.4730 170.6847005106666667870740639 L 237.702 170.6071975426666653371891395 L 237.9310 170.5295571040000008148732983 L 238.16 170.4517793319999984002303487 L 238.3890 170.3738642266666658997564809 L 238.618 170.2958117880000033134516949 L 238.8470 170.2176220160000028348198005 L 239.076 170.1392949106666644638607977 L 239.3050 170.0608304720000038135670669 L 239.534 169.9822286999999974644500374 L 239.7630 169.9034895946666688359982800 L 239.992 169.8246131560000023152194141 L 240.2210 169.7455993839999979021134398 L 240.450 169.6664482786666634031765474 L 240.6790 169.5871597026666658318087381 L 240.908 169.5077336559999973815138219 L 241.1370 169.4281701386666658587879889 L 241.366 169.3484692879999964437350475 L 241.5950 169.2686309666666639562511894 L 241.824 169.1886553120000013829364131 L 242.0530 169.1085423240000009172945283 L 242.282 169.0282918653333295727255366 L 242.5110 168.9479039360000029622218184 L 242.74 168.8673786733333306528948015 L 242.9690 168.7867159400000030776330580 L 243.198 168.7059158733333298035480160 L 243.4270 168.6249784733333342501282459 L 243.656 168.5439037400000008043813674 L 243.8850 168.4626915359999964797073820 L 244.114 168.3813419986666698756986686 L 244.3430 168.2998551279999975728666565 L 244.572 168.2182307866666700040999179 L 244.8010 168.1364691119999967365098807 L 245.030 168.0545701040000011895851155 L 245.2590 167.9725337626666677503332418 L 245.488 167.8903600879999964187542597 L 245.7170 167.8080486680000038480405540 L 245.946 167.7255996399999996053035526 L 246.1750 167.6430132786666652767356330 L 246.404 167.5602895840000008623367951 L 246.6330 167.4774285559999985556108489 L 246.862 167.3944300573333331764539859 L 247.0910 167.3112939506666639317700174 L 247.32 167.2280205106666646012551306 L 247.5490 167.1446097373333351849093257 L 247.778 167.0610616306666678762364124 L 248.0070 166.9773761906666704817325808 L 248.236 166.8935534173333351949016408 L 248.4650 166.8095933106666698222397827 L 248.694 166.7254958706666665572508161 L 248.9230 166.6412610973333332064309313 L 249.152 166.5568888533333367831801297 L 249.3810 166.4723792760000024676022197 L 249.610 166.3877323653333302596972014 L 249.8390 166.3029481213333357724574550 L 250.068 166.2180265440000033928906002 L 250.2970 166.1329676333333331209966370 L 250.526 166.0477712519999997766717570 L 250.7550 165.9624374000000033599159603 L 250.984 165.8769662146666690508330551 L 251.2130 165.7913575586666638628230430 L 251.442 165.7056115693333363954783029 L 251.6710 165.6197281093333302427102656 L 251.90 165.5337073160000018106075004 L 252.1290 165.4475490520000024995776282 L 252.358 165.3612533173333323096206489 L 252.5870 165.2748201119999990472327530 L 252.816 165.1882495733333356990139388 L 253.0450 165.1015415640000014718680177 L 253.274 165.0146962213333371588911784 L 253.5030 164.9277134080000019669872320 L 253.732 164.8405932613333366892523676 L 253.9610 164.7533356440000005325903961 L 254.190 164.6659406933333342900975064 L 254.4190 164.5784084093333301552775083 L 254.648 164.4907387920000037411227822 L 254.8770 164.4029318413333316281447575 L 255.106 164.3149875573333372358320048 L 255.3350 164.2269059399999971446959535 L 255.564 164.1386869893333347742251741 L 255.7930 164.0503307053333345114272864 L 256.022 163.9618369506666633697022917 L 256.2510 163.8732058626666699486425690 L 256.48 163.7844374413333308287595476 L 256.7090 163.6955316866666694295417983 L 256.938 163.6064885986666701379969406 L 257.1670 163.5173081773333329541249744 L 257.396 163.4279904226666656844220900 L 257.6250 163.3385350600000023556882904 L 257.854 163.2489422266666681480273837 L 258.0830 163.1592120600000038545355589 L 258.312 163.0693445600000016687166256 L 258.5410 162.9793397266666693970667742 L 258.770 162.8891975599999992330898143 L 258.9990 162.7989180599999989832819362 L 259.228 162.7085010893333356610431414 L 259.4570 162.6179466480000014598772395 L 259.686 162.5272548733333371728804195 L 259.9150 162.4364257653333349935564911 L 260.144 162.3454593240000027284016445 L 260.3730 162.2543554119999995843196909 L 260.602 162.1631141666666663544068191 L 260.8310 162.0717355880000030386630290 L 261.06 161.9802196760000018305921306 L 261.2890 161.8885664306666705366903140 L 261.518 161.7967758520000013504613889 L 261.7470 161.7048479400000020784015457 L 261.976 161.6127826946666649140145940 L 262.2050 161.5205801159999976637967241 L 262.434 161.4282402040000003277479360 L 262.6630 161.3357629586666650993720396 L 262.892 161.2431482426666667985652263 L 263.1210 161.1503960559999976188313061 L 263.350 161.0575065359999983532664676 L 263.5790 160.9644796826666690018707110 L 263.808 160.8713154960000017581478460 L 264.0370 160.7780139759999966220978725 L 264.266 160.6845751226666692067131711 L 264.4950 160.5909989360000038990013612 L 264.724 160.4972854160000006989624429 L 264.9530 160.4034345626666674130926064 L 265.182 160.3094463759999962348956615 L 265.4110 160.2153207186666697907639900 L 265.64 160.1210575906666646612090214 L 265.8690 160.0266569919999964592231360 L 266.098 159.9321190599999981714063324 L 266.3270 159.8374437946666697977586106 L 266.556 159.7426311960000035317837804 L 266.7850 159.6476812639999993734818418 L 267.014 159.5525939986666651293489849 L 267.2430 159.4573694000000007993852099 L 267.472 159.3620074679999985770943264 L 267.7010 159.2665082026666662689725248 L 267.930 159.1708716040000038750198049 L 268.1590 159.0750976720000035887399766 L 268.388 158.9791864066666654101330399 L 268.6170 158.8831376706666641590951864 L 268.846 158.7869516013333328222264148 L 269.0750 158.6906281986666635930305347 L 269.304 158.5941674626666642780037364 L 269.5330 158.4975693933333348771460199 L 269.762 158.4008339906666675839611950 L 269.9910 158.3039612546666702049454519 L 270.22 158.2069511853333349336026004 L 270.4490 158.1098037826666695764288306 L 270.678 158.0125190466666663269279525 L 270.9070 157.9150969773333329915961561 L 271.136 157.8175375746666695704334416 L 271.3650 157.7198408386666682569436186 L 271.594 157.6220067693333368576228774 L 271.8230 157.5240353666666675659750278 L 272.052 157.4259266306666681884962600 L 272.2810 157.3276802866666649454903867 L 272.510 157.2292966093333316166535951 L 272.7390 157.1307755986666682019858854 L 272.968 157.0321172546666668949910672 L 273.1970 156.9333215773333355021653309 L 273.426 156.8343885666666662170124861 L 273.6550 156.7353182226666668460287231 L 273.884 156.6361105453333295827178517 L 274.1130 156.5367655346666700400722524 L 274.342 156.4372831906666647986033543 L 274.5710 156.3376635133333294713035381 L 274.8 156.2379065026666640581728037 L 275.0290 156.1380121586666685592111511 L 275.258 156.0379804813333351679223900 L 275.4870 155.9378114706666638843065205 L 275.716 155.8375051266666703213559231 L 275.9450 155.7370614493333310595820270 L 276.174 155.6364804386666695184734029 L 276.4030 155.5357620946666700850376704 L 276.632 155.4349064173333327592748295 L 276.8610 155.3339132693333323610810718 L 277.090 155.2327827880000018770563959 L 277.3190 155.1315149733333335007046117 L 277.548 155.0301098253333350385219092 L 277.7770 154.9285673439999986840120982 L 278.006 154.8268873919999992570713706 L 278.2350 154.7250701066666697442997247 L 278.464 154.6231154880000023392009704 L 278.6930 154.5210235359999970417751077 L 278.922 154.4187942506666694650145170 L 279.1510 154.3164276319999961894306276 L 279.38 154.2139236800000006345120103 L 279.6090 154.1112823946666671872662846 L 279.838 154.0085037760000036541896407 L 280.0670 153.9055878240000022287858883 L 280.296 153.8025345386666629110550275 L 280.5250 153.6993439200000013139894388 L 280.754 153.5960159680000018245967416 L 280.9830 153.4925506826666644428769359 L 281.212 153.3889480639999969753262121 L 281.4410 153.2852081119999994219445701 L 281.670 153.1813308266666639762358197 L 281.8990 153.0773162079999984446961510 L 282.128 152.9731642560000028273255642 L 282.3570 152.8688749706666693176278689 L 282.586 152.7644483519999979156030652 L 282.8150 152.6598843999999964277473434 L 283.044 152.5551831146666648540607033 L 283.2730 152.4503443586666702079431464 L 283.502 152.3453682693333298630022909 L 283.7310 152.2402548466666672387267075 L 283.96 152.1350039533333337355240171 L 284.1890 152.0296157266666701464904084 L 284.418 151.9240901666666686651296914 L 284.6470 151.8184271359999963048418673 L 284.876 151.7126266346666686786193168 L 285.1050 151.6066886626666701734696592 L 285.334 151.5006133573333337759928933 L 285.5630 151.3944007186666672926852092 L 285.792 151.2880507466666629170504166 L 286.0210 151.1815634413333362620808960 L 286.250 151.0749388026666639082880768 L 286.4790 150.9681768306666692751605296 L 286.708 150.8612775253333367497058740 L 286.9370 150.7542408866666663319241100 L 287.166 150.6470669146666658283114278 L 287.3950 150.5397556093333352388678274 L 287.624 150.4323068333333337704971200 L 287.8530 150.3247207240000022162954944 L 288.082 150.2169972813333327697667604 L 288.3110 150.1091363680000002508071096 L 288.54 150.0011379839999968529203519 L 288.7690 149.8930022666666633692026759 L 288.998 149.7847292159999997996540818 L 289.2270 149.6763188319999983377783792 L 289.456 149.5677711146666667900717584 L 289.6850 149.4590857893333313768380322 L 289.914 149.3502631306666658777733877 L 290.1430 149.2413031386666702928778250 L 290.372 149.1322056760000038290551553 L 290.6010 149.0229708799999994729053772 L 290.830 148.9135987506666650309246810 L 291.0590 148.8040890133333345299130694 L 291.288 148.6944419426666661365743494 L 291.5170 148.5846575386666676574047112 L 291.746 148.4747355266666653127079674 L 291.9750 148.3646760439999998955803070 L 292.204 148.2544792279999965861255381 L 292.4330 148.1441449413333302042398524 L 292.662 148.0336733213333337365232486 L 292.8910 147.9230643679999993764795363 L 293.12 147.8123180813333349306049058 L 293.3490 147.7014344613333325924031669 L 293.578 147.5904133706666671817705113 L 293.8070 147.4792549466666638788107472 L 294.036 147.3679591893333304900200649 L 294.2650 147.2565259613333340287984659 L 294.494 147.1449552626666666886497599 L 294.7230 147.0332472306666692626701358 L 294.952 146.9214018653333339443634031 L 295.1810 146.8094191666666685402257523 L 295.410 146.6972991346666652437609931 L 295.6390 146.5850417693333318614653156 L 295.868 146.4726470706666683933387200 L 296.0970 146.3601150386666670328850159 L 296.326 146.2474456733333355866003937 L 296.5550 146.1346389746666662479886630 L 296.784 146.0216949426666668235460141 L 297.0130 145.9086135773333295067762568 L 297.242 145.7953948786666699106717715 L 297.4710 145.6820387093333316291439890 L 297.70 145.5685452066666632617852883 L 297.9290 145.4549143706666648085956694 L 298.158 145.3411462013333362695751324 L 298.3870 145.2272406986666698382274868 L 298.616 145.1131977253333325279527344 L 298.8450 144.9990174186666651318470637 L 299.074 144.8846997786666676499104748 L 299.3030 144.7702448053333322756467775 L 299.532 144.6556524986666668155521620 L 299.7610 144.5409228586666634631304381 L 299.990 144.4260558853333300248777959 L 300.2190 144.3110515786666665007942356 L 300.448 144.1959098013333320977835683 L 300.6770 144.0806306906666676089419828 L 300.906 143.9652141093333322411732903 L 301.1350 143.8496601946666667875736797 L 301.364 143.7339689466666634416469606 L 301.5930 143.6181403653333300098893233 L 301.822 143.5021744506666664923007678 L 302.0510 143.3860712026666650823851038 L 302.28 143.2698306213333335866385217 L 302.5090 143.1534527066666641985648312 L 302.738 143.0369373213333317380602239 L 302.9670 142.9202846026666691917246984 L 303.196 142.8034945506666687530620644 L 303.4250 142.6865671653333304220723221 L 303.654 142.5695023093333368251478532 L 303.8830 142.4523001199999975294000857 L 304.112 142.3349605973333359543175902 L 304.3410 142.2174837413333364869079863 L 304.570 142.0998695519999991271712740 L 304.7990 141.9821180293333316816036434 L 305.028 141.8642291733333341502050947 L 305.2570 141.7462028466666657398794390 L 305.486 141.6280391866666672437228650 L 305.7150 141.5097381933333308552391827 L 305.944 141.3912998666666643809245822 L 306.1730 141.2727242066666678207790634 L 306.402 141.1540112133333333683064363 L 306.6310 141.0351607493333358434028924 L 306.86 140.9161728146666674395722415 L 307.0890 140.7970475466666689499106724 L 307.318 140.6777849453333325679219949 L 307.5470 140.5583848733333331135024006 L 307.776 140.4388474680000035732518882 L 308.0050 140.3191727293333361406742673 L 308.234 140.1993606573333308157695380 L 308.4630 140.0794111146666702249300821 L 308.692 139.9593242386666639352673277 L 308.9210 139.8391000293333353662698452 L 309.150 139.7187384866666689049452543 L 309.3790 139.5982396106666645512935550 L 309.608 139.4776032639999971252109390 L 309.8370 139.3568295839999996132974047 L 310.066 139.2359185706666642090567620 L 310.2950 139.1148702239999987189852012 L 310.524 138.9936845440000031430827221 L 310.7530 138.8723613933333366882531360 L 310.982 138.7509007719999993544964430 L 311.2110 138.6293028173333319349088318 L 311.44 138.5075675293333344294903024 L 311.6690 138.3856947706666660451446660 L 311.898 138.2636846786666675749681114 L 312.1270 138.1415371159999982258644498 L 312.356 138.0192522199999987909298700 L 312.5850 137.8968299906666692701643721 L 312.814 137.7742704280000018570717657 L 313.0430 137.6515735319999965516520509 L 313.272 137.5287393026666689668976081 L 313.5010 137.4057677400000034898160569 L 313.730 137.2826588440000001204073972 L 313.9590 137.1594126146666666651678194 L 314.188 137.0360290520000031240973233 L 314.4170 136.9125081560000016906997189 L 314.646 136.7888497893333371848711977 L 314.8750 136.6650540893333347867155680 L 315.104 136.5411210560000023027290202 L 315.3330 136.4170506893333319264153639 L 315.562 136.2928429893333314642707895 L 315.7910 136.1684978186666679296952983 L 316.02 136.0440153146666665027926986 L 316.2490 135.9193954773333349900591808 L 316.478 135.7946383066666655849985546 L 316.7070 135.6697438026666660941070101 L 316.936 135.5447119653333287108883572 L 317.1650 135.4195427946666612418387861 L 317.394 135.2942362906666636869582968 L 317.6230 135.1687924533333360462468894 L 317.852 135.0432112826666627067121832 L 318.0810 134.9174925039999933081465618 L 318.310 134.7916363919999938237500222 L 318.5390 134.6656429466666642535225644 L 318.768 134.5395121680000045974641883 L 318.9970 134.4132436440000002827825180 L 319.226 134.2868377866666658822699295 L 319.4550 134.1602945960000013959264228 L 319.684 134.0336139346666738371519993 L 319.9130 133.9067959400000005795542772 L 320.142 133.7798403373333312629256398 L 320.3710 133.6527474013333318604660841 L 320.6 133.5255171320000023721756103 L 320.8290 133.3981495293333271850618379 L 321.058 133.2706445933333375251095276 L 321.2870 133.1430023240000021663339188 L 321.516 133.0152227213333367217273917 L 321.7450 132.8873057853333255782975660 L 321.974 132.7592513786666669754292040 L 322.2030 132.6310596386666626737375433 L 322.432 132.5027305653333282862149645 L 322.6610 132.3742641586666638128614674 L 322.890 132.2456602813333362670770536 L 323.1190 132.1169190706666630224693411 L 323.348 131.9880405266666596920307105 L 323.5770 131.8590246493333262757611616 L 323.806 131.7298714386666627736606946 L 324.0350 131.6005807573333361991293108 L 324.264 131.4711526053333309391746298 L 324.4930 131.3415871199999955933890306 L 324.722 131.2118843013333301617725132 L 324.9510 131.0820441493333346443250775 L 325.18 130.9520666639999934280543433 L 325.4090 130.8219518453333377389450713 L 325.638 130.6916996933333363510125006 L 325.8670 130.5613102080000048772490118 L 326.096 130.4307833893333277046622243 L 326.3250 130.3001192373333360592368990 L 326.554 130.1693177519999987149882751 L 326.7830 130.0383789333333312849087330 L 327.012 129.9073027813333337689982727 L 327.2410 129.7760892960000061672568942 L 327.470 129.6447384773333328666922171 L 327.6990 129.5132500506666635070966246 L 327.928 129.3816242906666640616701140 L 328.1570 129.2498611973333345304126851 L 328.386 129.1179606333333263137319591 L 328.6150 128.9859227360000036242126953 L 328.844 128.8537475053333352358701328 L 329.0730 128.7214348040000037750966536 L 329.302 128.5889847693333266154998758 L 329.5310 128.4563974013333349830645602 L 329.76 128.3236726999999976518059460 L 329.9890 128.1908106653333302347164135 L 330.218 128.0578112973333327317959629 L 330.4470 127.9246745960000051430445941 L 330.676 127.7914005613333318554699266 L 330.9050 127.6579891933333284820643409 L 331.134 127.5244404919999950228278370 L 331.3630 127.3907544573333314777604149 L 331.592 127.2569309520000048602620761 L 331.8210 127.1229701133333325439404386 L 332.050 126.9888719413333301417878829 L 332.2790 126.8546364359999976538044090 L 332.508 126.7202635973333350799900169 L 332.7370 126.5857534253333268073523262 L 332.966 126.4511059200000040618760977 L 333.1950 126.3163210813333356175765706 L 333.424 126.1813987720000041008461267 L 333.6530 126.0463391293333268852923842 L 333.882 125.9111421533333351969001039 L 334.1110 125.7758078439999978096845249 L 334.34 125.6403362013333303366380278 L 334.5690 125.5047270879999997911606139 L 334.798 125.3689806413333391598522818 L 335.0270 125.2330968613333328297206511 L 335.256 125.0970757479999964137581022 L 335.4850 124.9609173013333299119646351 L 335.714 124.8246215213333333243402497 L 335.9430 124.6881884080000066508849462 L 336.172 124.5516179613333342786063440 L 336.4010 124.4149101813333318204968236 L 336.630 124.2780649306666662899563865 L 336.8590 124.1410823466666706735850312 L 337.088 124.0039624293333293583903772 L 337.3170 123.8667051786666735703571855 L 337.546 123.7293105946666720835006951 L 337.7750 123.5917786773333405108132865 L 338.004 123.4541094266666632393025793 L 338.2330 123.3163028426666714949533343 L 338.462 123.1783587880000010651807922 L 338.6910 123.0402774000000005495773318 L 338.92 122.9020586786666699481429532 L 339.1490 122.7637026239999936478852760 L 339.378 122.6252092360000028747890610 L 339.6070 122.4865785146666664028695474 L 339.836 122.3478104599999998451191156 L 340.0650 122.2089050720000032015377656 L 340.294 122.0698623506666608591331169 L 340.5230 121.9306822960000040438899305 L 340.752 121.7913649080000015298234454 L 340.9810 121.6519101866666689299260421 L 341.210 121.5123181320000062441977207 L 341.4390 121.3725887439999978596461005 L 341.668 121.2327220226666593892635622 L 341.8970 121.0927179680000064460424862 L 342.126 120.9525765800000078039981114 L 342.3550 120.8122978586666634631304381 L 342.584 120.6718818040000046494242270 L 342.8130 120.5313284160000001368947172 L 343.042 120.3906376946666655385342892 L 343.2710 120.2498096400000008543429431 L 343.50 120.1088442520000060843206787 L 343.7290 119.9677415306666656154751157 L 343.958 119.8265014759999950607986345 L 344.1870 119.6851240879999944202912350 L 344.416 119.5436093666666636939529174 L 344.6450 119.4019573120000028817836816 L 344.874 119.2601679239999963707911472 L 345.1030 119.1182412026666597739676945 L 345.332 118.9761771479999930913133236 L 345.5610 118.8339757599999963228280346 L 345.790 118.6916370386666694685118273 L 346.0190 118.5491609839999969153723214 L 346.248 118.4065475959999942764018973 L 346.4770 118.2637968746666615516005550 L 346.706 118.1209088199999987409682944 L 346.9350 117.9778834320000058445051157 L 347.164 117.8347207106666672492186384 L 347.3930 117.6914206559999985681012428 L 347.622 117.5479832679999998011529290 L 347.8510 117.4044085466666709483736971 L 348.08 117.2606964919999963967711665 L 348.3090 117.1168471040000073723300981 L 348.538 116.9728603826666726490657311 L 348.7670 116.8287363279999922269780655 L 348.996 116.6844749399999973320518620 L 349.2250 116.5400762186666723512947404 L 349.454 116.3955401640000016717143202 L 349.6830 116.2508667760000009063029817 L 349.912 116.1060560546666700550607250 L 350.1410 115.9611079999999935049951697 L 350.370 115.8160226120000024820910767 L 350.5990 115.6707998906666657603636850 L 350.828 115.5254398359999989528053751 L 351.0570 115.3799424480000020594161470 L 351.286 115.2343077266666594672036202 L 351.5150 115.0885356720000024021525557 L 351.744 114.9426262839999996382781925 L 351.9730 114.7965795626666667885729112 L 352.202 114.6503955080000038530367116 L 352.4310 114.5040741199999952186772134 L 352.66 114.3576153986666721114791775 L 352.8890 114.2110193440000033054578428 L 353.118 114.0642859560000044136055900 L 353.3470 113.9174152346666598229300386 L 353.576 113.7704070426666677728159508 L 353.8050 113.6232613799999970372785659 L 354.034 113.4759783839999962159102627 L 354.2630 113.3285580546666653087110414 L 354.492 113.1810003920000043156809018 L 354.7210 113.0333053959999976238274636 L 354.950 112.8854730666666608461431072 L 355.1790 112.7375034039999939826278326 L 355.408 112.5893964079999970332816398 L 355.6370 112.4411520786666699981045288 L 355.866 112.2927704159999972641041192 L 356.0950 112.1442514199999944442727913 L 356.324 111.9955950906666615386105453 L 356.5530 111.8468014279999985471173811 L 356.782 111.6978704320000054697932986 L 357.0110 111.5488021026666666936459175 L 357.24 111.3995964399999978316676182 L 357.4690 111.2502534439999988838584007 L 357.698 111.1007731146666698502182650 L 357.9270 110.9511553146666621311548321 L 358.156 110.8014001813333399392528615 L 358.3850 110.6515077146666720485275922 L 358.614 110.5014779146666740719714047 L 358.8430 110.3513107813333303965919186 L 359.072 110.2010063146666722483738946 L 359.3010 110.0505645146666684013325721 L 359.530 109.8999853813333344684603314 L 359.7590 109.7492689146666704497571724 L 359.988 109.5984151146666607322307148 L 360.2170 109.4474238440000035552657210 L 360.446 109.2962951026666676928774299 L 360.6750 109.1450290280000017446582206 L 360.904 108.9936256200000057106080931 L 361.1330 108.8420848786666639777346669 L 361.362 108.6904068040000077720227030 L 361.5910 108.5385913960000058674874405 L 361.82 108.3866385173333408905212612 L 362.0490 108.2345483053333302147317833 L 362.278 108.0823207600000050661037676 L 362.5070 107.9299557440000012320524547 L 362.736 107.7774533946666673121702237 L 362.9650 107.6248137120000033064570744 L 363.194 107.4720366959999936019206264 L 363.4230 107.3191223466666694245456407 L 363.652 107.1660706639999995483473564 L 363.8810 107.0128816479999995863181539 L 364.110 106.8595552986666695384580332 L 364.3390 106.7060916159999937917746138 L 364.568 106.5524906000000035722526566 L 364.7970 106.3987522506666676539074009 L 365.026 106.2448765680000016497312269 L 365.2550 106.0908635520000055597241347 L 365.484 105.9367132026666637708937439 L 365.7130 105.7824255200000075092248153 L 365.942 105.6280005040000055487325881 L 366.1710 105.4734381546666735024094426 L 366.4 105.3187384719999957572629986 L 366.6290 105.1639014560000035392780167 L 366.858 105.0089269693333326358697377 L 367.0870 104.8538151493333316466305405 L 367.316 104.6985659960000005715604251 L 367.5450 104.5431795093333394106593914 L 367.774 104.3876556893333325509350592 L 368.0030 104.2319945359999956053798087 L 368.232 104.0761960493333285739936400 L 368.4610 103.9202600919999984701765546 L 368.690 103.7641868013333382805285510 L 368.9190 103.6079761773333323920572487 L 369.148 103.4516282199999964177550282 L 369.3770 103.2951427919999973710218910 L 369.606 103.1385198933333352518578370 L 369.8350 102.9817596613333274338704844 L 370.064 102.8248620960000051430445941 L 370.2930 102.6678271973333371533954050 L 370.522 102.5106549653333390779152978 L 370.7510 102.3533453999999953036118920 L 370.98 102.1958985013333370564699483 L 371.2090 102.0383142693333331105047061 L 371.438 101.8805927039999990787085456 L 371.6670 101.7227338053333349610814670 L 371.896 101.5647374360000077710234715 L 372.1250 101.4066037333333348821421775 L 372.354 101.2483326973333319074299652 L 372.5830 101.0899241906666658602868362 L 372.812 100.9313783506666697273127890 L 373.0410 100.7726951773333278955154431 L 373.270 100.6138746706666715908795595 L 373.4990 100.4549168306666695874203773 L 373.728 100.2958216573333374981302768 L 373.9570 100.1365891506666597100168777 L 374.186 99.9772193106666674490649408 L 374.4150 99.8177121373333294892897053 L 374.644 99.6580676306666614436835516 L 374.8730 99.4982857906666633122464797 L 375.102 99.3383666173333350949784896 L 375.3310 99.1783101106666611788872009 L 375.56 99.0181162706666727899573743 L 375.7890 98.8577850973333387022042492 L 376.018 98.6973165906666589156278254 L 376.2470 98.5367107506666646562128638 L 376.476 98.3759675773333403109669841 L 376.7050 98.2150870706666702668978057 L 376.934 98.0540692306666701369977091 L 377.1630 97.8929140573333399212666942 L 377.392 97.7316215506666640067123808 L 377.6210 97.5701917106666736193195296 L 377.850 97.4086244000000045465033812 L 378.0790 97.2469197560000053878563146 L 378.308 97.0850777786666605303859493 L 378.5370 96.9230984680000012000770463 L 378.766 96.7609818239999961709448447 L 378.9950 96.5987278466666610559817248 L 379.224 96.4363365359999958551876868 L 379.4530 96.2738077546666675819627320 L 379.682 96.1111416399999936099144785 L 379.9110 95.9483380546666721784276888 L 380.14 95.7853971360000050481176004 L 380.3690 95.6223188839999922189842134 L 380.598 95.4591032986666649170122886 L 380.8270 95.2957503800000075292094456 L 381.056 95.1322601280000044425833039 L 381.2850 94.9686325426666712701262441 L 381.514 94.8048676239999923988458856 L 381.7430 94.6409653719999990547269893 L 381.972 94.4769257866666600117847944 L 382.2010 94.3127488680000064960040618 L 382.430 94.1484346160000072814000305 L 382.6590 93.9839830306666623679727006 L 382.888 93.8193941120000029817068328 L 383.1170 93.6546678599999978966176665 L 383.346 93.4898042746666627256975820 L 383.5750 93.3248033559999974689465792 L 383.804 93.1596651040000021263646583 L 384.0330 92.9943895186666610849594387 L 384.262 92.8289766000000055707156813 L 384.4910 92.6634263480000043576486254 L 384.72 92.4977387626666730587506512 L 384.9490 92.3319138439999960610293783 L 385.178 92.1659515920000045904695677 L 385.4070 91.9998520066666674210864585 L 385.636 91.8336150880000001658724311 L 385.8650 91.6672408360000028248274854 L 386.094 91.5007292506666597849592411 L 386.3230 91.3340801946666692856524605 L 386.552 91.1672938053333330875223813 L 386.7810 91.0003700826666668035613839 L 387.010 90.8333090266666704337694682 L 387.2390 90.6661104999999953785542554 L 387.468 90.4987746400000058505005048 L 387.6970 90.3313014466666706236234556 L 387.926 90.1636909200000053109154881 L 388.1550 89.9959430599999942993842221 L 388.384 89.8280578666666688150144182 L 388.6130 89.6600352026666646452213172 L 388.842 89.4918752053333303895972980 L 389.0710 89.3235778746666660481423605 L 389.30 89.1551432106666716208565049 L 389.5290 88.9865712133333314947473506 L 389.758 88.8178618826666612828072781 L 389.9870 88.6490152186666609850362875 L 390.216 88.4800312213333306014343786 L 390.4450 88.3109098906666701320015515 L 390.674 88.1416512266666639637454258 L 390.9030 87.9722552293333277096583818 L 391.132 87.8027218986666613697404197 L 391.3610 87.6330512346666649439915394 L 391.590 87.4632432373333384324117408 L 391.8190 87.2932979066666662220086437 L 392.048 87.1232152426666639257746283 L 392.2770 86.9529952453333315437096947 L 392.506 86.7826377773333360892138444 L 392.7350 86.6121429759999949358946954 L 392.964 86.4415108413333393097370087 L 393.1930 86.2707413733333379847560233 L 393.422 86.0998345720000065739441197 L 393.6510 85.9287904373333294643089175 L 393.88 85.7576089693333378818351775 L 394.1090 85.5862901680000006005381389 L 394.338 85.4148340333333332334101821 L 394.5670 85.2432405653333357804513071 L 394.796 85.0715097639999926286691334 L 395.0250 84.8996416293333350040484220 L 395.254 84.7276361613333316806044119 L 395.4830 84.5554933599999982713294837 L 395.712 84.3832132253333347762236372 L 395.9410 84.2107957573333255822944920 L 396.170 84.0382409560000019155268092 L 396.3990 83.8655488213333325499358277 L 396.628 83.6927193533333330985139279 L 396.8570 83.5197525520000035612611100 L 397.086 83.3466484173333283251849935 L 397.3150 83.1734069493333386162703391 L 397.544 83.0000281480000032085323861 L 397.7730 82.8265120133333377149635150 L 398.002 82.6528585453333265225713452 L 398.2310 82.4790677440000008573406376 L 398.46 82.3051396093333294932866314 L 398.6890 82.1310741413333280434017070 L 398.918 81.9568713399999965076858643 L 399.1470 81.7825312053333348861391035 L 399.376 81.6080535999999945791690455 L 399.6050 81.4334386613333397993604497 L 399.834 81.2586863893333393207285553 L 400.0630 81.0837967839999931432733623 L 400.292 80.9087698453333324929796314 L 400.5210 80.7336055733333261438626020 L 400.750 80.5583039680000053219070348 L 400.9790 80.3828650293333388011281689 L 401.208 80.2072886199999935949260059 L 401.4370 80.0315748773333339158853050 L 401.666 79.8557238013333285380213056 L 401.8950 79.6797353919999930743263879 L 402.124 79.5036096493333275248005521 L 402.3530 79.3273465733333318894437980 L 402.582 79.1509461640000061682561257 L 402.8110 78.9744084213333347482451548 L 403.04 78.7977332080000002558032672 L 403.2690 78.6209206613333356775304613 L 403.498 78.4439707813333410134267372 L 403.7270 78.2668835680000006504997145 L 403.956 78.0896590213333302017417736 L 404.1850 77.9122971413333296671529145 L 404.414 77.7347979279999990467331372 L 404.6430 77.5571613813333383404824417 L 404.872 77.3793875013333319354084476 L 405.1010 77.2014762879999954445035352 L 405.330 77.0234276039999958811677061 L 405.5590 76.8452415866666662320009588 L 405.788 76.6669182360000064970032933 L 406.0170 76.4884575520000010631823291 L 406.246 76.3098593973333325569304482 L 406.4750 76.1311239093333339648476491 L 406.704 75.9522510880000052869339318 L 406.9330 75.7732409333333309101969159 L 407.162 75.5940934453333264476289817 L 407.3910 75.4148086240000075122225098 L 407.62 75.2353864693333272650003589 L 407.8490 75.0558269813333325449396701 L 408.078 74.8761301600000077390480631 L 408.3070 74.6962960053333372343331575 L 408.536 74.5163245173333366437873337 L 408.7650 74.3362156960000059674105917 L 408.994 74.1559695413333295922105511 L 409.2230 73.9755860533333387441719727 L 409.452 73.7950650946666692107100971 L 409.6810 73.6144068026666695914173033 L 409.910 73.4336111773333398862935913 L 410.1390 73.2526782186666644823465807 L 410.368 73.0716079266666589925686518 L 410.5970 72.8904003013333390299521852 L 410.826 72.7090553426666733685124200 L 411.0550 72.5275730506666620082493561 L 411.284 72.3459534253333361751477544 L 411.5130 72.1641964666666646432228542 L 411.742 71.9823021746666630254670357 L 411.9710 71.8002705493333313218802990 L 412.2 71.6181015906666695324626441 L 412.4290 71.4357952986666620442216905 L 412.658 71.2533516733333400831421992 L 412.8870 71.0707707146666724232394093 L 413.116 70.8880524226666590645133207 L 413.3450 70.7051967973333312329486944 L 413.574 70.5222037013333403289531513 L 413.8030 70.3390732720000037261343096 L 414.032 70.1558055093333370374845496 L 414.2610 69.9724004133333402630038715 L 414.490 69.7888579839999977896998947 L 414.7190 69.6051782213333408435573801 L 414.948 69.4213611253333381985915670 L 415.1770 69.2374066960000054677948356 L 415.406 69.0533149333333270381748055 L 415.6350 68.8690858373333341357162378 L 415.864 68.6847194079999955344343713 L 416.0930 68.5002156453333268473215866 L 416.322 68.3155745493333280743778839 L 416.5510 68.1307961199999992156032628 L 416.78 67.9458803573333402709977235 L 417.0090 67.7608272613333356275688857 L 417.238 67.5756368320000008983091296 L 417.4670 67.3903090693333360832184553 L 417.696 67.2048439733333255693044824 L 417.9250 67.0192415440000005825519717 L 418.154 66.8335016439999969103761638 L 418.3830 66.6476244106666631523694377 L 418.612 66.4616098439999993085317935 L 418.8410 66.2754579440000053788632309 L 419.070 66.0891687106666657503713699 L 419.2990 65.9027421439999960360485906 L 419.528 65.7161782439999962358948929 L 419.7570 65.5294770106666663499102772 L 419.986 65.3426384439999907651023629 L 420.2150 65.1556625440000007074559108 L 420.444 64.9685493106666805639785404 L 420.6730 64.7812987439999991086854910 L 420.902 64.5939108439999875675615233 L 421.1310 64.4063856106666771665913984 L 421.36 64.2187230440000054538055944 L 421.5890 64.0309231440000036551888722 L 421.818 63.8429859106666717707412317 L 422.0470 63.6549113440000098004626731 L 422.276 63.4666994439999865183684353 L 422.5050 63.2783502106666643764280403 L 422.734 63.0898636440000121486567271 L 422.9630 62.9012397439999986090697348 L 423.192 62.7124785106666549836518243 L 423.4210 62.5235799440000124983877564 L 423.650 62.3345440440000087013080095 L 423.8790 62.1453708106666748183973445 L 424.108 61.9560601066666622500633820 L 424.3370 61.7666120693333195958985015 L 424.566 61.5770266986666780818874637 L 424.7950 61.3873039946666752560607469 L 425.024 61.1974439573333423444031117 L 425.2530 61.0074465866666793469145584 L 425.482 60.8173118826666550376103259 L 425.7110 60.6270398453333318684599363 L 425.94 60.4366304746666786134786283 L 426.1690 60.2460837706666640466816413 L 426.398 60.0553997333333193940537361 L 426.6270 59.8645783626666758815796735 L 426.856 59.6736196586666710572899320 L 427.0850 59.4825236213333361471692722 L 427.314 59.2912902506666711512176940 L 427.5430 59.0999195466666760694351978 L 427.772 58.9084115093333196758370225 L 428.0010 58.7167661386666644223926900 L 428.230 58.5249834346666790831174391 L 428.4590 58.3330633973333324320265092 L 428.688 58.1410060266666556951046610 L 428.9170 57.9488113226666800983366557 L 429.146 57.7564792853333431897529711 L 429.3750 57.5640099146666761953383684 L 429.604 57.3714032106666791150928474 L 429.8330 57.1786591733333207230316475 L 430.062 56.9857778026666634711242902 L 430.2910 56.7927590986666761333860147 L 430.52 56.5996030613333274838320601 L 430.7490 56.4063096906666799744319482 L 430.978 56.2128789866666711532161572 L 431.2070 56.0193109493333322461694479 L 431.436 55.8256055786666632532918205 L 431.6650 55.6317628746666641745832748 L 431.894 55.4377828373333350100438111 L 432.1230 55.2436654666666757596734290 L 432.352 55.0494107626666551974873679 L 432.5810 54.8550187253333357754551495 L 432.810 54.6604893546666550416072521 L 433.0390 54.4658226506666754479131971 L 433.268 54.2710186133333345424034633 L 433.4970 54.0760772426666635510628112 L 433.726 53.8809985386666624738912409 L 433.9550 53.6857825013333313108887524 L 434.184 53.4904291306666700620553456 L 434.4130 53.2949384266666787273910207 L 434.642 53.0993103893333260809110167 L 434.8710 52.9035450186666745745848554 L 435.10 52.7076423146666617564430150 L 435.3290 52.5116022773333188524702564 L 435.558 52.3154249066666770886513405 L 435.7870 52.1191102026666740130167454 L 436.016 51.9226581653333408515512322 L 436.2450 51.7260687946666776042548008 L 436.474 51.5293420906666530451426903 L 436.7030 51.3324780533333296261844225 L 436.932 51.1354766826666761213952364 L 437.1610 50.9383379786666613047903714 L 437.390 50.7410619413333476283393491 L 437.6190 50.5436485706666726400726475 L 437.848 50.3460978666666675659750278 L 438.0770 50.1484098293333324060464899 L 438.306 49.9505844586666671602870337 L 438.5350 49.7526217546666718286966595 L 438.764 49.5545217173333464112753669 L 438.9930 49.3562843466666596820383954 L 439.222 49.1579096426666740929552665 L 439.4510 48.9593976053333271920564584 L 439.68 48.7607482346666814313114931 L 439.9090 48.5619615306666743587508487 L 440.138 48.3630374933333372003592861 L 440.3670 48.1639761226666699561368053 L 440.596 47.9647774186666726260834063 L 440.8250 47.7654413813333452101990891 L 441.054 47.5659680106666564824990928 L 441.2830 47.3663573066666688949529393 L 441.512 47.1666092693333199955911065 L 441.7410 46.9667238986666722363831164 L 441.970 46.7667011946666631653594474 L 442.1990 46.5665411573333240085048600 L 442.428 46.3662437866666547658193546 L 442.6570 46.1658090826666554373029309 L 442.886 45.9652370453333260229555890 L 443.1150 45.7645276746666665227773290 L 443.344 45.5636809706666769367681506 L 443.5730 45.3626969333333260389432931 L 443.802 45.1615755626666762812722785 L 444.0310 44.9603168586666652117855847 L 444.26 44.7589208213333240564679727 L 444.4890 44.5573874506666528153194425 L 444.718 44.3557167466666514883399942 L 444.9470 44.1539087093333200755296275 L 445.176 43.9519633386666585768883428 L 445.4050 43.7498806346666669924161397 L 445.634 43.5476605973333453221130185 L 445.8630 43.3453032266666623399942183 L 446.092 43.1428085226666804980292606 L 446.3210 42.9401764853333373442486239 L 446.550 42.7374071146666641046370690 L 446.7790 42.5345004106666607791945959 L 447.008 42.3314563733333273679212046 L 447.2370 42.1282750026666638708168952 L 447.466 41.9249562986666702878816674 L 447.6950 41.7215002613333466191155215 L 447.924 41.5179068906666616385336965 L 448.1530 41.3141761866666777981057142 L 448.382 41.1103081493333326458620528 L 448.6110 40.9063027786666574077874732 L 448.84 40.7021600746666520838819755 L 449.0690 40.4978800373333479001303204 L 449.298 40.2934626666666511785782253 L 449.5270 40.0889079626666555971799729 L 449.756 39.8842159253333299299508023 L 449.9850 39.6793865546666741768907135 L 450.214 39.4744198506666571120149456 L 450.4430 39.2693158133333411872930203 L 450.672 39.0640744426666639507554162 L 450.9010 38.8586957386666566283868936 L 451.130 38.6531797013333192201874529 L 451.3590 38.4475263306666517261570941 L 451.588 38.2417356266666541462958169 L 451.8170 38.0358075893333264806036217 L 452.046 37.8297422186666687290805082 L 452.2750 37.6235395146666808917264765 L 452.504 37.4171994773333317425567657 L 452.7330 37.2107221066666525075561367" /></g></g></g></g></g></g></svg>
