<svg viewBox="0 0 800 600" width="100%" version="1.1" xmlns="http://www.w3.org/2000/svg"><g><rect x="0" y="0" width="800" height="600" fill="#ffffff" /><g transform="translate(40 40)"><g transform="translate(94 0)"><text x="0" y="0" fill="#333" font-family="monospace" font-size="16">Total Cost VS Chosen Center (Part One)</text></g><g transform="translate(0 20)"><g transform="translate(94 0)"><g class="axis bottom"><text x="313.0" y="486.0" dy="1em" fill="#666" transform="" text-anchor="middle" font-family="monospace">Center</text><g class="tick"><line x1="156.50" y1="0" x2="156.50" y2="452.0" stroke="#eee" stroke-width="1" /><text x="156.50" y="456.0" dy="1em" fill="#9c9c9c" text-anchor="middle" font-family="monospace">500</text></g><g class="tick"><line x1="313.0" y1="0" x2="313.0" y2="452.0" stroke="#eee" stroke-width="1" /><text x="313.0" y="456.0" dy="1em" fill="#9c9c9c" text-anchor="middle" font-family="monospace">1000</text></g><g class="tick"><line x1="469.50" y1="0" x2="469.50" y2="452.0" stroke="#eee" stroke-width="1" /><text x="469.50" y="456.0" dy="1em" fill="#9c9c9c" text-anchor="middle" font-family="monospace">1500</text></g><g class="tick"><line x1="626" y1="0" x2="626" y2="452.0" stroke="#eee" stroke-width="1" /><text x="626" y="456.0" dy="1em" fill="#9c9c9c" text-anchor="middle" font-family="monospace">2000</text></g><g class="tick"><line x1="0" y1="0" x2="0" y2="452.0" stroke="#a8a8a8" stroke-width="1" /><text x="0" y="456.0" dy="1em" fill="#9c9c9c" text-anchor="middle" font-family="monospace">0</text></g></g><g class="axis left"><text x="-72" y="224.0" dy="" fill="#666" transform="rotate(270 -72 224)" text-anchor="middle" font-family="monospace">Total Cost</text><g class="tick"><line x1="-4" y1="448" x2="626.0" y2="448" stroke="#eee" stroke-width="1" /><text x="-8" y="448" dy="0.32em" fill="#9c9c9c" text-anchor="end" font-family="monospace">250000</text></g><g class="tick"><line x1="-4" y1="373.3333333333333333333333333" x2="626.0" y2="373.3333333333333333333333333" stroke="#eee" stroke-width="1" /><text x="-8" y="373.3333333333333333333333333" dy="0.32em" fill="#9c9c9c" text-anchor="end" font-family="monospace">500000</text></g><g class="tick"><line x1="-4" y1="298.6666666666666666666666667" x2="626.0" y2="298.6666666666666666666666667" stroke="#eee" stroke-width="1" /><text x="-8" y="298.6666666666666666666666667" dy="0.32em" fill="#9c9c9c" text-anchor="end" font-family="monospace">750000</text></g><g class="tick"><line x1="-4" y1="224.0" x2="626.0" y2="224.0" stroke="#eee" stroke-width="1" /><text x="-8" y="224.0" dy="0.32em" fill="#9c9c9c" text-anchor="end" font-family="monospace">1000000</text></g><g class="tick"><line x1="-4" y1="149.3333333333333333333333333" x2="626.0" y2="149.3333333333333333333333333" stroke="#eee" stroke-width="1" /><text x="-8" y="149.3333333333333333333333333" dy="0.32em" fill="#9c9c9c" text-anchor="end" font-family="monospace">1250000</text></g><g class="tick"><line x1="-4" y1="74.6666666666666666666666667" x2="626.0" y2="74.6666666666666666666666667" stroke="#eee" stroke-width="1" /><text x="-8" y="74.6666666666666666666666667" dy="0.32em" fill="#9c9c9c" text-anchor="end" font-family="monospace">1500000</text></g><g class="tick"><line x1="-4" y1="0" x2="626.0" y2="0" stroke="#eee" stroke-width="1" /><text x="-8" y="0" dy="0.32em" fill="#9c9c9c" text-anchor="end" font-family="monospace">1750000</text></g></g><g><g class="series lines"><path stroke="#e41a1c" fill="none" stroke-width="2" d="M 0 381.2411306666666666666666667 L 0.3130 381.5362133333333333333333333 L 0.626 381.82592 L 0.9390 382.114432 L 1.252 382.3999573333333333333333333 L 1.5650 382.684288 L 1.878 382.9662293333333333333333333 L 2.1910 383.2457813333333333333333333 L 2.504 383.521152 L 2.8170 383.7941333333333333333333333 L 3.130 384.0647253333333333333333333 L 3.4430 384.3341226666666666666666667 L 3.756 384.6023253333333333333333333 L 4.0690 384.8693333333333333333333333 L 4.382 385.1351466666666666666666667 L 4.6950 385.40096 L 5.008 385.664384 L 5.3210 385.9272106666666666666666667 L 5.634 386.1882453333333333333333333 L 5.9470 386.4486826666666666666666667 L 6.26 386.707328 L 6.5730 386.961792 L 6.886 387.2138666666666666666666667 L 7.1990 387.4647466666666666666666667 L 7.512 387.714432 L 7.8250 387.9629226666666666666666667 L 8.138 388.210816 L 8.4510 388.4569173333333333333333333 L 8.764 388.7012266666666666666666667 L 9.0770 388.9443413333333333333333333 L 9.390 389.183872 L 9.7030 389.422208 L 10.016 389.6593493333333333333333333 L 10.3290 389.8929066666666666666666667 L 10.642 390.1252693333333333333333333 L 10.9550 390.3552426666666666666666667 L 11.268 390.583424 L 11.5810 390.811008 L 11.894 391.0379946666666666666666667 L 12.2070 391.262592 L 12.52 391.4853973333333333333333333 L 12.8330 391.707008 L 13.146 391.927424 L 13.4590 392.14784 L 13.772 392.3676586666666666666666667 L 14.0850 392.58688 L 14.398 392.805504 L 14.7110 393.0229333333333333333333333 L 15.024 393.239168 L 15.3370 393.4548053333333333333333333 L 15.650 393.6704426666666666666666667 L 15.9630 393.8854826666666666666666667 L 16.276 394.099328 L 16.5890 394.312576 L 16.902 394.5252266666666666666666667 L 17.2150 394.7360853333333333333333333 L 17.528 394.9457493333333333333333333 L 17.8410 395.1542186666666666666666667 L 18.154 395.3620906666666666666666667 L 18.4670 395.5699626666666666666666667 L 18.78 395.7778346666666666666666667 L 19.0930 395.9857066666666666666666667 L 19.406 396.1935786666666666666666667 L 19.7190 396.3996586666666666666666667 L 20.032 396.6039466666666666666666667 L 20.3450 396.8076373333333333333333333 L 20.658 397.007744 L 20.9710 397.2054613333333333333333333 L 21.284 397.4007893333333333333333333 L 21.5970 397.5949226666666666666666667 L 21.910 397.7884586666666666666666667 L 22.2230 397.9819946666666666666666667 L 22.536 398.1749333333333333333333333 L 22.8490 398.3672746666666666666666667 L 23.162 398.5590186666666666666666667 L 23.4750 398.749568 L 23.788 398.9389226666666666666666667 L 24.1010 399.1264853333333333333333333 L 24.414 399.3134506666666666666666667 L 24.7270 399.4992213333333333333333333 L 25.04 399.6837973333333333333333333 L 25.3530 399.8671786666666666666666667 L 25.666 400.0499626666666666666666667 L 25.9790 400.2327466666666666666666667 L 26.292 400.4131413333333333333333333 L 26.6050 400.5923413333333333333333333 L 26.918 400.7703466666666666666666667 L 27.2310 400.948352 L 27.544 401.1245653333333333333333333 L 27.8570 401.3007786666666666666666667 L 28.170 401.4746026666666666666666667 L 28.4830 401.6460373333333333333333333 L 28.796 401.817472 L 29.1090 401.9871146666666666666666667 L 29.422 402.1555626666666666666666667 L 29.7350 402.3234133333333333333333333 L 30.048 402.4906666666666666666666667 L 30.3610 402.6573226666666666666666667 L 30.674 402.8215893333333333333333333 L 30.9870 402.9846613333333333333333333 L 31.30 403.1459413333333333333333333 L 31.6130 403.3054293333333333333333333 L 31.926 403.462528 L 32.2390 403.618432 L 32.552 403.7731413333333333333333333 L 32.8650 403.926656 L 33.178 404.0777813333333333333333333 L 33.4910 404.2283093333333333333333333 L 33.804 404.37824 L 34.1170 404.5281706666666666666666667 L 34.430 404.6769066666666666666666667 L 34.7430 404.8232533333333333333333333 L 35.056 404.9666133333333333333333333 L 35.3690 405.1081813333333333333333333 L 35.682 405.249152 L 35.9950 405.387136 L 36.308 405.5227306666666666666666667 L 36.6210 405.6565333333333333333333333 L 36.934 405.7891413333333333333333333 L 37.2470 405.9205546666666666666666667 L 37.56 406.0507733333333333333333333 L 37.8730 406.1797973333333333333333333 L 38.186 406.308224 L 38.4990 406.4360533333333333333333333 L 38.812 406.5638826666666666666666667 L 39.1250 406.6911146666666666666666667 L 39.438 406.8183466666666666666666667 L 39.7510 406.9449813333333333333333333 L 40.064 407.0710186666666666666666667 L 40.3770 407.1958613333333333333333333 L 40.690 407.3195093333333333333333333 L 41.0030 407.44256 L 41.316 407.5656106666666666666666667 L 41.6290 407.6856746666666666666666667 L 41.942 407.8021546666666666666666667 L 42.2550 407.91744 L 42.568 408.032128 L 42.8810 408.146816 L 43.194 408.2603093333333333333333333 L 43.5070 408.3732053333333333333333333 L 43.82 408.4849066666666666666666667 L 44.1330 408.5960106666666666666666667 L 44.446 408.70592 L 44.7590 408.8146346666666666666666667 L 45.072 408.9233493333333333333333333 L 45.3850 409.032064 L 45.698 409.1407786666666666666666667 L 46.0110 409.2482986666666666666666667 L 46.324 409.3558186666666666666666667 L 46.6370 409.4633386666666666666666667 L 46.950 409.5708586666666666666666667 L 47.2630 409.6783786666666666666666667 L 47.576 409.7858986666666666666666667 L 47.8890 409.892224 L 48.202 409.9985493333333333333333333 L 48.5150 410.1042773333333333333333333 L 48.828 410.2088106666666666666666667 L 49.1410 410.3127466666666666666666667 L 49.454 410.4160853333333333333333333 L 49.7670 410.5182293333333333333333333 L 50.08 410.6203733333333333333333333 L 50.3930 410.7213226666666666666666667 L 50.706 410.82048 L 51.0190 410.9184426666666666666666667 L 51.332 411.015808 L 51.6450 411.1113813333333333333333333 L 51.958 411.2063573333333333333333333 L 52.2710 411.3001386666666666666666667 L 52.584 411.3933226666666666666666667 L 52.8970 411.485312 L 53.210 411.5773013333333333333333333 L 53.5230 411.6686933333333333333333333 L 53.836 411.7582933333333333333333333 L 54.1490 411.8478933333333333333333333 L 54.462 411.9374933333333333333333333 L 54.7750 412.0258986666666666666666667 L 55.088 412.1137066666666666666666667 L 55.4010 412.20032 L 55.714 412.2857386666666666666666667 L 56.0270 412.37056 L 56.34 412.454784 L 56.6530 412.5384106666666666666666667 L 56.966 412.6220373333333333333333333 L 57.2790 412.705664 L 57.592 412.788096 L 57.9050 412.8693333333333333333333333 L 58.218 412.9499733333333333333333333 L 58.5310 413.0306133333333333333333333 L 58.844 413.1112533333333333333333333 L 59.1570 413.1918933333333333333333333 L 59.470 413.271936 L 59.7830 413.3495893333333333333333333 L 60.096 413.4272426666666666666666667 L 60.4090 413.504896 L 60.722 413.581952 L 61.0350 413.6584106666666666666666667 L 61.348 413.7348693333333333333333333 L 61.6610 413.8107306666666666666666667 L 61.974 413.8859946666666666666666667 L 62.2870 413.9612586666666666666666667 L 62.6 414.0365226666666666666666667 L 62.9130 414.1117866666666666666666667 L 63.226 414.1852586666666666666666667 L 63.5390 414.2587306666666666666666667 L 63.852 414.331008 L 64.1650 414.402688 L 64.478 414.4737706666666666666666667 L 64.7910 414.5448533333333333333333333 L 65.104 414.6153386666666666666666667 L 65.4170 414.6852266666666666666666667 L 65.730 414.7533226666666666666666667 L 66.0430 414.8208213333333333333333333 L 66.356 414.88832 L 66.6690 414.9558186666666666666666667 L 66.982 415.0221226666666666666666667 L 67.2950 415.0884266666666666666666667 L 67.608 415.1541333333333333333333333 L 67.9210 415.21984 L 68.234 415.2849493333333333333333333 L 68.5470 415.3500586666666666666666667 L 68.86 415.415168 L 69.1730 415.47968 L 69.486 415.5435946666666666666666667 L 69.7990 415.606912 L 70.112 415.6702293333333333333333333 L 70.4250 415.7329493333333333333333333 L 70.738 415.795072 L 71.0510 415.85600 L 71.364 415.9157333333333333333333333 L 71.6770 415.9748693333333333333333333 L 71.990 416.033408 L 72.3030 416.090752 L 72.616 416.148096 L 72.9290 416.2042453333333333333333333 L 73.242 416.2580053333333333333333333 L 73.5550 416.3117653333333333333333333 L 73.868 416.3655253333333333333333333 L 74.1810 416.4192853333333333333333333 L 74.494 416.4730453333333333333333333 L 74.8070 416.5256106666666666666666667 L 75.12 416.5775786666666666666666667 L 75.4330 416.6295466666666666666666667 L 75.746 416.6797226666666666666666667 L 76.0590 416.7298986666666666666666667 L 76.372 416.77888 L 76.6850 416.8266666666666666666666667 L 76.998 416.873856 L 77.3110 416.920448 L 77.624 416.96704 L 77.9370 417.0130346666666666666666667 L 78.250 417.0590293333333333333333333 L 78.5630 417.1038293333333333333333333 L 78.876 417.1486293333333333333333333 L 79.1890 417.1934293333333333333333333 L 79.502 417.237632 L 79.8150 417.28064 L 80.128 417.323648 L 80.4410 417.366656 L 80.754 417.4084693333333333333333333 L 81.0670 417.4502826666666666666666667 L 81.38 417.4914986666666666666666667 L 81.6930 417.53152 L 82.006 417.5703466666666666666666667 L 82.3190 417.608576 L 82.632 417.6468053333333333333333333 L 82.9450 417.6844373333333333333333333 L 83.258 417.721472 L 83.5710 417.7579093333333333333333333 L 83.884 417.7937493333333333333333333 L 84.1970 417.8295893333333333333333333 L 84.510 417.864832 L 84.8230 417.8994773333333333333333333 L 85.136 417.932928 L 85.4490 417.9657813333333333333333333 L 85.762 417.9980373333333333333333333 L 86.0750 418.029696 L 86.388 418.0607573333333333333333333 L 86.7010 418.0912213333333333333333333 L 87.014 418.121088 L 87.3270 418.1503573333333333333333333 L 87.64 418.1796266666666666666666667 L 87.9530 418.2082986666666666666666667 L 88.266 418.2363733333333333333333333 L 88.5790 418.264448 L 88.892 418.291328 L 89.2050 418.3170133333333333333333333 L 89.518 418.341504 L 89.8310 418.3653973333333333333333333 L 90.144 418.3886933333333333333333333 L 90.4570 418.4119893333333333333333333 L 90.770 418.4334933333333333333333333 L 91.0830 418.4549973333333333333333333 L 91.396 418.4753066666666666666666667 L 91.7090 418.495616 L 92.022 418.5141333333333333333333333 L 92.3350 418.5326506666666666666666667 L 92.648 418.551168 L 92.9610 418.5696853333333333333333333 L 93.274 418.5876053333333333333333333 L 93.5870 418.6055253333333333333333333 L 93.90 418.622848 L 94.2130 418.6395733333333333333333333 L 94.526 418.6562986666666666666666667 L 94.8390 418.6724266666666666666666667 L 95.152 418.6879573333333333333333333 L 95.4650 418.7022933333333333333333333 L 95.778 418.7166293333333333333333333 L 96.0910 418.730368 L 96.404 418.7441066666666666666666667 L 96.7170 418.757248 L 97.030 418.7691946666666666666666667 L 97.3430 418.7781546666666666666666667 L 97.656 418.7865173333333333333333333 L 97.9690 418.7936853333333333333333333 L 98.282 418.800256 L 98.5950 418.8068266666666666666666667 L 98.908 418.8133973333333333333333333 L 99.2210 418.819968 L 99.534 418.8265386666666666666666667 L 99.8470 418.8331093333333333333333333 L 100.16 418.8384853333333333333333333 L 100.4730 418.8438613333333333333333333 L 100.786 418.84864 L 101.0990 418.8534186666666666666666667 L 101.412 418.8581973333333333333333333 L 101.7250 418.862976 L 102.038 418.8671573333333333333333333 L 102.3510 418.8707413333333333333333333 L 102.664 418.873728 L 102.9770 418.87552 L 103.290 418.877312 L 103.6030 418.8761173333333333333333333 L 103.916 418.8749226666666666666666667 L 104.2290 418.871936 L 104.542 418.8689493333333333333333333 L 104.8550 418.8653653333333333333333333 L 105.168 418.8617813333333333333333333 L 105.4810 418.8581973333333333333333333 L 105.794 418.8546133333333333333333333 L 106.1070 418.850432 L 106.42 418.845056 L 106.7330 418.83968 L 107.046 418.8337066666666666666666667 L 107.3590 418.8277333333333333333333333 L 107.672 418.8205653333333333333333333 L 107.9850 418.8133973333333333333333333 L 108.298 418.805632 L 108.6110 418.7954773333333333333333333 L 108.924 418.7853226666666666666666667 L 109.2370 418.7745706666666666666666667 L 109.550 418.7632213333333333333333333 L 109.8630 418.7506773333333333333333333 L 110.176 418.7369386666666666666666667 L 110.4890 418.72320 L 110.802 418.7094613333333333333333333 L 111.1150 418.6951253333333333333333333 L 111.428 418.6807893333333333333333333 L 111.7410 418.665856 L 112.054 418.6509226666666666666666667 L 112.3670 418.6359893333333333333333333 L 112.68 418.6204586666666666666666667 L 112.9930 418.6037333333333333333333333 L 113.306 418.5858133333333333333333333 L 113.6190 418.5661013333333333333333333 L 113.932 418.5463893333333333333333333 L 114.2450 418.5254826666666666666666667 L 114.558 418.5039786666666666666666667 L 114.8710 418.4800853333333333333333333 L 115.184 418.456192 L 115.4970 418.431104 L 115.810 418.406016 L 116.1230 418.3803306666666666666666667 L 116.436 418.3546453333333333333333333 L 116.7490 418.3277653333333333333333333 L 117.062 418.3008853333333333333333333 L 117.3750 418.273408 L 117.688 418.2459306666666666666666667 L 118.0010 418.2184533333333333333333333 L 118.314 418.1903786666666666666666667 L 118.6270 418.160512 L 118.94 418.1294506666666666666666667 L 119.2530 418.0971946666666666666666667 L 119.566 418.0649386666666666666666667 L 119.8790 418.0326826666666666666666667 L 120.192 418.0004266666666666666666667 L 120.5050 417.9681706666666666666666667 L 120.818 417.9359146666666666666666667 L 121.1310 417.9030613333333333333333333 L 121.444 417.870208 L 121.7570 417.8367573333333333333333333 L 122.070 417.8015146666666666666666667 L 122.3830 417.766272 L 122.696 417.730432 L 123.0090 417.6939946666666666666666667 L 123.322 417.65696 L 123.6350 417.6199253333333333333333333 L 123.948 417.5822933333333333333333333 L 124.2610 417.544064 L 124.574 417.5058346666666666666666667 L 124.8870 417.467008 L 125.2 417.4281813333333333333333333 L 125.5130 417.3887573333333333333333333 L 125.826 417.3493333333333333333333333 L 126.1390 417.3099093333333333333333333 L 126.452 417.2704853333333333333333333 L 126.7650 417.230464 L 127.078 417.1904426666666666666666667 L 127.3910 417.1504213333333333333333333 L 127.704 417.1098026666666666666666667 L 128.0170 417.069184 L 128.330 417.0285653333333333333333333 L 128.6430 416.9879466666666666666666667 L 128.956 416.945536 L 129.2690 416.902528 L 129.582 416.85952 L 129.8950 416.8159146666666666666666667 L 130.208 416.7723093333333333333333333 L 130.5210 416.7281066666666666666666667 L 130.834 416.683904 L 131.1470 416.6385066666666666666666667 L 131.46 416.5931093333333333333333333 L 131.7730 416.5471146666666666666666667 L 132.086 416.50112 L 132.3990 416.4551253333333333333333333 L 132.712 416.4085333333333333333333333 L 133.0250 416.3619413333333333333333333 L 133.338 416.3153493333333333333333333 L 133.6510 416.26816 L 133.964 416.2203733333333333333333333 L 134.2770 416.1725866666666666666666667 L 134.590 416.12480 L 134.9030 416.076416 L 135.216 416.028032 L 135.5290 415.979648 L 135.842 415.931264 L 136.1550 415.8816853333333333333333333 L 136.468 415.8321066666666666666666667 L 136.7810 415.782528 L 137.094 415.732352 L 137.4070 415.682176 L 137.72 415.63200 L 138.0330 415.5812266666666666666666667 L 138.346 415.5304533333333333333333333 L 138.6590 415.47968 L 138.972 415.4283093333333333333333333 L 139.2850 415.3763413333333333333333333 L 139.598 415.3231786666666666666666667 L 139.9110 415.270016 L 140.224 415.2168533333333333333333333 L 140.5370 415.1636906666666666666666667 L 140.850 415.110528 L 141.1630 415.0573653333333333333333333 L 141.476 415.0042026666666666666666667 L 141.7890 414.9504426666666666666666667 L 142.102 414.8966826666666666666666667 L 142.4150 414.8429226666666666666666667 L 142.728 414.7885653333333333333333333 L 143.0410 414.734208 L 143.354 414.6792533333333333333333333 L 143.6670 414.6242986666666666666666667 L 143.98 414.569344 L 144.2930 414.5143893333333333333333333 L 144.606 414.4594346666666666666666667 L 144.9190 414.40448 L 145.232 414.3495253333333333333333333 L 145.5450 414.2939733333333333333333333 L 145.858 414.237824 L 146.1710 414.1798826666666666666666667 L 146.484 414.1207466666666666666666667 L 146.7970 414.0616106666666666666666667 L 147.110 414.0024746666666666666666667 L 147.4230 413.9433386666666666666666667 L 147.736 413.8842026666666666666666667 L 148.0490 413.8250666666666666666666667 L 148.362 413.7653333333333333333333333 L 148.6750 413.70560 L 148.988 413.6458666666666666666666667 L 149.3010 413.585536 L 149.614 413.5252053333333333333333333 L 149.9270 413.4648746666666666666666667 L 150.24 413.404544 L 150.5530 413.3442133333333333333333333 L 150.866 413.2838826666666666666666667 L 151.1790 413.223552 L 151.492 413.1632213333333333333333333 L 151.8050 413.1028906666666666666666667 L 152.118 413.0419626666666666666666667 L 152.4310 412.9810346666666666666666667 L 152.744 412.9201066666666666666666667 L 153.0570 412.8591786666666666666666667 L 153.370 412.7982506666666666666666667 L 153.6830 412.7373226666666666666666667 L 153.996 412.6763946666666666666666667 L 154.3090 412.614272 L 154.622 412.551552 L 154.9350 412.488832 L 155.248 412.4255146666666666666666667 L 155.5610 412.3621973333333333333333333 L 155.874 412.29888 L 156.1870 412.2355626666666666666666667 L 156.50 412.171648 L 156.8130 412.1077333333333333333333333 L 157.126 412.0438186666666666666666667 L 157.4390 411.979904 L 157.752 411.915392 L 158.0650 411.85088 L 158.378 411.7851733333333333333333333 L 158.6910 411.7194666666666666666666667 L 159.004 411.65376 L 159.3170 411.5868586666666666666666667 L 159.630 411.5199573333333333333333333 L 159.9430 411.4524586666666666666666667 L 160.256 411.38496 L 160.5690 411.316864 L 160.882 411.2481706666666666666666667 L 161.1950 411.17888 L 161.508 411.108992 L 161.8210 411.039104 L 162.134 410.9680213333333333333333333 L 162.4470 410.8963413333333333333333333 L 162.76 410.8246613333333333333333333 L 163.0730 410.752384 L 163.386 410.6783146666666666666666667 L 163.6990 410.603648 L 164.012 410.5277866666666666666666667 L 164.3250 410.4519253333333333333333333 L 164.638 410.3754666666666666666666667 L 164.9510 410.299008 L 165.264 410.2213546666666666666666667 L 165.5770 410.1437013333333333333333333 L 165.890 410.0654506666666666666666667 L 166.2030 409.9866026666666666666666667 L 166.516 409.9071573333333333333333333 L 166.8290 409.8271146666666666666666667 L 167.142 409.7464746666666666666666667 L 167.4550 409.6652373333333333333333333 L 167.768 409.5834026666666666666666667 L 168.0810 409.501568 L 168.394 409.419136 L 168.7070 409.3361066666666666666666667 L 169.02 409.25248 L 169.3330 409.1688533333333333333333333 L 169.646 409.0852266666666666666666667 L 169.9590 409.0010026666666666666666667 L 170.272 408.915584 L 170.5850 408.8301653333333333333333333 L 170.898 408.7441493333333333333333333 L 171.2110 408.657536 L 171.524 408.5703253333333333333333333 L 171.8370 408.4831146666666666666666667 L 172.150 408.395904 L 172.4630 408.3086933333333333333333333 L 172.776 408.2214826666666666666666667 L 173.0890 408.134272 L 173.402 408.046464 L 173.7150 407.9580586666666666666666667 L 174.028 407.8696533333333333333333333 L 174.3410 407.7806506666666666666666667 L 174.654 407.6904533333333333333333333 L 174.9670 407.600256 L 175.28 407.508864 L 175.5930 407.4168746666666666666666667 L 175.906 407.3248853333333333333333333 L 176.2190 407.2322986666666666666666667 L 176.532 407.139712 L 176.8450 407.0471253333333333333333333 L 177.158 406.9545386666666666666666667 L 177.4710 406.861952 L 177.784 406.768768 L 178.0970 406.675584 L 178.410 406.58240 L 178.7230 406.4886186666666666666666667 L 179.036 406.3936426666666666666666667 L 179.3490 406.2986666666666666666666667 L 179.662 406.2036906666666666666666667 L 179.9750 406.1081173333333333333333333 L 180.288 406.0119466666666666666666667 L 180.6010 405.9151786666666666666666667 L 180.914 405.8184106666666666666666667 L 181.2270 405.7216426666666666666666667 L 181.54 405.6242773333333333333333333 L 181.8530 405.526912 L 182.166 405.4295466666666666666666667 L 182.4790 405.3309866666666666666666667 L 182.792 405.2324266666666666666666667 L 183.1050 405.1338666666666666666666667 L 183.418 405.034112 L 183.7310 404.93376 L 184.044 404.833408 L 184.3570 404.7324586666666666666666667 L 184.670 404.6315093333333333333333333 L 184.9830 404.53056 L 185.296 404.428416 L 185.6090 404.326272 L 185.922 404.2235306666666666666666667 L 186.2350 404.1195946666666666666666667 L 186.548 404.0156586666666666666666667 L 186.8610 403.9117226666666666666666667 L 187.174 403.806592 L 187.4870 403.700864 L 187.8 403.5945386666666666666666667 L 188.1130 403.487616 L 188.426 403.3806933333333333333333333 L 188.7390 403.2737706666666666666666667 L 189.052 403.1656533333333333333333333 L 189.3650 403.055744 L 189.678 402.9452373333333333333333333 L 189.9910 402.8329386666666666666666667 L 190.304 402.72064 L 190.6170 402.6083413333333333333333333 L 190.930 402.4954453333333333333333333 L 191.2430 402.381952 L 191.556 402.2684586666666666666666667 L 191.8690 402.1549653333333333333333333 L 192.182 402.041472 L 192.4950 401.9279786666666666666666667 L 192.808 401.8144853333333333333333333 L 193.1210 401.700992 L 193.434 401.5874986666666666666666667 L 193.7470 401.4740053333333333333333333 L 194.06 401.3599146666666666666666667 L 194.3730 401.245824 L 194.686 401.1305386666666666666666667 L 194.9990 401.014656 L 195.312 400.898176 L 195.6250 400.7810986666666666666666667 L 195.938 400.6640213333333333333333333 L 196.2510 400.546944 L 196.564 400.4292693333333333333333333 L 196.8770 400.3115946666666666666666667 L 197.190 400.19392 L 197.5030 400.0750506666666666666666667 L 197.816 399.9561813333333333333333333 L 198.1290 399.837312 L 198.442 399.7184426666666666666666667 L 198.7550 399.5983786666666666666666667 L 199.068 399.4777173333333333333333333 L 199.3810 399.357056 L 199.694 399.2357973333333333333333333 L 200.0070 399.1145386666666666666666667 L 200.32 398.99328 L 200.6330 398.871424 L 200.946 398.749568 L 201.2590 398.6271146666666666666666667 L 201.572 398.504064 L 201.8850 398.380416 L 202.198 398.2561706666666666666666667 L 202.5110 398.1319253333333333333333333 L 202.824 398.0064853333333333333333333 L 203.1370 397.8798506666666666666666667 L 203.450 397.753216 L 203.7630 397.6265813333333333333333333 L 204.076 397.4999466666666666666666667 L 204.3890 397.3727146666666666666666667 L 204.702 397.2454826666666666666666667 L 205.0150 397.1182506666666666666666667 L 205.328 396.9910186666666666666666667 L 205.6410 396.8637866666666666666666667 L 205.954 396.7365546666666666666666667 L 206.2670 396.6093226666666666666666667 L 206.58 396.4820906666666666666666667 L 206.8930 396.3548586666666666666666667 L 207.206 396.2270293333333333333333333 L 207.5190 396.0986026666666666666666667 L 207.832 395.970176 L 208.1450 395.8417493333333333333333333 L 208.458 395.7133226666666666666666667 L 208.7710 395.5837013333333333333333333 L 209.084 395.45408 L 209.3970 395.3244586666666666666666667 L 209.710 395.19424 L 210.0230 395.0640213333333333333333333 L 210.336 394.9332053333333333333333333 L 210.6490 394.8023893333333333333333333 L 210.962 394.6715733333333333333333333 L 211.2750 394.54016 L 211.588 394.4087466666666666666666667 L 211.9010 394.2773333333333333333333333 L 212.214 394.14592 L 212.5270 394.0145066666666666666666667 L 212.84 393.882496 L 213.1530 393.7504853333333333333333333 L 213.466 393.6184746666666666666666667 L 213.7790 393.486464 L 214.092 393.3544533333333333333333333 L 214.4050 393.2224426666666666666666667 L 214.718 393.090432 L 215.0310 392.9584213333333333333333333 L 215.344 392.8264106666666666666666667 L 215.6570 392.6932053333333333333333333 L 215.970 392.56000 L 216.2830 392.4267946666666666666666667 L 216.596 392.292992 L 216.9090 392.1591893333333333333333333 L 217.222 392.0253866666666666666666667 L 217.5350 391.8909866666666666666666667 L 217.848 391.7559893333333333333333333 L 218.1610 391.6203946666666666666666667 L 218.474 391.4836053333333333333333333 L 218.7870 391.3462186666666666666666667 L 219.10 391.208832 L 219.4130 391.0714453333333333333333333 L 219.726 390.9340586666666666666666667 L 220.0390 390.7960746666666666666666667 L 220.352 390.6580906666666666666666667 L 220.6650 390.5201066666666666666666667 L 220.978 390.3821226666666666666666667 L 221.2910 390.2435413333333333333333333 L 221.604 390.10496 L 221.9170 389.9663786666666666666666667 L 222.230 389.82720 L 222.5430 389.6862293333333333333333333 L 222.856 389.5446613333333333333333333 L 223.1690 389.4030933333333333333333333 L 223.482 389.2603306666666666666666667 L 223.7950 389.1169706666666666666666667 L 224.108 388.9736106666666666666666667 L 224.4210 388.8296533333333333333333333 L 224.734 388.6845013333333333333333333 L 225.0470 388.5393493333333333333333333 L 225.36 388.391808 L 225.6730 388.2442666666666666666666667 L 225.986 388.096128 L 226.2990 387.9479893333333333333333333 L 226.612 387.7992533333333333333333333 L 226.9250 387.64992 L 227.238 387.5005866666666666666666667 L 227.5510 387.3512533333333333333333333 L 227.864 387.20192 L 228.1770 387.0525866666666666666666667 L 228.490 386.9032533333333333333333333 L 228.8030 386.75392 L 229.116 386.6045866666666666666666667 L 229.4290 386.4552533333333333333333333 L 229.742 386.30592 L 230.0550 386.1559893333333333333333333 L 230.368 386.0054613333333333333333333 L 230.6810 385.8549333333333333333333333 L 230.994 385.7044053333333333333333333 L 231.3070 385.5538773333333333333333333 L 231.62 385.4033493333333333333333333 L 231.9330 385.2528213333333333333333333 L 232.246 385.101696 L 232.5590 384.9499733333333333333333333 L 232.872 384.797056 L 233.1850 384.6435413333333333333333333 L 233.498 384.4900266666666666666666667 L 233.8110 384.3359146666666666666666667 L 234.124 384.1818026666666666666666667 L 234.4370 384.0270933333333333333333333 L 234.750 383.8711893333333333333333333 L 235.0630 383.7152853333333333333333333 L 235.376 383.5593813333333333333333333 L 235.6890 383.4034773333333333333333333 L 236.002 383.246976 L 236.3150 383.0898773333333333333333333 L 236.628 382.9327786666666666666666667 L 236.9410 382.7750826666666666666666667 L 237.254 382.6173866666666666666666667 L 237.5670 382.4596906666666666666666667 L 237.88 382.3019946666666666666666667 L 238.1930 382.1437013333333333333333333 L 238.506 381.9848106666666666666666667 L 238.8190 381.82592 L 239.132 381.6670293333333333333333333 L 239.4450 381.5081386666666666666666667 L 239.758 381.349248 L 240.0710 381.1891626666666666666666667 L 240.384 381.0290773333333333333333333 L 240.6970 380.868992 L 241.010 380.7089066666666666666666667 L 241.3230 380.5488213333333333333333333 L 241.636 380.388736 L 241.9490 380.2286506666666666666666667 L 242.262 380.067968 L 242.5750 379.9072853333333333333333333 L 242.888 379.7466026666666666666666667 L 243.2010 379.58592 L 243.514 379.4252373333333333333333333 L 243.8270 379.2639573333333333333333333 L 244.14 379.10208 L 244.4530 378.9402026666666666666666667 L 244.766 378.7783253333333333333333333 L 245.0790 378.616448 L 245.392 378.4545706666666666666666667 L 245.7050 378.2926933333333333333333333 L 246.018 378.1302186666666666666666667 L 246.3310 377.9671466666666666666666667 L 246.644 377.8034773333333333333333333 L 246.9570 377.639808 L 247.270 377.474944 L 247.5830 377.31008 L 247.896 377.1446186666666666666666667 L 248.2090 376.9791573333333333333333333 L 248.522 376.813696 L 248.8350 376.6482346666666666666666667 L 249.148 376.4827733333333333333333333 L 249.4610 376.317312 L 249.774 376.1518506666666666666666667 L 250.0870 375.9863893333333333333333333 L 250.4 375.8203306666666666666666667 L 250.7130 375.6536746666666666666666667 L 251.026 375.4870186666666666666666667 L 251.3390 375.3203626666666666666666667 L 251.652 375.1537066666666666666666667 L 251.9650 374.9870506666666666666666667 L 252.278 374.81920 L 252.5910 374.6513493333333333333333333 L 252.904 374.4834986666666666666666667 L 253.2170 374.315648 L 253.530 374.1477973333333333333333333 L 253.8430 373.9799466666666666666666667 L 254.156 373.812096 L 254.4690 373.643648 L 254.782 373.47520 L 255.0950 373.306752 L 255.408 373.138304 L 255.7210 372.9692586666666666666666667 L 256.034 372.8002133333333333333333333 L 256.3470 372.631168 L 256.66 372.4621226666666666666666667 L 256.9730 372.2930773333333333333333333 L 257.286 372.124032 L 257.5990 371.9549866666666666666666667 L 257.912 371.7859413333333333333333333 L 258.2250 371.6162986666666666666666667 L 258.538 371.4460586666666666666666667 L 258.8510 371.2752213333333333333333333 L 259.164 371.104384 L 259.4770 370.9329493333333333333333333 L 259.790 370.76032 L 260.1030 370.5876906666666666666666667 L 260.416 370.4150613333333333333333333 L 260.7290 370.2418346666666666666666667 L 261.042 370.0680106666666666666666667 L 261.3550 369.8941866666666666666666667 L 261.668 369.7203626666666666666666667 L 261.9810 369.5465386666666666666666667 L 262.294 369.3727146666666666666666667 L 262.6070 369.1988906666666666666666667 L 262.92 369.0244693333333333333333333 L 263.2330 368.848256 L 263.546 368.6720426666666666666666667 L 263.8590 368.4958293333333333333333333 L 264.172 368.319616 L 264.4850 368.1428053333333333333333333 L 264.798 367.9659946666666666666666667 L 265.1110 367.7885866666666666666666667 L 265.424 367.6111786666666666666666667 L 265.7370 367.4337706666666666666666667 L 266.050 367.2563626666666666666666667 L 266.3630 367.0783573333333333333333333 L 266.676 366.900352 L 266.9890 366.7223466666666666666666667 L 267.302 366.543744 L 267.6150 366.3651413333333333333333333 L 267.928 366.1859413333333333333333333 L 268.2410 366.0067413333333333333333333 L 268.554 365.826944 L 268.8670 365.6471466666666666666666667 L 269.18 365.4673493333333333333333333 L 269.4930 365.287552 L 269.806 365.1077546666666666666666667 L 270.1190 364.92736 L 270.432 364.7469653333333333333333333 L 270.7450 364.5665706666666666666666667 L 271.058 364.386176 L 271.3710 364.2057813333333333333333333 L 271.684 364.0253866666666666666666667 L 271.9970 363.8443946666666666666666667 L 272.310 363.6634026666666666666666667 L 272.6230 363.4818133333333333333333333 L 272.936 363.300224 L 273.2490 363.11744 L 273.562 362.934656 L 273.8750 362.75008 L 274.188 362.565504 L 274.5010 362.3803306666666666666666667 L 274.814 362.1951573333333333333333333 L 275.1270 362.009984 L 275.44 361.8248106666666666666666667 L 275.7530 361.63904 L 276.066 361.4532693333333333333333333 L 276.3790 361.266304 L 276.692 361.0793386666666666666666667 L 277.0050 360.8923733333333333333333333 L 277.318 360.7048106666666666666666667 L 277.6310 360.517248 L 277.944 360.3296853333333333333333333 L 278.2570 360.1421226666666666666666667 L 278.570 359.95456 L 278.8830 359.76640 L 279.196 359.57824 L 279.5090 359.39008 L 279.822 359.2013226666666666666666667 L 280.1350 359.0125653333333333333333333 L 280.448 358.823808 L 280.7610 358.6350506666666666666666667 L 281.074 358.4462933333333333333333333 L 281.3870 358.2569386666666666666666667 L 281.70 358.067584 L 282.0130 357.877632 L 282.326 357.68768 L 282.6390 357.4971306666666666666666667 L 282.952 357.3065813333333333333333333 L 283.2650 357.116032 L 283.578 356.9254826666666666666666667 L 283.8910 356.7349333333333333333333333 L 284.204 356.544384 L 284.5170 356.3538346666666666666666667 L 284.830 356.1632853333333333333333333 L 285.1430 355.9715413333333333333333333 L 285.456 355.7797973333333333333333333 L 285.7690 355.5880533333333333333333333 L 286.082 355.3963093333333333333333333 L 286.3950 355.2045653333333333333333333 L 286.708 355.0128213333333333333333333 L 287.0210 354.8210773333333333333333333 L 287.334 354.628736 L 287.6470 354.43520 L 287.96 354.241664 L 288.2730 354.0475306666666666666666667 L 288.586 353.8533973333333333333333333 L 288.8990 353.6586666666666666666666667 L 289.212 353.463936 L 289.5250 353.2692053333333333333333333 L 289.838 353.0744746666666666666666667 L 290.1510 352.8791466666666666666666667 L 290.464 352.6838186666666666666666667 L 290.7770 352.4878933333333333333333333 L 291.090 352.291968 L 291.4030 352.0960426666666666666666667 L 291.716 351.9001173333333333333333333 L 292.0290 351.704192 L 292.342 351.5082666666666666666666667 L 292.6550 351.3123413333333333333333333 L 292.968 351.116416 L 293.2810 350.9198933333333333333333333 L 293.594 350.7233706666666666666666667 L 293.9070 350.526848 L 294.22 350.3303253333333333333333333 L 294.5330 350.1338026666666666666666667 L 294.846 349.9360853333333333333333333 L 295.1590 349.738368 L 295.472 349.5400533333333333333333333 L 295.7850 349.3417386666666666666666667 L 296.098 349.1428266666666666666666667 L 296.4110 348.9439146666666666666666667 L 296.724 348.7450026666666666666666667 L 297.0370 348.5454933333333333333333333 L 297.350 348.345984 L 297.6630 348.1464746666666666666666667 L 297.976 347.9469653333333333333333333 L 298.2890 347.747456 L 298.602 347.5479466666666666666666667 L 298.9150 347.3484373333333333333333333 L 299.228 347.148928 L 299.5410 346.9488213333333333333333333 L 299.854 346.7469226666666666666666667 L 300.1670 346.545024 L 300.48 346.342528 L 300.7930 346.140032 L 301.106 345.937536 L 301.4190 345.73504 L 301.732 345.532544 L 302.0450 345.330048 L 302.358 345.127552 L 302.6710 344.925056 L 302.984 344.7219626666666666666666667 L 303.2970 344.5188693333333333333333333 L 303.610 344.315776 L 303.9230 344.1126826666666666666666667 L 304.236 343.908992 L 304.5490 343.704704 L 304.862 343.500416 L 305.1750 343.296128 L 305.488 343.0912426666666666666666667 L 305.8010 342.8863573333333333333333333 L 306.114 342.681472 L 306.4270 342.4765866666666666666666667 L 306.74 342.2717013333333333333333333 L 307.0530 342.066816 L 307.366 341.8613333333333333333333333 L 307.6790 341.6558506666666666666666667 L 307.992 341.450368 L 308.3050 341.2448853333333333333333333 L 308.618 341.0394026666666666666666667 L 308.9310 340.8333226666666666666666667 L 309.244 340.6272426666666666666666667 L 309.5570 340.4211626666666666666666667 L 309.870 340.2150826666666666666666667 L 310.1830 340.0090026666666666666666667 L 310.496 339.8023253333333333333333333 L 310.8090 339.595648 L 311.122 339.3883733333333333333333333 L 311.4350 339.1810986666666666666666667 L 311.748 338.9732266666666666666666667 L 312.0610 338.7653546666666666666666667 L 312.374 338.5574826666666666666666667 L 312.6870 338.3490133333333333333333333 L 313.0 338.140544 L 313.3130 337.9320746666666666666666667 L 313.626 337.7224106666666666666666667 L 313.9390 337.5127466666666666666666667 L 314.252 337.3030826666666666666666667 L 314.5650 337.0934186666666666666666667 L 314.878 336.8813653333333333333333333 L 315.1910 336.669312 L 315.504 336.456064 L 315.8170 336.2422186666666666666666667 L 316.130 336.0283733333333333333333333 L 316.4430 335.814528 L 316.756 335.6006826666666666666666667 L 317.0690 335.3868373333333333333333333 L 317.382 335.172992 L 317.6950 334.9591466666666666666666667 L 318.008 334.7453013333333333333333333 L 318.3210 334.531456 L 318.634 334.316416 L 318.9470 334.101376 L 319.26 333.886336 L 319.5730 333.671296 L 319.886 333.456256 L 320.1990 333.2406186666666666666666667 L 320.512 333.024384 L 320.8250 332.8069546666666666666666667 L 321.138 332.5895253333333333333333333 L 321.4510 332.372096 L 321.764 332.1546666666666666666666667 L 322.0770 331.9372373333333333333333333 L 322.390 331.719808 L 322.7030 331.5023786666666666666666667 L 323.016 331.2849493333333333333333333 L 323.3290 331.06752 L 323.642 330.8494933333333333333333333 L 323.9550 330.6314666666666666666666667 L 324.268 330.41344 L 324.5810 330.1954133333333333333333333 L 324.894 329.9773866666666666666666667 L 325.2070 329.7587626666666666666666667 L 325.52 329.5401386666666666666666667 L 325.8330 329.3215146666666666666666667 L 326.146 329.1028906666666666666666667 L 326.4590 328.8842666666666666666666667 L 326.772 328.6656426666666666666666667 L 327.0850 328.4470186666666666666666667 L 327.398 328.2283946666666666666666667 L 327.7110 328.0097706666666666666666667 L 328.024 327.7911466666666666666666667 L 328.3370 327.5725226666666666666666667 L 328.650 327.3538986666666666666666667 L 328.9630 327.1346773333333333333333333 L 329.276 326.9148586666666666666666667 L 329.5890 326.6944426666666666666666667 L 329.902 326.4740266666666666666666667 L 330.2150 326.2530133333333333333333333 L 330.528 326.03200 L 330.8410 325.8109866666666666666666667 L 331.154 325.589376 L 331.4670 325.367168 L 331.78 325.14496 L 332.0930 324.9221546666666666666666667 L 332.406 324.6993493333333333333333333 L 332.7190 324.476544 L 333.032 324.2537386666666666666666667 L 333.3450 324.030336 L 333.658 323.8069333333333333333333333 L 333.9710 323.5835306666666666666666667 L 334.284 323.3595306666666666666666667 L 334.5970 323.1355306666666666666666667 L 334.910 322.9115306666666666666666667 L 335.2230 322.6875306666666666666666667 L 335.536 322.4635306666666666666666667 L 335.8490 322.2377386666666666666666667 L 336.162 322.010752 L 336.4750 321.7837653333333333333333333 L 336.788 321.5567786666666666666666667 L 337.1010 321.329792 L 337.414 321.102208 L 337.7270 320.8734293333333333333333333 L 338.04 320.6446506666666666666666667 L 338.3530 320.415872 L 338.666 320.1870933333333333333333333 L 338.9790 319.9583146666666666666666667 L 339.292 319.729536 L 339.6050 319.5007573333333333333333333 L 339.918 319.2719786666666666666666667 L 340.2310 319.04320 L 340.544 318.813824 L 340.8570 318.584448 L 341.170 318.355072 L 341.4830 318.125696 L 341.796 317.89632 L 342.1090 317.666944 L 342.422 317.4369706666666666666666667 L 342.7350 317.20640 L 343.048 316.9758293333333333333333333 L 343.3610 316.7446613333333333333333333 L 343.674 316.5134933333333333333333333 L 343.9870 316.281728 L 344.30 316.0499626666666666666666667 L 344.6130 315.81760 L 344.926 315.58464 L 345.2390 315.3510826666666666666666667 L 345.552 315.1175253333333333333333333 L 345.8650 314.8833706666666666666666667 L 346.178 314.649216 L 346.4910 314.414464 L 346.804 314.179712 L 347.1170 313.9443626666666666666666667 L 347.430 313.7090133333333333333333333 L 347.7430 313.473664 L 348.056 313.2383146666666666666666667 L 348.3690 313.0029653333333333333333333 L 348.682 312.767616 L 348.9950 312.5322666666666666666666667 L 349.308 312.2969173333333333333333333 L 349.6210 312.061568 L 349.934 311.8256213333333333333333333 L 350.2470 311.5896746666666666666666667 L 350.56 311.353728 L 350.8730 311.1177813333333333333333333 L 351.186 310.8818346666666666666666667 L 351.4990 310.645888 L 351.812 310.4099413333333333333333333 L 352.1250 310.17280 L 352.438 309.9350613333333333333333333 L 352.7510 309.6973226666666666666666667 L 353.064 309.459584 L 353.3770 309.2218453333333333333333333 L 353.690 308.9841066666666666666666667 L 354.0030 308.746368 L 354.316 308.508032 L 354.6290 308.2690986666666666666666667 L 354.942 308.0301653333333333333333333 L 355.2550 307.791232 L 355.568 307.5522986666666666666666667 L 355.8810 307.312768 L 356.194 307.0732373333333333333333333 L 356.5070 306.8337066666666666666666667 L 356.82 306.594176 L 357.1330 306.3546453333333333333333333 L 357.446 306.1151146666666666666666667 L 357.7590 305.875584 L 358.072 305.6360533333333333333333333 L 358.3850 305.3965226666666666666666667 L 358.698 305.156992 L 359.0110 304.9174613333333333333333333 L 359.324 304.6773333333333333333333333 L 359.6370 304.436608 L 359.950 304.1958826666666666666666667 L 360.2630 303.9551573333333333333333333 L 360.576 303.714432 L 360.8890 303.4737066666666666666666667 L 361.202 303.2329813333333333333333333 L 361.5150 302.992256 L 361.828 302.7515306666666666666666667 L 362.1410 302.5108053333333333333333333 L 362.454 302.27008 L 362.7670 302.0287573333333333333333333 L 363.08 301.7868373333333333333333333 L 363.3930 301.54432 L 363.706 301.3018026666666666666666667 L 364.0190 301.0592853333333333333333333 L 364.332 300.816768 L 364.6450 300.5742506666666666666666667 L 364.958 300.3317333333333333333333333 L 365.2710 300.089216 L 365.584 299.8466986666666666666666667 L 365.8970 299.6041813333333333333333333 L 366.210 299.361664 L 366.5230 299.1191466666666666666666667 L 366.836 298.8766293333333333333333333 L 367.1490 298.6335146666666666666666667 L 367.462 298.39040 L 367.7750 298.1472853333333333333333333 L 368.088 297.9041706666666666666666667 L 368.4010 297.661056 L 368.714 297.4179413333333333333333333 L 369.0270 297.1748266666666666666666667 L 369.34 296.931712 L 369.6530 296.6885973333333333333333333 L 369.966 296.4454826666666666666666667 L 370.2790 296.202368 L 370.592 295.9592533333333333333333333 L 370.9050 295.7161386666666666666666667 L 371.218 295.473024 L 371.5310 295.2299093333333333333333333 L 371.844 294.9867946666666666666666667 L 372.1570 294.7424853333333333333333333 L 372.470 294.498176 L 372.7830 294.2538666666666666666666667 L 373.096 294.0095573333333333333333333 L 373.4090 293.765248 L 373.722 293.5209386666666666666666667 L 374.0350 293.2766293333333333333333333 L 374.348 293.03232 L 374.6610 292.7880106666666666666666667 L 374.974 292.5437013333333333333333333 L 375.2870 292.299392 L 375.6 292.0550826666666666666666667 L 375.9130 291.8107733333333333333333333 L 376.226 291.566464 L 376.5390 291.3221546666666666666666667 L 376.852 291.0778453333333333333333333 L 377.1650 290.833536 L 377.478 290.5892266666666666666666667 L 377.7910 290.3449173333333333333333333 L 378.104 290.100608 L 378.4170 289.8557013333333333333333333 L 378.730 289.6107946666666666666666667 L 379.0430 289.365888 L 379.356 289.1209813333333333333333333 L 379.6690 288.8760746666666666666666667 L 379.982 288.6305706666666666666666667 L 380.2950 288.3850666666666666666666667 L 380.608 288.1395626666666666666666667 L 380.9210 287.8940586666666666666666667 L 381.234 287.6485546666666666666666667 L 381.5470 287.4030506666666666666666667 L 381.86 287.1575466666666666666666667 L 382.1730 286.9120426666666666666666667 L 382.486 286.6665386666666666666666667 L 382.7990 286.4210346666666666666666667 L 383.112 286.1755306666666666666666667 L 383.4250 285.9300266666666666666666667 L 383.738 285.6845226666666666666666667 L 384.0510 285.4390186666666666666666667 L 384.364 285.1935146666666666666666667 L 384.6770 284.9480106666666666666666667 L 384.990 284.7025066666666666666666667 L 385.3030 284.4570026666666666666666667 L 385.616 284.2114986666666666666666667 L 385.9290 283.9659946666666666666666667 L 386.242 283.7204906666666666666666667 L 386.5550 283.4749866666666666666666667 L 386.868 283.2294826666666666666666667 L 387.1810 282.9833813333333333333333333 L 387.494 282.73728 L 387.8070 282.4911786666666666666666667 L 388.12 282.24448 L 388.4330 281.9977813333333333333333333 L 388.746 281.7510826666666666666666667 L 389.0590 281.5037866666666666666666667 L 389.372 281.2558933333333333333333333 L 389.6850 281.0074026666666666666666667 L 389.998 280.758912 L 390.3110 280.5104213333333333333333333 L 390.624 280.2619306666666666666666667 L 390.9370 280.01344 L 391.250 279.7649493333333333333333333 L 391.5630 279.5164586666666666666666667 L 391.876 279.267968 L 392.1890 279.0194773333333333333333333 L 392.502 278.7709866666666666666666667 L 392.8150 278.522496 L 393.128 278.273408 L 393.4410 278.02432 L 393.754 277.775232 L 394.0670 277.5255466666666666666666667 L 394.38 277.275264 L 394.6930 277.0249813333333333333333333 L 395.006 276.7746986666666666666666667 L 395.3190 276.524416 L 395.632 276.2741333333333333333333333 L 395.9450 276.022656 L 396.258 275.7711786666666666666666667 L 396.5710 275.5197013333333333333333333 L 396.884 275.2676266666666666666666667 L 397.1970 275.015552 L 397.510 274.7634773333333333333333333 L 397.8230 274.510208 L 398.136 274.2569386666666666666666667 L 398.4490 274.0036693333333333333333333 L 398.762 273.7492053333333333333333333 L 399.0750 273.494144 L 399.388 273.2390826666666666666666667 L 399.7010 272.983424 L 400.014 272.7277653333333333333333333 L 400.3270 272.4721066666666666666666667 L 400.64 272.216448 L 400.9530 271.9607893333333333333333333 L 401.266 271.7045333333333333333333333 L 401.5790 271.4482773333333333333333333 L 401.892 271.1920213333333333333333333 L 402.2050 270.935168 L 402.518 270.6777173333333333333333333 L 402.8310 270.4202666666666666666666667 L 403.144 270.162816 L 403.4570 269.9053653333333333333333333 L 403.770 269.6479146666666666666666667 L 404.0830 269.390464 L 404.396 269.1330133333333333333333333 L 404.7090 268.8755626666666666666666667 L 405.022 268.618112 L 405.3350 268.3606613333333333333333333 L 405.648 268.1032106666666666666666667 L 405.9610 267.84576 L 406.274 267.5883093333333333333333333 L 406.5870 267.3302613333333333333333333 L 406.90 267.0722133333333333333333333 L 407.2130 266.8141653333333333333333333 L 407.526 266.5561173333333333333333333 L 407.8390 266.2980693333333333333333333 L 408.152 266.039424 L 408.4650 265.7807786666666666666666667 L 408.778 265.5221333333333333333333333 L 409.0910 265.263488 L 409.404 265.0048426666666666666666667 L 409.7170 264.7461973333333333333333333 L 410.030 264.487552 L 410.3430 264.2289066666666666666666667 L 410.656 263.969664 L 410.9690 263.7104213333333333333333333 L 411.282 263.4505813333333333333333333 L 411.5950 263.1907413333333333333333333 L 411.908 262.9309013333333333333333333 L 412.2210 262.6710613333333333333333333 L 412.534 262.4112213333333333333333333 L 412.8470 262.1513813333333333333333333 L 413.16 261.8915413333333333333333333 L 413.4730 261.6317013333333333333333333 L 413.786 261.371264 L 414.0990 261.1108266666666666666666667 L 414.412 260.8503893333333333333333333 L 414.7250 260.589952 L 415.038 260.3289173333333333333333333 L 415.3510 260.0678826666666666666666667 L 415.664 259.806848 L 415.9770 259.5458133333333333333333333 L 416.290 259.2847786666666666666666667 L 416.6030 259.023744 L 416.916 258.7627093333333333333333333 L 417.2290 258.5010773333333333333333333 L 417.542 258.2394453333333333333333333 L 417.8550 257.9778133333333333333333333 L 418.168 257.7161813333333333333333333 L 418.4810 257.4545493333333333333333333 L 418.794 257.1929173333333333333333333 L 419.1070 256.930688 L 419.42 256.6678613333333333333333333 L 419.7330 256.4050346666666666666666667 L 420.046 256.142208 L 420.3590 255.878784 L 420.672 255.61536 L 420.9850 255.351936 L 421.298 255.088512 L 421.6110 254.8244906666666666666666667 L 421.924 254.5604693333333333333333333 L 422.2370 254.296448 L 422.550 254.0324266666666666666666667 L 422.8630 253.7684053333333333333333333 L 423.176 253.5037866666666666666666667 L 423.4890 253.239168 L 423.802 252.9745493333333333333333333 L 424.1150 252.7099306666666666666666667 L 424.428 252.445312 L 424.7410 252.180096 L 425.054 251.9142826666666666666666667 L 425.3670 251.6484693333333333333333333 L 425.68 251.382656 L 425.9930 251.1162453333333333333333333 L 426.306 250.8498346666666666666666667 L 426.6190 250.5828266666666666666666667 L 426.932 250.3158186666666666666666667 L 427.2450 250.0488106666666666666666667 L 427.558 249.7818026666666666666666667 L 427.8710 249.5147946666666666666666667 L 428.184 249.2477866666666666666666667 L 428.4970 248.9807786666666666666666667 L 428.810 248.7137706666666666666666667 L 429.1230 248.4467626666666666666666667 L 429.436 248.1797546666666666666666667 L 429.7490 247.9127466666666666666666667 L 430.062 247.6451413333333333333333333 L 430.3750 247.377536 L 430.688 247.1099306666666666666666667 L 431.0010 246.8423253333333333333333333 L 431.314 246.57472 L 431.6270 246.3065173333333333333333333 L 431.94 246.0383146666666666666666667 L 432.2530 245.770112 L 432.566 245.5019093333333333333333333 L 432.8790 245.2337066666666666666666667 L 433.192 244.965504 L 433.5050 244.6973013333333333333333333 L 433.818 244.4290986666666666666666667 L 434.1310 244.160896 L 434.444 243.8926933333333333333333333 L 434.7570 243.623296 L 435.070 243.3538986666666666666666667 L 435.3830 243.0845013333333333333333333 L 435.696 242.815104 L 436.0090 242.5439146666666666666666667 L 436.322 242.2727253333333333333333333 L 436.6350 242.001536 L 436.948 241.7297493333333333333333333 L 437.2610 241.4579626666666666666666667 L 437.574 241.1849813333333333333333333 L 437.8870 240.91200 L 438.2 240.6390186666666666666666667 L 438.5130 240.3660373333333333333333333 L 438.826 240.093056 L 439.1390 239.8200746666666666666666667 L 439.452 239.5470933333333333333333333 L 439.7650 239.274112 L 440.078 239.0005333333333333333333333 L 440.3910 238.7269546666666666666666667 L 440.704 238.453376 L 441.0170 238.1797973333333333333333333 L 441.330 237.9056213333333333333333333 L 441.6430 237.6314453333333333333333333 L 441.956 237.3572693333333333333333333 L 442.2690 237.0830933333333333333333333 L 442.582 236.8089173333333333333333333 L 442.8950 236.534144 L 443.208 236.2587733333333333333333333 L 443.5210 235.9834026666666666666666667 L 443.834 235.708032 L 444.1470 235.4326613333333333333333333 L 444.46 235.1572906666666666666666667 L 444.7730 234.88192 L 445.086 234.6065493333333333333333333 L 445.3990 234.3311786666666666666666667 L 445.712 234.055808 L 446.0250 233.7804373333333333333333333 L 446.338 233.5050666666666666666666667 L 446.6510 233.229696 L 446.964 232.9543253333333333333333333 L 447.2770 232.6789546666666666666666667 L 447.590 232.403584 L 447.9030 232.1270186666666666666666667 L 448.216 231.8504533333333333333333333 L 448.5290 231.573888 L 448.842 231.2967253333333333333333333 L 449.1550 231.0195626666666666666666667 L 449.468 230.74240 L 449.7810 230.46464 L 450.094 230.18688 L 450.4070 229.90912 L 450.72 229.63136 L 451.0330 229.35360 L 451.346 229.07584 L 451.6590 228.79808 L 451.972 228.52032 L 452.2850 228.24256 L 452.598 227.96480 L 452.9110 227.68704 L 453.224 227.4086826666666666666666667 L 453.5370 227.1303253333333333333333333 L 453.850 226.851968 L 454.1630 226.5736106666666666666666667 L 454.476 226.2952533333333333333333333 L 454.7890 226.016896 L 455.102 225.7385386666666666666666667 L 455.4150 225.4601813333333333333333333 L 455.728 225.1812266666666666666666667 L 456.0410 224.902272 L 456.354 224.6233173333333333333333333 L 456.6670 224.3443626666666666666666667 L 456.98 224.065408 L 457.2930 223.785856 L 457.606 223.506304 L 457.9190 223.226752 L 458.232 222.94720 L 458.5450 222.667648 L 458.858 222.388096 L 459.1710 222.108544 L 459.484 221.828992 L 459.7970 221.54944 L 460.110 221.2692906666666666666666667 L 460.4230 220.9891413333333333333333333 L 460.736 220.708992 L 461.0490 220.4288426666666666666666667 L 461.362 220.1486933333333333333333333 L 461.6750 219.868544 L 461.988 219.5883946666666666666666667 L 462.3010 219.3082453333333333333333333 L 462.614 219.0274986666666666666666667 L 462.9270 218.746752 L 463.24 218.4660053333333333333333333 L 463.5530 218.1852586666666666666666667 L 463.866 217.904512 L 464.1790 217.6237653333333333333333333 L 464.492 217.3430186666666666666666667 L 464.8050 217.062272 L 465.118 216.7815253333333333333333333 L 465.4310 216.5007786666666666666666667 L 465.744 216.220032 L 466.0570 215.9392853333333333333333333 L 466.370 215.6585386666666666666666667 L 466.6830 215.377792 L 466.996 215.0970453333333333333333333 L 467.3090 214.8162986666666666666666667 L 467.622 214.535552 L 467.9350 214.2548053333333333333333333 L 468.248 213.9740586666666666666666667 L 468.5610 213.693312 L 468.874 213.4125653333333333333333333 L 469.1870 213.1318186666666666666666667 L 469.50 212.851072 L 469.8130 212.5703253333333333333333333 L 470.126 212.2895786666666666666666667 L 470.4390 212.008832 L 470.752 211.7280853333333333333333333 L 471.0650 211.4473386666666666666666667 L 471.378 211.166592 L 471.6910 210.8858453333333333333333333 L 472.004 210.6050986666666666666666667 L 472.3170 210.324352 L 472.630 210.0436053333333333333333333 L 472.9430 209.7628586666666666666666667 L 473.256 209.482112 L 473.5690 209.2013653333333333333333333 L 473.882 208.9206186666666666666666667 L 474.1950 208.639872 L 474.508 208.3591253333333333333333333 L 474.8210 208.0783786666666666666666667 L 475.134 207.797632 L 475.4470 207.5168853333333333333333333 L 475.76 207.2361386666666666666666667 L 476.0730 206.955392 L 476.386 206.6746453333333333333333333 L 476.6990 206.3938986666666666666666667 L 477.012 206.113152 L 477.3250 205.8324053333333333333333333 L 477.638 205.5516586666666666666666667 L 477.9510 205.270912 L 478.264 204.9901653333333333333333333 L 478.5770 204.7094186666666666666666667 L 478.890 204.428672 L 479.2030 204.1479253333333333333333333 L 479.516 203.8671786666666666666666667 L 479.8290 203.586432 L 480.142 203.3056853333333333333333333 L 480.4550 203.0249386666666666666666667 L 480.768 202.744192 L 481.0810 202.4634453333333333333333333 L 481.394 202.1826986666666666666666667 L 481.7070 201.901952 L 482.02 201.6212053333333333333333333 L 482.3330 201.3404586666666666666666667 L 482.646 201.059712 L 482.9590 200.7789653333333333333333333 L 483.272 200.4976213333333333333333333 L 483.5850 200.21568 L 483.898 199.9337386666666666666666667 L 484.2110 199.6517973333333333333333333 L 484.524 199.369856 L 484.8370 199.0879146666666666666666667 L 485.150 198.8059733333333333333333333 L 485.4630 198.524032 L 485.776 198.2420906666666666666666667 L 486.0890 197.9601493333333333333333333 L 486.402 197.678208 L 486.7150 197.3962666666666666666666667 L 487.028 197.1143253333333333333333333 L 487.3410 196.832384 L 487.654 196.5504426666666666666666667 L 487.9670 196.2685013333333333333333333 L 488.28 195.98656 L 488.5930 195.7046186666666666666666667 L 488.906 195.4226773333333333333333333 L 489.2190 195.1401386666666666666666667 L 489.532 194.85760 L 489.8450 194.5750613333333333333333333 L 490.158 194.2925226666666666666666667 L 490.4710 194.009984 L 490.784 193.7274453333333333333333333 L 491.0970 193.4449066666666666666666667 L 491.410 193.162368 L 491.7230 192.8798293333333333333333333 L 492.036 192.5972906666666666666666667 L 492.3490 192.3141546666666666666666667 L 492.662 192.0304213333333333333333333 L 492.9750 191.746688 L 493.288 191.4629546666666666666666667 L 493.6010 191.1792213333333333333333333 L 493.914 190.895488 L 494.2270 190.6117546666666666666666667 L 494.54 190.327424 L 494.8530 190.0430933333333333333333333 L 495.166 189.7587626666666666666666667 L 495.4790 189.4738346666666666666666667 L 495.792 189.1889066666666666666666667 L 496.1050 188.9039786666666666666666667 L 496.418 188.6190506666666666666666667 L 496.7310 188.3341226666666666666666667 L 497.044 188.0491946666666666666666667 L 497.3570 187.7642666666666666666666667 L 497.670 187.4793386666666666666666667 L 497.9830 187.1944106666666666666666667 L 498.296 186.9094826666666666666666667 L 498.6090 186.6245546666666666666666667 L 498.922 186.3396266666666666666666667 L 499.2350 186.0546986666666666666666667 L 499.548 185.7697706666666666666666667 L 499.8610 185.4848426666666666666666667 L 500.174 185.1999146666666666666666667 L 500.4870 184.9149866666666666666666667 L 500.8 184.6300586666666666666666667 L 501.1130 184.3451306666666666666666667 L 501.426 184.0596053333333333333333333 L 501.7390 183.77408 L 502.052 183.4885546666666666666666667 L 502.3650 183.2030293333333333333333333 L 502.678 182.917504 L 502.9910 182.6319786666666666666666667 L 503.304 182.3464533333333333333333333 L 503.6170 182.0603306666666666666666667 L 503.930 181.774208 L 504.2430 181.4880853333333333333333333 L 504.556 181.2019626666666666666666667 L 504.8690 180.9152426666666666666666667 L 505.182 180.6279253333333333333333333 L 505.4950 180.340608 L 505.808 180.0532906666666666666666667 L 506.1210 179.7659733333333333333333333 L 506.434 179.478656 L 506.7470 179.1913386666666666666666667 L 507.06 178.9040213333333333333333333 L 507.3730 178.616704 L 507.686 178.3293866666666666666666667 L 507.9990 178.0420693333333333333333333 L 508.312 177.7541546666666666666666667 L 508.6250 177.46624 L 508.938 177.1783253333333333333333333 L 509.2510 176.8898133333333333333333333 L 509.564 176.6013013333333333333333333 L 509.8770 176.3127893333333333333333333 L 510.190 176.0242773333333333333333333 L 510.5030 175.7357653333333333333333333 L 510.816 175.4472533333333333333333333 L 511.1290 175.1587413333333333333333333 L 511.442 174.8702293333333333333333333 L 511.7550 174.5817173333333333333333333 L 512.068 174.2932053333333333333333333 L 512.3810 174.0046933333333333333333333 L 512.694 173.7161813333333333333333333 L 513.0070 173.4276693333333333333333333 L 513.32 173.1391573333333333333333333 L 513.6330 172.8506453333333333333333333 L 513.946 172.5621333333333333333333333 L 514.2590 172.2736213333333333333333333 L 514.572 171.9851093333333333333333333 L 514.8850 171.6965973333333333333333333 L 515.198 171.4080853333333333333333333 L 515.5110 171.1195733333333333333333333 L 515.824 170.8310613333333333333333333 L 516.1370 170.5425493333333333333333333 L 516.450 170.25344 L 516.7630 169.9643306666666666666666667 L 517.076 169.6752213333333333333333333 L 517.3890 169.386112 L 517.702 169.0970026666666666666666667 L 518.0150 168.8078933333333333333333333 L 518.328 168.518784 L 518.6410 168.2290773333333333333333333 L 518.954 167.9393706666666666666666667 L 519.2670 167.6490666666666666666666667 L 519.58 167.3587626666666666666666667 L 519.8930 167.0684586666666666666666667 L 520.206 166.7781546666666666666666667 L 520.5190 166.4878506666666666666666667 L 520.832 166.1975466666666666666666667 L 521.1450 165.9072426666666666666666667 L 521.458 165.6169386666666666666666667 L 521.7710 165.3266346666666666666666667 L 522.084 165.0363306666666666666666667 L 522.3970 164.7460266666666666666666667 L 522.710 164.4557226666666666666666667 L 523.0230 164.1654186666666666666666667 L 523.336 163.8751146666666666666666667 L 523.6490 163.5848106666666666666666667 L 523.962 163.2945066666666666666666667 L 524.2750 163.0042026666666666666666667 L 524.588 162.7138986666666666666666667 L 524.9010 162.4235946666666666666666667 L 525.214 162.1332906666666666666666667 L 525.5270 161.8429866666666666666666667 L 525.84 161.5526826666666666666666667 L 526.1530 161.2623786666666666666666667 L 526.466 160.9720746666666666666666667 L 526.7790 160.6817706666666666666666667 L 527.092 160.3914666666666666666666667 L 527.4050 160.1011626666666666666666667 L 527.718 159.8108586666666666666666667 L 528.0310 159.5199573333333333333333333 L 528.344 159.229056 L 528.6570 158.9381546666666666666666667 L 528.970 158.6472533333333333333333333 L 529.2830 158.3557546666666666666666667 L 529.596 158.064256 L 529.9090 157.7727573333333333333333333 L 530.222 157.4812586666666666666666667 L 530.5350 157.18976 L 530.848 156.8982613333333333333333333 L 531.1610 156.6061653333333333333333333 L 531.474 156.3140693333333333333333333 L 531.7870 156.0219733333333333333333333 L 532.10 155.7298773333333333333333333 L 532.4130 155.4377813333333333333333333 L 532.726 155.1456853333333333333333333 L 533.0390 154.8535893333333333333333333 L 533.352 154.5614933333333333333333333 L 533.6650 154.2693973333333333333333333 L 533.978 153.9773013333333333333333333 L 534.2910 153.6852053333333333333333333 L 534.604 153.3931093333333333333333333 L 534.9170 153.1010133333333333333333333 L 535.230 152.8089173333333333333333333 L 535.5430 152.5168213333333333333333333 L 535.856 152.2247253333333333333333333 L 536.1690 151.9326293333333333333333333 L 536.482 151.639936 L 536.7950 151.3472426666666666666666667 L 537.108 151.0545493333333333333333333 L 537.4210 150.761856 L 537.734 150.4691626666666666666666667 L 538.0470 150.1764693333333333333333333 L 538.36 149.883776 L 538.6730 149.5910826666666666666666667 L 538.986 149.2983893333333333333333333 L 539.2990 149.005696 L 539.612 148.7130026666666666666666667 L 539.9250 148.4203093333333333333333333 L 540.238 148.127616 L 540.5510 147.8349226666666666666666667 L 540.864 147.5422293333333333333333333 L 541.1770 147.249536 L 541.490 146.9568426666666666666666667 L 541.8030 146.6641493333333333333333333 L 542.116 146.371456 L 542.4290 146.0787626666666666666666667 L 542.742 145.7860693333333333333333333 L 543.0550 145.493376 L 543.368 145.2006826666666666666666667 L 543.6810 144.9079893333333333333333333 L 543.994 144.615296 L 544.3070 144.3226026666666666666666667 L 544.62 144.0299093333333333333333333 L 544.9330 143.737216 L 545.246 143.4445226666666666666666667 L 545.5590 143.1518293333333333333333333 L 545.872 142.8585386666666666666666667 L 546.1850 142.565248 L 546.498 142.2719573333333333333333333 L 546.8110 141.9786666666666666666666667 L 547.124 141.685376 L 547.4370 141.3920853333333333333333333 L 547.750 141.0987946666666666666666667 L 548.0630 140.805504 L 548.376 140.511616 L 548.6890 140.217728 L 549.002 139.92384 L 549.3150 139.629952 L 549.628 139.336064 L 549.9410 139.042176 L 550.254 138.748288 L 550.5670 138.45440 L 550.88 138.1599146666666666666666667 L 551.1930 137.8654293333333333333333333 L 551.506 137.570944 L 551.8190 137.2764586666666666666666667 L 552.132 136.9819733333333333333333333 L 552.4450 136.687488 L 552.758 136.3930026666666666666666667 L 553.0710 136.0985173333333333333333333 L 553.384 135.804032 L 553.6970 135.5095466666666666666666667 L 554.010 135.214464 L 554.3230 134.9193813333333333333333333 L 554.636 134.6242986666666666666666667 L 554.9490 134.329216 L 555.262 134.033536 L 555.5750 133.737856 L 555.888 133.442176 L 556.2010 133.146496 L 556.514 132.850816 L 556.8270 132.555136 L 557.14 132.259456 L 557.4530 131.963776 L 557.766 131.668096 L 558.0790 131.372416 L 558.392 131.076736 L 558.7050 130.781056 L 559.018 130.485376 L 559.3310 130.189696 L 559.644 129.8934186666666666666666667 L 559.9570 129.5971413333333333333333333 L 560.270 129.300864 L 560.5830 129.0045866666666666666666667 L 560.896 128.7083093333333333333333333 L 561.2090 128.412032 L 561.522 128.1157546666666666666666667 L 561.8350 127.8194773333333333333333333 L 562.148 127.52320 L 562.4610 127.2269226666666666666666667 L 562.774 126.9306453333333333333333333 L 563.0870 126.634368 L 563.4 126.3380906666666666666666667 L 563.7130 126.0418133333333333333333333 L 564.026 125.745536 L 564.3390 125.4492586666666666666666667 L 564.652 125.1529813333333333333333333 L 564.9650 124.856704 L 565.278 124.5598293333333333333333333 L 565.5910 124.2629546666666666666666667 L 565.904 123.96608 L 566.2170 123.6692053333333333333333333 L 566.530 123.3723306666666666666666667 L 566.8430 123.075456 L 567.156 122.7785813333333333333333333 L 567.4690 122.4817066666666666666666667 L 567.782 122.184832 L 568.0950 121.8879573333333333333333333 L 568.408 121.5910826666666666666666667 L 568.7210 121.294208 L 569.034 120.9973333333333333333333333 L 569.3470 120.7004586666666666666666667 L 569.66 120.403584 L 569.9730 120.1067093333333333333333333 L 570.286 119.8098346666666666666666667 L 570.5990 119.51296 L 570.912 119.2160853333333333333333333 L 571.2250 118.9192106666666666666666667 L 571.538 118.6217386666666666666666667 L 571.8510 118.3242666666666666666666667 L 572.164 118.0267946666666666666666667 L 572.4770 117.7293226666666666666666667 L 572.790 117.4318506666666666666666667 L 573.1030 117.1343786666666666666666667 L 573.416 116.8369066666666666666666667 L 573.7290 116.5394346666666666666666667 L 574.042 116.2419626666666666666666667 L 574.3550 115.9444906666666666666666667 L 574.668 115.6470186666666666666666667 L 574.9810 115.3495466666666666666666667 L 575.294 115.0520746666666666666666667 L 575.6070 114.7546026666666666666666667 L 575.92 114.4571306666666666666666667 L 576.2330 114.1596586666666666666666667 L 576.546 113.8621866666666666666666667 L 576.8590 113.5647146666666666666666667 L 577.172 113.2672426666666666666666667 L 577.4850 112.9697706666666666666666667 L 577.798 112.6722986666666666666666667 L 578.1110 112.3748266666666666666666667 L 578.424 112.0773546666666666666666667 L 578.7370 111.7798826666666666666666667 L 579.050 111.4824106666666666666666667 L 579.3630 111.1849386666666666666666667 L 579.676 110.8868693333333333333333333 L 579.9890 110.58880 L 580.302 110.2907306666666666666666667 L 580.6150 109.9926613333333333333333333 L 580.928 109.694592 L 581.2410 109.3965226666666666666666667 L 581.554 109.0984533333333333333333333 L 581.8670 108.800384 L 582.18 108.5023146666666666666666667 L 582.4930 108.2042453333333333333333333 L 582.806 107.906176 L 583.1190 107.6081066666666666666666667 L 583.432 107.3100373333333333333333333 L 583.7450 107.011968 L 584.058 106.7138986666666666666666667 L 584.3710 106.4158293333333333333333333 L 584.684 106.11776 L 584.9970 105.8196906666666666666666667 L 585.310 105.5216213333333333333333333 L 585.6230 105.223552 L 585.936 104.9254826666666666666666667 L 586.2490 104.6274133333333333333333333 L 586.562 104.329344 L 586.8750 104.0312746666666666666666667 L 587.188 103.7332053333333333333333333 L 587.5010 103.435136 L 587.814 103.1370666666666666666666667 L 588.1270 102.8389973333333333333333333 L 588.44 102.540928 L 588.7530 102.2428586666666666666666667 L 589.066 101.9447893333333333333333333 L 589.3790 101.64672 L 589.692 101.3486506666666666666666667 L 590.0050 101.0505813333333333333333333 L 590.318 100.752512 L 590.6310 100.4544426666666666666666667 L 590.944 100.1563733333333333333333333 L 591.2570 99.858304 L 591.570 99.5602346666666666666666667 L 591.8830 99.2621653333333333333333333 L 592.196 98.964096 L 592.5090 98.6660266666666666666666667 L 592.822 98.3679573333333333333333333 L 593.1350 98.069888 L 593.448 97.7718186666666666666666667 L 593.7610 97.4737493333333333333333333 L 594.074 97.17568 L 594.3870 96.8776106666666666666666667 L 594.70 96.5795413333333333333333333 L 595.0130 96.281472 L 595.326 95.9834026666666666666666667 L 595.6390 95.6853333333333333333333333 L 595.952 95.387264 L 596.2650 95.0891946666666666666666667 L 596.578 94.7911253333333333333333333 L 596.8910 94.493056 L 597.204 94.1949866666666666666666667 L 597.5170 93.8969173333333333333333333 L 597.830 93.598848 L 598.1430 93.3007786666666666666666667 L 598.456 93.0027093333333333333333333 L 598.7690 92.70464 L 599.082 92.4065706666666666666666667 L 599.3950 92.1085013333333333333333333 L 599.708 91.810432 L 600.0210 91.5123626666666666666666667 L 600.334 91.2142933333333333333333333 L 600.6470 90.916224 L 600.96 90.6181546666666666666666667 L 601.2730 90.3200853333333333333333333 L 601.586 90.022016 L 601.8990 89.7239466666666666666666667 L 602.212 89.4258773333333333333333333 L 602.5250 89.127808 L 602.838 88.8297386666666666666666667 L 603.1510 88.5316693333333333333333333 L 603.464 88.23360 L 603.7770 87.9355306666666666666666667 L 604.090 87.6374613333333333333333333 L 604.4030 87.339392 L 604.716 87.0413226666666666666666667 L 605.0290 86.7432533333333333333333333 L 605.342 86.445184 L 605.6550 86.1471146666666666666666667 L 605.968 85.8490453333333333333333333 L 606.2810 85.550976 L 606.594 85.2529066666666666666666667 L 606.9070 84.9548373333333333333333333 L 607.22 84.656768 L 607.5330 84.3586986666666666666666667 L 607.846 84.0606293333333333333333333 L 608.1590 83.76256 L 608.472 83.4644906666666666666666667 L 608.7850 83.1664213333333333333333333 L 609.098 82.868352 L 609.4110 82.5702826666666666666666667 L 609.724 82.2722133333333333333333333 L 610.0370 81.974144 L 610.350 81.6760746666666666666666667 L 610.6630 81.3780053333333333333333333 L 610.976 81.079936 L 611.2890 80.7818666666666666666666667 L 611.602 80.4837973333333333333333333 L 611.9150 80.185728 L 612.228 79.8876586666666666666666667 L 612.5410 79.5895893333333333333333333 L 612.854 79.29152 L 613.1670 78.9934506666666666666666667 L 613.48 78.6953813333333333333333333 L 613.7930 78.397312 L 614.106 78.0992426666666666666666667 L 614.4190 77.8011733333333333333333333 L 614.732 77.503104 L 615.0450 77.2050346666666666666666667 L 615.358 76.9069653333333333333333333 L 615.6710 76.608896 L 615.984 76.3108266666666666666666667 L 616.2970 76.0127573333333333333333333 L 616.610 75.714688 L 616.9230 75.4166186666666666666666667 L 617.236 75.1185493333333333333333333 L 617.5490 74.82048 L 617.862 74.5224106666666666666666667 L 618.1750 74.2243413333333333333333333 L 618.488 73.926272 L 618.8010 73.6282026666666666666666667" /></g></g></g></g></g></g></svg>
