<svg viewBox="0 0 800 600" width="100%" version="1.1" xmlns="http://www.w3.org/2000/svg"><g><rect x="0" y="0" width="800" height="600" fill="#ffffff" /><g transform="translate(40 40)"><g transform="translate(118 0)"><text x="0" y="0" fill="#333" font-family="monospace" font-size="16">Total Cost VS Chosen Center (Part Two)</text></g><g transform="translate(0 20)"><g transform="translate(118 0)"><g class="axis bottom"><text x="301.0" y="486.0" dy="1em" fill="#666" transform="" text-anchor="middle" font-family="monospace">Center</text><g class="tick"><line x1="150.50" y1="0" x2="150.50" y2="452.0" stroke="#eee" stroke-width="1" /><text x="150.50" y="456.0" dy="1em" fill="#9c9c9c" text-anchor="middle" font-family="monospace">500</text></g><g class="tick"><line x1="301.0" y1="0" x2="301.0" y2="452.0" stroke="#eee" stroke-width="1" /><text x="301.0" y="456.0" dy="1em" fill="#9c9c9c" text-anchor="middle" font-family="monospace">1000</text></g><g class="tick"><line x1="451.50" y1="0" x2="451.50" y2="452.0" stroke="#eee" stroke-width="1" /><text x="451.50" y="456.0" dy="1em" fill="#9c9c9c" text-anchor="middle" font-family="monospace">1500</text></g><g class="tick"><line x1="602" y1="0" x2="602" y2="452.0" stroke="#eee" stroke-width="1" /><text x="602" y="456.0" dy="1em" fill="#9c9c9c" text-anchor="middle" font-family="monospace">2000</text></g><g class="tick"><line x1="0" y1="0" x2="0" y2="452.0" stroke="#a8a8a8" stroke-width="1" /><text x="0" y="456.0" dy="1em" fill="#9c9c9c" text-anchor="middle" font-family="monospace">0</text></g></g><g class="axis left"><text x="-96" y="224.0" dy="" fill="#666" transform="rotate(270 -96 224)" text-anchor="middle" font-family="monospace">Total Cost</text><g class="tick"><line x1="-4" y1="298.6666666666666666666666667" x2="602.0" y2="298.6666666666666666666666667" stroke="#eee" stroke-width="1" /><text x="-8" y="298.6666666666666666666666667" dy="0.32em" fill="#9c9c9c" text-anchor="end" font-family="monospace">500000000</text></g><g class="tick"><line x1="-4" y1="149.3333333333333333333333333" x2="602.0" y2="149.3333333333333333333333333" stroke="#eee" stroke-width="1" /><text x="-8" y="149.3333333333333333333333333" dy="0.32em" fill="#9c9c9c" text-anchor="end" font-family="monospace">1000000000</text></g><g class="tick"><line x1="-4" y1="0" x2="602.0" y2="0" stroke="#eee" stroke-width="1" /><text x="-8" y="0" dy="0.32em" fill="#9c9c9c" text-anchor="end" font-family="monospace">1500000000</text></g><g class="tick"><line x1="-4" y1="448" x2="602.0" y2="448" stroke="#a8a8a8" stroke-width="1" /><text x="-8" y="448" dy="0.32em" fill="#9c9c9c" text-anchor="end" font-family="monospace">0</text></g></g><g><g class="series lines"><path stroke="#e41a1c" fill="none" stroke-width="2" d="M 0 385.1534746453333333333333333 L 0.3010 385.2948983893333333333333333 L 0.602 385.4360207786666666666666667 L 0.9030 385.576843904 L 1.204 385.7173668693333333333333333 L 1.5050 385.8575905706666666666666667 L 1.806 385.9975144106666666666666667 L 2.1070 386.1371383893333333333333333 L 2.408 386.2764616106666666666666667 L 2.7090 386.4154849706666666666666667 L 3.010 386.5542084693333333333333333 L 3.3110 386.692632704 L 3.612 386.8307576746666666666666667 L 3.9130 386.9685833813333333333333333 L 4.214 387.106109824 L 4.5150 387.24333760 L 4.816 387.3802655146666666666666667 L 5.1170 387.516894464 L 5.418 387.6532238506666666666666667 L 5.7190 387.789254272 L 6.02 387.9249851306666666666666667 L 6.3210 388.060415232 L 6.622 388.195545472 L 6.9230 388.330376448 L 7.224 388.46490816 L 7.5250 388.599140608 L 7.826 388.7330740906666666666666667 L 8.1270 388.8667080106666666666666667 L 8.428 389.000042368 L 8.7290 389.1330774613333333333333333 L 9.030 389.265812096 L 9.3310 389.3982474666666666666666667 L 9.632 389.5303835733333333333333333 L 9.9330 389.6622192213333333333333333 L 10.234 389.7937556053333333333333333 L 10.5350 389.924992128 L 10.836 390.055929088 L 11.1370 390.1865670826666666666666667 L 11.438 390.316906112 L 11.7390 390.44694528 L 12.04 390.5766848853333333333333333 L 12.3410 390.7061252266666666666666667 L 12.642 390.835266304 L 12.9430 390.9641087146666666666666667 L 13.244 391.09265216 L 13.5450 391.22089664 L 13.846 391.3488421546666666666666667 L 14.1470 391.4764884053333333333333333 L 14.448 391.603835392 L 14.7490 391.7308834133333333333333333 L 15.050 391.857632768 L 15.3510 391.9840831573333333333333333 L 15.652 392.1102342826666666666666667 L 15.9530 392.2360864426666666666666667 L 16.254 392.3616396373333333333333333 L 16.5550 392.4868932693333333333333333 L 16.856 392.6118476373333333333333333 L 17.1570 392.7365027413333333333333333 L 17.458 392.86085888 L 17.7590 392.984916352 L 18.06 393.1086751573333333333333333 L 18.3610 393.232135296 L 18.662 393.355296768 L 18.9630 393.4781586773333333333333333 L 19.264 393.600721024 L 19.5650 393.7229844053333333333333333 L 19.866 393.844947328 L 20.1670 393.9666103893333333333333333 L 20.468 394.0879735893333333333333333 L 20.7690 394.2090375253333333333333333 L 21.070 394.329802496 L 21.3710 394.45026880 L 21.672 394.5704361386666666666666667 L 21.9730 394.690304512 L 22.274 394.80987392 L 22.5750 394.929144064 L 22.876 395.048114944 L 23.1770 395.1667862613333333333333333 L 23.478 395.2851586133333333333333333 L 23.7790 395.4032317013333333333333333 L 24.08 395.5210055253333333333333333 L 24.3810 395.6384800853333333333333333 L 24.682 395.75565568 L 24.9830 395.872532608 L 25.284 395.9891096746666666666666667 L 25.5850 396.1053874773333333333333333 L 25.886 396.221366016 L 26.1870 396.337045888 L 26.488 396.4524261973333333333333333 L 26.7890 396.56750784 L 27.090 396.6822896213333333333333333 L 27.3910 396.7967715413333333333333333 L 27.692 396.9109547946666666666666667 L 27.9930 397.0248384853333333333333333 L 28.294 397.138422912 L 28.5950 397.2517083733333333333333333 L 28.896 397.3646948693333333333333333 L 29.1970 397.4773824 L 29.498 397.5897700693333333333333333 L 29.7990 397.7018584746666666666666667 L 30.10 397.8136473173333333333333333 L 30.4010 397.9251365973333333333333333 L 30.702 398.036326016 L 31.0030 398.1472161706666666666666667 L 31.304 398.2578070613333333333333333 L 31.6050 398.368098688 L 31.906 398.4780904533333333333333333 L 32.2070 398.5877832533333333333333333 L 32.508 398.697177088 L 32.8090 398.806272256 L 33.110 398.91506816 L 33.4110 399.0235642026666666666666667 L 33.712 399.1317600853333333333333333 L 34.0130 399.2396564053333333333333333 L 34.314 399.34725376 L 34.6150 399.4545509546666666666666667 L 34.916 399.561548288 L 35.2170 399.6682460586666666666666667 L 35.518 399.7746445653333333333333333 L 35.8190 399.880743808 L 36.12 399.9865437866666666666666667 L 36.4210 400.0920445013333333333333333 L 36.722 400.1972462506666666666666667 L 37.0230 400.3021490346666666666666667 L 37.324 400.406753152 L 37.6250 400.511058304 L 37.926 400.6150647893333333333333333 L 38.2270 400.7187723093333333333333333 L 38.528 400.822180864 L 38.8290 400.9252901546666666666666667 L 39.130 401.0281001813333333333333333 L 39.4310 401.1306112426666666666666667 L 39.732 401.2328236373333333333333333 L 40.0330 401.334735872 L 40.334 401.436347648 L 40.6350 401.53766016 L 40.936 401.6386737066666666666666667 L 41.2370 401.7393885866666666666666667 L 41.538 401.8398042026666666666666667 L 41.8390 401.9399208533333333333333333 L 42.14 402.03973824 L 42.4410 402.1392566613333333333333333 L 42.742 402.2384758186666666666666667 L 43.0430 402.337395712 L 43.344 402.4360169386666666666666667 L 43.6450 402.5343394986666666666666667 L 43.946 402.632363392 L 44.2470 402.7300880213333333333333333 L 44.548 402.827513984 L 44.8490 402.92464128 L 45.150 403.0214699093333333333333333 L 45.4510 403.117999872 L 45.752 403.214231168 L 46.0530 403.3101632 L 46.354 403.4057965653333333333333333 L 46.6550 403.5011309653333333333333333 L 46.956 403.5961661013333333333333333 L 47.2570 403.690902272 L 47.558 403.7853394773333333333333333 L 47.8590 403.8794774186666666666666667 L 48.16 403.9733166933333333333333333 L 48.4610 404.066856704 L 48.762 404.160097152 L 49.0630 404.253038336 L 49.364 404.3456805546666666666666667 L 49.6650 404.4380232106666666666666667 L 49.966 404.5300669013333333333333333 L 50.2670 404.621811328 L 50.568 404.7132567893333333333333333 L 50.8690 404.8044029866666666666666667 L 51.170 404.8952505173333333333333333 L 51.4710 404.9857990826666666666666667 L 51.772 405.0760480853333333333333333 L 52.0730 405.1659984213333333333333333 L 52.374 405.2556500906666666666666667 L 52.6750 405.345002496 L 52.976 405.434055936 L 53.2770 405.522810112 L 53.578 405.611265024 L 53.8790 405.6994209706666666666666667 L 54.18 405.787277952 L 54.4810 405.874835968 L 54.782 405.9620953173333333333333333 L 55.0830 406.0490560 L 55.384 406.1357174186666666666666667 L 55.6850 406.2220795733333333333333333 L 55.986 406.3081427626666666666666667 L 56.2870 406.3939072853333333333333333 L 56.588 406.4793731413333333333333333 L 56.8890 406.5645403306666666666666667 L 57.190 406.6494085546666666666666667 L 57.4910 406.7339769173333333333333333 L 57.792 406.8182466133333333333333333 L 58.0930 406.9022176426666666666666667 L 58.394 406.9858897066666666666666667 L 58.6950 407.0692628053333333333333333 L 58.996 407.1523372373333333333333333 L 59.2970 407.235112704 L 59.598 407.3175892053333333333333333 L 59.8990 407.39976704 L 60.2 407.481646208 L 60.5010 407.5632267093333333333333333 L 60.802 407.644507648 L 61.1030 407.72548992 L 61.404 407.806172928 L 61.7050 407.8865569706666666666666667 L 62.006 407.966642048 L 62.3070 408.0464284586666666666666667 L 62.608 408.125915904 L 62.9090 408.205104384 L 63.210 408.2839933013333333333333333 L 63.5110 408.3625832533333333333333333 L 63.812 408.4408745386666666666666667 L 64.1130 408.5188671573333333333333333 L 64.414 408.596560512 L 64.7150 408.67395520 L 65.016 408.7510509226666666666666667 L 65.3170 408.8278479786666666666666667 L 65.618 408.9043460693333333333333333 L 65.9190 408.9805454933333333333333333 L 66.22 409.0564462506666666666666667 L 66.5210 409.1320480426666666666666667 L 66.822 409.2073508693333333333333333 L 67.1230 409.2823547306666666666666667 L 67.424 409.3570599253333333333333333 L 67.7250 409.4314661546666666666666667 L 68.026 409.5055734186666666666666667 L 68.3270 409.5793814186666666666666667 L 68.628 409.6528901546666666666666667 L 68.9290 409.7260999253333333333333333 L 69.230 409.7990107306666666666666667 L 69.5310 409.871622272 L 69.832 409.9439351466666666666666667 L 70.1330 410.0159487573333333333333333 L 70.434 410.0876625066666666666666667 L 70.7350 410.1590775893333333333333333 L 71.036 410.2301940053333333333333333 L 71.3370 410.3010117546666666666666667 L 71.638 410.3715308373333333333333333 L 71.9390 410.441750656 L 72.24 410.5116715093333333333333333 L 72.5410 410.581293696 L 72.842 410.65061632 L 73.1430 410.7196402773333333333333333 L 73.444 410.7883649706666666666666667 L 73.7450 410.85679040 L 74.046 410.924916864 L 74.3470 410.9927443626666666666666667 L 74.648 411.0602731946666666666666667 L 74.9490 411.1275030613333333333333333 L 75.250 411.1944342613333333333333333 L 75.5510 411.2610661973333333333333333 L 75.852 411.3273994666666666666666667 L 76.1530 411.3934340693333333333333333 L 76.454 411.4591697066666666666666667 L 76.7550 411.52460608 L 77.056 411.5897437866666666666666667 L 77.3570 411.6545828266666666666666667 L 77.658 411.7191226026666666666666667 L 77.9590 411.783363712 L 78.26 411.847305856 L 78.5610 411.910948736 L 78.862 411.974292352 L 79.1630 412.0373370026666666666666667 L 79.464 412.1000829866666666666666667 L 79.7650 412.1625300053333333333333333 L 80.066 412.2246780586666666666666667 L 80.3670 412.2865271466666666666666667 L 80.668 412.3480772693333333333333333 L 80.9690 412.4093287253333333333333333 L 81.270 412.470281216 L 81.5710 412.5309347413333333333333333 L 81.872 412.5912890026666666666666667 L 82.1730 412.6513442986666666666666667 L 82.474 412.7111006293333333333333333 L 82.7750 412.7705579946666666666666667 L 83.076 412.8297163946666666666666667 L 83.3770 412.8885758293333333333333333 L 83.678 412.9471362986666666666666667 L 83.9790 413.0053978026666666666666667 L 84.28 413.06336064 L 84.5810 413.121024512 L 84.882 413.1783894186666666666666667 L 85.1830 413.2354556586666666666666667 L 85.484 413.2922226346666666666666667 L 85.7850 413.3486903466666666666666667 L 86.086 413.4048587946666666666666667 L 86.3870 413.4607282773333333333333333 L 86.688 413.5162987946666666666666667 L 86.9890 413.5715706453333333333333333 L 87.290 413.6265429333333333333333333 L 87.5910 413.6812165546666666666666667 L 87.892 413.735590912 L 88.1930 413.7896666026666666666666667 L 88.494 413.8434427306666666666666667 L 88.7950 413.896920192 L 89.096 413.9500989866666666666666667 L 89.3970 414.0029791146666666666666667 L 89.698 414.0555602773333333333333333 L 89.9990 414.1078427733333333333333333 L 90.30 414.159826304 L 90.6010 414.2115108693333333333333333 L 90.902 414.262896768 L 91.2030 414.3139837013333333333333333 L 91.504 414.3647716693333333333333333 L 91.8050 414.4152603733333333333333333 L 92.106 414.4654504106666666666666667 L 92.4070 414.5153414826666666666666667 L 92.708 414.564933888 L 93.0090 414.614227328 L 93.310 414.663221504 L 93.6110 414.71191552 L 93.912 414.7603105706666666666666667 L 94.2130 414.8084063573333333333333333 L 94.514 414.8562031786666666666666667 L 94.8150 414.9037013333333333333333333 L 95.116 414.9509008213333333333333333 L 95.4170 414.9978016426666666666666667 L 95.718 415.0444037973333333333333333 L 96.0190 415.0907072853333333333333333 L 96.32 415.1367115093333333333333333 L 96.6210 415.1824170666666666666666667 L 96.922 415.2278236586666666666666667 L 97.2230 415.272931584 L 97.524 415.3177408426666666666666667 L 97.8250 415.3622514346666666666666667 L 98.126 415.4064630613333333333333333 L 98.4270 415.4503757226666666666666667 L 98.728 415.4939894186666666666666667 L 99.0290 415.5373038506666666666666667 L 99.330 415.580319616 L 99.6310 415.6230352213333333333333333 L 99.932 415.66545216 L 100.2330 415.707569536 L 100.534 415.7493882453333333333333333 L 100.8350 415.7909079893333333333333333 L 101.136 415.8321290666666666666666667 L 101.4370 415.8730514773333333333333333 L 101.738 415.9136752213333333333333333 L 102.0390 415.95400000 L 102.34 415.9940255146666666666666667 L 102.6410 416.0337523626666666666666667 L 102.942 416.0731802453333333333333333 L 103.2430 416.1123094613333333333333333 L 103.544 416.1511394133333333333333333 L 103.8450 416.1896706986666666666666667 L 104.146 416.2279030186666666666666667 L 104.4470 416.2658354773333333333333333 L 104.748 416.3034692693333333333333333 L 105.0490 416.340804096 L 105.350 416.3778399573333333333333333 L 105.6510 416.4145765546666666666666667 L 105.952 416.451013888 L 106.2530 416.4871525546666666666666667 L 106.554 416.5229925546666666666666667 L 106.8550 416.5585335893333333333333333 L 107.156 416.5937759573333333333333333 L 107.4570 416.62871936 L 107.758 416.663364096 L 108.0590 416.6977101653333333333333333 L 108.36 416.7317572693333333333333333 L 108.6610 416.7655051093333333333333333 L 108.962 416.7989536853333333333333333 L 109.2630 416.8321026986666666666666667 L 109.564 416.8649530453333333333333333 L 109.8650 416.897504128 L 110.166 416.9297562453333333333333333 L 110.4670 416.9617085013333333333333333 L 110.768 416.9933620906666666666666667 L 111.0690 417.024716416 L 111.370 417.0557720746666666666666667 L 111.6710 417.086528768 L 111.972 417.1169867946666666666666667 L 112.2730 417.1471455573333333333333333 L 112.574 417.1770056533333333333333333 L 112.8750 417.206566784 L 113.176 417.235829248 L 113.4770 417.2647930453333333333333333 L 113.778 417.2934578773333333333333333 L 114.0790 417.3218231466666666666666667 L 114.38 417.349889152 L 114.6810 417.3776558933333333333333333 L 114.982 417.405123968 L 115.2830 417.432293376 L 115.584 417.4591641173333333333333333 L 115.8850 417.485736192 L 116.186 417.51200960 L 116.4870 417.5379840426666666666666667 L 116.788 417.5636598186666666666666667 L 117.0890 417.5890366293333333333333333 L 117.390 417.6141138773333333333333333 L 117.6910 417.6388924586666666666666667 L 117.992 417.6633720746666666666666667 L 118.2930 417.6875527253333333333333333 L 118.594 417.7114344106666666666666667 L 118.8950 417.7350174293333333333333333 L 119.196 417.7583014826666666666666667 L 119.4970 417.7812865706666666666666667 L 119.798 417.803972992 L 120.0990 417.826360448 L 120.4 417.8484492373333333333333333 L 120.7010 417.8702390613333333333333333 L 121.002 417.8917302186666666666666667 L 121.3030 417.9129227093333333333333333 L 121.604 417.9338165333333333333333333 L 121.9050 417.954411392 L 122.206 417.974707584 L 122.5070 417.9947051093333333333333333 L 122.808 418.0144036693333333333333333 L 123.1090 418.0338035626666666666666667 L 123.410 418.0529047893333333333333333 L 123.7110 418.0717073493333333333333333 L 124.012 418.0902103466666666666666667 L 124.3130 418.1084143786666666666666667 L 124.614 418.126319744 L 124.9150 418.143926144 L 125.216 418.1612338773333333333333333 L 125.5170 418.1782426453333333333333333 L 125.818 418.1949527466666666666666667 L 126.1190 418.211363584 L 126.42 418.2274757546666666666666667 L 126.7210 418.24328896 L 127.022 418.2588034986666666666666667 L 127.3230 418.2740193706666666666666667 L 127.624 418.2889362773333333333333333 L 127.9250 418.3035545173333333333333333 L 128.226 418.3178740906666666666666667 L 128.5270 418.3318946986666666666666667 L 128.828 418.3456163413333333333333333 L 129.1290 418.3590393173333333333333333 L 129.430 418.3721636266666666666666667 L 129.7310 418.3849889706666666666666667 L 130.032 418.397515648 L 130.3330 418.4097436586666666666666667 L 130.634 418.4216730026666666666666667 L 130.9350 418.4333030826666666666666667 L 131.236 418.444634496 L 131.5370 418.4556672426666666666666667 L 131.838 418.466401024 L 132.1390 418.4768361386666666666666667 L 132.44 418.4869725866666666666666667 L 132.7410 418.4968100693333333333333333 L 133.042 418.5063488853333333333333333 L 133.3430 418.5155890346666666666666667 L 133.644 418.5245302186666666666666667 L 133.9450 418.5331724373333333333333333 L 134.246 418.541515392 L 134.5470 418.54955968 L 134.848 418.5573053013333333333333333 L 135.1490 418.564752256 L 135.450 418.571900544 L 135.7510 418.5787501653333333333333333 L 136.052 418.58530112 L 136.3530 418.5915531093333333333333333 L 136.654 418.597506432 L 136.9550 418.603161088 L 137.256 418.6085167786666666666666667 L 137.5570 418.6135738026666666666666667 L 137.858 418.6183318613333333333333333 L 138.1590 418.6227912533333333333333333 L 138.46 418.6269519786666666666666667 L 138.7610 418.6308140373333333333333333 L 139.062 418.6343774293333333333333333 L 139.3630 418.6376421546666666666666667 L 139.664 418.6406082133333333333333333 L 139.9650 418.6432753066666666666666667 L 140.266 418.6456434346666666666666667 L 140.5670 418.6477120 L 140.868 418.6494813013333333333333333 L 141.1690 418.650951936 L 141.470 418.652123904 L 141.7710 418.6529972053333333333333333 L 142.072 418.65357184 L 142.3730 418.653847808 L 142.674 418.6538248106666666666666667 L 142.9750 418.6535031466666666666666667 L 143.276 418.652882816 L 143.5770 418.65196352 L 143.878 418.6507455573333333333333333 L 144.1790 418.649228928 L 144.48 418.647413632 L 144.7810 418.6452996693333333333333333 L 145.082 418.64288704 L 145.3830 418.640175744 L 145.684 418.6371657813333333333333333 L 145.9850 418.633857152 L 146.286 418.6302495573333333333333333 L 146.5870 418.626343296 L 146.888 418.622138368 L 147.1890 418.6176347733333333333333333 L 147.490 418.612832512 L 147.7910 418.607731584 L 148.092 418.6023319893333333333333333 L 148.3930 418.5966331306666666666666667 L 148.694 418.5906353066666666666666667 L 148.9950 418.584338816 L 149.296 418.57774336 L 149.5970 418.5708492373333333333333333 L 149.898 418.563656448 L 150.1990 418.556164992 L 150.50 418.5483745706666666666666667 L 150.8010 418.5402854826666666666666667 L 151.102 418.531897728 L 151.4030 418.5232113066666666666666667 L 151.704 418.51422592 L 152.0050 418.5049418666666666666666667 L 152.306 418.4953585493333333333333333 L 152.6070 418.4854765653333333333333333 L 152.908 418.4752959146666666666666667 L 153.2090 418.46481600 L 153.510 418.4540374186666666666666667 L 153.8110 418.442959872 L 154.112 418.4315836586666666666666667 L 154.4130 418.41990848 L 154.714 418.407934336 L 155.0150 418.3956612266666666666666667 L 155.316 418.383089152 L 155.6170 418.3702184106666666666666667 L 155.918 418.3570484053333333333333333 L 156.2190 418.3435794346666666666666667 L 156.52 418.3298117973333333333333333 L 156.8210 418.3157451946666666666666667 L 157.122 418.3013790293333333333333333 L 157.4230 418.2867138986666666666666667 L 157.724 418.271749504 L 158.0250 418.2564864426666666666666667 L 158.326 418.240924416 L 158.6270 418.2250637226666666666666667 L 158.928 418.2089037653333333333333333 L 159.2290 418.1924451413333333333333333 L 159.530 418.175687552 L 159.8310 418.1586309973333333333333333 L 160.132 418.1412754773333333333333333 L 160.4330 418.123620992 L 160.734 418.1056675413333333333333333 L 161.0350 418.0874151253333333333333333 L 161.336 418.068863744 L 161.6370 418.050013696 L 161.938 418.0308646826666666666666667 L 162.2390 418.011416704 L 162.54 417.99166976 L 162.8410 417.9716241493333333333333333 L 163.142 417.951279872 L 163.4430 417.9306366293333333333333333 L 163.744 417.9096941226666666666666667 L 164.0450 417.8884529493333333333333333 L 164.346 417.8669128106666666666666667 L 164.6470 417.8450737066666666666666667 L 164.948 417.8229356373333333333333333 L 165.2490 417.8004989013333333333333333 L 165.550 417.7777634986666666666666667 L 165.8510 417.7547294293333333333333333 L 166.152 417.7313966933333333333333333 L 166.4530 417.7077652906666666666666667 L 166.754 417.6838349226666666666666667 L 167.0550 417.6596055893333333333333333 L 167.356 417.6350775893333333333333333 L 167.6570 417.610250624 L 167.958 417.5851243946666666666666667 L 168.2590 417.5596994986666666666666667 L 168.56 417.5339753386666666666666667 L 168.8610 417.5079522133333333333333333 L 169.162 417.4816304213333333333333333 L 169.4630 417.455009664 L 169.764 417.42809024 L 170.0650 417.4008721493333333333333333 L 170.366 417.373355392 L 170.6670 417.345539968 L 170.968 417.3174255786666666666666667 L 171.2690 417.2890125226666666666666667 L 171.570 417.2603008 L 171.8710 417.231290112 L 172.172 417.20198016 L 172.4730 417.1723715413333333333333333 L 172.774 417.142464256 L 173.0750 417.1122580053333333333333333 L 173.376 417.0817527893333333333333333 L 173.6770 417.050948608 L 173.978 417.01984576 L 174.2790 416.9884442453333333333333333 L 174.58 416.9567437653333333333333333 L 174.8810 416.9247446186666666666666667 L 175.182 416.8924468053333333333333333 L 175.4830 416.859849728 L 175.784 416.826953984 L 176.0850 416.7937595733333333333333333 L 176.386 416.7602658986666666666666667 L 176.6870 416.7264732586666666666666667 L 176.988 416.692381952 L 177.2890 416.65799168 L 177.590 416.6233027413333333333333333 L 177.8910 416.588315136 L 178.192 416.5530282666666666666666667 L 178.4930 416.5174427306666666666666667 L 178.794 416.4815582293333333333333333 L 179.0950 416.445374464 L 179.396 416.408892032 L 179.6970 416.3721109333333333333333333 L 179.998 416.3350305706666666666666667 L 180.2990 416.2976512426666666666666667 L 180.6 416.2599729493333333333333333 L 180.9010 416.2219956906666666666666667 L 181.202 416.1837197653333333333333333 L 181.5030 416.1451451733333333333333333 L 181.804 416.1062713173333333333333333 L 182.1050 416.0670978986666666666666667 L 182.406 416.0276255146666666666666667 L 182.7070 415.987853568 L 183.008 415.9477829546666666666666667 L 183.3090 415.9074136746666666666666667 L 183.610 415.8667454293333333333333333 L 183.9110 415.8257782186666666666666667 L 184.212 415.7845123413333333333333333 L 184.5130 415.7429477973333333333333333 L 184.814 415.7010845866666666666666667 L 185.1150 415.6589227093333333333333333 L 185.416 415.6164621653333333333333333 L 185.7170 415.5737029546666666666666667 L 186.018 415.5306450773333333333333333 L 186.3190 415.4872885333333333333333333 L 186.62 415.443633024 L 186.9210 415.399678848 L 187.222 415.355425408 L 187.5230 415.3108730026666666666666667 L 187.824 415.266021632 L 188.1250 415.220871296 L 188.426 415.1754222933333333333333333 L 188.7270 415.129674624 L 189.028 415.0836279893333333333333333 L 189.3290 415.037282688 L 189.630 414.99063872 L 189.9310 414.943695488 L 190.232 414.8964535893333333333333333 L 190.5330 414.848913024 L 190.834 414.801073792 L 191.1350 414.752935296 L 191.436 414.7044978346666666666666667 L 191.7370 414.6557617066666666666666667 L 192.038 414.6067266133333333333333333 L 192.3390 414.5573928533333333333333333 L 192.64 414.5077604266666666666666667 L 192.9410 414.4578290346666666666666667 L 193.242 414.407598976 L 193.5430 414.357069952 L 193.844 414.3062419626666666666666667 L 194.1450 414.255115008 L 194.446 414.203689088 L 194.7470 414.1519645013333333333333333 L 195.048 414.0999406506666666666666667 L 195.3490 414.047617536 L 195.650 413.9949957546666666666666667 L 195.9510 413.9420753066666666666666667 L 196.252 413.888856192 L 196.5530 413.835338112 L 196.854 413.7815213653333333333333333 L 197.1550 413.727405952 L 197.456 413.672991872 L 197.7570 413.6182791253333333333333333 L 198.058 413.563267712 L 198.3590 413.507957632 L 198.66 413.4523488853333333333333333 L 198.9610 413.396441472 L 199.262 413.3402350933333333333333333 L 199.5630 413.2837297493333333333333333 L 199.864 413.2269257386666666666666667 L 200.1650 413.1698230613333333333333333 L 200.466 413.1124217173333333333333333 L 200.7670 413.0547211093333333333333333 L 201.068 412.9967218346666666666666667 L 201.3690 412.9384238933333333333333333 L 201.670 412.8798269866666666666666667 L 201.9710 412.8209314133333333333333333 L 202.272 412.7617368746666666666666667 L 202.5730 412.7022436693333333333333333 L 202.874 412.6424517973333333333333333 L 203.1750 412.58236096 L 203.476 412.521971456 L 203.7770 412.4612832853333333333333333 L 204.078 412.400296448 L 204.3790 412.339010944 L 204.68 412.2774264746666666666666667 L 204.9810 412.2155433386666666666666667 L 205.282 412.153361536 L 205.5830 412.0908810666666666666666667 L 205.884 412.0281019306666666666666667 L 206.1850 411.965024128 L 206.486 411.9016476586666666666666667 L 206.7870 411.8379725226666666666666667 L 207.088 411.77399872 L 207.3890 411.7097256533333333333333333 L 207.690 411.64515392 L 207.9910 411.58028352 L 208.292 411.5151141546666666666666667 L 208.5930 411.4496461226666666666666667 L 208.894 411.383879424 L 209.1950 411.31781376 L 209.496 411.2514491306666666666666667 L 209.7970 411.184785536 L 210.098 411.1178226773333333333333333 L 210.3990 411.0505608533333333333333333 L 210.70 410.9830003626666666666666667 L 211.0010 410.9151412053333333333333333 L 211.302 410.8469833813333333333333333 L 211.6030 410.778526592 L 211.904 410.709771136 L 212.2050 410.6407170133333333333333333 L 212.506 410.571364224 L 212.8070 410.5017124693333333333333333 L 213.108 410.431762048 L 213.4090 410.36151296 L 213.710 410.2909649066666666666666667 L 214.0110 410.2201172906666666666666667 L 214.312 410.1489707093333333333333333 L 214.6130 410.0775254613333333333333333 L 214.914 410.0057809493333333333333333 L 215.2150 409.933737472 L 215.516 409.861395328 L 215.8170 409.7887542186666666666666667 L 216.118 409.7158138453333333333333333 L 216.4190 409.6425748053333333333333333 L 216.72 409.569035904 L 217.0210 409.495198336 L 217.322 409.4210618026666666666666667 L 217.6230 409.3466266026666666666666667 L 217.924 409.2718924373333333333333333 L 218.2250 409.1968593066666666666666667 L 218.526 409.1215275093333333333333333 L 218.8270 409.0458970453333333333333333 L 219.128 408.9699679146666666666666667 L 219.4290 408.8937401173333333333333333 L 219.730 408.8172136533333333333333333 L 220.0310 408.7403885226666666666666667 L 220.332 408.6632647253333333333333333 L 220.6330 408.5858422613333333333333333 L 220.934 408.5081211306666666666666667 L 221.2350 408.4301010346666666666666667 L 221.536 408.3517819733333333333333333 L 221.8370 408.2731642453333333333333333 L 222.138 408.1942478506666666666666667 L 222.4390 408.1150327893333333333333333 L 222.74 408.0355190613333333333333333 L 223.0410 407.9557066666666666666666667 L 223.342 407.8755953066666666666666667 L 223.6430 407.7951849813333333333333333 L 223.944 407.714475392 L 224.2450 407.6334668373333333333333333 L 224.546 407.552159616 L 224.8470 407.4705534293333333333333333 L 225.148 407.388648576 L 225.4490 407.3064447573333333333333333 L 225.750 407.2239416746666666666666667 L 226.0510 407.1411399253333333333333333 L 226.352 407.0580395093333333333333333 L 226.6530 406.9746404266666666666666667 L 226.954 406.8909423786666666666666667 L 227.2550 406.8069453653333333333333333 L 227.556 406.7226496853333333333333333 L 227.8570 406.63805504 L 228.158 406.553161728 L 228.4590 406.4679697493333333333333333 L 228.76 406.382479104 L 229.0610 406.2966894933333333333333333 L 229.362 406.2106009173333333333333333 L 229.6630 406.1242136746666666666666667 L 229.964 406.0375277653333333333333333 L 230.2650 405.9505431893333333333333333 L 230.566 405.8632599466666666666666667 L 230.8670 405.77567744 L 231.168 405.6877962666666666666666667 L 231.4690 405.5996164266666666666666667 L 231.770 405.51113792 L 232.0710 405.4223607466666666666666667 L 232.372 405.3332849066666666666666667 L 232.6730 405.2439104 L 232.974 405.154236928 L 233.2750 405.0642647893333333333333333 L 233.576 404.973993984 L 233.8770 404.883424512 L 234.178 404.7925563733333333333333333 L 234.4790 404.7013892693333333333333333 L 234.78 404.60992320 L 235.0810 404.518158464 L 235.382 404.4260950613333333333333333 L 235.6830 404.333732992 L 235.984 404.241072256 L 236.2850 404.1481128533333333333333333 L 236.586 404.0548544853333333333333333 L 236.8870 403.961297152 L 237.188 403.8674408533333333333333333 L 237.4890 403.773285888 L 237.790 403.6788316586666666666666667 L 238.0910 403.5840787626666666666666667 L 238.392 403.4890269013333333333333333 L 238.6930 403.3936763733333333333333333 L 238.994 403.2980271786666666666666667 L 239.2950 403.2020793173333333333333333 L 239.596 403.1058327893333333333333333 L 239.8970 403.0092875946666666666666667 L 240.198 402.9124437333333333333333333 L 240.4990 402.8153012053333333333333333 L 240.8 402.717859712 L 241.1010 402.6201192533333333333333333 L 241.402 402.522080128 L 241.7030 402.423742336 L 242.004 402.3251058773333333333333333 L 242.3050 402.226170752 L 242.606 402.1269363626666666666666667 L 242.9070 402.0274033066666666666666667 L 243.208 401.927571584 L 243.5090 401.8274411946666666666666667 L 243.810 401.7270121386666666666666667 L 244.1110 401.626284416 L 244.412 401.5252580266666666666666667 L 244.7130 401.423932672 L 245.014 401.3223086506666666666666667 L 245.3150 401.2203859626666666666666667 L 245.616 401.118164608 L 245.9170 401.015644288 L 246.218 400.9128253013333333333333333 L 246.5190 400.809707648 L 246.82 400.706291328 L 247.1210 400.6025763413333333333333333 L 247.422 400.498562688 L 247.7230 400.394250368 L 248.024 400.2896393813333333333333333 L 248.3250 400.1847294293333333333333333 L 248.626 400.079520512 L 248.9270 399.9740126293333333333333333 L 249.228 399.86820608 L 249.5290 399.7621005653333333333333333 L 249.830 399.6556957866666666666666667 L 250.1310 399.5489923413333333333333333 L 250.432 399.4419902293333333333333333 L 250.7330 399.334689152 L 251.034 399.2270891093333333333333333 L 251.3350 399.11919040 L 251.636 399.010993024 L 251.9370 398.9024969813333333333333333 L 252.238 398.793702272 L 252.5390 398.684608896 L 252.84 398.5752165546666666666666667 L 253.1410 398.4655246506666666666666667 L 253.442 398.35553408 L 253.7430 398.2452448426666666666666667 L 254.044 398.1346569386666666666666667 L 254.3450 398.0237700693333333333333333 L 254.646 397.9125845333333333333333333 L 254.9470 397.801100032 L 255.248 397.689316864 L 255.5490 397.5772350293333333333333333 L 255.850 397.464854528 L 256.1510 397.3521750613333333333333333 L 256.452 397.239196928 L 256.7530 397.125920128 L 257.054 397.0123443626666666666666667 L 257.3550 396.8984699306666666666666667 L 257.656 396.7842965333333333333333333 L 257.9570 396.6698244693333333333333333 L 258.258 396.55505344 L 258.5590 396.439983744 L 258.86 396.3246153813333333333333333 L 259.1610 396.208948352 L 259.462 396.092982656 L 259.7630 395.9767179946666666666666667 L 260.064 395.8601546666666666666666667 L 260.3650 395.743292672 L 260.666 395.6261320106666666666666667 L 260.9670 395.5086726826666666666666667 L 261.268 395.390914688 L 261.5690 395.272857728 L 261.870 395.1545021013333333333333333 L 262.1710 395.0358475093333333333333333 L 262.472 394.9168942506666666666666667 L 262.7730 394.797641728 L 263.074 394.6780905386666666666666667 L 263.3750 394.5582397866666666666666667 L 263.676 394.438090368 L 263.9770 394.317641984 L 264.278 394.1968949333333333333333333 L 264.5790 394.075849216 L 264.88 393.954504832 L 265.1810 393.8328614826666666666666667 L 265.482 393.7109194666666666666666667 L 265.7830 393.5886781866666666666666667 L 266.084 393.46613824 L 266.3850 393.3432996266666666666666667 L 266.686 393.220162048 L 266.9870 393.0967258026666666666666667 L 267.288 392.9729908906666666666666667 L 267.5890 392.848957312 L 267.890 392.7246250666666666666666667 L 268.1910 392.599993856 L 268.492 392.4750639786666666666666667 L 268.7930 392.3498354346666666666666667 L 269.094 392.2243079253333333333333333 L 269.3950 392.0984817493333333333333333 L 269.696 391.9723569066666666666666667 L 269.9970 391.8459333973333333333333333 L 270.298 391.7192112213333333333333333 L 270.5990 391.59219008 L 270.90 391.464870272 L 271.2010 391.3372514986666666666666667 L 271.502 391.2093340586666666666666667 L 271.8030 391.0811176533333333333333333 L 272.104 390.9526025813333333333333333 L 272.4050 390.8237888426666666666666667 L 272.706 390.6946764373333333333333333 L 273.0070 390.5652653653333333333333333 L 273.308 390.4355556266666666666666667 L 273.6090 390.3055472213333333333333333 L 273.910 390.1752401493333333333333333 L 274.2110 390.0446338133333333333333333 L 274.512 389.9137288106666666666666667 L 274.8130 389.7825251413333333333333333 L 275.114 389.6510228053333333333333333 L 275.4150 389.5192218026666666666666667 L 275.716 389.3871221333333333333333333 L 276.0170 389.2547237973333333333333333 L 276.318 389.122026496 L 276.6190 388.9890299306666666666666667 L 276.92 388.8557346986666666666666667 L 277.2210 388.7221405013333333333333333 L 277.522 388.5882476373333333333333333 L 277.8230 388.454055808 L 278.124 388.319565312 L 278.4250 388.1847761493333333333333333 L 278.726 388.04968832 L 279.0270 387.9143015253333333333333333 L 279.328 387.778616064 L 279.6290 387.6426316373333333333333333 L 279.930 387.506348544 L 280.2310 387.369766784 L 280.532 387.2328863573333333333333333 L 280.8330 387.095707264 L 281.134 386.958229504 L 281.4350 386.8204530773333333333333333 L 281.736 386.682377984 L 282.0370 386.5440039253333333333333333 L 282.338 386.4053312 L 282.6390 386.266359808 L 282.94 386.1270897493333333333333333 L 283.2410 385.987521024 L 283.542 385.8476530346666666666666667 L 283.8430 385.7074863786666666666666667 L 284.144 385.5670207573333333333333333 L 284.4450 385.4262564693333333333333333 L 284.746 385.285193216 L 285.0470 385.143831296 L 285.348 385.0021707093333333333333333 L 285.6490 384.8602111573333333333333333 L 285.950 384.7179529386666666666666667 L 286.2510 384.5753960533333333333333333 L 286.552 384.4325405013333333333333333 L 286.8530 384.2893862826666666666666667 L 287.154 384.1459333973333333333333333 L 287.4550 384.0021818453333333333333333 L 287.756 383.8581316266666666666666667 L 288.0570 383.7137824426666666666666667 L 288.358 383.569133696 L 288.6590 383.4241862826666666666666667 L 288.96 383.278939904 L 289.2610 383.1333948586666666666666667 L 289.562 382.9875511466666666666666667 L 289.8630 382.841408768 L 290.164 382.6949677226666666666666667 L 290.4650 382.5482280106666666666666667 L 290.766 382.401189632 L 291.0670 382.2538525866666666666666667 L 291.368 382.106216576 L 291.6690 381.9582818986666666666666667 L 291.970 381.8100485546666666666666667 L 292.2710 381.661516544 L 292.572 381.512685568 L 292.8730 381.3635556266666666666666667 L 293.174 381.2141270186666666666666667 L 293.4750 381.064399744 L 293.776 380.914373504 L 294.0770 380.7640485973333333333333333 L 294.378 380.613425024 L 294.6790 380.462502784 L 294.98 380.3112818773333333333333333 L 295.2810 380.159762304 L 295.582 380.0079437653333333333333333 L 295.8830 379.85582656 L 296.184 379.703410688 L 296.4850 379.5506961493333333333333333 L 296.786 379.397682944 L 297.0870 379.2443707733333333333333333 L 297.388 379.090759936 L 297.6890 378.936850432 L 297.990 378.7826422613333333333333333 L 298.2910 378.628135424 L 298.592 378.4733296213333333333333333 L 298.8930 378.318225152 L 299.194 378.1628217173333333333333333 L 299.4950 378.007119616 L 299.796 377.8511185493333333333333333 L 300.0970 377.694818816 L 300.398 377.538220416 L 300.6990 377.3813230506666666666666667 L 301.0 377.2241270186666666666666667 L 301.3010 377.06663232 L 301.602 376.9088383573333333333333333 L 301.9030 376.750745728 L 302.204 376.592354432 L 302.5050 376.4336644693333333333333333 L 302.806 376.2746746453333333333333333 L 303.1070 376.1153861546666666666666667 L 303.408 375.95579840 L 303.7090 375.79591168 L 304.010 375.6357262933333333333333333 L 304.3110 375.47524224 L 304.612 375.31445952 L 304.9130 375.1533781333333333333333333 L 305.214 374.99199808 L 305.5150 374.83031936 L 305.816 374.6683419733333333333333333 L 306.1170 374.50606592 L 306.418 374.3434906026666666666666667 L 306.7190 374.1806166186666666666666667 L 307.02 374.017443968 L 307.3210 373.8539726506666666666666667 L 307.622 373.6902026666666666666666667 L 307.9230 373.5261337173333333333333333 L 308.224 373.3617658026666666666666667 L 308.5250 373.197098624 L 308.826 373.0321327786666666666666667 L 309.1270 372.8668682666666666666666667 L 309.428 372.701305088 L 309.7290 372.5354432426666666666666667 L 310.030 372.3692827306666666666666667 L 310.3310 372.202823552 L 310.632 372.0360657066666666666666667 L 310.9330 371.8690091946666666666666667 L 311.234 371.7016537173333333333333333 L 311.5350 371.5339995733333333333333333 L 311.836 371.3660467626666666666666667 L 312.1370 371.1977952853333333333333333 L 312.438 371.0292451413333333333333333 L 312.7390 370.860396032 L 313.04 370.691248256 L 313.3410 370.5218018133333333333333333 L 313.642 370.352056704 L 313.9430 370.182012928 L 314.244 370.0116704853333333333333333 L 314.5450 369.841029376 L 314.846 369.67008960 L 315.1470 369.4988511573333333333333333 L 315.448 369.327314048 L 315.7490 369.155478272 L 316.050 368.9833438293333333333333333 L 316.3510 368.8109104213333333333333333 L 316.652 368.638178048 L 316.9530 368.4651467093333333333333333 L 317.254 368.291816704 L 317.5550 368.1181877333333333333333333 L 317.856 367.944260096 L 318.1570 367.770033792 L 318.458 367.5955085226666666666666667 L 318.7590 367.420684288 L 319.06 367.2455613866666666666666667 L 319.3610 367.07013952 L 319.662 366.8944189866666666666666667 L 319.9630 366.7183997866666666666666667 L 320.264 366.54208192 L 320.5650 366.365465088 L 320.866 366.1885495893333333333333333 L 321.1670 366.011335424 L 321.468 365.8338222933333333333333333 L 321.7690 365.656010496 L 322.070 365.477900032 L 322.3710 365.2994909013333333333333333 L 322.672 365.120783104 L 322.9730 364.941775744 L 323.274 364.76246912 L 323.5750 364.5828638293333333333333333 L 323.876 364.402959872 L 324.1770 364.222757248 L 324.478 364.0422556586666666666666667 L 324.7790 363.8614548053333333333333333 L 325.08 363.6803552853333333333333333 L 325.3810 363.4989570986666666666666667 L 325.682 363.3172602453333333333333333 L 325.9830 363.1352647253333333333333333 L 326.284 362.9529705386666666666666667 L 326.5850 362.7703776853333333333333333 L 326.886 362.5874861653333333333333333 L 327.1870 362.4042959786666666666666667 L 327.488 362.2208068266666666666666667 L 327.7890 362.037019008 L 328.090 361.8529325226666666666666667 L 328.3910 361.6685473706666666666666667 L 328.692 361.483863552 L 328.9930 361.2988810666666666666666667 L 329.294 361.113599616 L 329.5950 360.9280192 L 329.896 360.7421401173333333333333333 L 330.1970 360.5559620693333333333333333 L 330.498 360.3694853546666666666666667 L 330.7990 360.1827096746666666666666667 L 331.10 359.995635328 L 331.4010 359.808262016 L 331.702 359.6205897386666666666666667 L 332.0030 359.432618496 L 332.304 359.2443485866666666666666667 L 332.6050 359.055779712 L 332.906 358.8669121706666666666666667 L 333.2070 358.677745664 L 333.508 358.4882804906666666666666667 L 333.8090 358.298516352 L 334.110 358.1084535466666666666666667 L 334.4110 357.9180920746666666666666667 L 334.712 357.727431936 L 335.0130 357.5364731306666666666666667 L 335.314 357.3452156586666666666666667 L 335.6150 357.15365952 L 335.916 356.9618047146666666666666667 L 336.2170 356.7696512426666666666666667 L 336.518 356.5771988053333333333333333 L 336.8190 356.3844477013333333333333333 L 337.12 356.1913979306666666666666667 L 337.4210 355.9980494933333333333333333 L 337.722 355.8044023893333333333333333 L 338.0230 355.6104566186666666666666667 L 338.324 355.4162121813333333333333333 L 338.6250 355.22166848 L 338.926 355.0268258133333333333333333 L 339.2270 354.83168448 L 339.528 354.63624448 L 339.8290 354.4405058133333333333333333 L 340.130 354.24446848 L 340.4310 354.04813248 L 340.732 353.8514975146666666666666667 L 341.0330 353.654563584 L 341.334 353.4573309866666666666666667 L 341.6350 353.2597997226666666666666667 L 341.936 353.061969792 L 342.2370 352.863840896 L 342.538 352.6654133333333333333333333 L 342.8390 352.466687104 L 343.14 352.267662208 L 343.4410 352.0683386453333333333333333 L 343.742 351.868716416 L 344.0430 351.66879552 L 344.344 351.4685759573333333333333333 L 344.6450 351.268057728 L 344.946 351.067240832 L 345.2470 350.8661252693333333333333333 L 345.548 350.6647107413333333333333333 L 345.8490 350.462997248 L 346.150 350.260985088 L 346.4510 350.0586742613333333333333333 L 346.752 349.856064768 L 347.0530 349.653156608 L 347.354 349.4499497813333333333333333 L 347.6550 349.246444288 L 347.956 349.042640128 L 348.2570 348.8385373013333333333333333 L 348.558 348.634135808 L 348.8590 348.4294353493333333333333333 L 349.16 348.2244359253333333333333333 L 349.4610 348.019137536 L 349.762 347.81354048 L 350.0630 347.6076447573333333333333333 L 350.364 347.401450368 L 350.6650 347.194957312 L 350.966 346.9881655893333333333333333 L 351.2670 346.7810752 L 351.568 346.573686144 L 351.8690 346.3659984213333333333333333 L 352.170 346.158012032 L 352.4710 345.949726976 L 352.772 345.7411432533333333333333333 L 353.0730 345.5322605653333333333333333 L 353.374 345.3230792106666666666666667 L 353.6750 345.1135991893333333333333333 L 353.976 344.9038205013333333333333333 L 354.2770 344.6937431466666666666666667 L 354.578 344.4833671253333333333333333 L 354.8790 344.2726924373333333333333333 L 355.18 344.0617190826666666666666667 L 355.4810 343.8504470613333333333333333 L 355.782 343.6388763733333333333333333 L 356.0830 343.4270070186666666666666667 L 356.384 343.2148389973333333333333333 L 356.6850 343.0023723093333333333333333 L 356.986 342.7896069546666666666666667 L 357.2870 342.5765429333333333333333333 L 357.588 342.3631802453333333333333333 L 357.8890 342.1495182933333333333333333 L 358.190 341.9355576746666666666666667 L 358.4910 341.7212983893333333333333333 L 358.792 341.5067404373333333333333333 L 359.0930 341.2918838186666666666666667 L 359.394 341.0767285333333333333333333 L 359.6950 340.8612745813333333333333333 L 359.996 340.6455219626666666666666667 L 360.2970 340.4294706773333333333333333 L 360.598 340.2131207253333333333333333 L 360.8990 339.9964721066666666666666667 L 361.2 339.7795248213333333333333333 L 361.5010 339.5622788693333333333333333 L 361.802 339.3447342506666666666666667 L 362.1030 339.1268909653333333333333333 L 362.404 338.9087490133333333333333333 L 362.7050 338.6903083946666666666666667 L 363.006 338.4715691093333333333333333 L 363.3070 338.2525311573333333333333333 L 363.608 338.0331945386666666666666667 L 363.9090 337.8135589546666666666666667 L 364.210 337.593624704 L 364.5110 337.3733917866666666666666667 L 364.812 337.1528602026666666666666667 L 365.1130 336.932029952 L 365.414 336.710900736 L 365.7150 336.4894728533333333333333333 L 366.016 336.267746304 L 366.3170 336.045721088 L 366.618 335.8233972053333333333333333 L 366.9190 335.600774656 L 367.22 335.37785344 L 367.5210 335.1546335573333333333333333 L 367.822 334.931115008 L 368.1230 334.707297792 L 368.424 334.4831819093333333333333333 L 368.7250 334.25876736 L 369.026 334.034054144 L 369.3270 333.8090422613333333333333333 L 369.628 333.583731712 L 369.9290 333.358122496 L 370.230 333.1322146133333333333333333 L 370.5310 332.906008064 L 370.832 332.679502848 L 371.1330 332.4526989653333333333333333 L 371.434 332.225596416 L 371.7350 331.9981952 L 372.036 331.7704953173333333333333333 L 372.3370 331.5424964693333333333333333 L 372.638 331.3141989546666666666666667 L 372.9390 331.0856027733333333333333333 L 373.24 330.8567076266666666666666667 L 373.5410 330.6275138133333333333333333 L 373.842 330.3980213333333333333333333 L 374.1430 330.168229888 L 374.444 329.9381394773333333333333333 L 374.7450 329.7077501013333333333333333 L 375.046 329.4770620586666666666666667 L 375.3470 329.2460753493333333333333333 L 375.648 329.0147899733333333333333333 L 375.9490 328.7832059306666666666666667 L 376.250 328.5513232213333333333333333 L 376.5510 328.3191418453333333333333333 L 376.852 328.0866618026666666666666667 L 377.1530 327.8538830933333333333333333 L 377.454 327.6208057173333333333333333 L 377.7550 327.3874296746666666666666667 L 378.056 327.1537546666666666666666667 L 378.3570 326.919780992 L 378.658 326.6855086506666666666666667 L 378.9590 326.450937344 L 379.26 326.216067072 L 379.5610 325.9808981333333333333333333 L 379.862 325.745430528 L 380.1630 325.509664256 L 380.464 325.2735993173333333333333333 L 380.7650 325.0372351146666666666666667 L 381.066 324.8005722453333333333333333 L 381.3670 324.5636107093333333333333333 L 381.668 324.326350208 L 381.9690 324.08879104 L 382.270 323.8509332053333333333333333 L 382.5710 323.6127761066666666666666667 L 382.872 323.3743203413333333333333333 L 383.1730 323.1355659093333333333333333 L 383.474 322.8965122133333333333333333 L 383.7750 322.657159552 L 384.076 322.417508224 L 384.3770 322.1775579306666666666666667 L 384.678 321.9373089706666666666666667 L 384.9790 321.696761344 L 385.28 321.4559150506666666666666667 L 385.5810 321.2147700906666666666666667 L 385.882 320.9733261653333333333333333 L 386.1830 320.7315835733333333333333333 L 386.484 320.4895423146666666666666667 L 386.7850 320.2472020906666666666666667 L 387.086 320.0045629013333333333333333 L 387.3870 319.7616250453333333333333333 L 387.688 319.5183885226666666666666667 L 387.9890 319.2748533333333333333333333 L 388.290 319.0310194773333333333333333 L 388.5910 318.7868869546666666666666667 L 388.892 318.5424557653333333333333333 L 389.1930 318.2977259093333333333333333 L 389.494 318.0526973866666666666666667 L 389.7950 317.8073701973333333333333333 L 390.096 317.5617443413333333333333333 L 390.3970 317.3158198186666666666666667 L 390.698 317.0695966293333333333333333 L 390.9990 316.8230744746666666666666667 L 391.30 316.5762536533333333333333333 L 391.6010 316.3291341653333333333333333 L 391.902 316.0817160106666666666666667 L 392.2030 315.8339991893333333333333333 L 392.504 315.5859834026666666666666667 L 392.8050 315.3376689493333333333333333 L 393.106 315.0890558293333333333333333 L 393.4070 314.8401440426666666666666667 L 393.708 314.5909335893333333333333333 L 394.0090 314.3414244693333333333333333 L 394.310 314.0916166826666666666666667 L 394.6110 313.8415102293333333333333333 L 394.912 313.5911048106666666666666667 L 395.2130 313.3404007253333333333333333 L 395.514 313.0893976746666666666666667 L 395.8150 312.8380959573333333333333333 L 396.116 312.5864955733333333333333333 L 396.4170 312.3345965226666666666666667 L 396.718 312.0823988053333333333333333 L 397.0190 311.8299024213333333333333333 L 397.32 311.5771073706666666666666667 L 397.6210 311.3240136533333333333333333 L 397.922 311.0706209706666666666666667 L 398.2230 310.8169296213333333333333333 L 398.524 310.5629396053333333333333333 L 398.8250 310.3086509226666666666666667 L 399.126 310.0540632746666666666666667 L 399.4270 309.79917696 L 399.728 309.5439919786666666666666667 L 400.0290 309.2885083306666666666666667 L 400.330 309.032726016 L 400.6310 308.7766450346666666666666667 L 400.932 308.5202653866666666666666667 L 401.2330 308.2635867733333333333333333 L 401.534 308.0066094933333333333333333 L 401.8350 307.7493335466666666666666667 L 402.136 307.4917589333333333333333333 L 402.4370 307.2338856533333333333333333 L 402.738 306.9757137066666666666666667 L 403.0390 306.7172427946666666666666667 L 403.34 306.4584729173333333333333333 L 403.6410 306.1994043733333333333333333 L 403.942 305.9400371626666666666666667 L 404.2430 305.6803709866666666666666667 L 404.544 305.420406144 L 404.8450 305.1601426346666666666666667 L 405.146 304.8995804586666666666666667 L 405.4470 304.6387193173333333333333333 L 405.748 304.3775595093333333333333333 L 406.0490 304.1161010346666666666666667 L 406.350 303.8543438933333333333333333 L 406.6510 303.5922880853333333333333333 L 406.952 303.329933312 L 407.2530 303.067279872 L 407.554 302.8043277653333333333333333 L 407.8550 302.541076992 L 408.156 302.277527552 L 408.4570 302.0136791466666666666666667 L 408.758 301.749531776 L 409.0590 301.4850857386666666666666667 L 409.36 301.2203410346666666666666667 L 409.6610 300.9552973653333333333333333 L 409.962 300.6899550293333333333333333 L 410.2630 300.424313728 L 410.564 300.15837376 L 410.8650 299.8921351253333333333333333 L 411.166 299.625597824 L 411.4670 299.358761856 L 411.768 299.0916272213333333333333333 L 412.0690 298.82419392 L 412.370 298.556461952 L 412.6710 298.2884313173333333333333333 L 412.972 298.020102016 L 413.2730 297.751474048 L 413.574 297.4825471146666666666666667 L 413.8750 297.2133215146666666666666667 L 414.176 296.943797248 L 414.4770 296.6739743146666666666666667 L 414.778 296.4038527146666666666666667 L 415.0790 296.1334321493333333333333333 L 415.38 295.8627129173333333333333333 L 415.6810 295.5916950186666666666666667 L 415.982 295.3203784533333333333333333 L 416.2830 295.0487632213333333333333333 L 416.584 294.7768493226666666666666667 L 416.8850 294.5046367573333333333333333 L 417.186 294.2321255253333333333333333 L 417.4870 293.9593156266666666666666667 L 417.788 293.6862070613333333333333333 L 418.0890 293.412799232 L 418.390 293.139092736 L 418.6910 292.8650875733333333333333333 L 418.992 292.590783744 L 419.2930 292.316180352 L 419.594 292.0412782933333333333333333 L 419.8950 291.766077568 L 420.196 291.4905778773333333333333333 L 420.4970 291.21477952 L 420.798 290.9386818986666666666666667 L 421.0990 290.6622856106666666666666667 L 421.4 290.385590656 L 421.7010 290.1085970346666666666666667 L 422.002 289.8313047466666666666666667 L 422.3030 289.553713792 L 422.604 289.2758241706666666666666667 L 422.9050 288.9976358826666666666666667 L 423.206 288.7191486293333333333333333 L 423.5070 288.4403627093333333333333333 L 423.808 288.1612781226666666666666667 L 424.1090 287.8818948693333333333333333 L 424.410 287.6022126506666666666666667 L 424.7110 287.3222317653333333333333333 L 425.012 287.0419522133333333333333333 L 425.3130 286.7613739946666666666666667 L 425.614 286.4804971093333333333333333 L 425.9150 286.1993212586666666666666667 L 426.216 285.9178464426666666666666667 L 426.5170 285.63607296 L 426.818 285.3540008106666666666666667 L 427.1190 285.0716299946666666666666667 L 427.42 284.788960512 L 427.7210 284.5059923626666666666666667 L 428.022 284.2227255466666666666666667 L 428.3230 283.939160064 L 428.624 283.6552959146666666666666667 L 428.9250 283.3711330986666666666666667 L 429.226 283.086671616 L 429.5270 282.8019114666666666666666667 L 429.828 282.5168526506666666666666667 L 430.1290 282.231495168 L 430.430 281.9458390186666666666666667 L 430.7310 281.6598836053333333333333333 L 431.032 281.3736295253333333333333333 L 431.3330 281.0870767786666666666666667 L 431.634 280.8002250666666666666666667 L 431.9350 280.513074688 L 432.236 280.2256256426666666666666667 L 432.5370 279.937877632 L 432.838 279.6498309546666666666666667 L 433.1390 279.3614856106666666666666667 L 433.44 279.07284160 L 433.7410 278.7838989226666666666666667 L 434.042 278.4946575786666666666666667 L 434.3430 278.205117568 L 434.644 277.9152788906666666666666667 L 434.9450 277.6251415466666666666666667 L 435.246 277.334705536 L 435.5470 277.0439708586666666666666667 L 435.848 276.752937216 L 436.1490 276.4616049066666666666666667 L 436.450 276.1699739306666666666666667 L 436.7510 275.878044288 L 437.052 275.5858159786666666666666667 L 437.3530 275.2932890026666666666666667 L 437.654 275.00046336 L 437.9550 274.7073390506666666666666667 L 438.256 274.413915776 L 438.5570 274.1201938346666666666666667 L 438.858 273.8261732266666666666666667 L 439.1590 273.531853952 L 439.46 273.2372360106666666666666667 L 439.7610 272.942319104 L 440.062 272.6471035306666666666666667 L 440.3630 272.3515892906666666666666667 L 440.664 272.055776384 L 440.9650 271.7596648106666666666666667 L 441.266 271.4632545706666666666666667 L 441.5670 271.166545664 L 441.868 270.8695380906666666666666667 L 442.1690 270.5722318506666666666666667 L 442.470 270.2746266453333333333333333 L 442.7710 269.9767227733333333333333333 L 443.072 269.6785202346666666666666667 L 443.3730 269.3800190293333333333333333 L 443.674 269.0812191573333333333333333 L 443.9750 268.7821206186666666666666667 L 444.276 268.4827234133333333333333333 L 444.5770 268.1830275413333333333333333 L 444.878 267.883032704 L 445.1790 267.5827392 L 445.48 267.2821470293333333333333333 L 445.7810 266.981256192 L 446.082 266.680066688 L 446.3830 266.3785785173333333333333333 L 446.684 266.07679168 L 446.9850 265.774706176 L 447.286 265.4723220053333333333333333 L 447.5870 265.169639168 L 447.888 264.866657664 L 448.1890 264.5633774933333333333333333 L 448.490 264.259798656 L 448.7910 263.955921152 L 449.092 263.6517449813333333333333333 L 449.3930 263.347270144 L 449.694 263.04249664 L 449.9950 262.7374244693333333333333333 L 450.296 262.432053632 L 450.5970 262.126384128 L 450.898 261.8204159573333333333333333 L 451.1990 261.51414912 L 451.50 261.207583616 L 451.8010 260.9007194453333333333333333 L 452.102 260.593556608 L 452.4030 260.286095104 L 452.704 259.9783349333333333333333333 L 453.0050 259.670276096 L 453.306 259.361918592 L 453.6070 259.0532624213333333333333333 L 453.908 258.744307584 L 454.2090 258.43505408 L 454.510 258.1255019093333333333333333 L 454.8110 257.815651072 L 455.112 257.505501568 L 455.4130 257.1950533973333333333333333 L 455.714 256.88430656 L 456.0150 256.573261056 L 456.316 256.2619168853333333333333333 L 456.6170 255.950274048 L 456.918 255.638332544 L 457.2190 255.3260923733333333333333333 L 457.52 255.013553536 L 457.8210 254.700716032 L 458.122 254.3875798613333333333333333 L 458.4230 254.074145024 L 458.724 253.76041152 L 459.0250 253.4463793493333333333333333 L 459.326 253.132048512 L 459.6270 252.817419008 L 459.928 252.5024908373333333333333333 L 460.2290 252.187264 L 460.530 251.871738496 L 460.8310 251.5559143253333333333333333 L 461.132 251.239791488 L 461.4330 250.923369984 L 461.734 250.6066498133333333333333333 L 462.0350 250.289630976 L 462.336 249.972313472 L 462.6370 249.6546973013333333333333333 L 462.938 249.336782464 L 463.2390 249.01856896 L 463.54 248.7000567893333333333333333 L 463.8410 248.381245952 L 464.142 248.062136448 L 464.4430 247.7427282773333333333333333 L 464.744 247.4230211413333333333333333 L 465.0450 247.10301504 L 465.346 246.782710272 L 465.6470 246.4621068373333333333333333 L 465.948 246.141204736 L 466.2490 245.820003968 L 466.550 245.4985045333333333333333333 L 466.8510 245.176706432 L 467.152 244.854609664 L 467.4530 244.5322142293333333333333333 L 467.754 244.209520128 L 468.0550 243.88652736 L 468.356 243.5632359253333333333333333 L 468.6570 243.239645824 L 468.958 242.915757056 L 469.2590 242.5915696213333333333333333 L 469.56 242.26708352 L 469.8610 241.942298752 L 470.162 241.6172153173333333333333333 L 470.4630 241.2918329173333333333333333 L 470.764 240.9661518506666666666666667 L 471.0650 240.6401721173333333333333333 L 471.366 240.3138937173333333333333333 L 471.6670 239.9873166506666666666666667 L 471.968 239.6604409173333333333333333 L 472.2690 239.3332665173333333333333333 L 472.570 239.0057934506666666666666667 L 472.8710 238.6780217173333333333333333 L 473.172 238.3499513173333333333333333 L 473.4730 238.021581952 L 473.774 237.6929136213333333333333333 L 474.0750 237.363946624 L 474.376 237.03468096 L 474.6770 236.7051166293333333333333333 L 474.978 236.375253632 L 475.2790 236.045091968 L 475.58 235.7146313386666666666666667 L 475.8810 235.3838720426666666666666667 L 476.182 235.05281408 L 476.4830 234.721457152 L 476.784 234.3898015573333333333333333 L 477.0850 234.057847296 L 477.386 233.725594368 L 477.6870 233.3930427733333333333333333 L 477.988 233.060192512 L 478.2890 232.727043584 L 478.590 232.3935959893333333333333333 L 478.8910 232.059849728 L 479.192 231.7258048 L 479.4930 231.3914612053333333333333333 L 479.794 231.056818944 L 480.0950 230.721878016 L 480.396 230.3866384213333333333333333 L 480.6970 230.05110016 L 480.998 229.715263232 L 481.2990 229.3791276373333333333333333 L 481.6 229.042693376 L 481.9010 228.705960448 L 482.202 228.3689285546666666666666667 L 482.5030 228.0315979946666666666666667 L 482.804 227.693968768 L 483.1050 227.3560408746666666666666667 L 483.406 227.0178143146666666666666667 L 483.7070 226.679289088 L 484.008 226.3404651946666666666666667 L 484.3090 226.001342336 L 484.610 225.6619208106666666666666667 L 484.9110 225.3222006186666666666666667 L 485.212 224.98218176 L 485.5130 224.641863936 L 485.814 224.3012471466666666666666667 L 486.1150 223.9603316906666666666666667 L 486.416 223.619117568 L 486.7170 223.2776047786666666666666667 L 487.018 222.9357933226666666666666667 L 487.3190 222.5936832 L 487.62 222.2512744106666666666666667 L 487.9210 221.9085669546666666666666667 L 488.222 221.565560832 L 488.5230 221.2222560426666666666666667 L 488.824 220.878652288 L 489.1250 220.5347498666666666666666667 L 489.426 220.1905487786666666666666667 L 489.7270 219.8460487253333333333333333 L 490.028 219.5012500053333333333333333 L 490.3290 219.1561526186666666666666667 L 490.630 218.8107565653333333333333333 L 490.9310 218.4650618453333333333333333 L 491.232 218.1190684586666666666666667 L 491.5330 217.7727764053333333333333333 L 491.834 217.4261856853333333333333333 L 492.1350 217.0792962986666666666666667 L 492.436 216.7321082453333333333333333 L 492.7370 216.3846215253333333333333333 L 493.038 216.0368361386666666666666667 L 493.3390 215.6887520853333333333333333 L 493.64 215.3403693653333333333333333 L 493.9410 214.9916879786666666666666667 L 494.242 214.6427079253333333333333333 L 494.5430 214.2934292053333333333333333 L 494.844 213.9438518186666666666666667 L 495.1450 213.5939757653333333333333333 L 495.446 213.2438010453333333333333333 L 495.7470 212.8933276586666666666666667 L 496.048 212.5425556053333333333333333 L 496.3490 212.1914848853333333333333333 L 496.650 211.8401152 L 496.9510 211.488446848 L 497.252 211.1364798293333333333333333 L 497.5530 210.784214144 L 497.854 210.431649792 L 498.1550 210.0787867733333333333333333 L 498.456 209.725625088 L 498.7570 209.3721644373333333333333333 L 499.058 209.01840512 L 499.3590 208.6643468373333333333333333 L 499.66 208.309989888 L 499.9610 207.955334272 L 500.262 207.6003799893333333333333333 L 500.5630 207.24512704 L 500.864 206.889575424 L 501.1650 206.5337251413333333333333333 L 501.466 206.177576192 L 501.7670 205.821128576 L 502.068 205.4643822933333333333333333 L 502.3690 205.107337344 L 502.670 204.749993728 L 502.9710 204.3923514453333333333333333 L 503.272 204.034410496 L 503.5730 203.67617088 L 503.874 203.3176325973333333333333333 L 504.1750 202.958795648 L 504.476 202.599660032 L 504.7770 202.2402257493333333333333333 L 505.078 201.8804928 L 505.3790 201.520461184 L 505.68 201.1601309013333333333333333 L 505.9810 200.799501952 L 506.282 200.438574336 L 506.5830 200.0773480533333333333333333 L 506.884 199.715823104 L 507.1850 199.353999488 L 507.486 198.9918772053333333333333333 L 507.7870 198.6294559573333333333333333 L 508.088 198.2667360426666666666666667 L 508.3890 197.9037174613333333333333333 L 508.690 197.5404002133333333333333333 L 508.9910 197.17678400 L 509.292 196.81286912 L 509.5930 196.4486555733333333333333333 L 509.894 196.08414336 L 510.1950 195.71933248 L 510.496 195.3542229333333333333333333 L 510.7970 194.9888144213333333333333333 L 511.098 194.6231072426666666666666667 L 511.3990 194.2571013973333333333333333 L 511.70 193.8907968853333333333333333 L 512.0010 193.5241937066666666666666667 L 512.302 193.1572918613333333333333333 L 512.6030 192.7900913493333333333333333 L 512.904 192.4225921706666666666666667 L 513.2050 192.0547943253333333333333333 L 513.506 191.6866978133333333333333333 L 513.8070 191.3183026346666666666666667 L 514.108 190.9496087893333333333333333 L 514.4090 190.5806162773333333333333333 L 514.710 190.2113250986666666666666667 L 515.0110 189.8417352533333333333333333 L 515.312 189.4718467413333333333333333 L 515.6130 189.1016595626666666666666667 L 515.914 188.7311734186666666666666667 L 516.2150 188.360388608 L 516.516 187.9893051306666666666666667 L 516.8170 187.6179229866666666666666667 L 517.118 187.246242176 L 517.4190 186.8742626986666666666666667 L 517.72 186.5019845546666666666666667 L 518.0210 186.129407744 L 518.322 185.7565322666666666666666667 L 518.6230 185.3833581226666666666666667 L 518.924 185.009885312 L 519.2250 184.6361138346666666666666667 L 519.526 184.2620436906666666666666667 L 519.8270 183.88767488 L 520.128 183.5130074026666666666666667 L 520.4290 183.1380412586666666666666667 L 520.730 182.762776448 L 521.0310 182.3872129706666666666666667 L 521.332 182.0113508266666666666666667 L 521.6330 181.635190016 L 521.934 181.2587305386666666666666667 L 522.2350 180.8819723946666666666666667 L 522.536 180.504915584 L 522.8370 180.1275601066666666666666667 L 523.138 179.7499059626666666666666667 L 523.4390 179.371953152 L 523.74 178.9937016746666666666666667 L 524.0410 178.6151515306666666666666667 L 524.342 178.23630272 L 524.6430 177.8571552426666666666666667 L 524.944 177.4777088 L 525.2450 177.0979636906666666666666667 L 525.546 176.7179199146666666666666667 L 525.8470 176.337577472 L 526.148 175.9569363626666666666666667 L 526.4490 175.5759965866666666666666667 L 526.750 175.194758144 L 527.0510 174.8132210346666666666666667 L 527.352 174.43138496 L 527.6530 174.0492502186666666666666667 L 527.954 173.6668168106666666666666667 L 528.2550 173.284084736 L 528.556 172.9010539946666666666666667 L 528.8570 172.5177245866666666666666667 L 529.158 172.134096512 L 529.4590 171.7501697706666666666666667 L 529.76 171.365944064 L 530.0610 170.9814196906666666666666667 L 530.362 170.5965966506666666666666667 L 530.6630 170.211474944 L 530.964 169.8260545706666666666666667 L 531.2650 169.4403355306666666666666667 L 531.566 169.054317824 L 531.8670 168.6680014506666666666666667 L 532.168 168.2813864106666666666666667 L 532.4690 167.894472704 L 532.770 167.507260032 L 533.0710 167.1197486933333333333333333 L 533.372 166.731938688 L 533.6730 166.343830016 L 533.974 165.9554223786666666666666667 L 534.2750 165.5667160746666666666666667 L 534.576 165.177711104 L 534.8770 164.7884074666666666666666667 L 535.178 164.3988051626666666666666667 L 535.4790 164.008904192 L 535.78 163.6187045546666666666666667 L 536.0810 163.2282062506666666666666667 L 536.382 162.83740928 L 536.6830 162.4463136426666666666666667 L 536.984 162.0549193386666666666666667 L 537.2850 161.663226368 L 537.586 161.2712347306666666666666667 L 537.8870 160.8789444266666666666666667 L 538.188 160.4863551573333333333333333 L 538.4890 160.0934672213333333333333333 L 538.790 159.7002806186666666666666667 L 539.0910 159.3067953493333333333333333 L 539.392 158.9130114133333333333333333 L 539.6930 158.5189288106666666666666667 L 539.994 158.1245475413333333333333333 L 540.2950 157.7298676053333333333333333 L 540.596 157.3348890026666666666666667 L 540.8970 156.9396117333333333333333333 L 541.198 156.5440357973333333333333333 L 541.4990 156.1481611946666666666666667 L 541.8 155.7519879253333333333333333 L 542.1010 155.3555159893333333333333333 L 542.402 154.9587453866666666666666667 L 542.7030 154.5616761173333333333333333 L 543.004 154.1643081813333333333333333 L 543.3050 153.7666415786666666666666667 L 543.606 153.3686760106666666666666667 L 543.9070 152.970411776 L 544.208 152.5718488746666666666666667 L 544.5090 152.1729873066666666666666667 L 544.810 151.773827072 L 545.1110 151.3743681706666666666666667 L 545.412 150.9746106026666666666666667 L 545.7130 150.574554368 L 546.014 150.1741994666666666666666667 L 546.3150 149.7735458986666666666666667 L 546.616 149.372593664 L 546.9170 148.9713427626666666666666667 L 547.218 148.5697931946666666666666667 L 547.5190 148.16794496 L 547.82 147.7657980586666666666666667 L 548.1210 147.3633524906666666666666667 L 548.422 146.960608256 L 548.7230 146.5575653546666666666666667 L 549.024 146.1542237866666666666666667 L 549.3250 145.750583552 L 549.626 145.346644352 L 549.9270 144.9424064853333333333333333 L 550.228 144.537869952 L 550.5290 144.133034752 L 550.830 143.7279008853333333333333333 L 551.1310 143.322468352 L 551.432 142.916737152 L 551.7330 142.5107072853333333333333333 L 552.034 142.104378752 L 552.3350 141.697751552 L 552.636 141.2908256853333333333333333 L 552.9370 140.883601152 L 553.238 140.476077952 L 553.5390 140.0682560853333333333333333 L 553.84 139.660135552 L 554.1410 139.251716352 L 554.442 138.8429984853333333333333333 L 554.7430 138.433981952 L 555.044 138.024666752 L 555.3450 137.6150528853333333333333333 L 555.646 137.205140352 L 555.9470 136.794929152 L 556.248 136.3844192853333333333333333 L 556.5490 135.973610752 L 556.850 135.562503552 L 557.1510 135.1510976853333333333333333 L 557.452 134.7393928533333333333333333 L 557.7530 134.3273893546666666666666667 L 558.054 133.9150871893333333333333333 L 558.3550 133.5024863573333333333333333 L 558.656 133.0895868586666666666666667 L 558.9570 132.6763886933333333333333333 L 559.258 132.2628918613333333333333333 L 559.5590 131.8490963626666666666666667 L 559.86 131.4350021973333333333333333 L 560.1610 131.0206093653333333333333333 L 560.462 130.6059178666666666666666667 L 560.7630 130.1909277013333333333333333 L 561.064 129.7756388693333333333333333 L 561.3650 129.3600513706666666666666667 L 561.666 128.9441652053333333333333333 L 561.9670 128.5279803733333333333333333 L 562.268 128.1114968746666666666666667 L 562.5690 127.6947147093333333333333333 L 562.870 127.2776338773333333333333333 L 563.1710 126.8602543786666666666666667 L 563.472 126.4425762133333333333333333 L 563.7730 126.0245993813333333333333333 L 564.074 125.6063238826666666666666667 L 564.3750 125.1877497173333333333333333 L 564.676 124.7688768853333333333333333 L 564.9770 124.3497053866666666666666667 L 565.278 123.9302352213333333333333333 L 565.5790 123.5104663893333333333333333 L 565.88 123.0903988906666666666666667 L 566.1810 122.6700327253333333333333333 L 566.482 122.2493678933333333333333333 L 566.7830 121.8284043946666666666666667 L 567.084 121.4071422293333333333333333 L 567.3850 120.9855813973333333333333333 L 567.686 120.5637218986666666666666667 L 567.9870 120.1415637333333333333333333 L 568.288 119.7191069013333333333333333 L 568.5890 119.2963514026666666666666667 L 568.890 118.8732972373333333333333333 L 569.1910 118.4499444053333333333333333 L 569.492 118.0262929066666666666666667 L 569.7930 117.6023427413333333333333333 L 570.094 117.1780939093333333333333333 L 570.3950 116.7535464106666666666666667 L 570.696 116.3287002453333333333333333 L 570.9970 115.9035554133333333333333333 L 571.298 115.4781119146666666666666667 L 571.5990 115.0523697493333333333333333 L 571.90 114.6263289173333333333333333 L 572.2010 114.1999894186666666666666667 L 572.502 113.7733512533333333333333333 L 572.8030 113.3464144213333333333333333 L 573.104 112.9191789226666666666666667 L 573.4050 112.4916447573333333333333333 L 573.706 112.0638119253333333333333333 L 574.0070 111.6356804266666666666666667 L 574.308 111.2072502613333333333333333 L 574.6090 110.7785214293333333333333333 L 574.910 110.3494939306666666666666667 L 575.2110 109.9201677653333333333333333 L 575.512 109.4905429333333333333333333 L 575.8130 109.0606194346666666666666667 L 576.114 108.6303972693333333333333333 L 576.4150 108.1998764373333333333333333 L 576.716 107.7690569386666666666666667 L 577.0170 107.3379387733333333333333333 L 577.318 106.9065219413333333333333333 L 577.6190 106.4748064426666666666666667 L 577.92 106.0427922773333333333333333 L 578.2210 105.6104794453333333333333333 L 578.522 105.1778679466666666666666667 L 578.8230 104.7449577813333333333333333 L 579.124 104.3117489493333333333333333 L 579.4250 103.8782414506666666666666667 L 579.726 103.4444352853333333333333333 L 580.0270 103.0103304533333333333333333 L 580.328 102.5759269546666666666666667 L 580.6290 102.1412247893333333333333333 L 580.930 101.7062239573333333333333333 L 581.2310 101.2709244586666666666666667 L 581.532 100.8353262933333333333333333 L 581.8330 100.3994294613333333333333333 L 582.134 99.9632339626666666666666667 L 582.4350 99.5267397973333333333333333 L 582.736 99.0899469653333333333333333 L 583.0370 98.6528554666666666666666667 L 583.338 98.2154653013333333333333333 L 583.6390 97.7777764693333333333333333 L 583.94 97.3397889706666666666666667 L 584.2410 96.9015028053333333333333333 L 584.542 96.4629179733333333333333333 L 584.8430 96.0240344746666666666666667 L 585.144 95.5848523093333333333333333 L 585.4450 95.1453714773333333333333333 L 585.746 94.7055919786666666666666667 L 586.0470 94.2655138133333333333333333 L 586.348 93.8251369813333333333333333 L 586.6490 93.3844614826666666666666667 L 586.950 92.9434873173333333333333333 L 587.2510 92.5022144853333333333333333 L 587.552 92.0606429866666666666666667 L 587.8530 91.6187728213333333333333333 L 588.154 91.1766039893333333333333333 L 588.4550 90.7341364906666666666666667 L 588.756 90.2913703253333333333333333 L 589.0570 89.8483054933333333333333333 L 589.358 89.4049419946666666666666667 L 589.6590 88.9612798293333333333333333 L 589.96 88.5173189973333333333333333 L 590.2610 88.0730594986666666666666667 L 590.562 87.6285013333333333333333333 L 590.8630 87.1836445013333333333333333 L 591.164 86.7384890026666666666666667 L 591.4650 86.2930348373333333333333333 L 591.766 85.8472820053333333333333333 L 592.0670 85.4012305066666666666666667 L 592.368 84.9548803413333333333333333 L 592.6690 84.5082315093333333333333333 L 592.970 84.0612840106666666666666667 L 593.2710 83.6140378453333333333333333 L 593.572 83.1664930133333333333333333 L 593.8730 82.7186495146666666666666667 L 594.174 82.2705073493333333333333333 L 594.4750 81.8220665173333333333333333 L 594.776 81.3733270186666666666666667 L 595.0770 80.9242888533333333333333333" /></g></g></g></g></g></g></svg>