<?xml version="1.0" encoding="UTF-8" standalone="no"?>
<!DOCTYPE svg PUBLIC "-//W3C//DTD SVG 20010904//EN"
              "http://www.w3.org/TR/2001/REC-SVG-20010904/DTD/svg10.dtd">

<svg xmlns="http://www.w3.org/2000/svg"
     viewBox="0 0 1872 1720">
  <style>
    svg text {
      font-family: -apple-system, system-ui, BlinkMacSystemFont, "Segoe UI", "Open Sans", "Helvetica Neue", Helvetica, Arial, sans-serif;
      font-size: 5vw;
    }
    svg a {
      font-weight: normal;
    }
    svg a:hover {
      font-weight: bold;
    }
  </style>
  <path id="Background"
      fill="#ece7e4" stroke="none"
        d="M 933.00,1653.00
           C 693.00,1845.00 549.00,1512.00 411.00,1431.00
             249.00,1329.00 21.00,1080.00 153.00,1005.00
             273.00,900.00 1179.00,21.00 1302.00,27.00
             1425.00,33.00 1752.00,21.00 1770.00,162.00
             1788.00,303.00 1875.00,330.00 1854.00,408.00
             1833.00,486.00 1707.00,441.00 1656.00,477.00
             1605.00,513.00 1593.00,1197.00 1425.00,1206.00
             1257.00,1215.00 1164.00,1440.00 933.00,1653.00 Z" />
  <path id="Rich Pond"
    fill="#99ddff" stroke="none"
    d="M 1254.55,944.18
       C 1278.36,940.00 1278.55,913.64 1254.73,913.82
         1230.91,914.00 1230.73,948.36 1254.55,944.18 Z" />
  <path id="Jamaica Pond"
    fill="#99ddff" stroke="none"
    d="M 1351.00,1054.75
       C 1345.75,1081.00 1364.50,1105.25 1384.25,1110.25
         1472.75,1141.25 1473.75,1022.50 1472.50,1009.50
         1471.25,996.50 1393.00,966.00 1403.50,988.00
         1414.00,1010.00 1450.00,848.50 1347.00,977.50
         1318.50,1021.50 1356.25,1028.50 1351.00,1054.75 Z" />
  <path id="LarzAnderson"
      fill="#b8ebad" stroke="none"
      d="M 1005.00,1227.25
         C 1037.75,1086.50 1072.50,1100.75 1110.25,1112.25
           1148.00,1123.75 1134.25,1157.00 1140.50,1199.50
           1147.00,1239.25 1091.75,1266.50 1075.00,1252.00
           1069.25,1245.50 1049.75,1250.00 1037.50,1240.25
           1025.25,1230.50 1001.50,1233.50 1005.00,1227.25 Z" />
  <path id="Holyhood Green"
        fill="#b8ebad" stroke="none"
        d="M 497.67,979.67
           C 494.33,989.33 479.00,999.00 418.00,1006.33
             357.00,1013.67 373.00,986.33 375.67,969.33
             382.00,931.33 466.67,896.67 497.00,958.00
             501.33,964.33 501.00,970.00 497.67,979.67 Z" />
  <path id="Golfcourse"
    fill="#b8ebad" stroke="none"
    d="M 508.50,1141.00
       C 465.50,1185.00 550.00,1227.00 580.50,1261.50
         599.84,1283.37 620.60,1297.35 653.00,1301.00
         671.71,1303.11 699.92,1294.05 719.50,1301.00
         773.00,1320.00 795.33,1293.33 806.00,1276.67
         816.67,1260.00 825.33,1242.67 858.67,1271.33
         892.00,1300.00 890.67,1258.67 898.00,1256.67
         905.33,1254.67 898.00,1234.00 922.00,1210.00
         946.00,1186.00 926.00,1174.67 932.00,1146.00
         962.67,1094.00 909.33,1055.33 899.33,1073.33
         895.33,1082.00 879.33,1088.67 865.33,1067.33
         851.33,1046.00 778.00,1001.33 753.33,997.33
         728.67,993.33 630.67,1048.00 620.00,1055.33
         609.33,1062.67 578.67,1089.33 570.00,1073.33
         561.33,1057.33 580.67,1006.67 542.00,1016.00
         515.33,1028.00 506.50,1059.50 535.50,1085.50
         556.50,1100.00 528.50,1114.50 508.50,1141.00 Z" />
  <path id="Allandale+WalnutHillsCemetary"
        fill="#b8ebad" stroke="none"
        d="M 850.00,1360.00
           C 850.00,1334.00 986.00,1152.67 946.00,1302.67
             935.33,1343.33 958.67,1338.00 964.67,1339.33
             970.67,1340.67 1039.33,1310.00 974.00,1381.33
             940.67,1418.67 1025.33,1397.33 1004.67,1424.00
             984.00,1450.67 964.67,1437.33 950.67,1434.67
             936.67,1432.00 931.33,1481.33 908.67,1476.67
             886.00,1472.00 891.33,1492.00 862.00,1482.00
             832.67,1472.00 833.33,1517.33 794.00,1449.33
             784.00,1430.67 809.33,1422.00 818.67,1420.67
             828.00,1419.33 781.33,1366.67 830.67,1371.33
             840.67,1372.00 848.67,1372.00 850.00,1360.00 Z" />
  <path id="Brookline Reservoir"
        fill="#99ddff" stroke="none"
        d="M 1033.50,765.50
           C 965.50,791.50 1007.50,828.00 1042.50,809.00
             1077.50,790.00 1087.00,770.50 1103.50,779.00
             1120.00,787.50 1146.00,753.00 1135.50,733.50
             1125.00,714.00 1107.00,728.00 1087.00,736.50
             1054.50,750.00 1057.00,759.00 1033.50,765.50 Z" />
  <path id="Emerald Necklace"
    fill="#b8ebad" stroke="none"
    d="M 1431.50,803.00
       C 1404.00,793.50 1426.50,939.00 1420.50,960.00
         1413.50,982.00 1455.00,990.00 1471.00,986.50
         1489.00,983.00 1459.00,931.50 1479.50,884.50
         1500.00,837.50 1521.00,830.00 1538.00,820.50
         1555.00,811.00 1589.50,717.00 1570.50,689.00
         1551.50,661.00 1555.00,639.00 1556.00,640.50
         1556.00,635.50 1589.00,555.00 1596.00,549.00
         1603.00,543.00 1617.50,503.00 1612.50,496.00
         1607.50,489.00 1611.00,407.50 1615.50,396.00
         1620.00,384.50 1694.50,322.00 1711.00,303.50
         1727.50,285.00 1775.00,339.50 1785.50,354.50
         1796.00,369.50 1817.00,400.00 1832.00,399.00
         1847.00,398.00 1836.50,377.50 1817.00,361.50
         1797.50,345.50 1788.00,294.50 1745.00,285.00
         1702.00,275.50 1678.50,302.00 1653.00,333.00
         1627.50,364.00 1594.00,373.00 1601.00,444.50
         1608.00,516.00 1599.50,511.50 1599.50,511.50
         1599.50,511.50 1549.50,582.50 1544.00,639.00
         1538.50,695.50 1488.50,695.00 1491.00,780.50
         1491.00,823.50 1448.00,809.00 1431.50,803.00 Z" />
  <path id="Border"
        fill="none" stroke="#c960fa" stroke-width="10"
        d="M 190.00,1122.67
           C 190.00,1122.67 719.33,1669.33 744.00,1674.00
             914.67,1640.67 1110.00,1274.67 1115.33,1259.33
             1120.67,1244.00 1320.67,900.00 1334.00,888.67
             1347.33,877.33 1378.00,834.67 1418.00,887.33
             1458.00,940.00 1492.00,782.00 1498.00,772.67
             1504.00,763.33 1538.00,639.33 1564.67,601.33
             1591.33,563.33 1600.67,522.00 1590.00,482.67
             1579.33,443.33 1633.33,344.67 1673.33,322.00
             1713.33,299.33 1706.67,284.67 1706.67,272.00
             1706.67,259.33 1685.33,211.33 1680.67,204.00
             1676.00,196.67 1687.33,125.33 1692.00,121.33
             1696.67,117.33 1332.00,67.33 1332.00,67.33
             1332.00,67.33 1266.00,122.67 1237.33,124.67
             1208.67,126.67 1122.00,207.33 1107.33,219.33
             1092.67,231.33 948.00,372.00 950.67,396.67
             953.33,421.33 851.33,422.67 865.33,490.67
             879.33,558.67 810.00,540.67 780.67,552.67
             753.33,566.67 610.00,682.67 594.67,712.00
             579.33,741.33 414.67,897.33 386.00,899.33
             357.33,901.33 364.00,942.00 369.33,951.33
             374.67,960.67 190.00,1122.67 190.00,1122.67 Z" />
  <path id="Aspinwall Hill"
      fill="none" stroke="#EDAD08" stroke-width="6"
      d="M 1303.50,528.50
         C 1301.25,501.00 1252.25,426.75 1193.75,446.00
           1171.75,453.75 1109.00,427.25 1094.75,422.75M 1148.00,419.25
         C 1148.00,419.25 1153.00,438.00 1158.00,443.50M 1176.00,418.00
         C 1176.00,418.00 1171.75,444.00 1174.50,447.00M 1194.00,446.25
         C 1195.50,418.00 1276.25,405.50 1272.50,471.50M 1272.75,471.75
         C 1312.50,432.00 1277.50,388.75 1251.75,428.50M 1289.75,390.75
         C 1289.75,390.75 1283.25,408.25 1284.75,417.25M 1083.75,426.75
         C 1084.99,439.65 1130.35,457.14 1170.50,460.75
           1194.94,462.95 1221.01,464.78 1223.75,443.50M 1179.50,447.00
         C 1179.50,447.00 1195.50,473.25 1201.25,484.25
           1207.00,495.25 1209.25,519.25 1250.50,499.25
           1260.50,493.50 1253.00,453.25 1214.00,442.75M 1054.50,438.00
         C 1124.00,482.75 1158.00,472.50 1180.00,461.00M 1021.75,446.00
         C 1031.75,524.50 1098.00,574.00 1142.50,597.00
           1178.00,615.00 1186.50,578.50 1191.50,570.00
           1224.00,522.75 1245.75,516.25 1271.25,531.25
           1296.75,546.25 1293.50,494.00 1284.00,486.50M 1028.25,476.75
         C 1057.25,456.75 1051.75,469.50 1058.75,483.75
           1074.75,513.50 1098.50,559.00 1137.75,549.75
           1177.00,540.50 1217.25,491.00 1158.00,469.00M 1055.75,476.75
         C 1069.75,459.75 1081.75,441.00 1067.50,499.50
           1063.00,516.25 1106.50,535.25 1131.50,535.75
           1156.50,536.25 1208.50,495.25 1127.25,478.50
           1112.00,476.75 1048.50,500.25 1090.25,517.25
           1108.00,522.00 1111.00,520.00 1115.75,520.00
           1124.50,520.25 1117.75,503.75 1130.50,504.50
           1140.25,505.25 1138.00,483.25 1136.50,480.25M 1028.00,474.50
         C 1028.25,474.50 1071.50,458.00 1079.25,453.00M 1093.00,486.75
         C 1083.75,514.75 1113.50,514.00 1142.50,514.25
           1171.50,514.50 1142.75,494.75 1138.00,491.50M 1135.75,500.25
         C 1135.75,500.25 1152.50,516.75 1128.50,535.25M 1090.25,518.00
         C 1090.25,518.00 1090.25,488.75 1093.50,487.00M 1154.75,506.25
         C 1164.75,508.75 1145.75,532.00 1128.75,535.75M 1147.50,498.25
         C 1143.25,468.50 1221.50,481.00 1230.75,491.50
           1236.25,497.75 1249.75,494.75 1265.75,505.75
           1320.50,541.00 1240.50,544.50 1247.50,500.00M 1218.50,506.75
         C 1208.00,515.25 1154.50,585.75 1133.50,590.50M 1274.00,502.25
         C 1277.75,507.50 1281.50,512.00 1280.50,518.50M 1085.33,558.00
         C 1073.67,576.00 1049.00,543.33 1015.00,510.00
           997.90,496.30 983.08,473.56 982.33,460.00M 956.33,466.00
         C 963.00,501.67 969.33,509.00 1011.67,506.33M 1243.67,540.00
         C 1243.67,540.00 1244.00,504.00 1249.33,498.67" />
  <path id="Beacon Street"
      fill="none" stroke="#3969AC" stroke-width="6"
      d="M 780.67,530.00
         C 853.67,494.00 1084.67,410.33 1166.67,415.33
           1220.67,423.33 1243.00,389.50 1300.00,374.50
           1323.00,366.50 1695.00,225.00 1722.00,214.00" />
  <path id="Beneath Brookline Reservoir"
      fill="none" stroke="#E73F74" stroke-width="6"
      d="M 1038.00,833.00
         C 1056.33,841.67 1049.67,889.33 1059.00,895.00
           1074.33,905.33 1041.00,949.00 1033.67,961.00
           1027.00,967.33 1020.00,1000.67 1021.33,1003.67
           1022.67,1006.67 1076.00,1015.00 1062.00,1010.33
           987.33,994.00 980.67,1025.67 976.33,1013.67
           972.00,1001.67 981.67,898.00 1037.67,893.67
           1093.67,889.33 1134.00,938.00 1175.33,900.33
           1201.00,879.00 1164.00,814.00 1161.50,804.50
           1159.00,795.00 1172.50,769.50 1169.00,760.00
           1165.50,750.50 1150.00,721.50 1136.00,718.50
           1124.58,716.05 1067.00,734.00 1048.00,757.00
           1041.64,761.21 1038.00,765.00 1031.50,764.50
           1011.50,763.00 1006.67,772.83 1001.67,779.33
           996.67,785.83 999.33,805.00 1006.67,813.00
           1014.00,821.00 1026.00,828.33 1036.33,828.33
           1046.67,828.33 1052.33,801.00 1058.00,798.33
           1063.67,795.67 1095.33,770.33 1141.67,804.33
           1152.00,812.67 1084.33,842.00 1054.67,802.67M 1052.33,807.67
         C 1052.33,807.67 1043.33,827.00 1046.00,841.00
           1048.67,855.00 1049.33,887.00 1033.67,893.00
           1027.12,895.51 1030.10,889.85 1025.33,887.33
           1018.70,883.82 1002.79,882.39 996.00,882.00
           984.33,881.33 979.67,927.67 936.33,891.00
           920.67,879.33 905.67,861.67 897.00,859.67
           888.33,857.67 864.67,877.67 855.00,888.67
           845.33,899.67 804.00,984.67 792.67,913.33
           791.00,900.00 846.67,888.00 855.33,887.33
           864.00,886.67 879.00,867.00 878.33,864.33
           877.67,861.67 869.00,849.33 858.67,847.33
           848.33,845.33 834.00,863.67 812.00,844.67
           790.00,825.67 789.33,837.33 790.33,832.33
           791.33,827.33 781.67,825.33 798.00,834.67
           814.33,844.00 813.67,844.33 818.67,834.00
           823.67,823.67 811.00,815.00 836.67,820.00
           848.67,821.67 875.00,808.67 872.33,833.33
           870.00,842.00 865.00,849.67 865.00,849.67M 798.00,905.67M 798.00,906.00
         C 798.00,906.00 772.67,919.33 759.33,914.00
           746.00,908.67 763.33,899.67 768.67,897.33
           774.00,895.00 812.33,894.67 812.67,877.33
           812.33,872.00 810.67,894.33 766.67,895.00
           748.38,894.12 736.36,881.64 740.36,883.09
           744.36,884.55 750.18,893.82 764.18,895.27
           778.18,896.73 790.18,849.64 772.36,863.64
           762.18,872.18 773.27,880.36 776.00,884.73
           778.73,889.09 750.55,902.18 756.18,916.73
           761.82,931.27 762.18,934.36 757.09,948.36
           749.09,965.82 724.18,989.27 714.55,991.45
           704.91,993.64 682.55,1016.73 678.18,1017.27
           673.82,1017.82 708.36,991.09 715.82,989.27
           723.27,987.45 749.45,968.55 756.91,944.18
           764.36,919.82 758.73,922.91 754.00,912.91
           751.45,908.73 716.84,901.96 703.27,893.45
           694.55,889.09 673.64,906.18 653.09,896.36
           632.55,886.55 613.00,893.25 606.50,890.50
           600.00,887.75 600.00,875.50 585.75,868.75
           579.50,863.75 601.25,831.00 606.00,830.75
           610.75,830.75 614.25,822.75 627.75,834.50
           634.41,839.95 643.25,861.75 647.25,877.75
           650.64,888.29 652.16,893.94 652.75,896.50
           654.25,903.00 653.00,873.75 630.50,871.00
           608.00,868.25 598.75,851.50 593.00,844.50M 893.50,859.00
         C 893.50,859.00 906.25,842.50 909.75,836.25
           913.25,830.00 926.50,845.00 928.00,850.25
           929.50,855.50 913.00,836.50 911.00,833.25
           909.00,830.00 910.25,819.00 911.00,817.50
           911.75,816.00 937.00,783.75 944.75,786.50
           952.50,789.25 955.25,802.00 956.75,805.75
           958.25,809.50 1022.50,861.75 1022.75,886.75M 945.50,787.00
         C 945.50,787.00 974.50,777.25 982.75,785.00
           991.00,792.75 1005.50,811.50 1007.50,815.00M 839.00,782.75
         C 839.00,782.75 855.42,787.32 869.50,795.25
           886.65,804.90 902.78,818.25 912.25,818.25M 1071.25,850.25
         C 1071.25,850.25 1070.22,859.93 1071.25,870.25
           1072.36,881.37 1075.53,893.34 1074.75,897.75M 1131.75,797.50
         C 1131.75,797.50 1133.75,781.75 1132.50,777.25
           1131.25,772.75 1141.75,727.75 1145.00,722.50M 1170.67,825.67
         C 1170.67,825.67 1192.67,823.00 1172.33,802.33
           1166.00,791.67 1174.00,785.33 1174.00,785.33M 1169.82,762.73
         C 1170.36,769.82 1135.27,764.55 1132.55,778.18" />
  <path id="Boyleston Street"
      fill="none" stroke="#80BA5A" stroke-width="6"
      d="M 302.50,935.00
         C 324.00,935.00 645.00,818.50 676.00,803.00
           704.62,785.05 769.00,763.50 808.50,774.50
           850.50,782.00 898.50,783.50 920.00,783.00
           931.32,781.11 953.70,782.19 979.00,777.50
           1000.63,773.50 1033.14,758.45 1046.50,749.00
           1097.50,709.50 1169.88,701.05 1195.00,699.50
           1207.00,698.00 1326.00,670.50 1356.00,661.50
           1429.50,636.50 1539.00,622.50 1571.50,623.00" />
  
  <path id="Brookline Village"
      fill="none" stroke="#E68310" stroke-width="6"
      d="M 1251.50,738.00
         C 1238.00,737.50 1234.00,698.50 1239.50,691.00M 1266.50,733.00
         C 1266.50,733.00 1248.50,705.00 1250.50,690.50M 1306.50,696.50
         C 1306.50,696.50 1259.50,699.50 1251.50,704.00M 1288.00,725.50
         C 1288.00,725.50 1283.00,691.50 1284.00,682.00
           1287.00,671.00 1285.04,660.66 1293.00,641.00
           1300.42,622.68 1317.89,598.27 1321.00,587.00
           1327.50,572.50 1330.50,542.00 1365.50,554.00
           1389.50,573.50 1421.00,590.83 1439.00,590.33
           1457.00,589.83 1487.33,577.67 1498.00,586.33
           1504.00,592.67 1445.33,618.33 1441.67,622.00
           1438.00,625.67 1382.00,638.33 1378.00,619.00
           1374.00,599.67 1363.67,597.00 1324.00,580.00M 1316.00,595.67
         C 1316.00,595.67 1331.33,605.67 1335.33,608.00M 1309.67,642.67
         C 1309.67,642.67 1329.67,604.00 1329.67,604.00M 1465.67,596.67
         C 1465.67,596.67 1434.67,593.67 1410.67,607.00
           1401.67,608.67 1356.33,634.67 1302.00,623.67
           1279.67,619.67 1250.33,596.33 1244.33,594.33
           1230.67,577.00 1236.33,565.67 1263.67,548.00M 1305.67,568.67
         C 1305.67,568.67 1294.00,589.33 1294.00,589.33M 1296.00,592.33
         C 1296.00,592.33 1283.33,616.33 1283.33,616.33M 1313.67,603.33
         C 1313.67,603.33 1268.00,577.00 1261.67,574.33M 1355.00,576.33
         C 1355.00,576.33 1334.00,568.67 1331.33,563.00M 1368.33,600.33
         C 1389.67,580.00 1354.67,578.33 1366.00,553.67M 1322.00,669.33
         C 1312.81,654.19 1314.08,653.37 1327.33,650.33
           1335.03,648.57 1351.58,643.75 1360.33,644.33
           1366.03,644.71 1365.83,648.56 1366.67,653.00M 1340.00,665.12
         C 1340.00,665.12 1334.50,648.50 1334.50,648.50M 1355.38,660.75
         C 1355.38,660.75 1350.38,645.00 1350.38,645.00M 1258.00,684.75
         C 1231.50,629.25 1261.38,653.62 1286.25,665.12M 1588.67,543.33
         C 1595.04,551.61 1552.67,522.67 1542.33,517.67
           1530.33,511.00 1502.08,480.00 1471.75,479.00
           1418.75,480.33 1397.00,515.67 1384.00,528.67
           1371.00,541.67 1357.00,566.00 1307.33,526.33
           1307.33,526.67 1230.67,608.00 1221.00,611.33
           1211.33,614.67 1191.67,595.00 1180.67,597.33
           1169.67,599.67 1167.00,603.00 1173.33,610.00
           1179.67,617.00 1190.33,629.33 1222.67,619.00
           1226.26,617.30 1248.23,628.68 1268.00,635.33
           1283.07,640.40 1290.77,638.43 1294.67,638.00M 1197.25,603.00
         C 1192.00,579.50 1246.00,539.75 1246.00,539.75
           1246.00,539.75 1318.50,575.00 1325.00,576.00M 1307.75,549.25
         C 1307.75,549.25 1317.75,534.00 1317.75,534.00M 1429.00,608.50
         C 1429.00,608.50 1441.75,603.50 1441.75,603.50M 1400.75,510.00M 1435.00,571.25
         C 1456.75,572.50 1474.75,567.50 1471.75,585.50M 1408.00,582.25
         C 1408.00,582.25 1414.25,571.50 1417.75,556.50
           1421.24,553.86 1426.88,555.75 1433.00,555.50M 1378.50,564.00
         C 1378.50,564.00 1398.75,552.00 1417.25,556.50M 1409.50,520.50
         C 1425.32,498.10 1463.50,493.67 1487.50,500.75
           1515.25,514.25 1529.49,531.53 1540.25,547.00M 1467.50,478.50
         C 1453.75,490.25 1462.75,519.00 1470.50,534.75M 1494.75,483.50
         C 1494.75,483.50 1495.50,503.75 1481.50,520.00
           1479.12,528.88 1483.20,532.12 1480.75,534.75M 1439.50,501.25
         C 1443.50,541.25 1447.50,536.50 1457.25,536.00
           1469.50,536.50 1493.75,525.50 1490.75,552.00
           1491.11,554.14 1501.34,554.56 1506.25,556.50
           1511.68,558.65 1511.90,562.29 1514.00,564.00M 1426.75,544.00
         C 1426.75,544.00 1445.44,546.07 1461.00,549.00
           1475.45,551.72 1484.61,549.97 1490.75,552.50M 1455.50,524.00
         C 1455.50,524.00 1457.50,542.25 1457.00,548.00M 1498.00,586.50
         C 1498.00,586.50 1538.50,531.25 1542.25,517.75M 1486.75,626.50
         C 1486.75,626.50 1486.25,563.75 1542.75,603.00M 1526.00,620.00
         C 1526.00,620.00 1579.00,548.00 1582.25,541.50M 1516.75,589.75
         C 1525.00,577.75 1532.50,563.75 1539.50,575.25
           1546.50,586.75 1545.75,584.75 1533.00,597.50M 1523.00,592.50
         C 1523.25,585.25 1511.75,625.75 1528.50,595.00M 1298.25,656.00
         C 1298.25,656.00 1292.50,670.00 1296.25,675.25M 1367.00,600.33
         C 1367.00,600.33 1345.33,608.33 1342.00,626.00" />
  <path id="CD line"
      fill="none" stroke="#73AF48" stroke-width="6"
      d="M 1396.00,390.67
         C 1413.33,385.33 1546.00,412.25 1568.00,416.25M 1452.00,423.00
         C 1452.00,423.00 1558.50,433.75 1565.50,437.75M 1385.50,420.50
         C 1385.50,420.50 1442.50,433.00 1449.00,435.50M 1520.00,449.50
         C 1520.00,449.50 1558.00,457.25 1561.50,459.25
           1565.00,461.25 1576.00,468.75 1563.00,489.00M 1479.25,425.50
         C 1479.25,425.50 1466.50,477.50 1466.50,477.50M 1507.75,428.75
         C 1507.75,428.75 1494.00,475.50 1494.50,485.00M 1521.75,430.00
         C 1521.75,430.00 1517.75,482.50 1509.00,492.00M 1543.00,517.75
         C 1554.75,505.50 1576.00,413.25 1566.75,383.50
           1557.50,353.75 1531.75,284.75 1530.50,283.75M 1568.50,531.50
         C 1579.50,489.00 1595.25,502.00 1584.00,540.75M 1584.00,540.50
         C 1605.25,529.25 1593.25,498.75 1586.75,493.00
           1576.00,480.75 1586.50,466.25 1590.50,457.75
           1598.50,446.00 1598.50,403.00 1605.25,388.50
           1616.25,370.25 1609.25,361.75 1631.25,349.75
           1642.00,340.50 1650.75,334.50 1654.00,325.75
           1656.74,318.25 1674.74,315.98 1687.25,307.50
           1696.45,301.72 1704.26,286.15 1712.75,279.00
           1724.10,269.44 1735.20,268.62 1738.25,265.75M 1555.45,351.27
         C 1555.45,351.27 1656.45,320.94 1657.00,299.67
           1653.67,277.33 1640.67,258.00 1639.00,249.00M 1544.00,318.25
         C 1544.00,318.25 1603.25,300.50 1613.50,294.75
           1616.30,293.18 1609.85,287.32 1612.00,285.00
           1623.75,280.50 1649.89,267.50 1664.25,265.50
           1669.00,264.75 1678.75,275.50 1677.50,284.25
           1676.25,293.00 1660.50,267.00 1678.25,259.75
           1693.50,253.50 1697.25,249.50 1700.75,265.00
           1704.25,280.50 1692.75,249.25 1687.75,229.75M 1624.00,325.50
         C 1624.00,325.50 1603.50,284.50 1599.75,265.00M 1585.75,305.25
         C 1585.75,305.25 1581.50,281.75 1575.50,275.75M 1420.50,448.50
         C 1422.00,439.25 1429.00,399.75 1434.50,393.25M 1339.09,360.18
         C 1346.00,363.82 1386.18,365.45 1392.33,363.33
           1400.91,360.73 1591.00,393.33 1617.33,390.67M 1439.67,482.67
         C 1439.67,482.67 1471.33,331.00 1469.67,312.67M 1399.67,390.67
         C 1399.67,390.67 1404.33,328.00 1466.33,347.00
           1474.27,349.69 1484.09,344.76 1497.33,343.67
           1511.67,342.33 1550.28,345.00 1552.33,345.00M 1510.67,295.33
         C 1516.33,308.33 1518.33,299.33 1517.00,324.00
           1516.52,330.49 1523.96,337.99 1525.33,346.33
           1527.76,361.14 1525.31,372.69 1521.67,379.00M 1566.67,383.00
         C 1566.67,383.00 1585.00,389.00 1594.33,381.33
           1604.00,372.00 1624.67,324.33 1658.00,304.67M 1405.50,478.75
         C 1374.75,520.25 1318.75,494.75 1310.00,475.50
           1301.25,456.25 1334.25,375.00 1339.00,360.25M 1374.25,517.25
         C 1374.25,517.25 1393.00,507.00 1395.50,504.25M 1359.00,544.75
         C 1354.92,541.18 1356.50,517.25 1368.75,512.50
           1371.28,506.31 1374.29,499.56 1371.50,495.25M 1278.33,389.67
         C 1290.36,389.34 1323.29,391.13 1346.33,395.33
           1369.92,399.64 1383.58,406.35 1391.33,404.67M 1340.67,410.67
         C 1340.67,410.67 1345.67,401.33 1345.67,395.00M 1370.00,420.33
         C 1370.00,420.33 1378.33,425.67 1382.33,425.33M 1380.67,474.00
         C 1380.67,474.00 1370.00,467.33 1365.00,472.00
           1360.00,476.67 1360.00,483.00 1361.00,483.33
           1362.00,483.67 1363.67,472.00 1362.00,469.33
           1360.33,466.67 1355.00,465.67 1352.67,466.67
           1350.33,467.67 1345.00,477.67 1346.67,480.33
           1348.33,483.00 1352.00,466.67 1348.33,465.00
           1344.67,463.33 1340.00,459.33 1336.67,463.33
           1333.33,467.33 1330.00,476.00 1332.00,477.00
           1334.00,478.00 1341.00,461.33 1332.00,459.33
           1323.00,457.33 1315.67,459.67 1318.00,442.33
           1320.33,425.00 1318.33,402.67 1337.00,422.33
           1355.67,442.00 1382.67,433.67 1381.33,436.67M 1341.33,427.00
         C 1338.00,441.33 1337.33,447.67 1376.00,454.33M 1289.25,492.25
         C 1292.00,483.00 1299.75,491.00 1304.00,499.00
           1311.00,499.50 1293.75,495.00 1301.75,481.50
           1305.25,476.00 1308.25,475.50 1310.75,475.50M 1560.38,299.62
         C 1560.25,299.62 1561.25,310.75 1563.88,312.00" />
  <path id="Corey Hill"
      fill="none" stroke="#CF1C90" stroke-width="6"
      d="M 892.50,483.50
         C 861.00,446.00 854.50,381.00 910.00,408.00
           926.50,414.50 944.41,403.18 948.91,406.18
           955.95,410.26 963.81,420.55 977.09,423.27
           985.75,425.05 1034.73,410.18 1062.55,387.45M 839.27,454.00
         C 857.64,450.55 883.27,449.64 888.55,480.73M 914.36,473.64
         C 912.73,471.27 902.91,458.18 902.36,450.36
           907.82,420.00 897.27,408.36 892.55,401.82M 903.45,428.36
         C 900.82,438.81 908.73,438.36 924.00,436.91
           930.76,436.24 935.73,432.55 942.18,431.27
           948.06,430.11 957.59,431.82 960.73,429.27M 932.55,467.45
         C 936.00,464.73 922.00,439.82 924.18,436.73M 955.33,461.67
         C 950.67,442.00 934.67,383.33 956.33,366.33
           978.00,349.33 1096.33,215.00 1108.33,207.67
           1120.33,200.33 1133.67,181.33 1143.00,184.00
           1159.00,208.00 1110.33,204.33 1143.00,181.67
           1155.33,161.67 1160.00,182.33 1163.00,183.67
           1166.00,185.00 1152.33,181.33 1158.33,172.00
           1164.33,162.67 1166.00,162.67 1172.00,160.33
           1178.00,158.00 1179.00,173.67 1176.67,174.67
           1174.33,175.67 1169.00,163.00 1176.67,157.00
           1184.33,151.00 1190.67,153.00 1195.67,161.67
           1200.67,170.33 1181.33,157.67 1191.67,149.00
           1202.00,140.33 1204.67,143.67 1204.67,143.67M 1131.00,219.00
         C 1131.00,219.00 1204.33,165.00 1212.67,161.00M 1148.33,228.67
         C 1153.67,226.67 1214.33,179.67 1220.33,176.67M 1169.33,237.67
         C 1175.33,233.67 1221.33,193.00 1226.67,191.00M 1194.00,243.67
         C 1199.00,240.67 1229.00,210.33 1234.67,207.00M 1201.33,249.00
         C 1154.33,235.00 1085.33,198.33 1081.33,179.33M 1089.67,225.00
         C 1141.00,239.67 1313.33,337.00 1322.00,366.33M 1069.67,244.67
         C 1071.84,240.78 1084.77,255.33 1112.67,268.67
           1120.22,272.94 1156.24,277.32 1182.67,291.33
           1218.04,310.09 1245.77,340.14 1239.00,349.67
           1221.00,375.00 1140.00,377.00 1137.00,369.33M 1243.33,220.33
         C 1243.33,220.33 1194.33,266.33 1191.33,272.67M 1252.00,235.33
         C 1251.33,230.67 1209.33,275.33 1208.67,282.67M 1262.33,247.33
         C 1262.00,242.67 1228.67,288.33 1230.33,296.33
           1231.33,316.67 1291.67,364.67 1298.00,371.00M 1350.33,352.00
         C 1353.67,340.67 1252.00,275.67 1243.33,266.67M 1300.33,276.33
         C 1296.67,284.67 1284.67,306.33 1269.00,319.33M 1278.33,293.00
         C 1280.00,288.00 1266.67,307.00 1257.67,312.33M 1313.33,286.67
         C 1308.33,294.67 1300.00,301.67 1299.67,307.00M 1308.00,314.00
         C 1311.67,309.33 1292.00,333.00 1298.33,340.33M 1323.00,366.67
         C 1322.67,352.00 1319.67,327.33 1332.00,299.33M 1346.67,309.33
         C 1341.67,316.33 1343.67,338.00 1350.33,352.00M 1169.33,286.33
         C 1176.00,292.00 1182.67,270.33 1181.00,266.67M 1058.00,258.33
         C 1058.33,250.67 1083.00,286.33 1100.67,290.33
           1145.33,294.00 1255.33,351.33 1142.67,354.33
           1083.00,353.00 1061.33,323.33 1058.00,309.33
           1055.67,293.67 1090.67,289.33 1100.67,289.67M 1145.33,302.67
         C 1135.33,309.33 1123.33,331.67 1130.67,355.00M 1033.33,284.33
         C 1046.00,308.33 1173.00,340.67 1203.33,339.33
           1222.33,338.67 1286.67,363.00 1298.00,370.33M 1253.00,352.00
         C 1262.33,350.33 1252.00,382.33 1250.00,391.67M 1206.00,409.00
         C 1160.00,390.67 1092.67,375.00 1082.33,334.67M 1018.00,303.00
         C 1035.33,315.67 1111.00,405.67 1125.67,414.67M 1148.00,330.33
         C 1146.33,341.33 1128.33,405.33 1126.00,414.33M 1065.67,353.00
         C 1051.67,333.00 1037.33,365.33 1031.67,382.00
           1024.00,397.67 990.00,409.67 979.00,400.67
           963.33,383.33 947.27,378.72 946.00,392.00
           945.25,399.83 936.91,394.30 930.00,392.00
           915.42,387.15 900.00,386.67 895.67,372.33M 1011.67,440.00
         C 1014.00,408.00 971.33,369.33 961.33,362.00M 972.33,350.67
         C 990.33,369.67 1026.33,368.67 999.67,403.00M 1006.67,378.67
         C 1006.67,378.67 1018.00,364.67 1021.00,358.33M 1092.33,420.33
         C 1100.33,414.33 994.00,338.67 986.33,329.00M 989.33,332.00
         C 1008.33,316.67 1035.00,367.33 1060.33,346.33M 818.33,412.00
         C 815.33,396.33 871.67,424.00 872.67,450.00" />
  <path id="Fisher Hill"
      fill="none" stroke="#f97b72" stroke-width="6"
      d="M 494.67,864.67
         C 482.33,830.67 454.33,784.67 492.00,786.00
           549.00,782.00 648.33,679.00 660.33,666.67
           672.33,654.33 676.00,641.67 677.00,639.33M 685.67,657.00
         C 685.33,657.00 673.33,649.33 672.33,649.33M 545.67,847.67
         C 545.67,847.67 499.67,796.33 504.67,782.67M 519.67,778.33
         C 531.67,801.00 548.00,795.33 570.67,783.67M 598.36,829.64
         C 598.18,814.73 558.06,765.06 554.73,758.73M 572.00,814.55
         C 572.00,814.55 586.00,806.91 586.91,804.91M 568.36,748.73
         C 575.45,752.55 599.64,772.55 602.36,775.64M 590.00,782.36
         C 603.45,772.73 614.00,749.45 631.64,780.36
           638.91,792.73 669.64,797.82 682.18,781.09
           719.82,747.09 748.00,752.18 783.45,760.73
           798.55,764.36 808.00,758.00 811.64,754.00M 830.73,774.73
         C 821.64,758.55 794.90,739.53 750.18,708.73
           713.90,683.73 706.55,702.18 660.73,667.27M 795.45,761.64
         C 799.71,760.09 777.27,756.73 767.82,747.82
           742.36,720.36 718.43,717.75 722.55,756.55M 704.00,765.09
         C 698.49,755.29 699.95,742.43 700.91,729.27
           701.38,722.90 693.09,707.45 718.36,693.82M 642.18,788.73
         C 643.64,777.64 688.91,735.64 701.27,734.73M 590.36,809.64
         C 606.09,800.65 640.96,752.66 674.00,721.09
           684.55,710.55 716.53,692.43 726.00,691.09
           753.09,687.27 771.15,702.52 783.33,698.33
           795.52,694.15 815.00,601.33 845.67,594.00
           860.00,591.33 941.33,547.67 955.00,530.33
           968.67,513.00 967.67,492.33 960.67,475.67M 725.64,691.27
         C 721.09,677.09 722.55,649.82 759.64,650.00
           796.73,650.18 797.45,566.55 836.73,570.18
           849.45,570.36 856.36,561.27 865.09,580.00M 611.64,765.45
         C 607.09,743.27 663.82,688.73 679.09,679.64M 1236.00,691.33
         C 1245.00,680.33 1198.67,621.67 1158.33,645.67
           1143.33,653.67 1122.00,636.00 1112.67,628.00
           1108.47,624.40 1082.23,605.83 1055.67,584.33
           1023.14,558.01 987.56,528.00 959.67,524.33
           942.75,523.25 899.75,533.25 896.50,538.25M 1004.67,526.33
         C 1020.81,534.96 1012.67,553.33 999.33,574.33
           990.33,585.67 997.92,594.04 994.33,601.33M 1175.33,611.33
         C 1182.33,657.67 1163.00,680.33 1125.33,673.67
           1083.00,666.00 995.67,588.67 955.00,586.00
           914.33,583.33 869.33,606.33 855.67,617.00M 1105.00,666.33
         C 1130.33,651.67 1039.33,592.00 1016.33,580.67
           993.33,569.33 959.00,535.33 955.00,530.67M 1114.00,714.00
         C 1080.00,713.67 1075.00,701.33 1090.67,695.00
           1106.33,688.67 1093.33,659.67 1076.67,651.33M 1060.67,735.33
         C 1060.33,727.67 1052.00,706.33 1038.67,714.33
           1025.33,722.33 1044.33,718.33 1051.67,718.67
           1059.00,719.00 1061.00,734.67 1061.33,738.33M 990.00,770.67
         C 996.33,755.67 887.67,586.33 883.67,568.67
           879.67,551.00 848.00,532.67 795.67,563.33
           772.00,580.00 758.33,569.33 817.00,627.33M 834.67,623.67
         C 832.00,605.67 796.00,574.67 795.67,563.33M 775.33,652.33
         C 775.00,668.00 789.67,675.33 798.00,673.00M 914.00,781.33
         C 932.00,767.33 775.33,696.33 762.33,681.33
           748.33,661.67 729.33,605.00 774.67,576.67M 746.33,630.00
         C 773.33,631.67 777.00,598.33 771.33,574.00M 702.67,655.67
         C 704.33,636.00 734.67,588.67 775.33,577.00M 816.36,713.64
         C 822.73,709.64 822.45,688.91 839.09,710.91M 833.18,688.27
         C 833.18,688.27 847.73,697.91 847.73,697.91M 828.27,723.73
         C 835.27,726.18 847.09,684.64 870.91,681.09M 853.91,691.09
         C 849.36,708.45 904.27,761.73 851.73,732.73M 859.09,737.45
         C 849.09,751.82 856.18,763.09 865.64,777.09M 848.36,766.00
         C 847.73,762.73 844.55,772.91 845.27,775.82M 937.50,778.50
         C 940.30,774.77 901.14,743.61 879.00,704.50
           865.96,681.47 875.82,652.89 863.00,630.50
           827.65,568.74 841.50,544.50 783.00,532.00M 927.09,764.18
         C 938.55,765.82 945.64,746.91 917.09,720.73
           913.45,714.73 932.36,755.27 940.36,758.55
           948.36,761.82 974.00,740.55 976.91,736.55M 971.45,660.00
         C 970.55,670.73 966.36,694.18 954.36,694.36M 869.45,657.64
         C 879.09,666.00 886.91,667.64 895.82,688.00
           904.73,708.36 878.36,683.09 900.00,672.55
           906.73,663.27 890.73,630.18 911.45,621.09M 962.00,716.18
         C 977.27,726.18 1018.73,707.45 978.55,694.36
           969.09,694.18 990.00,709.45 1006.55,706.00
           1023.09,702.55 1024.00,680.18 1063.64,687.82
           1103.27,695.45 1062.00,643.64 1052.18,636.00M 924.00,642.18
         C 937.62,630.51 973.82,622.91 988.00,648.36
           993.09,659.27 1005.80,656.26 1013.45,670.00
           1016.59,674.21 1026.49,674.01 1034.00,676.36
           1044.33,679.60 1060.03,687.37 1063.82,688.00M 911.27,621.64
         C 934.36,597.82 988.18,602.36 982.73,641.09M 1053.09,637.09
         C 1054.73,626.36 984.00,636.55 1020.18,648.55
           1029.45,651.45 1009.82,637.45 1006.00,636.55
           1002.18,635.64 991.82,634.18 982.91,641.45M 984.25,557.00
         C 981.00,550.75 953.50,581.25 953.25,585.25
           953.00,589.25 985.50,566.00 982.25,555.00M 951.00,585.75
         C 954.00,574.00 906.50,513.25 854.00,547.75M 851.09,499.27
         C 851.45,514.00 864.00,514.91 892.73,506.36
           898.55,504.73 883.82,492.36 880.91,490.55
           878.00,488.73 899.64,515.64 908.36,518.36M 906.67,611.33
         C 916.33,609.00 965.33,607.00 952.00,585.33M 1215.00,735.00
         C 1210.75,714.00 1189.00,725.75 1184.25,722.50
           1163.00,699.00 1191.75,637.25 1219.00,687.75M 1142.75,705.75
         C 1142.75,705.75 1147.75,636.25 1172.50,698.00" />
  <path id="Harvard Ave"
      fill="none" stroke="#4b4b8f" stroke-width="6"
      d="M 1487.50,627.50
         C 1445.25,639.50 1436.25,605.25 1434.50,562.75
           1432.50,535.25 1392.00,502.50 1386.00,494.50
           1374.00,475.00 1375.75,428.50 1391.00,406.00
           1405.00,384.00 1385.00,338.33 1373.33,328.00
           1358.65,315.81 1335.20,299.02 1329.00,294.25
           1319.25,286.75 1235.50,232.50 1226.00,188.00
           1221.00,169.25 1189.25,117.25 1187.50,112.75" />
  <path id="Holyhood Graveyard"
      fill="none" stroke="#A5AA99" stroke-width="6"
      d="M 442.00,920.91
         C 444.36,926.73 448.83,936.20 461.27,928.73
           473.82,921.45 472.73,958.91 472.55,960.91M 406.73,927.64
         C 406.73,927.64 402.73,941.09 393.27,938.55
           383.82,936.00 385.09,959.27 385.09,964.00
           385.09,968.73 388.00,985.09 389.09,987.27
           390.18,989.45 381.82,993.45 378.55,995.09
           375.27,996.73 384.73,986.00 393.82,986.91
           402.91,987.82 400.91,988.55 407.82,985.09
           415.09,980.55 421.45,984.18 419.45,974.55
           417.82,967.64 411.64,953.64 404.36,952.73
           397.09,951.82 398.91,960.18 406.00,966.91
           413.09,973.64 424.18,979.09 430.55,981.45
           436.91,983.82 464.00,981.45 471.64,979.82
           479.27,978.18 475.09,965.09 477.64,959.64
           478.00,954.73 490.00,954.18 494.36,952.36
           498.73,950.55 484.36,914.00 480.55,910.73
           476.73,907.45 472.91,916.36 471.27,918.73
           469.64,921.09 470.36,939.64 490.18,930.73M 462.73,965.27
         C 470.91,939.64 453.09,954.91 450.55,950.91
           443.45,942.91 427.64,924.00 431.09,938.36
           434.55,952.73 450.00,963.64 454.55,966.00
           459.82,968.73 474.00,959.82 477.82,959.45M 385.27,956.00
         C 385.27,956.00 391.45,959.27 398.73,960.00
           400.36,960.00 406.00,944.36 406.00,944.36
           406.00,944.36 398.36,958.00 401.82,962.73M 399.82,938.55
         C 399.82,938.55 407.45,946.73 422.73,948.55
           430.91,949.45 431.45,939.64 426.55,937.64
           421.64,935.64 417.82,948.73 425.82,959.09
           433.82,969.45 446.36,968.00 441.09,955.27M 426.36,925.45
         C 426.36,925.45 427.64,932.91 426.36,937.82
           425.09,942.73 412.55,932.36 405.64,930.55M 454.36,966.18
         C 466.36,966.55 477.45,994.91 444.36,997.64
           411.27,1000.36 390.73,1000.73 402.73,987.09M 476.18,976.00
         C 476.18,976.00 499.82,970.00 500.00,970.00
           500.18,970.00 489.64,975.82 486.73,970.36
           483.82,964.91 492.55,961.09 497.45,963.09
           502.36,965.09 481.45,966.73 476.18,966.55M 449.27,949.45
         C 449.27,949.45 475.27,929.82 494.00,932.91" />
  <path id="Lower Brookline"
      fill="none" stroke="#E68310" stroke-width="6"
      d="M 709.00,1484.33
         C 709.00,1484.33 643.67,1447.67 638.00,1429.67
           631.67,1404.00 600.33,1379.67 560.00,1376.33
           532.67,1371.67 498.00,1309.67 494.67,1306.33
           492.88,1304.55 492.00,1329.67 473.67,1351.33
           445.33,1370.00 447.17,1404.87 445.00,1405.33
           440.33,1406.33 445.33,1375.00 452.67,1375.67
           459.33,1375.33 485.88,1401.62 488.25,1406.50
           501.73,1410.12 510.08,1400.08 517.12,1388.75
           539.12,1409.62 519.16,1385.13 520.68,1382.25
           522.38,1360.00 529.91,1359.99 528.62,1353.88
           527.25,1347.88 515.50,1367.62 518.88,1374.38
           520.75,1376.88 510.75,1377.62 507.12,1370.00
           504.74,1365.86 485.88,1355.75 475.25,1349.12
           462.24,1334.87 463.10,1320.91 464.25,1316.62
           466.00,1310.12 469.12,1283.38 467.62,1276.38
           466.12,1269.38 438.18,1280.73 435.45,1282.91
           423.82,1245.27 426.55,1274.00 430.36,1284.18
           425.27,1290.36 423.82,1291.09 418.73,1289.82
           413.64,1288.55 404.36,1248.55 405.82,1245.45
           407.27,1242.36 428.91,1245.27 406.55,1231.45
           400.18,1225.82 401.09,1215.09 401.27,1213.09
           401.45,1211.09 408.55,1211.82 409.09,1209.64
           409.64,1207.45 413.27,1197.09 412.55,1196.18
           411.82,1195.27 406.91,1210.36 406.55,1216.91
           406.18,1223.45 404.18,1236.36 405.82,1245.64
           407.45,1254.91 415.64,1291.27 414.91,1294.18
           412.17,1295.44 397.27,1303.45 390.18,1302.73
           386.55,1302.00 388.59,1265.11 389.82,1264.73
           396.91,1254.36 385.82,1249.27 386.00,1264.91
           386.18,1280.55 390.91,1304.91 385.09,1306.18
           379.27,1307.45 375.09,1304.91 374.55,1303.45
           374.00,1302.00 367.45,1287.64 361.82,1282.91
           356.18,1278.18 362.00,1267.64 357.45,1263.82
           356.55,1263.09 344.67,1265.58 325.45,1249.82
           294.73,1200.36 334.36,1252.18 347.64,1256.91
           358.73,1259.82 353.45,1241.64 354.00,1240.55
           354.55,1239.45 345.09,1229.27 348.18,1223.82
           351.27,1218.36 352.55,1183.45 352.91,1182.36
           353.27,1181.27 360.73,1166.36 357.27,1203.09
           363.82,1208.18 377.82,1197.82 380.18,1222.36
           382.55,1246.91 368.36,1257.64 367.27,1260.00
           361.82,1275.09 367.64,1285.09 377.27,1293.82
           383.09,1301.09 380.55,1308.00 382.91,1314.91
           384.00,1318.55 402.36,1337.64 404.36,1339.27
           404.00,1339.09 377.45,1300.00 366.00,1312.73
           361.85,1324.52 378.36,1336.55 380.73,1338.91
           391.09,1339.09 369.64,1325.09 365.27,1317.82
           360.55,1315.09 367.64,1309.09 388.91,1311.82
           395.45,1312.18 451.64,1282.73 460.91,1275.82
           466.18,1272.18 492.73,1243.27 500.18,1243.09
           507.64,1242.91 472.55,1272.00 468.18,1273.82
           475.27,1275.82 477.45,1301.27 465.45,1316.55
           431.64,1312.00 436.55,1327.64 437.27,1334.91
           433.09,1356.36 439.82,1367.64 454.91,1371.64
           466.36,1374.36 475.82,1353.82 478.00,1350.73
           479.64,1341.27 509.64,1254.55 507.27,1244.18
           504.18,1241.64 499.27,1238.18 499.64,1227.09
           500.00,1216.00 517.09,1213.45 521.09,1225.09
           525.09,1236.73 527.09,1238.55 507.82,1244.55
           499.82,1239.82 499.82,1227.09 499.82,1227.09
           499.82,1227.09 465.27,1194.00 465.27,1194.00M 522.91,1240.55
         C 522.91,1240.55 557.09,1251.82 560.91,1260.00
           565.09,1265.64 596.00,1297.09 604.73,1296.91
           613.45,1296.73 716.18,1333.45 722.36,1353.64
           731.27,1363.09 751.82,1417.82 751.82,1417.82
           751.82,1417.82 755.50,1452.00 738.50,1453.50
           721.50,1455.00 627.00,1407.00 627.00,1343.50M 717.00,1447.50
         C 717.00,1447.50 720.50,1394.50 705.50,1383.50
           700.50,1380.00 708.50,1362.50 710.00,1361.50
           711.50,1360.50 717.00,1346.00 717.00,1346.00
           717.00,1346.00 709.50,1353.00 720.00,1375.50
           734.36,1394.73 738.91,1453.82 738.91,1453.82M 710.55,1361.64
         C 710.55,1361.64 699.27,1360.18 683.45,1349.09
           672.73,1344.73 653.09,1338.36 653.09,1338.36
           653.09,1338.36 626.36,1316.36 615.09,1331.64
           606.55,1342.55 606.91,1352.18 607.82,1360.36
           608.73,1368.55 618.55,1384.36 621.45,1388.00
           624.36,1391.64 680.18,1457.82 696.73,1457.45
           703.82,1458.00 719.27,1471.45 720.55,1472.91M 612.55,1395.64
         C 612.55,1395.64 611.82,1386.18 620.55,1385.82M 559.00,1257.33
         C 559.00,1257.33 518.67,1263.33 527.67,1291.00
           536.67,1318.67 595.00,1379.00 589.00,1321.67
           587.67,1313.33 558.36,1294.00 555.00,1289.00
           554.36,1284.64 556.33,1257.33 556.33,1257.33M 555.33,1283.67
         C 550.67,1285.00 538.67,1284.67 528.67,1274.00M 583.36,1313.55M 583.36,1313.82
         C 598.36,1318.73 613.55,1328.27 616.09,1334.82
           620.09,1341.36 663.91,1372.91 667.00,1375.36
           669.64,1376.55 696.36,1400.64 695.09,1413.82
           694.36,1423.55 690.00,1431.27 694.55,1435.55M 577.45,1345.27
         C 578.18,1353.82 600.91,1356.55 607.27,1358.36M 783.50,1401.00
         C 783.50,1401.00 764.75,1383.50 761.50,1381.25
           774.00,1375.00 785.50,1363.75 756.50,1376.00
           748.25,1380.00 748.25,1367.00 749.50,1365.75
           750.75,1364.50 755.00,1340.75 726.00,1334.50
           721.75,1334.25 716.50,1342.75 716.25,1344.00
           716.00,1345.25 679.00,1323.50 684.25,1317.25
           689.50,1311.00 718.00,1301.50 735.25,1309.50
           752.50,1317.50 758.50,1310.00 769.00,1314.25
           779.50,1318.50 794.50,1313.25 809.50,1326.50
           792.50,1383.75 760.00,1336.25 768.25,1314.50
           781.25,1314.25 809.50,1323.75 810.75,1324.75
           812.00,1325.75 827.25,1324.50 831.00,1321.50
           835.46,1318.02 824.50,1311.88 821.50,1309.62
           818.50,1307.38 818.38,1301.00 819.12,1300.50
           819.88,1300.00 821.62,1309.62 822.62,1310.12
           823.62,1310.62 827.38,1312.50 833.12,1319.88
           835.50,1322.50 847.50,1314.25 848.38,1313.88
           849.25,1313.50 855.88,1303.62 850.25,1296.75
           847.38,1293.25 851.38,1284.25 852.62,1284.00
           853.88,1283.75 862.62,1288.00 863.75,1295.25
           864.50,1298.88 856.38,1283.38 855.38,1282.50
           854.38,1281.62 835.62,1261.38 835.75,1277.12
           835.88,1292.88 834.38,1286.00 833.88,1283.12
           833.38,1280.25 826.88,1269.00 835.00,1270.00
           843.12,1271.00 850.00,1272.00 849.62,1286.38
           849.25,1300.75 844.38,1300.50 843.88,1302.25
           843.38,1304.00 842.88,1317.50 855.12,1314.50
           860.82,1313.00 855.73,1323.73 854.82,1326.27
           853.91,1328.82 843.45,1358.36 839.91,1360.45M 736.75,1310.00
         C 736.75,1310.00 723.25,1335.75 723.25,1335.75" />
  <path id="Lower Graveyard"
      fill="none" stroke="#E68310" stroke-width="6"
      d="M 811.00,1375.00
         C 804.50,1380.50 804.00,1401.00 819.00,1405.75
           826.25,1410.25 823.25,1414.25 823.00,1418.00
           822.75,1421.75 787.50,1436.00 818.25,1465.00
           837.00,1489.25 838.50,1486.75 849.50,1482.00
           842.75,1474.00 837.50,1469.00 838.75,1464.75
           840.00,1460.50 837.75,1448.50 830.00,1447.25
           825.25,1445.00 827.25,1439.25 820.00,1433.00
           812.25,1426.50 819.00,1419.00 824.25,1419.25
           829.50,1419.50 819.00,1405.00 819.00,1405.00
           819.00,1405.00 816.50,1384.50 839.75,1388.75
           848.75,1382.50 840.50,1367.75 840.00,1367.00
           829.50,1363.00 809.82,1375.36 811.00,1375.00 Z
         M 816.36,1431.27
         C 816.36,1431.27 823.27,1422.55 827.82,1423.45
           832.36,1424.36 835.82,1431.27 838.36,1438.55
           835.86,1445.27 827.44,1448.76 818.36,1446.36
           815.45,1441.64 808.94,1442.07 805.64,1439.82M 848.91,1462.36
         C 848.91,1462.36 823.64,1466.36 819.82,1465.27M 824.18,1419.27
         C 824.18,1419.27 841.45,1435.45 840.36,1445.45
           848.73,1451.27 850.18,1475.09 849.45,1480.91
           848.73,1486.73 855.09,1472.36 864.18,1475.27
           873.27,1478.18 877.09,1466.00 874.55,1463.27
           872.00,1460.55 858.36,1453.82 864.36,1472.73
           870.36,1491.64 889.27,1474.36 893.09,1474.00
           896.91,1473.64 907.82,1458.91 906.55,1455.64
           905.27,1452.36 905.32,1443.19 905.50,1443.19
           925.45,1452.20 931.88,1433.00 927.88,1423.94
           926.42,1419.76 899.50,1418.75 905.50,1443.19M 905.00,1443.31
         C 905.00,1443.31 912.81,1417.62 899.19,1413.12
           894.81,1408.00 894.38,1400.25 875.38,1398.81
           874.77,1399.60 864.88,1390.19 854.81,1389.75
           851.25,1388.69 845.83,1384.16 843.38,1384.00
           849.50,1391.25 852.19,1398.19 852.62,1400.12
           853.06,1402.06 861.31,1410.25 863.19,1412.25
           865.06,1414.25 872.25,1427.44 873.25,1428.19
           874.25,1428.94 878.00,1448.50 879.12,1450.94
           880.25,1453.38 880.50,1456.44 882.88,1460.44
           883.62,1461.38 897.31,1470.94 897.31,1470.88M 874.50,1463.38
         C 874.50,1463.38 880.50,1458.00 880.75,1457.00M 874.44,1432.25M 874.18,1431.27
         C 874.18,1431.27 884.73,1424.18 884.73,1424.18
           884.57,1424.20 897.55,1416.20 898.55,1414.45
           899.11,1412.77 890.06,1421.62 888.56,1426.50
           888.94,1434.44 885.00,1450.94 880.12,1450.69
           875.25,1450.44 851.44,1442.31 851.75,1431.94
           852.06,1421.56 850.34,1422.31 850.03,1422.00
           841.19,1413.28 829.09,1417.28 847.78,1428.16
           851.03,1429.84 853.15,1423.16 853.18,1422.00
           853.21,1420.84 859.73,1419.45 861.00,1414.64
           862.27,1409.82 872.55,1397.91 873.73,1398.18
           874.06,1398.26 873.99,1400.76 875.27,1402.91
           879.09,1408.00 886.20,1418.54 888.82,1420.64M 854.91,1420.73
         C 854.91,1420.73 853.36,1417.55 853.36,1416.55
           853.36,1415.55 834.82,1396.18 833.45,1395.27
           832.09,1394.36 823.91,1391.18 823.91,1391.18" />
  <path id="Lower Lower Brookline"
      fill="none" stroke="#0F8554" stroke-width="6"
      d="M 652.00,1648.33
         C 662.67,1649.67 667.33,1650.33 671.67,1654.00
           679.33,1654.67 733.92,1652.29 740.25,1649.62
           747.28,1646.76 772.50,1636.88 778.50,1636.88
           799.98,1629.10 860.57,1616.81 874.17,1630.71
           859.38,1620.62 854.38,1627.00 853.88,1627.00
           853.38,1627.00 855.00,1631.00 850.00,1631.62
           846.66,1632.04 837.63,1633.99 827.62,1636.00
           822.65,1637.00 813.50,1639.88 807.62,1640.75
           790.50,1642.75 788.38,1644.25 785.38,1646.25
           782.38,1648.25 777.98,1639.39 776.12,1637.25
           775.25,1635.50 764.38,1642.38 764.38,1642.50
           764.38,1642.62 769.38,1670.38 765.25,1666.62
           761.12,1662.88 756.38,1643.62 756.38,1643.62
           756.38,1643.62 744.62,1647.75 744.50,1648.00
           747.17,1689.42 737.88,1675.94 740.12,1650.12M 772.91,1637.64
         C 772.91,1637.64 772.36,1629.09 772.36,1628.00
           772.36,1626.91 783.27,1625.64 785.64,1625.45
           788.00,1625.27 798.91,1618.91 805.27,1619.45
           811.64,1620.00 834.55,1621.09 827.09,1609.64
           819.64,1598.18 826.91,1605.45 823.09,1602.91
           817.45,1601.64 805.64,1602.55 802.18,1604.55
           798.73,1606.55 776.36,1610.00 775.45,1612.73
           774.55,1615.45 776.55,1627.09 776.55,1627.09
           776.55,1627.09 753.64,1630.36 747.45,1634.55
           741.27,1638.73 690.00,1641.27 678.36,1639.27
           666.73,1637.27 658.25,1638.25 658.18,1629.64
           657.25,1637.00 668.25,1639.50 659.88,1638.25
           656.75,1636.12 650.88,1635.12 647.12,1634.62
           642.62,1634.88 633.62,1645.88 628.25,1635.62
           622.88,1625.38 640.25,1630.38 652.12,1627.12
           652.75,1626.38 630.00,1632.25 627.88,1627.88
           625.75,1623.50 628.50,1605.62 633.88,1603.12
           638.38,1595.25 645.50,1574.88 647.38,1573.75
           649.25,1572.62 655.25,1581.62 662.38,1578.12
           665.62,1574.88 668.00,1572.12 674.88,1574.12
           679.12,1575.50 701.12,1552.88 702.38,1550.38
           703.62,1547.88 717.50,1548.50 718.75,1548.50
           720.00,1548.50 753.38,1538.25 756.88,1538.50
           762.00,1539.62 767.12,1544.75 774.75,1544.62
           797.25,1546.75 815.62,1520.88 826.12,1509.25
           825.12,1508.75 824.62,1508.62 824.62,1508.62
           824.62,1508.62 785.75,1462.50 781.62,1459.88
           777.50,1457.25 747.38,1462.00 743.88,1461.50
           740.38,1461.00 745.25,1484.50 744.62,1486.88
           744.25,1500.00 755.25,1526.38 751.00,1539.00
           746.25,1541.50 756.25,1537.62 757.38,1539.12
           758.50,1540.62 760.62,1548.62 761.50,1551.38
           761.12,1554.48 764.94,1564.50 767.88,1578.62
           770.75,1593.38 768.62,1605.38 775.12,1612.62M 754.75,1631.75
         C 754.75,1631.75 747.50,1590.88 744.00,1587.12
           741.50,1582.88 737.62,1547.88 735.88,1545.12
           733.50,1543.38 732.12,1541.00 732.12,1539.88
           732.12,1538.75 724.75,1516.75 726.62,1512.62
           727.62,1506.38 723.38,1478.00 724.12,1477.25
           724.88,1476.50 731.75,1458.62 744.12,1461.62M 744.25,1482.25
         C 743.64,1484.81 791.62,1476.12 793.38,1472.62
           795.12,1469.12 789.00,1470.00 787.75,1471.25
           786.50,1472.50 751.12,1483.62 743.75,1478.38M 806.88,1488.00
         C 806.88,1488.00 800.38,1496.00 797.75,1495.62
           795.12,1495.25 757.50,1503.25 746.12,1500.12
           751.88,1500.62 765.00,1498.88 769.50,1512.25
           761.38,1498.62 765.00,1499.62 771.00,1499.75
           775.02,1499.83 783.38,1495.75 788.38,1497.62
           791.62,1499.15 794.55,1505.24 795.75,1509.38
           799.62,1515.25 806.25,1520.12 812.12,1525.25
           814.69,1527.49 825.24,1540.38 834.50,1554.88
           844.50,1575.12 854.05,1592.35 852.50,1593.12M 817.75,1519.62
         C 817.75,1519.62 795.50,1495.62 795.50,1495.62M 879.25,1596.00
         C 879.25,1596.00 843.12,1513.75 827.75,1509.75M 872.88,1582.88
         C 872.88,1582.88 883.88,1568.75 884.75,1565.25
           885.62,1561.75 875.38,1500.62 886.25,1496.50
           896.50,1500.25 904.75,1519.50 906.88,1536.88
           911.43,1545.93 913.09,1551.38 913.00,1551.38M 886.12,1496.75
         C 886.12,1496.75 895.88,1476.88 908.62,1490.50
           914.88,1502.62 918.12,1502.38 921.12,1502.38
           924.12,1502.38 955.88,1506.62 954.25,1509.62
           952.62,1512.62 928.00,1502.12 926.50,1500.75
           925.00,1499.38 925.50,1477.88 933.12,1481.88
           940.38,1482.38 959.88,1486.50 962.12,1487.00
           965.88,1480.25 975.50,1462.25 984.38,1462.38
           993.25,1462.50 1008.12,1474.00 1012.38,1474.38
           1016.62,1474.75 962.00,1448.88 953.00,1439.88
           947.12,1445.25 941.00,1456.25 944.00,1463.62
           943.62,1465.62 969.25,1471.38 972.00,1471.62
           974.75,1471.88 950.12,1465.00 943.00,1465.88
           935.88,1466.75 931.50,1476.12 932.75,1482.12M 922.62,1502.38
         C 922.62,1502.38 917.12,1537.88 927.50,1543.25M 860.38,1556.25
         C 860.38,1556.25 861.75,1507.75 857.25,1502.75
           848.50,1500.50 850.00,1485.88 858.75,1494.50
           860.38,1496.25 857.75,1502.62 858.00,1503.38
           858.25,1504.12 867.38,1534.38 857.12,1550.12M 767.88,1576.38
         C 767.88,1576.38 726.50,1584.38 724.25,1590.38
           713.12,1590.88 707.38,1598.75 706.38,1602.25
           705.38,1605.75 695.38,1617.00 684.38,1611.75
           673.38,1606.50 677.88,1608.12 677.50,1607.75
           674.88,1599.88 662.62,1600.75 672.62,1612.38
           670.99,1614.62 670.62,1631.62 670.62,1631.75
           670.62,1631.88 669.38,1609.12 676.75,1607.75M 738.75,1637.00
         C 738.75,1637.00 722.00,1573.62 722.12,1573.12
           722.25,1572.62 715.38,1554.38 717.12,1551.25
           717.62,1550.12 708.62,1517.38 707.88,1516.75
           707.12,1516.12 709.12,1489.88 711.12,1488.25
           713.12,1486.62 721.12,1478.25 725.25,1475.50M 648.00,1573.33
         C 648.00,1573.33 633.33,1553.33 614.33,1551.33
           607.00,1543.00 597.67,1537.67 595.67,1537.00
           593.67,1536.33 577.33,1512.67 578.67,1508.67
           580.00,1504.67 606.67,1478.33 611.33,1481.33
           616.00,1484.33 672.33,1516.67 678.00,1526.33
           665.67,1535.33 649.67,1570.67 649.67,1570.67M 678.38,1526.50
         C 678.38,1526.50 699.50,1501.00 699.50,1501.00
           699.50,1501.00 708.75,1489.62 711.67,1484.00
           722.33,1478.00 743.33,1444.33 751.00,1438.67
           747.51,1432.13 745.18,1413.17 768.00,1422.00
           780.00,1434.67 763.00,1449.33 751.67,1439.67M 765.67,1442.33
         C 765.67,1442.33 773.00,1459.00 773.00,1459.00
           773.00,1459.00 774.00,1444.67 778.33,1442.67
           782.67,1440.67 803.00,1419.00 803.00,1419.00
           803.00,1419.00 786.67,1400.00 786.67,1400.00
           786.67,1400.00 765.00,1422.33 765.00,1422.33
           765.00,1422.33 789.00,1389.67 797.33,1385.00
           805.67,1380.33 822.33,1361.33 839.00,1361.67
           852.67,1368.67 874.33,1388.33 874.33,1388.33
           874.33,1388.33 953.33,1440.00 953.33,1440.00" />
  <path id="My Block"
      fill="none" stroke="#73AF48" stroke-width="6"
      d="M 1279.33,258.67
         C 1310.33,225.33 1329.33,191.33 1324.00,170.67
           1318.67,150.00 1337.00,69.33 1340.67,63.67M 1262.33,126.00
         C 1277.00,149.33 1372.67,172.33 1356.33,196.33
           1340.00,220.33 1320.00,269.67 1304.67,277.00M 1305.33,79.33
         C 1330.00,92.00 1302.67,221.00 1262.33,240.67M 1252.00,232.67
         C 1260.00,217.00 1303.67,169.67 1301.00,118.33M 1244.00,219.67
         C 1244.00,212.67 1302.00,143.67 1283.00,100.00M 1292.00,268.33
         C 1293.67,263.00 1352.00,160.33 1385.33,162.67M 1385.00,144.67
         C 1350.00,145.00 1300.00,121.00 1283.33,100.33M 1344.33,299.67
         C 1337.78,294.58 1348.86,298.58 1364.00,268.33
           1372.04,252.27 1385.73,207.72 1387.00,189.33
           1383.00,144.67 1385.31,81.15 1383.00,72.67M 1261.00,190.33
         C 1269.33,193.00 1306.67,223.33 1310.33,218.33M 1328.00,114.50
         C 1332.00,117.75 1378.50,131.50 1385.00,126.25M 1362.25,69.50
         C 1351.00,91.00 1352.50,116.50 1384.25,108.00M 1323.50,148.25
         C 1323.50,148.25 1374.75,171.50 1386.00,162.75M 1230.33,188.33
         C 1235.28,194.81 1250.00,145.33 1261.33,126.33
           1277.31,104.70 1309.42,92.29 1320.00,93.00" />
  <path id="Near Star Market"
      fill="none" stroke="#EDAD08" stroke-width="6"
      d="M 250.50,1062.50
         C 257.75,1057.75 276.00,1050.50 287.25,1063.75
           298.50,1077.00 324.75,1068.00 340.00,1056.25
           345.75,1049.25 324.00,1017.00 322.75,1013.00
           321.50,1009.00 296.50,985.00 333.00,1012.50
           342.75,1020.00 299.75,1018.00 296.50,1017.75
           293.25,1017.50 296.75,1035.25 287.75,1038.00M 307.00,1041.50
         C 307.25,1041.00 322.75,1031.00 334.50,1037.75
           340.75,1042.75 337.25,1053.50 323.50,1058.75
           309.75,1064.00 301.50,1068.75 293.00,1063.75
           284.50,1058.75 280.75,1072.25 250.50,1062.00M 333.25,1012.75
         C 333.25,1012.75 342.00,1010.25 346.75,1004.75
           351.50,999.25 368.25,985.00 370.50,961.00
           372.75,937.00 385.75,932.50 400.50,927.00
           415.25,921.50 425.75,922.25 437.00,923.25
           448.25,924.25 486.50,903.50 489.50,901.75
           492.50,900.00 508.50,887.50 513.00,883.75
           517.50,880.00 549.75,857.00 558.50,857.25
           567.25,857.50 610.50,877.25 607.25,916.75
           604.00,956.25 608.75,957.50 582.50,991.50
           575.00,1002.75 519.00,1012.75 514.25,1033.75
           509.50,1054.75 439.75,1054.00 403.50,1027.25
           367.25,1000.50 354.75,994.25 354.75,994.25M 493.00,863.00
         C 493.00,863.00 523.75,891.50 518.25,908.25
           512.75,925.00 515.50,946.50 516.00,948.50
           516.50,950.50 549.75,949.75 559.25,960.75
           568.75,971.75 568.75,938.50 592.75,963.75
           590.75,956.25 567.75,950.25 565.50,957.50
           563.25,964.75 520.50,934.00 515.50,952.00
           510.50,970.00 512.50,974.75 515.75,981.25
           519.00,987.75 551.25,975.00 565.75,1002.50
           580.25,1030.00 568.00,983.50 517.00,978.50
           501.00,976.50 510.00,1005.25 511.75,1013.25
           513.50,1021.25 519.75,1094.00 507.00,1112.75
           494.25,1131.50 485.75,1194.75 507.25,1212.25
           528.75,1229.75 529.00,1240.25 540.00,1241.25M 399.50,1024.25
         C 399.50,1024.25 387.50,1069.00 440.75,1073.00
           454.50,1073.50 441.00,1121.25 462.75,1143.25
           466.00,1147.50 475.00,1163.50 493.75,1166.25M 462.75,1143.00
         C 463.00,1143.00 499.25,1105.00 509.25,1109.00M 449.25,1094.50
         C 475.25,1101.75 484.75,1071.25 514.75,1075.00M 352.25,1021.25
         C 352.25,1021.25 328.50,948.00 326.75,934.00M 351.75,967.25
         C 351.75,967.25 356.50,954.75 356.50,954.75
           356.50,954.75 371.50,955.75 371.50,955.75M 424.50,894.75
         C 424.50,894.75 433.00,922.50 433.00,922.50M 448.00,907.75
         C 448.00,907.75 450.25,920.25 450.25,920.25M 464.75,881.75
         C 464.75,881.75 470.00,912.00 470.00,912.00M 468.00,894.00
         C 468.00,894.00 502.75,883.00 502.50,876.50M 544.50,881.00
         C 544.50,881.00 535.25,868.00 535.25,868.00M 599.25,832.00
         C 599.25,832.00 597.50,860.25 587.25,872.75M 546.25,845.25
         C 546.25,845.25 559.00,857.25 559.00,857.25M 507.75,904.75
         C 507.75,904.75 486.25,911.00 489.50,899.25
           492.75,887.50 502.00,904.00 504.00,907.50" />
  <path id="North Brookline"
      fill="none" stroke="#E17C05" stroke-width="6"
      d="M 1436.33,266.67
         C 1397.33,228.67 1375.33,241.67 1368.00,239.67
           1354.71,235.36 1336.00,237.67 1344.33,232.67
           1352.67,227.67 1346.67,279.33 1326.67,293.33M 1405.00,330.67
         C 1405.00,330.67 1448.67,256.00 1444.67,228.67
           1442.71,215.26 1445.41,191.45 1445.67,163.33
           1445.94,134.12 1443.82,100.50 1444.67,82.67M 1451.00,314.00
         C 1444.67,281.67 1433.67,282.67 1429.67,282.67M 1365.67,320.00
         C 1373.00,323.67 1414.33,249.33 1414.33,249.33M 1362.67,281.33
         C 1357.00,295.33 1360.00,304.67 1376.33,312.33M 1418.67,307.67
         C 1418.67,307.67 1361.33,281.33 1361.33,281.33M 1438.67,261.33
         C 1455.67,268.33 1497.33,270.33 1514.00,256.67M 1390.00,184.00
         C 1472.67,208.00 1585.67,158.33 1579.67,266.00M 1403.67,187.33
         C 1406.00,192.67 1393.00,236.33 1394.00,241.33M 1423.67,189.33
         C 1416.00,240.33 1423.33,238.00 1437.00,236.00
           1450.67,234.00 1518.67,236.67 1529.33,282.67M 1476.67,305.00
         C 1471.00,288.67 1483.33,116.67 1498.67,94.00M 1530.67,283.00
         C 1537.00,280.33 1490.67,239.33 1503.00,193.00M 1464.33,190.67
         C 1465.33,195.00 1458.33,236.00 1458.33,236.00M 1413.67,172.33
         C 1411.00,177.00 1407.33,185.33 1411.67,189.33M 1403.67,73.67
         C 1403.67,86.67 1400.00,146.67 1428.00,161.33
           1456.00,176.00 1523.33,163.33 1528.33,164.33
           1533.33,165.33 1538.00,108.33 1540.33,97.67M 1402.33,94.67
         C 1402.33,94.67 1444.33,102.00 1444.33,102.00M 1405.00,117.33
         C 1405.00,117.33 1445.67,123.00 1445.67,123.00M 1407.67,132.00
         C 1407.67,132.00 1445.67,141.00 1445.67,141.00M 1445.33,130.00
         C 1445.33,130.00 1549.33,148.33 1574.67,150.00
           1600.00,151.67 1589.50,117.75 1596.33,107.33M 1444.33,110.67
         C 1444.33,110.67 1591.83,131.75 1592.50,131.75M 1566.67,127.33
         C 1566.67,127.33 1550.33,167.00 1567.33,171.67
           1573.25,174.25 1583.00,173.50 1583.00,173.50M 1554.75,187.75
         C 1636.50,183.50 1611.50,215.25 1602.00,233.00
           1615.75,226.75 1628.50,223.50 1632.50,223.00M 1582.25,188.25
         C 1582.25,188.25 1587.75,146.75 1587.75,146.75M 1592.00,139.00
         C 1594.00,129.00 1666.25,153.25 1681.75,158.25M 1603.25,192.75
         C 1613.00,188.75 1614.25,144.75 1614.50,138.50M 1618.25,140.00
         C 1624.00,138.25 1603.50,168.50 1626.00,170.50
           1648.50,172.50 1676.00,176.25 1680.50,180.00M 1636.25,243.00
         C 1626.50,226.25 1633.25,148.25 1636.25,144.50M 1603.25,192.25
         C 1619.75,195.50 1680.50,184.00 1684.75,223.75
           1678.00,193.25 1682.25,138.25 1689.25,122.50M 1643.50,222.75
         C 1650.50,217.75 1677.75,213.75 1679.75,210.00M 1631.50,114.50
         C 1629.75,124.00 1630.75,143.25 1630.75,143.25
           1630.75,143.25 1602.25,122.00 1596.00,107.25M 1546.00,278.33
         C 1534.33,261.67 1512.67,197.67 1524.00,164.33M 1539.00,198.00
         C 1548.67,189.67 1512.00,286.00 1577.67,235.67" />
  <path id="Rich Area"
      fill="none" stroke="#CC503E" stroke-width="6"
      d="M 962.00,903.50
         C 972.00,910.00 975.50,956.00 955.50,972.00
           935.50,988.00 893.50,1039.00 927.50,1074.00
           961.50,1109.00 948.50,1103.00 949.50,1104.00
           950.50,1105.00 980.00,1028.33 978.33,1018.33
           976.67,1008.33 983.00,1014.33 983.67,1016.00
           984.33,1017.67 958.67,1105.67 955.33,1117.00
           952.00,1128.33 970.00,1128.00 972.67,1126.00
           973.56,1125.33 977.64,1123.25 980.67,1116.33
           980.67,1094.00 993.33,1080.56 990.00,1101.00
           989.00,1110.67 972.33,1124.00 976.00,1133.00
           979.67,1142.00 989.67,1137.33 993.00,1129.00
           996.33,1120.67 1009.67,1107.33 997.00,1132.33
           990.67,1141.33 985.33,1145.00 981.33,1148.67
           977.33,1152.33 964.67,1174.00 958.00,1173.00
           951.33,1172.00 944.00,1166.33 948.00,1159.33
           952.00,1152.33 967.00,1124.67 977.33,1138.00
           987.67,1151.33 975.33,1156.33 970.67,1160.00
           966.00,1163.67 956.67,1177.00 958.67,1181.00
           960.67,1185.00 945.00,1185.33 942.00,1186.00
           939.00,1186.67 952.67,1175.67 965.33,1185.00
           978.00,1194.33 971.67,1191.33 973.33,1195.33
           975.00,1199.33 952.00,1204.00 945.33,1204.67
           938.67,1205.33 971.33,1193.67 981.67,1199.00
           992.00,1204.33 998.00,1210.67 1002.33,1216.67
           1006.67,1222.67 997.00,1230.67 995.67,1232.33
           994.33,1234.00 996.33,1256.67 993.00,1258.67
           989.67,1260.67 990.00,1239.67 992.00,1234.33
           994.00,1229.00 1052.00,1249.00 1061.00,1254.00
           1070.00,1259.00 1110.00,1262.67 1111.00,1267.33
           1112.00,1272.00 1074.67,1335.33 1072.00,1339.33M 1002.67,1217.00
         C 1002.67,1217.00 981.00,1231.67 955.33,1235.00
           944.64,1236.39 922.93,1238.46 904.67,1255.00
           890.00,1272.33 882.67,1304.67 856.00,1319.33M 955.33,1236.33
         C 955.33,1236.33 932.00,1191.45 934.33,1178.67
           935.45,1163.64 943.27,1110.91 949.82,1103.82M 1002.25,1217.25
         C 1002.25,1217.25 1015.88,1191.12 1017.12,1174.25
           1017.25,1171.50 1005.75,1172.25 1006.25,1171.00
           1006.75,1169.75 1006.62,1148.38 1004.50,1159.50
           1002.38,1170.62 1011.75,1172.75 1017.12,1173.50
           1020.00,1173.88 1037.75,1131.00 1048.12,1117.38
           1065.25,1094.75 1078.38,1100.88 1110.12,1108.50
           1141.88,1116.12 1148.50,1094.50 1152.50,1093.50
           1156.50,1092.50 1145.50,1074.50 1177.00,1078.50
           1187.00,1079.50 1201.00,1045.50 1196.50,1024.50
           1192.00,1003.50 1215.09,1003.45 1216.73,1002.00
           1221.64,998.91 1195.09,1010.36 1184.91,999.82
           1174.73,989.27 1191.09,1003.64 1196.91,1006.18
           1202.73,1008.73 1226.55,1000.91 1230.91,998.18
           1235.27,995.45 1270.36,1002.00 1283.82,1001.82
           1297.27,1001.64 1330.67,979.00 1335.67,975.00
           1340.67,971.00 1313.33,972.00 1327.67,1003.33M 1230.67,998.33
         C 1230.67,998.33 1210.33,986.00 1211.33,965.67
           1212.33,945.33 1167.33,920.67 1160.00,910.33M 1183.67,864.33
         C 1183.67,864.33 1237.33,945.33 1269.67,896.00
           1290.33,871.00 1338.33,940.33 1329.00,979.00M 1270.33,896.00
         C 1270.33,896.00 1275.00,820.00 1275.33,809.33
           1275.67,798.67 1335.00,819.67 1315.00,859.33
           1312.00,864.67 1328.33,870.67 1329.67,871.00M 1274.67,838.33
         C 1274.67,838.33 1235.67,849.00 1233.67,819.00
           1231.67,789.00 1215.67,761.00 1216.33,758.00
           1217.00,755.00 1223.00,754.67 1226.00,755.67
           1229.00,756.67 1234.00,768.00 1233.00,770.00
           1232.00,772.00 1222.33,753.67 1228.67,751.33
           1235.00,749.00 1260.33,736.33 1268.00,763.00
           1275.67,789.67 1273.67,808.00 1274.67,811.00M 1166.25,1080.25
         C 1172.88,1086.00 1183.00,1105.25 1183.88,1110.00
           1185.25,1115.00 1245.62,1147.12 1243.50,1161.38M 1135.88,1107.50
         C 1135.88,1107.50 1146.00,1177.12 1142.50,1185.75
           1139.00,1194.38 1149.88,1208.12 1148.88,1219.00
           1147.88,1229.88 1148.00,1253.62 1148.00,1253.62" />
  <path id="Walnut St Area"
      fill="none" stroke="#94346E" stroke-width="6"
      d="M 1164.67,753.67
         C 1165.33,740.00 1243.00,751.00 1264.67,736.33
           1286.33,721.67 1369.50,685.50 1372.62,684.12
           1375.75,682.75 1391.50,672.50 1402.25,671.50
           1413.00,670.50 1409.00,685.75 1408.00,688.00
           1407.00,690.25 1386.00,693.75 1386.50,705.00
           1387.00,716.25 1402.25,728.75 1404.75,728.50
           1407.25,728.25 1410.75,718.75 1413.00,714.50
           1415.25,710.25 1426.00,699.25 1427.00,696.50
           1428.00,693.75 1433.75,682.25 1431.00,677.50
           1428.25,672.75 1419.00,662.50 1416.50,662.00
           1414.00,661.50 1408.25,664.50 1403.75,669.75
           1401.75,672.25 1418.00,686.00 1421.25,690.00
           1424.50,694.00 1437.25,709.50 1438.50,715.50
           1439.75,721.50 1413.25,774.25 1407.75,782.75
           1402.25,791.25 1385.25,842.50 1375.25,845.75
           1365.25,849.00 1317.50,810.75 1313.50,788.50
           1309.50,766.25 1282.00,779.00 1271.25,775.50
           1267.50,774.75 1270.50,785.50 1282.00,775.25
           1293.50,765.00 1304.75,752.75 1313.00,774.00M 1311.50,786.00
         C 1311.50,786.00 1319.25,776.75 1316.25,762.00
           1313.25,747.25 1289.00,726.75 1287.25,724.00M 1286.00,748.75
         C 1286.00,748.75 1299.75,736.50 1299.75,736.50M 1295.25,754.25
         C 1295.25,754.25 1307.75,745.50 1307.75,745.50M 1308.50,746.25
         C 1308.50,746.25 1314.00,752.50 1322.00,758.75
           1330.00,765.00 1333.50,747.25 1344.75,746.75
           1347.00,744.50 1326.75,750.00 1322.00,758.75
           1320.25,765.50 1330.50,771.75 1333.75,777.00
           1337.00,782.25 1340.00,792.75 1365.25,772.50M 1356.75,760.50
         C 1356.75,760.50 1332.50,775.50 1332.50,775.50M 1340.00,786.25
         C 1340.00,786.25 1352.25,795.25 1356.25,800.00
           1360.25,804.75 1339.50,822.50 1346.25,824.75
           1353.00,827.00 1358.00,809.00 1361.25,803.00
           1364.50,797.00 1373.25,804.25 1374.75,813.00
           1376.25,821.75 1364.25,836.00 1359.25,839.50
           1354.25,843.00 1373.00,815.00 1377.00,816.75
           1381.00,818.50 1378.50,837.75 1378.50,844.00M 1321.25,741.00
         C 1321.25,741.00 1297.50,730.25 1291.75,722.00M 1322.50,706.50
         C 1322.50,706.50 1334.75,724.00 1336.50,728.25
           1338.25,732.50 1333.50,732.00 1332.25,732.25
           1331.00,732.50 1339.00,722.00 1356.50,742.25
           1360.00,746.75 1346.00,733.75 1345.75,733.00
           1345.50,732.25 1339.50,736.00 1343.50,743.50
           1347.50,751.00 1382.00,784.25 1364.25,792.25
           1356.25,797.50 1369.50,806.50 1372.50,810.25
           1375.50,814.00 1384.50,827.75 1387.50,829.50M 1388.75,823.25
         C 1388.75,823.25 1398.25,842.75 1404.75,846.50
           1411.25,850.25 1413.00,846.25 1404.00,837.50
           1400.50,834.39 1403.61,828.89 1403.00,824.25
           1402.43,819.95 1398.26,816.50 1392.25,813.25M 1395.25,811.25
         C 1395.25,811.25 1408.00,822.00 1408.25,801.75M 1384.50,788.00
         C 1384.50,788.00 1400.75,798.25 1400.75,798.25M 1389.75,777.75
         C 1389.75,777.75 1406.00,786.00 1406.00,786.00
           1406.00,786.00 1427.50,792.50 1441.00,804.00
           1454.50,815.50 1463.25,811.00 1479.25,799.50
           1496.26,788.81 1507.25,800.75 1510.50,812.25
           1512.44,819.13 1504.85,806.62 1497.75,801.25
           1492.98,797.65 1489.06,798.86 1486.75,795.75
           1482.25,789.50 1488.50,770.25 1489.75,764.50
           1491.00,758.75 1499.75,724.75 1496.00,713.50
           1492.25,702.25 1453.75,696.25 1446.00,699.25
           1438.25,702.25 1438.75,716.25 1438.75,716.25M 1479.75,702.75
         C 1479.75,702.75 1458.50,748.25 1458.50,748.25M 1494.00,710.50
         C 1494.00,710.50 1473.00,755.00 1473.00,755.00M 1430.75,736.75
         C 1430.75,736.75 1489.50,764.75 1489.50,764.75M 1427.00,743.75
         C 1427.00,743.75 1447.25,762.75 1444.75,774.50
           1443.13,782.09 1441.99,771.21 1437.00,759.50
           1434.27,753.09 1425.90,745.59 1424.75,744.00M 1431.75,678.00
         C 1431.75,678.00 1457.25,649.50 1445.75,698.50
           1444.50,703.75 1458.50,644.50 1458.25,639.50M 1417.00,662.00
         C 1417.00,662.00 1434.15,654.53 1456.25,649.25
           1467.92,646.46 1486.00,644.25 1493.00,644.25
           1499.00,644.50 1502.50,648.25 1505.75,652.25
           1510.25,657.50 1494.50,647.50 1491.75,637.25
           1489.00,627.00 1499.75,652.25 1471.75,680.00
           1465.00,685.50 1485.00,692.00 1485.00,692.00M 1470.75,654.00
         C 1470.75,654.00 1479.50,662.50 1487.75,658.50M 1538.00,635.25
         C 1538.00,635.25 1505.25,709.00 1496.00,714.25M 1483.25,797.75
         C 1483.25,797.75 1475.00,823.25 1478.50,831.75
           1482.00,840.25 1463.50,852.50 1451.00,853.25
           1438.50,854.00 1428.25,865.50 1425.00,865.75
           1421.75,866.00 1420.00,917.25 1420.25,917.25
           1425.25,925.00 1422.50,843.00 1423.00,840.25
           1422.25,819.25 1431.50,797.50 1403.75,791.25M 1377.50,845.00
         C 1377.50,845.00 1404.50,883.25 1421.50,884.50
           1426.25,882.50 1422.50,871.00 1411.75,880.00M 1360.75,689.50
         C 1360.75,689.50 1365.60,697.70 1371.00,706.50
           1376.64,715.68 1388.25,720.50 1378.00,730.50
           1374.00,736.00 1389.75,729.75 1386.00,753.25M 1395.75,718.50
         C 1395.75,718.50 1414.50,712.50 1414.50,712.50" />
  <g id="links">
    <a href="#0-packards-corner"><text x="1300" y="200" fill="black">0</text></a>
    <a href="#1-north-brookline"><text x="1500" y="200" fill="black">1</text></a>
    <a href="#2-corey-hill"><text x="1150" y="345" fill="black">2</text></a>
    <a href="#3-trader-joes"><text x="1475" y="420" fill="black">3</text></a>
    <a href="#4-aspinwall-hill"><text x="1125" y="525" fill="black">4</text></a>
    <a href="#5-brookline-village"><text x="1300" y="625" fill="black">5</text></a>
    <a href="#6-fisher-hill"><text x="900" y="675" fill="black">6</text></a>
    <a href="#7-high-street"><text x="1375" y="775" fill="black">7</text></a>
    <a href="#8-brookline-reservoir"><text x="950" y="875" fill="black">8</text></a>
    <a href="#9-jamaica-pond"><text x="550" y="925" fill="black">9</text></a>
    <a href="#10-west-brookline"><text x="1125" y="1000" fill="black">10</text></a>
    <a href="#11-walnut-hill"><text x="550" y="1425" fill="black">11</text></a>
    <a href="#12-south-brookline"><text x="775" y="1600" fill="black">12</text></a>
    <a href="#13-holyhood-cemetary"><text x="425" y="975" fill="black">13</text></a>
    <a href="#14-walnut-hills-cemetary"><text x="850" y="1450" fill="black">14</text></a>
  </g>
  
</svg>
